<?xml version="1.0" encoding="utf-8"?>
<!-- Generator: Adobe Illustrator 24.0.0, SVG Export Plug-In . SVG Version: 6.00 Build 0)  -->
<svg version="1.1" id="main" xmlns="http://www.w3.org/2000/svg" xmlns:xlink="http://www.w3.org/1999/xlink" x="0px" y="0px"
	 viewBox="0 0 1000 1000" style="enable-background:new 0 0 1000 1000;" xml:space="preserve">
<style type="text/css">
	.st0{fill:#FFFFFF;fill-opacity:0;}
</style>
<title>arrow</title>
<rect id="frame" class="st0" width="1000" height="1000"/>
<path d="M820.8,470.7H239l222.8-212.2c11.5-11.3,11.7-29.8,0.4-41.3c-11.1-11.3-29.1-11.7-40.6-1L167.1,458.6
	c-22.8,22.8-22.8,59.7,0,82.5l0,0c0.2,0.2,0.4,0.3,0.5,0.5l254,241.9c11.7,11.1,30.2,10.5,41.2-1.2c11-11.6,10.5-29.9-1-41l0,0
	L238,529h582.8c16.1,0,29.2-13.1,29.2-29.2C850,483.7,836.9,470.7,820.8,470.7L820.8,470.7L820.8,470.7z"/>
</svg>
