<svg width="10" height="13" viewBox="0 0 10 13" fill="none" xmlns="http://www.w3.org/2000/svg">
<path d="M9.625 9.498C9.625 10.1553 9.49467 10.7107 9.234 11.164C8.97333 11.606 8.62767 11.963 8.197 12.235C7.76633 12.507 7.27333 12.7053 6.718 12.83C6.174 12.9433 5.613 13 5.035 13H0.241V0.964H5.035C5.49967 0.964 5.97567 1.015 6.463 1.117C6.95033 1.20767 7.39233 1.372 7.789 1.61C8.18567 1.83667 8.50867 2.14833 8.758 2.545C9.00733 2.94167 9.132 3.446 9.132 4.058C9.132 4.72667 8.95067 5.282 8.588 5.724C8.22533 6.15467 7.74933 6.46633 7.16 6.659V6.693C7.5 6.74967 7.81733 6.85733 8.112 7.016C8.418 7.16333 8.67867 7.356 8.894 7.594C9.12067 7.832 9.29633 8.10967 9.421 8.427C9.557 8.74433 9.625 9.10133 9.625 9.498ZM6.327 4.449C6.327 4.041 6.16833 3.74633 5.851 3.565C5.545 3.37233 5.086 3.276 4.474 3.276H3.046V5.758H4.61C5.154 5.758 5.57333 5.65033 5.868 5.435C6.174 5.20833 6.327 4.87967 6.327 4.449ZM6.718 9.226C6.718 8.72733 6.531 8.38167 6.157 8.189C5.783 7.99633 5.28433 7.9 4.661 7.9H3.046V10.654H4.678C4.90467 10.654 5.137 10.637 5.375 10.603C5.62433 10.5577 5.84533 10.484 6.038 10.382C6.242 10.28 6.40633 10.1383 6.531 9.957C6.65567 9.76433 6.718 9.52067 6.718 9.226Z" fill="white"/>
</svg>
