<svg width="24" height="24" viewBox="0 0 24 24" fill="none" xmlns="http://www.w3.org/2000/svg">
<g opacity="0.5">
<path opacity="0.4" fill-rule="evenodd" clip-rule="evenodd" d="M8.947 5.08158H15.0897V3.65137H8.947V5.08158ZM7.54965 3.71011V3.71723C7.07015 3.76084 6.59578 3.85607 6.13429 3.99935V3.99401C6.12057 3.99979 6.10765 4.00423 6.09526 4.00849C6.07898 4.01408 6.06361 4.01936 6.04851 4.02694C6.01163 4.03584 5.9756 4.04919 5.94129 4.0661C5.84007 4.09903 5.73885 4.13819 5.64363 4.17824C5.61833 4.18803 5.59302 4.19938 5.56772 4.21073L5.56772 4.21073L5.56771 4.21073C5.54241 4.22208 5.51711 4.23342 5.4918 4.24321C5.45707 4.25967 5.42083 4.27769 5.38459 4.29571L5.38458 4.29572L5.38456 4.29573C5.34832 4.31375 5.31209 4.33177 5.27735 4.34823L5.10579 4.44702C5.07407 4.4632 5.04471 4.48217 5.01475 4.50153C4.99691 4.51306 4.97886 4.52473 4.95997 4.53602C4.70177 4.70245 4.46245 4.89736 4.24628 5.11896L4.23342 5.13231C4.20502 5.16541 4.17675 5.19752 4.14886 5.2292C4.10176 5.2827 4.05575 5.33497 4.0121 5.38863L3.99924 5.40109C3.29756 6.3694 2.94586 7.56288 3.00677 8.77238V9.15597H4.39211V8.76882C4.39211 7.08318 4.92909 6.03388 6.124 5.49632C6.58034 5.30319 7.06243 5.18393 7.55308 5.14032H7.56595V3.71634L7.54965 3.71011ZM19.998 5.38329L20.004 5.39575C20.7048 6.36495 21.0548 7.55932 20.993 8.76882V9.15597H19.6085V8.75903C19.6377 8.04526 19.4945 7.33505 19.1908 6.69336C18.8991 6.14424 18.4325 5.71793 17.8689 5.48653C17.4203 5.2934 16.9451 5.17325 16.4604 5.13053V3.71367C16.9399 3.75817 17.4143 3.85251 17.8767 3.99579V3.98867C17.9026 4.00046 17.9225 4.00747 17.9565 4.0195L17.9624 4.0216C17.9782 4.02719 17.993 4.03277 18.0075 4.03829C18.0278 4.04597 18.0477 4.05352 18.0697 4.06076C18.1645 4.09188 18.2532 4.12856 18.3445 4.16629L18.3605 4.1729C18.4026 4.18769 18.4422 4.20604 18.478 4.22257C18.4896 4.22792 18.5007 4.23308 18.5114 4.23787C18.5869 4.2708 18.6641 4.30996 18.7259 4.34289C18.7671 4.36426 18.8072 4.38714 18.8448 4.40859C18.8652 4.42019 18.8848 4.43137 18.9034 4.44168C18.9342 4.45865 18.9609 4.47681 18.9866 4.49428C19.0054 4.50703 19.0236 4.51941 19.0424 4.53068C19.3015 4.698 19.5434 4.8938 19.7621 5.11362L19.7698 5.12697C19.8504 5.20796 19.9268 5.2934 19.998 5.38329Z" fill="#2C3D56"/>
<path d="M16.4996 2.71693V5.86846C16.4996 6.26555 16.1774 6.58717 15.7796 6.58717C15.3818 6.58717 15.0596 6.26555 15.0596 5.86846V2.72412C15.056 2.32703 15.3764 2.00271 15.7742 2.00002C16.172 1.99732 16.4969 2.31625 16.4996 2.71333V2.71693Z" fill="#2C3D56"/>
<path d="M8.94 2.72834V5.87209C8.94 6.27089 8.61741 6.59425 8.21955 6.59425C7.82169 6.59425 7.5 6.27089 7.5 5.87209V2.72834C7.5 2.32954 7.82169 2.00708 8.21955 2.00708C8.61741 2.00708 8.94 2.32954 8.94 2.72834Z" fill="#2C3D56"/>
<path fill-rule="evenodd" clip-rule="evenodd" d="M3 16.9103V9.15601H21V16.9103C21 20.2917 19.1116 22.0001 15.3691 22.0001H8.62232C4.88841 22.0001 3 20.2917 3 16.9103ZM7.06009 13.4669C7.06009 13.936 7.42918 14.3167 7.88412 14.3167C8.34764 14.3167 8.71674 13.9272 8.70815 13.458C8.70815 12.9889 8.33906 12.6082 7.8927 12.6082H7.88412C7.42918 12.6082 7.06009 12.9977 7.06009 13.4669ZM11.1717 13.4669C11.1717 13.936 11.5494 14.3167 12.0043 14.3167C12.4592 14.3167 12.8283 13.936 12.8283 13.458C12.8283 12.9977 12.4592 12.6171 12.0043 12.6082H11.9957C11.5408 12.6171 11.1717 12.9977 11.1717 13.4669ZM16.1159 14.3167C15.6609 14.3167 15.2918 13.936 15.2918 13.4669C15.2918 12.9977 15.6524 12.6171 16.1159 12.6171C16.5708 12.6171 16.9399 12.9977 16.9399 13.4669C16.9399 13.936 16.5708 14.3167 16.1159 14.3167ZM16.1159 17.9459C15.6609 17.9459 15.2918 17.5653 15.2833 17.0961C15.2833 16.627 15.6524 16.2464 16.1073 16.2464H16.1159C16.5708 16.2464 16.9399 16.627 16.9399 17.0961C16.9399 17.5653 16.5708 17.9459 16.1159 17.9459ZM12.0043 17.9459C11.5494 17.9459 11.1717 17.5653 11.1717 17.0961C11.1717 16.627 11.5408 16.2464 11.9957 16.2375H12.0043C12.4592 16.2464 12.8197 16.627 12.8283 17.0873C12.8283 17.5653 12.4592 17.9459 12.0043 17.9459ZM7.88412 17.9459C7.42918 17.9459 7.06009 17.5653 7.06009 17.0961C7.0515 16.627 7.4206 16.2375 7.88412 16.2375C8.33906 16.2375 8.70815 16.6181 8.70815 17.0873C8.70815 17.5564 8.33906 17.9459 7.88412 17.9459Z" fill="#2C3D56"/>
</g>
</svg>
