<svg id="main" xmlns="http://www.w3.org/2000/svg" viewBox="0 0 1000 1000"><defs><style>.cls-1{fill:#fff;opacity:0;}.cls-2{fill:#ff7052;}</style></defs><title>crop_selected_w</title><rect id="frame" class="cls-1" width="1000" height="1000"/><g id="crop"><path class="cls-2" d="M713.3,850c-11.83-5.45-15.56-14.81-15.23-27.54.65-25,.19-50.11.19-75.17v-8h-8.61q-175.64,0-351.28,0c-37.34,0-67.05-22.76-75.41-58a94.51,94.51,0,0,1-2.12-21.65q-.19-174.27-.09-348.54v-9.31H253.4c-25.28,0-50.58-.46-75.85.19-12.73.33-22.08-3.41-27.55-15.23V275.76c5.46-11.83,14.82-15.56,27.55-15.23,25,.65,50.12.17,75.18.16h8V252q0-39.31,0-78.61c0-14,8.14-23.27,20.3-23.39,12.42-.13,20.69,9.3,20.71,23.68,0,28.68,0,57.37,0,87H310q176,0,352,0c37.19,0,67,23.06,75.17,58.32a97.65,97.65,0,0,1,2,21.68q.18,174.3.08,348.6v8.89H747q40,0,80,0c13.77,0,23.13,8.51,23,20.71-.14,11.95-9.35,20.25-22.73,20.28q-40,.09-80,0h-8v27.12c0,18.68-.54,37.39.16,56,.48,12.74-3.41,22.09-15.22,27.55ZM301.76,301.74V659c0,25.79,13.38,39.24,39,39.24H698.26v-5.66q0-177.33,0-354.68c0-22.07-14.62-36.15-37.29-36.15q-112.07,0-224.15,0Z"/></g></svg>