<svg width="15" height="14" viewBox="0 0 15 14" fill="none" xmlns="http://www.w3.org/2000/svg">
<path d="M10.5251 6.99967L14.3732 3.40764C15.2089 2.62745 15.2089 1.36532 14.3732 0.585136C13.5374 -0.195045 12.1824 -0.195045 11.3466 0.585136L7.49857 4.1745L3.65337 0.585136C2.81758 -0.195045 1.46263 -0.195045 0.626842 0.585136C-0.208947 1.36532 -0.208947 2.62745 0.626842 3.40764L4.4749 6.99967L0.626842 10.5917C-0.208947 11.3719 -0.208947 12.634 0.626842 13.4142C1.04616 13.8056 1.59385 14 2.14153 14C2.68636 14 3.23405 13.8056 3.65337 13.4142L7.49857 9.82483L11.3466 13.4142C11.766 13.8056 12.3108 14 12.8585 14C13.4062 14 13.9538 13.8056 14.3732 13.4142C15.2089 12.634 15.2089 11.3719 14.3732 10.5917L10.5251 6.99967Z" fill="#374A5E"/>
</svg>
