<svg width="42" height="42" viewBox="0 0 42 42" fill="none" xmlns="http://www.w3.org/2000/svg">
<path opacity="0.4" d="M32.9154 15.7867C32.1253 15.7867 31.0787 15.7692 29.7756 15.7692C26.5977 15.7692 23.9847 13.139 23.9847 9.93125V4.30325C23.9847 3.8605 23.6312 3.5 23.1928 3.5H13.9363C9.61654 3.5 6.125 7.0455 6.125 11.3907V30.247C6.125 34.8057 9.78289 38.5 14.2968 38.5H28.081C32.3852 38.5 35.875 34.9772 35.875 30.6285V16.5743C35.875 16.1298 35.5232 15.771 35.0831 15.7727C34.3432 15.778 33.456 15.7867 32.9154 15.7867Z" fill="#5DC8AC"/>
<path opacity="0.4" d="M28.1467 4.4929C27.6235 3.94865 26.71 4.32315 26.71 5.0774V9.69215C26.71 11.6276 28.3042 13.2201 30.2397 13.2201C31.4595 13.2341 33.1535 13.2376 34.592 13.2341C35.3287 13.2324 35.7032 12.3521 35.1922 11.8201C33.346 9.9004 30.0402 6.4599 28.1467 4.4929Z" fill="#5DC8AC"/>
<path fill-rule="evenodd" clip-rule="evenodd" d="M15.7043 19.928H21.6281C22.3473 19.928 22.9318 19.3453 22.9318 18.626C22.9318 17.9068 22.3473 17.3223 21.6281 17.3223H15.7043C14.9851 17.3223 14.4023 17.9068 14.4023 18.626C14.4023 19.3453 14.9851 19.928 15.7043 19.928ZM15.7044 28.668H25.2314C25.9507 28.668 26.5352 28.0852 26.5352 27.366C26.5352 26.6467 25.9507 26.0622 25.2314 26.0622H15.7044C14.9852 26.0622 14.4024 26.6467 14.4024 27.366C14.4024 28.0852 14.9852 28.668 15.7044 28.668Z" fill="#5DC8AC"/>
</svg>
