<?xml version="1.0" encoding="utf-8"?>
<!-- Generator: Adobe Illustrator 24.0.0, SVG Export Plug-In . SVG Version: 6.00 Build 0)  -->
<svg version="1.1" id="main" xmlns="http://www.w3.org/2000/svg" xmlns:xlink="http://www.w3.org/1999/xlink" x="0px" y="0px"
	 viewBox="0 0 1000 1000" style="enable-background:new 0 0 1000 1000;" xml:space="preserve">
<style type="text/css">
	.st0{fill:#FFFFFF;fill-opacity:0;}
	.st1{fill:#FFFFFF;}
</style>
<title>drag_anchor</title>
<rect id="frame" class="st0" width="1000" height="1000"/>
<path class="st1" d="M820.8,529.2H179.2c-16.1,0.3-29.4-12.5-29.7-28.6c-0.3-16.1,12.5-29.4,28.6-29.7c0.4,0,0.7,0,1.1,0h641.7
	c16.1-0.3,29.4,12.5,29.7,28.6s-12.5,29.4-28.6,29.7C821.5,529.2,821.2,529.2,820.8,529.2z"/>
<path class="st1" d="M820.8,305.6H179.2c-16.1,0-29.2-13-29.2-29.2c0-16.1,13-29.2,29.2-29.2c0,0,0,0,0,0h641.7
	c16.1,0,29.2,13.1,29.2,29.2C850,292.5,836.9,305.6,820.8,305.6z"/>
<path class="st1" d="M820.8,752.8H179.2c-16.1,0-29.2-13.1-29.2-29.2c0-16.1,13.1-29.2,29.2-29.2h641.7c16.1,0,29.2,13.1,29.2,29.2
	C850,739.7,836.9,752.8,820.8,752.8z"/>
</svg>
