<svg id="main" xmlns="http://www.w3.org/2000/svg" viewBox="0 0 1000 1000"><defs><style>.cls-1,.cls-2{fill:#fff;}.cls-1{opacity:0;}</style></defs><title>drag_w</title><rect id="frame" class="cls-1" width="1000" height="1000"/><g id="_9kXnFP.tif" data-name="9kXnFP.tif"><path class="cls-2" d="M474.59,763.85V525.44H236.41c2.27,2.49,3.86,4.38,5.6,6.12,16.37,16.39,32.84,32.67,49.12,49.15,11.3,11.44,11.79,26.57,1.53,36.83s-25.47,9.84-36.81-1.45q-48.67-48.51-97.13-97.22c-11.67-11.73-11.61-26.16.1-37.92q48.5-48.68,97.16-97.19c11.26-11.23,26.55-11.65,36.77-1.3s9.62,25.44-1.68,36.82c-17.95,18.08-36,36-55.12,55H474.43V236.56c-2.27,2-4,3.42-5.54,5-16.58,16.54-33.09,33.16-49.73,49.65-11.34,11.23-26.54,11.76-36.81,1.49s-9.78-25.47,1.5-36.78q48.51-48.67,97.17-97.18c11.69-11.66,26.14-11.64,37.92.09q48.43,48.19,96.65,96.6c11.75,11.79,12.36,27,1.81,37.37s-25.53,9.55-37.39-2.25c-17.89-17.8-35.67-35.7-54.43-54.48V474.38h237.7c-1.95-2.17-3.47-4-5.16-5.73-16.91-17-34.08-33.66-50.7-50.89-14-14.47-7.57-37.27,11.46-42,8.72-2.15,16.73-.13,23.08,6.18q50.65,50.39,101,101.1a23.78,23.78,0,0,1-.08,33.9q-50.21,50.85-101,101.06c-9.85,9.73-24.93,9.12-34.5-.31a24.53,24.53,0,0,1-.43-35.08c16.7-17.16,33.8-33.93,50.71-50.88,1.77-1.77,3.42-3.67,5.87-6.31H525.28V763.36c2.15-1.84,3.84-3.09,5.32-4.56q24.87-24.82,49.71-49.68c11.68-11.63,27-12.25,37.36-1.66,10.16,10.36,9.51,25.37-1.88,36.81q-48.22,48.4-96.62,96.63C507.44,852.59,493,853.12,481.84,842Q432.25,792.78,383,743.2c-8.6-8.64-10.34-19.4-5.43-29.33,4.65-9.39,14.79-15.69,25-13.48a36.92,36.92,0,0,1,16.73,8.84C435.9,725,451.83,741.45,468,757.64,469.83,759.44,471.72,761.14,474.59,763.85Z"/></g></svg>