<svg id="main" xmlns="http://www.w3.org/2000/svg" viewBox="0 0 1000 1000"><defs><style>.cls-1{fill:#fff;opacity:0;}</style></defs><title>dublicate</title><rect id="frame" class="cls-1" width="1000" height="1000"/><path d="M654,150H178a28,28,0,0,0-28,28V654a28,28,0,0,0,28,28H654a28,28,0,0,0,28-28V178A28,28,0,0,0,654,150ZM626,626H206V206H626Z"/><path d="M794,724v70H724v56h98a28,28,0,0,0,28-28V724Z"/><rect x="508.68" y="794" width="150.64" height="56"/><path d="M374,794V724H318v98a28,28,0,0,0,28,28h98V794Z"/><path d="M822,318H724v56h70v70h56V346A28,28,0,0,0,822,318Z"/><rect x="794" y="508.68" width="56" height="150.64"/></svg>