<svg width="24" height="25" viewBox="0 0 24 25" fill="none" xmlns="http://www.w3.org/2000/svg">
<path opacity="0.4" d="M22 16.9402C22 19.7302 19.76 21.9902 16.97 22.0002H16.96H7.05C4.27 22.0002 2 19.7502 2 16.9602V16.9502C2 16.9502 2.006 12.5242 2.014 10.2982C2.015 9.88024 2.495 9.64624 2.822 9.90624C5.198 11.7912 9.447 15.2282 9.5 15.2732C10.21 15.8422 11.11 16.1632 12.03 16.1632C12.95 16.1632 13.85 15.8422 14.56 15.2622C14.613 15.2272 18.767 11.8932 21.179 9.97724C21.507 9.71624 21.989 9.95024 21.99 10.3672C22 12.5762 22 16.9402 22 16.9402Z" fill="#FF9D9D"/>
<path d="M21.4759 6.67351C20.6099 5.04151 18.9059 3.99951 17.0299 3.99951H7.04988C5.17388 3.99951 3.46988 5.04151 2.60388 6.67351C2.40988 7.03851 2.50188 7.49351 2.82488 7.75151L10.2499 13.6905C10.7699 14.1105 11.3999 14.3195 12.0299 14.3195C12.0339 14.3195 12.0369 14.3195 12.0399 14.3195C12.0429 14.3195 12.0469 14.3195 12.0499 14.3195C12.6799 14.3195 13.3099 14.1105 13.8299 13.6905L21.2549 7.75151C21.5779 7.49351 21.6699 7.03851 21.4759 6.67351Z" fill="#FF9D9D"/>
</svg>
