<svg width="160" height="160" viewBox="0 0 160 160" fill="none" xmlns="http://www.w3.org/2000/svg">
<path fill-rule="evenodd" clip-rule="evenodd" d="M80 160C124.183 160 160 124.183 160 80C160 35.8172 124.183 0 80 0C35.8172 0 0 35.8172 0 80C0 124.183 35.8172 160 80 160Z" fill="#E8F0FF"/>
<path d="M79.9914 88.4658C68.49 88.4658 58.666 90.2792 58.666 97.5325C58.666 104.788 68.4287 106.666 79.9914 106.666C91.4927 106.666 101.317 104.855 101.317 97.5991C101.317 90.3432 91.5567 88.4658 79.9914 88.4658Z" fill="#578AD6"/>
<path opacity="0.4" d="M79.9919 81.557C87.8265 81.557 94.1039 75.277 94.1039 67.445C94.1039 59.613 87.8265 53.333 79.9919 53.333C72.1599 53.333 65.8799 59.613 65.8799 67.445C65.8799 75.277 72.1599 81.557 79.9919 81.557Z" fill="#578AD6"/>
</svg>
