<svg width="36" height="36" viewBox="0 0 36 36" fill="none" xmlns="http://www.w3.org/2000/svg">
<g id="Iconly/Bulk/Paper">
<g id="Paper">
<path id="Fill 3" opacity="0.4" d="M28.2132 13.5315C27.536 13.5315 26.6389 13.5165 25.522 13.5165C22.7981 13.5165 20.5583 11.262 20.5583 8.5125V3.6885C20.5583 3.309 20.2553 3 19.8796 3H11.9454C8.24275 3 5.25 6.039 5.25 9.7635V25.926C5.25 29.8335 8.38533 33 12.2544 33H24.0694C27.7587 33 30.75 29.9805 30.75 26.253V14.2065C30.75 13.8255 30.4485 13.518 30.0712 13.5195C29.4371 13.524 28.6766 13.5315 28.2132 13.5315Z" fill="#578AD6"/>
<path id="Fill 1" opacity="0.4" d="M24.126 3.85093C23.6775 3.38443 22.8945 3.70543 22.8945 4.35193V8.30743C22.8945 9.96643 24.261 11.3314 25.92 11.3314C26.9655 11.3434 28.4175 11.3464 29.6505 11.3434C30.282 11.3419 30.603 10.5874 30.165 10.1314C28.5825 8.48593 25.749 5.53693 24.126 3.85093Z" fill="#578AD6"/>
<path id="Combined Shape" fill-rule="evenodd" clip-rule="evenodd" d="M13.4607 17.0813H18.5382C19.1547 17.0813 19.6557 16.5818 19.6557 15.9653C19.6557 15.3488 19.1547 14.8478 18.5382 14.8478H13.4607C12.8442 14.8478 12.3447 15.3488 12.3447 15.9653C12.3447 16.5818 12.8442 17.0813 13.4607 17.0813ZM13.4608 24.5725H21.6268C22.2433 24.5725 22.7443 24.073 22.7443 23.4565C22.7443 22.84 22.2433 22.339 21.6268 22.339H13.4608C12.8443 22.339 12.3448 22.84 12.3448 23.4565C12.3448 24.073 12.8443 24.5725 13.4608 24.5725Z" fill="#578AD6"/>
</g>
</g>
</svg>
