<svg width="46" height="46" viewBox="0 0 46 46" fill="none" xmlns="http://www.w3.org/2000/svg">
<g opacity="0.1" filter="url(#filter0_d)">
<path fill-rule="evenodd" clip-rule="evenodd" d="M22.9998 43C34.0455 43 42.9998 34.0457 42.9998 23C42.9998 11.9543 34.0455 3 22.9998 3C11.9541 3 2.99976 11.9543 2.99976 23C2.99976 34.0457 11.9541 43 22.9998 43Z" fill="#FEC021"/>
</g>
<path opacity="0.4" d="M12.9998 22.0781C13.0498 24.4161 13.1898 28.4151 13.2098 28.8561C13.2808 29.7991 13.6418 30.7521 14.2038 31.4241C14.9858 32.3671 15.9488 32.7881 17.2918 32.7881C19.1478 32.7981 21.1938 32.7981 23.1808 32.7981C25.1758 32.7981 27.1118 32.7981 28.7468 32.7881C30.0708 32.7881 31.0638 32.3561 31.8358 31.4241C32.3978 30.7521 32.7588 29.7891 32.8098 28.8561C32.8298 28.4851 32.9298 24.1441 32.9898 22.0781H12.9998Z" fill="#FEC021"/>
<path d="M22.245 26.3838V27.6778C22.245 28.0918 22.581 28.4278 22.995 28.4278C23.409 28.4278 23.745 28.0918 23.745 27.6778V26.3838C23.745 25.9698 23.409 25.6338 22.995 25.6338C22.581 25.6338 22.245 25.9698 22.245 26.3838" fill="#FEC021"/>
<path fill-rule="evenodd" clip-rule="evenodd" d="M21.2109 25.556C21.1109 25.919 20.7619 26.151 20.3839 26.101C17.8329 25.745 15.3949 24.84 13.3369 23.481C13.1259 23.343 12.9999 23.107 12.9999 22.855V19.389C12.9999 17.289 14.7119 15.581 16.8169 15.581H18.7839C18.9719 14.129 20.2019 13 21.7039 13H24.2859C25.7869 13 27.0179 14.129 27.2059 15.581H29.1829C31.2819 15.581 32.9899 17.289 32.9899 19.389V22.855C32.9899 23.107 32.8629 23.342 32.6539 23.481C30.5919 24.846 28.1439 25.755 25.5759 26.11C25.5409 26.115 25.5069 26.117 25.4729 26.117C25.1339 26.117 24.8309 25.888 24.7459 25.552C24.5439 24.756 23.8209 24.199 22.9899 24.199C22.1479 24.199 21.4329 24.744 21.2109 25.556ZM24.2859 14.5H21.7039C21.0309 14.5 20.4689 14.96 20.3009 15.581H25.6879C25.5199 14.96 24.9579 14.5 24.2859 14.5Z" fill="#FEC021"/>
<defs>
<filter id="filter0_d" x="-0.000244141" y="0" width="46" height="46" filterUnits="userSpaceOnUse" color-interpolation-filters="sRGB">
<feFlood flood-opacity="0" result="BackgroundImageFix"/>
<feColorMatrix in="SourceAlpha" type="matrix" values="0 0 0 0 0 0 0 0 0 0 0 0 0 0 0 0 0 0 127 0"/>
<feOffset/>
<feGaussianBlur stdDeviation="1.5"/>
<feColorMatrix type="matrix" values="0 0 0 0 0 0 0 0 0 0 0 0 0 0 0 0 0 0 0.15 0"/>
<feBlend mode="normal" in2="BackgroundImageFix" result="effect1_dropShadow"/>
<feBlend mode="normal" in="SourceGraphic" in2="effect1_dropShadow" result="shape"/>
</filter>
</defs>
</svg>
