<svg width="46" height="46" viewBox="0 0 46 46" fill="none" xmlns="http://www.w3.org/2000/svg">
<g opacity="0.1" filter="url(#filter0_d)">
<path fill-rule="evenodd" clip-rule="evenodd" d="M23 43C34.0457 43 43 34.0457 43 23C43 11.9543 34.0457 3 23 3C11.9543 3 3 11.9543 3 23C3 34.0457 11.9543 43 23 43Z" fill="#578AD6"/>
</g>
<path opacity="0.4" d="M12.9999 22.0781C13.0499 24.4161 13.1899 28.4151 13.2099 28.8561C13.2809 29.7991 13.6419 30.7521 14.2039 31.4241C14.9859 32.3671 15.9489 32.7881 17.2919 32.7881C19.1479 32.7981 21.1939 32.7981 23.1809 32.7981C25.1759 32.7981 27.1119 32.7981 28.7469 32.7881C30.0709 32.7881 31.0639 32.3561 31.8359 31.4241C32.3979 30.7521 32.7589 29.7891 32.8099 28.8561C32.8299 28.4851 32.9299 24.1441 32.9899 22.0781H12.9999Z" fill="#578AD6"/>
<path d="M22.2451 26.3838V27.6778C22.2451 28.0918 22.5811 28.4278 22.9951 28.4278C23.4091 28.4278 23.7451 28.0918 23.7451 27.6778V26.3838C23.7451 25.9698 23.4091 25.6338 22.9951 25.6338C22.5811 25.6338 22.2451 25.9698 22.2451 26.3838" fill="#578AD6"/>
<path fill-rule="evenodd" clip-rule="evenodd" d="M21.2111 25.556C21.1111 25.919 20.7621 26.151 20.3841 26.101C17.8331 25.745 15.3951 24.84 13.3371 23.481C13.1261 23.343 13.0001 23.107 13.0001 22.855V19.389C13.0001 17.289 14.7121 15.581 16.8171 15.581H18.7841C18.9721 14.129 20.2021 13 21.7041 13H24.2861C25.7871 13 27.0181 14.129 27.2061 15.581H29.1831C31.2821 15.581 32.9901 17.289 32.9901 19.389V22.855C32.9901 23.107 32.8631 23.342 32.6541 23.481C30.5921 24.846 28.1441 25.755 25.5761 26.11C25.5411 26.115 25.5071 26.117 25.4731 26.117C25.1341 26.117 24.8311 25.888 24.7461 25.552C24.5441 24.756 23.8211 24.199 22.9901 24.199C22.1481 24.199 21.4331 24.744 21.2111 25.556ZM24.2861 14.5H21.7041C21.0311 14.5 20.4691 14.96 20.3011 15.581H25.6881C25.5201 14.96 24.9581 14.5 24.2861 14.5Z" fill="#578AD6"/>
<defs>
<filter id="filter0_d" x="0" y="0" width="46" height="46" filterUnits="userSpaceOnUse" color-interpolation-filters="sRGB">
<feFlood flood-opacity="0" result="BackgroundImageFix"/>
<feColorMatrix in="SourceAlpha" type="matrix" values="0 0 0 0 0 0 0 0 0 0 0 0 0 0 0 0 0 0 127 0"/>
<feOffset/>
<feGaussianBlur stdDeviation="1.5"/>
<feColorMatrix type="matrix" values="0 0 0 0 0 0 0 0 0 0 0 0 0 0 0 0 0 0 0.15 0"/>
<feBlend mode="normal" in2="BackgroundImageFix" result="effect1_dropShadow"/>
<feBlend mode="normal" in="SourceGraphic" in2="effect1_dropShadow" result="shape"/>
</filter>
</defs>
</svg>
