<svg width="46" height="46" viewBox="0 0 46 46" fill="none" xmlns="http://www.w3.org/2000/svg">
<g opacity="0.1" filter="url(#filter0_d)">
<path fill-rule="evenodd" clip-rule="evenodd" d="M22.9998 43C34.0455 43 42.9998 34.0457 42.9998 23C42.9998 11.9543 34.0455 3 22.9998 3C11.9541 3 2.99976 11.9543 2.99976 23C2.99976 34.0457 11.9541 43 22.9998 43Z" fill="#FF9D9D"/>
</g>
<path opacity="0.4" d="M12.9997 22.0781C13.0497 24.4161 13.1897 28.4151 13.2097 28.8561C13.2807 29.7991 13.6417 30.7521 14.2037 31.4241C14.9857 32.3671 15.9487 32.7881 17.2917 32.7881C19.1477 32.7981 21.1937 32.7981 23.1807 32.7981C25.1757 32.7981 27.1117 32.7981 28.7467 32.7881C30.0707 32.7881 31.0637 32.3561 31.8357 31.4241C32.3977 30.7521 32.7587 29.7891 32.8097 28.8561C32.8297 28.4851 32.9297 24.1441 32.9897 22.0781H12.9997Z" fill="#FF9D9D"/>
<path d="M22.2449 26.3838V27.6778C22.2449 28.0918 22.5809 28.4278 22.9949 28.4278C23.4089 28.4278 23.7449 28.0918 23.7449 27.6778V26.3838C23.7449 25.9698 23.4089 25.6338 22.9949 25.6338C22.5809 25.6338 22.2449 25.9698 22.2449 26.3838" fill="#FF9D9D"/>
<path fill-rule="evenodd" clip-rule="evenodd" d="M21.2108 25.556C21.1108 25.919 20.7618 26.151 20.3838 26.101C17.8328 25.745 15.3948 24.84 13.3368 23.481C13.1258 23.343 12.9998 23.107 12.9998 22.855V19.389C12.9998 17.289 14.7118 15.581 16.8168 15.581H18.7838C18.9718 14.129 20.2018 13 21.7038 13H24.2858C25.7868 13 27.0178 14.129 27.2058 15.581H29.1828C31.2818 15.581 32.9898 17.289 32.9898 19.389V22.855C32.9898 23.107 32.8628 23.342 32.6538 23.481C30.5918 24.846 28.1438 25.755 25.5758 26.11C25.5408 26.115 25.5068 26.117 25.4728 26.117C25.1338 26.117 24.8308 25.888 24.7458 25.552C24.5438 24.756 23.8208 24.199 22.9898 24.199C22.1478 24.199 21.4328 24.744 21.2108 25.556ZM24.2858 14.5H21.7038C21.0308 14.5 20.4688 14.96 20.3008 15.581H25.6878C25.5198 14.96 24.9578 14.5 24.2858 14.5Z" fill="#FF9D9D"/>
<defs>
<filter id="filter0_d" x="-0.000244141" y="0" width="46" height="46" filterUnits="userSpaceOnUse" color-interpolation-filters="sRGB">
<feFlood flood-opacity="0" result="BackgroundImageFix"/>
<feColorMatrix in="SourceAlpha" type="matrix" values="0 0 0 0 0 0 0 0 0 0 0 0 0 0 0 0 0 0 127 0"/>
<feOffset/>
<feGaussianBlur stdDeviation="1.5"/>
<feColorMatrix type="matrix" values="0 0 0 0 0 0 0 0 0 0 0 0 0 0 0 0 0 0 0.15 0"/>
<feBlend mode="normal" in2="BackgroundImageFix" result="effect1_dropShadow"/>
<feBlend mode="normal" in="SourceGraphic" in2="effect1_dropShadow" result="shape"/>
</filter>
</defs>
</svg>
