<?xml version="1.0" encoding="utf-8"?>
<!-- Generator: Adobe Illustrator 24.0.0, SVG Export Plug-In . SVG Version: 6.00 Build 0)  -->
<svg version="1.1" id="main" xmlns="http://www.w3.org/2000/svg" xmlns:xlink="http://www.w3.org/1999/xlink" x="0px" y="0px"
	 viewBox="0 0 1000 1000" style="enable-background:new 0 0 1000 1000;" xml:space="preserve">
<style type="text/css">
	.st0{fill:#FFFFFF;fill-opacity:0;}
	.st1{fill:#FFFFFF;}
</style>
<title>image</title>
<rect id="frame" class="st0" width="1000" height="1000"/>
<path class="st1" d="M784.4,150H215.6c-36.2,0-65.6,29.4-65.6,65.6v568.8c0,36.2,29.4,65.6,65.6,65.6h568.8
	c36.2,0,65.6-29.4,65.6-65.6V215.6C850,179.4,820.6,150,784.4,150z M806.2,784.4c0,12.1-9.8,21.9-21.9,21.9H215.6
	c-12.1,0-21.9-9.8-21.9-21.9V215.6c0-12.1,9.8-21.9,21.9-21.9h568.8c12.1,0,21.9,9.8,21.9,21.9V784.4z"/>
<path class="st1" d="M624.9,528.2c-8.5-8.5-22.3-8.5-30.8,0l-50.3,50.3l-93.8-93.8c-8.5-8.5-22.3-8.5-30.9,0L265.9,637.8
	c-8.5,8.6-8.3,22.5,0.3,30.9c4,3.9,9.4,6.2,15,6.3h437.5c12.1,0.1,21.9-9.7,22-21.8c0-5.9-2.3-11.5-6.5-15.6L624.9,528.2z"/>
<circle class="st1" cx="565.6" cy="390.6" r="65.6"/>
</svg>
