<svg id="main" xmlns="http://www.w3.org/2000/svg" viewBox="0 0 1000 1000"><defs><style>.cls-1{fill:#fff;opacity:0;}</style></defs><title>image</title><rect id="frame" class="cls-1" width="1000" height="1000"/><path d="M784.38,150H215.62A65.62,65.62,0,0,0,150,215.62V784.38A65.62,65.62,0,0,0,215.62,850H784.38A65.62,65.62,0,0,0,850,784.38V215.62A65.62,65.62,0,0,0,784.38,150Zm21.87,634.38a21.87,21.87,0,0,1-21.87,21.87H215.62a21.87,21.87,0,0,1-21.87-21.87V215.62a21.87,21.87,0,0,1,21.87-21.87H784.38a21.87,21.87,0,0,1,21.87,21.87Z"/><path d="M624.91,528.22a21.89,21.89,0,0,0-30.85,0l-50.31,50.31-93.84-93.84a21.89,21.89,0,0,0-30.85,0L265.94,637.81A21.87,21.87,0,0,0,281.25,675h437.5a21.88,21.88,0,0,0,15.53-37.41Z"/><circle cx="565.63" cy="390.63" r="65.63"/></svg>