<svg width="23" height="30" viewBox="0 0 23 30" fill="none" xmlns="http://www.w3.org/2000/svg">
<path d="M14.8571 14.7143C14.8571 16.76 13.1886 18.4286 11.1429 18.4286C9.0971 18.4286 7.42857 16.76 7.42857 14.7143C7.42857 12.6685 9.0971 11 11.1429 11C13.1886 11 14.8571 12.6685 14.8571 14.7143ZM16.8594 14.7143C16.8594 11.5513 14.3058 8.99777 11.1429 8.99777C7.97991 8.99777 5.42634 11.5513 5.42634 14.7143C5.42634 17.8772 7.97991 20.4308 11.1429 20.4308C14.3058 20.4308 16.8594 17.8772 16.8594 14.7143ZM18.4263 8.76562C18.4263 8.02567 17.8315 7.4308 17.0915 7.4308C16.3516 7.4308 15.7567 8.02567 15.7567 8.76562C15.7567 9.50558 16.3516 10.1004 17.0915 10.1004C17.8315 10.1004 18.4263 9.50558 18.4263 8.76562ZM11.1429 5.57366C12.7679 5.57366 16.25 5.44308 17.7154 6.02344C18.2232 6.22656 18.6004 6.47321 18.9922 6.86495C19.3839 7.2567 19.6306 7.63393 19.8337 8.14174C20.4141 9.60714 20.2835 13.0893 20.2835 14.7143C20.2835 16.3393 20.4141 19.8214 19.8337 21.2868C19.6306 21.7946 19.3839 22.1719 18.9922 22.5636C18.6004 22.9554 18.2232 23.202 17.7154 23.4051C16.25 23.9855 12.7679 23.8549 11.1429 23.8549C9.51786 23.8549 6.03571 23.9855 4.57031 23.4051C4.0625 23.202 3.68527 22.9554 3.29353 22.5636C2.90179 22.1719 2.65513 21.7946 2.45201 21.2868C1.87165 19.8214 2.00223 16.3393 2.00223 14.7143C2.00223 13.0893 1.87165 9.60714 2.45201 8.14174C2.65513 7.63393 2.90179 7.2567 3.29353 6.86495C3.68527 6.47321 4.0625 6.22656 4.57031 6.02344C6.03571 5.44308 9.51786 5.57366 11.1429 5.57366ZM22.2857 14.7143C22.2857 13.1763 22.3002 11.6529 22.2132 10.115C22.1261 8.33036 21.7199 6.74888 20.4141 5.44308C19.1083 4.13728 17.5268 3.73103 15.7422 3.64397C14.2042 3.55692 12.6808 3.57143 11.1429 3.57143C9.60491 3.57143 8.08147 3.55692 6.54353 3.64397C4.75893 3.73103 3.17746 4.13728 1.87165 5.44308C0.565848 6.74888 0.159598 8.33036 0.0725446 10.115C-0.0145089 11.6529 0 13.1763 0 14.7143C0 16.2522 -0.0145089 17.7757 0.0725446 19.3136C0.159598 21.0982 0.565848 22.6797 1.87165 23.9855C3.17746 25.2913 4.75893 25.6975 6.54353 25.7846C8.08147 25.8717 9.60491 25.8571 11.1429 25.8571C12.6808 25.8571 14.2042 25.8717 15.7422 25.7846C17.5268 25.6975 19.1083 25.2913 20.4141 23.9855C21.7199 22.6797 22.1261 21.0982 22.2132 19.3136C22.3002 17.7757 22.2857 16.2522 22.2857 14.7143Z" fill="white"/>
</svg>
