<svg id="main" xmlns="http://www.w3.org/2000/svg" viewBox="0 0 1000 1000"><defs><style>.cls-1,.cls-2{fill:#fff;}.cls-1{opacity:0;}</style></defs><title>layers_w</title><rect id="frame" class="cls-1" width="1000" height="1000"/><path class="cls-2" d="M500,531.82a31.76,31.76,0,0,1-14.23-3.36L167.6,369.38a31.83,31.83,0,0,1,0-56.93L485.77,153.37a31.81,31.81,0,0,1,28.46,0L832.4,312.45a31.83,31.83,0,0,1,0,56.93L514.23,528.46A31.76,31.76,0,0,1,500,531.82ZM253,340.91,500,464.42,747,340.91,500,217.41Z"/><path class="cls-2" d="M500,850a31.76,31.76,0,0,1-14.23-3.36L167.6,687.55a31.82,31.82,0,0,1,28.46-56.93L500,782.59l303.94-152a31.82,31.82,0,0,1,28.46,56.93L514.23,846.63A31.76,31.76,0,0,1,500,850Z"/><path class="cls-2" d="M500,690.9a31.88,31.88,0,0,1-14.23-3.35L167.6,528.46a31.82,31.82,0,1,1,28.46-56.92L500,623.51l303.94-152a31.82,31.82,0,0,1,28.46,56.92L514.23,687.55A31.88,31.88,0,0,1,500,690.9Z"/></svg>