<svg width="481" height="1065" viewBox="0 0 481 1065" fill="none" xmlns="http://www.w3.org/2000/svg">
<g opacity="0.1">
<g clip-path="url(#clip0)">
<path d="M-20 14.5505L-19.9999 288.787L50.3729 288.787L50.3729 14.5505L-20 14.5505Z" fill="url(#paint0_linear)"/>
<path d="M272.963 106.134L272.964 299.23L279.641 299.23L279.641 106.134L272.963 106.134Z" fill="url(#paint1_linear)"/>
<path d="M287.346 106.134L287.346 299.23L294.024 299.23L294.024 106.134L287.346 106.134Z" fill="url(#paint2_linear)"/>
<path d="M301.729 106.134L301.729 299.23L308.407 299.23L308.407 106.134L301.729 106.134Z" fill="url(#paint3_linear)"/>
<path d="M316.112 106.134L316.112 299.23L322.79 299.23L322.79 106.134L316.112 106.134Z" fill="url(#paint4_linear)"/>
<path d="M330.495 106.134L330.495 299.23L337.172 299.23L337.172 106.134L330.495 106.134Z" fill="url(#paint5_linear)"/>
<path d="M344.877 106.134L344.877 299.23L351.555 299.23L351.555 106.134L344.877 106.134Z" fill="url(#paint6_linear)"/>
<path d="M42.6678 0L42.6678 197.546L226.391 197.546L226.391 -8.03078e-06L42.6678 0Z" fill="url(#paint7_linear)"/>
<path d="M197.796 414.265L142.662 414.265L142.662 358.117C156.703 358.117 170.914 363.424 181.53 374.208C192.66 385.164 198.139 399.715 197.796 414.265Z" fill="#FFE200"/>
<path d="M87.6996 414.608L142.662 414.608L142.662 470.756C128.622 470.756 114.41 465.449 103.795 454.665C92.8363 443.538 87.3572 428.987 87.6996 414.608Z" fill="#F4C800"/>
<path d="M226.391 197.546L160.641 151.84L226.391 105.963L226.391 197.546Z" fill="url(#paint8_linear)"/>
<path d="M149.511 162.111L134.272 151.327L149.511 140.713L149.511 162.111Z" fill="url(#paint9_linear)"/>
<path d="M121.602 158.688L111.328 151.327L121.602 144.137L121.602 158.688Z" fill="url(#paint10_linear)"/>
<path d="M194.885 170.328L167.832 151.327L194.885 132.496L194.885 170.328Z" fill="url(#paint11_linear)"/>
<path d="M134.444 14.3794L134.444 105.963L226.391 105.963L226.391 14.3794L134.444 14.3794Z" fill="url(#paint12_linear)"/>
<path d="M134.615 14.3794L226.391 14.3794L226.391 105.963C226.391 105.963 135.985 105.107 134.615 18.3166L134.615 14.3794Z" fill="url(#paint13_linear)"/>
<path d="M180.503 14.3794L226.391 14.3794L226.391 61.1127C214.576 61.1127 202.933 56.6619 193.858 47.7603C184.783 38.5164 180.16 26.3623 180.503 14.3794Z" fill="url(#paint14_linear)"/>
<path d="M134.615 14.3794L180.503 14.3794C180.332 26.3623 184.783 38.5163 193.858 47.7603C202.762 56.6619 214.576 61.1126 226.391 61.1126L226.391 105.963C226.391 105.963 135.985 105.107 134.615 18.3166L134.615 14.3794Z" fill="url(#paint15_linear)"/>
<path d="M150.367 14.3794L180.503 14.3794C180.332 26.3623 184.783 38.5163 193.858 47.7603C202.762 56.6618 214.576 61.1126 226.391 61.1126L226.391 87.475C203.618 84.0513 151.566 71.5548 150.367 14.3794Z" fill="url(#paint16_linear)"/>
<path d="M-4.93231 414.437L109.445 414.437L109.445 300.086C109.445 300.086 -3.22008 301.284 -4.93231 409.472L-4.93231 414.437Z" fill="url(#paint17_linear)"/>
<path d="M52.2563 414.437L109.445 414.437L109.445 356.063C94.7198 356.063 80.1658 361.712 69.0362 372.839C57.5642 384.308 51.9139 399.372 52.2563 414.437Z" fill="#F7EDF6"/>
<path d="M-4.93231 414.437L52.2564 414.437C51.9139 399.372 57.5643 384.308 69.0363 372.839C80.1658 361.712 94.891 356.063 109.445 356.063L109.445 300.086C109.445 300.086 -3.22008 301.284 -4.93231 409.472L-4.93231 414.437Z" fill="url(#paint18_linear)"/>
<path d="M14.5872 414.437L52.2563 414.437C51.9139 399.372 57.5643 384.308 69.0362 372.839C80.1658 361.712 94.891 356.063 109.445 356.063L109.445 323.195C81.0219 327.475 14.5872 346.305 14.5872 414.437Z" fill="url(#paint19_linear)"/>
<path d="M11.5051 131.127L11.5051 133.01C11.5051 136.947 12.0188 140.713 12.8749 143.966C14.5872 150.984 17.8404 156.462 21.7785 160.571C34.4491 173.923 54.4822 174.094 54.4822 174.094L97.4593 174.094L97.4593 131.127L54.4822 131.127L11.5051 131.127Z" fill="url(#paint20_linear)"/>
<path d="M226.391 151.669L226.391 105.963L273.135 105.963C273.135 117.604 268.683 129.415 259.779 138.317C250.533 147.561 238.376 152.012 226.391 151.669Z" fill="#F7EDF6"/>
<path d="M226.391 197.546L226.391 151.84C238.376 152.011 250.533 147.561 259.608 138.488C268.512 129.586 272.963 117.775 272.963 106.134L317.824 106.134C317.824 106.134 316.968 196.177 230.329 197.718L226.391 197.718L226.391 197.546Z" fill="url(#paint21_linear)"/>
<path d="M104.993 813.295L104.993 923.367L215.09 923.367L215.09 813.295L104.993 813.295Z" fill="url(#paint22_linear)"/>
<path d="M481 602.739L214.234 602.739L214.234 593.324L481 593.324L481 602.739Z" fill="url(#paint23_linear)"/>
<path d="M481 622.939L214.234 622.939L214.234 613.524L481 613.524L481 622.939Z" fill="url(#paint24_linear)"/>
<path d="M481 643.138L214.234 643.138L214.234 633.723L481 633.723L481 643.138Z" fill="url(#paint25_linear)"/>
<path d="M481 663.338L214.234 663.338L214.234 653.752L481 653.752L481 663.338Z" fill="url(#paint26_linear)"/>
<path d="M481 683.367L214.234 683.367L214.234 673.951L481 673.951L481 683.367Z" fill="url(#paint27_linear)"/>
<path d="M481 703.566L214.234 703.566L214.234 694.151L481 694.151L481 703.566Z" fill="url(#paint28_linear)"/>
<path d="M-5.10352 593.324L-5.10352 413.581L84.7888 413.581L84.7888 503.452C84.7888 503.452 84.7888 504.308 84.6176 505.678C84.4464 507.903 84.1039 511.669 83.419 516.462C82.9054 519.372 82.3917 522.454 81.5356 525.877C80.6795 529.301 79.6521 532.896 78.2823 536.662C77.255 539.743 75.8852 542.996 74.5154 546.077C70.4061 554.979 64.5845 564.051 56.3657 571.926C47.6333 580.143 36.3326 586.99 21.4361 590.585C14.5872 592.297 7.05335 593.324 -1.3366 593.495L-5.10352 593.495L-5.10352 593.324Z" fill="url(#paint29_linear)"/>
<path d="M-5.10352 435.835L-5.10352 445.25L84.7888 445.25L84.7888 435.835L-5.10352 435.835Z" fill="url(#paint30_linear)"/>
<path d="M-5.10352 456.034L-5.10352 465.449L84.7888 465.449L84.7888 456.034L-5.10352 456.034Z" fill="url(#paint31_linear)"/>
<path d="M-5.10352 476.063L-5.10352 485.478L84.7888 485.478L84.7888 476.063L-5.10352 476.063Z" fill="url(#paint32_linear)"/>
<path d="M-5.10352 496.263L-5.10352 505.678L84.7888 505.678L84.7888 496.263L-5.10352 496.263Z" fill="url(#paint33_linear)"/>
<path d="M-5.10352 525.877L-5.10352 516.462L83.419 516.462C82.9054 519.372 82.3917 522.454 81.5356 525.877L-5.10352 525.877Z" fill="url(#paint34_linear)"/>
<path d="M-5.10352 546.077L-5.10352 536.662L78.2823 536.662C77.255 539.743 75.8852 542.996 74.5154 546.077L-5.10352 546.077Z" fill="url(#paint35_linear)"/>
<path d="M104.993 923.367L183.927 978.145L104.993 1033.1L104.993 923.367Z" fill="url(#paint36_linear)"/>
<path d="M197.283 965.82L215.432 978.659L197.283 991.498L197.283 965.82Z" fill="url(#paint37_linear)"/>
<path d="M230.671 969.929L242.999 978.659L230.671 987.389L230.671 969.929Z" fill="url(#paint38_linear)"/>
<path d="M142.662 955.892L175.195 978.659L142.662 1001.43L142.662 955.892Z" fill="url(#paint39_linear)"/>
<path d="M187.181 785.392L148.484 758.174L187.181 731.127L187.181 785.392Z" fill="url(#paint40_linear)"/>
<path d="M214.234 777.175L187.181 758.174L214.234 739.344L214.234 777.175Z" fill="url(#paint41_linear)"/>
<path d="M148.484 777.175L121.602 758.174L148.484 739.344L148.484 777.175Z" fill="url(#paint42_linear)"/>
<path d="M104.993 923.367L-5.10345 923.367L-5.10346 813.295C-5.10346 813.295 103.281 814.322 104.993 918.573L104.993 923.367Z" fill="url(#paint43_linear)"/>
<path d="M49.8593 923.367L-5.10345 923.367L-5.10346 867.218C8.93687 867.218 23.1484 872.525 33.7643 883.31C44.8938 894.265 50.2017 908.816 49.8593 923.367Z" fill="url(#paint44_linear)"/>
<path d="M104.993 923.367L49.8593 923.367C50.2017 908.987 44.7226 894.437 33.7643 883.31C22.9772 872.525 8.93687 867.218 -5.10346 867.218L-5.10346 813.295C-5.10346 813.295 103.281 814.494 104.993 918.573L104.993 923.367Z" fill="url(#paint45_linear)"/>
<path d="M86.1587 923.367L50.0305 923.367C50.373 908.987 44.8938 894.437 33.9355 883.31C23.1484 872.525 9.10808 867.218 -4.93225 867.218L-4.93225 835.549C22.1211 839.658 84.6177 854.722 86.1587 923.367Z" fill="url(#paint46_linear)"/>
<path d="M104.993 923.367L-5.10346 923.367L-5.10345 1033.44C-5.10345 1033.44 103.281 1032.41 104.993 928.16L104.993 923.367Z" fill="url(#paint47_linear)"/>
<path d="M49.8593 923.367L-5.10346 923.367L-5.10345 979.515C8.93687 979.515 23.1484 974.208 33.7643 963.424C44.8938 952.297 50.2017 937.746 49.8593 923.367Z" fill="url(#paint48_linear)"/>
<path d="M104.993 923.367L49.8593 923.367C50.2017 937.746 44.7226 952.297 33.7643 963.424C22.9772 974.208 8.93687 979.515 -5.10346 979.515L-5.10345 1033.44C-5.10345 1033.44 103.281 1032.24 104.993 928.16L104.993 923.367Z" fill="url(#paint49_linear)"/>
<path d="M86.1587 923.367L49.8593 923.367C50.2017 937.746 44.7226 952.297 33.7643 963.424C22.9772 974.208 8.93687 979.515 -5.10346 979.515L-5.10345 1011.18C22.1211 1007.08 86.1587 988.93 86.1587 923.367Z" fill="url(#paint50_linear)"/>
<path d="M114.582 307.618L114.582 197.546L224.85 197.546C224.85 197.546 223.822 305.906 119.547 307.618L114.582 307.618Z" fill="url(#paint51_linear)"/>
<path d="M114.582 252.496L114.582 197.375L170.743 197.375C170.743 211.412 165.435 225.621 154.648 236.234C143.69 247.532 129.136 252.839 114.582 252.496Z" fill="url(#paint52_linear)"/>
<path d="M114.582 307.618L114.582 252.496C128.964 252.839 143.518 247.361 154.648 236.405C165.435 225.621 170.743 211.583 170.743 197.546L224.85 197.546C224.85 197.546 223.651 305.906 119.547 307.618L114.582 307.618Z" fill="url(#paint53_linear)"/>
<path d="M114.582 288.787L114.582 252.668C128.964 253.01 143.518 247.532 154.648 236.576C165.435 225.792 170.743 211.755 170.743 197.718L202.419 197.718C198.481 224.765 183.242 287.247 114.582 288.787Z" fill="url(#paint54_linear)"/>
<path d="M215.09 703.224L215.09 813.124L325.016 813.124L325.015 703.224L215.09 703.224Z" fill="url(#paint55_linear)"/>
<path d="M228.445 711.612C228.445 708.776 226.146 706.477 223.309 706.477C220.472 706.477 218.172 708.776 218.172 711.612C218.172 714.448 220.472 716.748 223.309 716.748C226.146 716.748 228.445 714.448 228.445 711.612Z" fill="url(#paint56_linear)"/>
<path d="M233.411 725.307C231.356 725.307 229.644 723.595 229.644 721.541C229.644 719.487 231.356 717.775 233.411 717.775C235.466 717.775 237.178 719.487 237.178 721.541C237.178 723.595 235.466 725.307 233.411 725.307Z" fill="url(#paint57_linear)"/>
<path d="M243.513 729.586C243.513 728.357 242.517 727.361 241.287 727.361C240.058 727.361 239.061 728.357 239.061 729.586C239.061 730.815 240.058 731.812 241.287 731.812C242.517 731.812 243.513 730.815 243.513 729.586Z" fill="url(#paint58_linear)"/>
<path d="M248.65 735.235C248.65 734.385 247.96 733.695 247.109 733.695C246.258 733.695 245.568 734.385 245.568 735.235C245.568 736.086 246.258 736.776 247.109 736.776C247.96 736.776 248.65 736.086 248.65 735.235Z" fill="url(#paint59_linear)"/>
<path d="M321.762 711.612C321.762 708.776 319.462 706.476 316.626 706.476C313.789 706.476 311.489 708.776 311.489 711.612C311.489 714.448 313.789 716.748 316.626 716.748C319.462 716.748 321.762 714.448 321.762 711.612Z" fill="url(#paint60_linear)"/>
<path d="M306.695 725.307C308.749 725.307 310.462 723.595 310.462 721.541C310.462 719.486 308.749 717.775 306.695 717.775C304.64 717.775 302.928 719.486 302.928 721.541C302.928 723.595 304.64 725.307 306.695 725.307Z" fill="url(#paint61_linear)"/>
<path d="M300.873 729.586C300.873 728.357 299.876 727.361 298.647 727.361C297.418 727.361 296.421 728.357 296.421 729.586C296.421 730.815 297.418 731.812 298.647 731.812C299.876 731.812 300.873 730.815 300.873 729.586Z" fill="url(#paint62_linear)"/>
<path d="M294.366 735.235C294.366 734.384 293.677 733.695 292.825 733.695C291.974 733.695 291.284 734.384 291.284 735.235C291.284 736.086 291.974 736.776 292.825 736.776C293.677 736.776 294.366 736.086 294.366 735.235Z" fill="url(#paint63_linear)"/>
<path d="M223.309 800.285C220.569 800.285 218.172 802.511 218.172 805.421C218.172 808.16 220.398 810.556 223.309 810.556C226.048 810.556 228.445 808.331 228.445 805.421C228.445 802.511 226.22 800.285 223.309 800.285Z" fill="url(#paint64_linear)"/>
<path d="M233.411 791.555C231.356 791.555 229.644 793.267 229.644 795.321C229.644 797.375 231.356 799.087 233.411 799.087C235.466 799.087 237.178 797.375 237.178 795.321C237.178 793.267 235.466 791.555 233.411 791.555Z" fill="url(#paint65_linear)"/>
<path d="M243.513 787.446C243.513 786.217 242.517 785.221 241.287 785.221C240.058 785.221 239.061 786.217 239.061 787.446C239.061 788.676 240.058 789.672 241.287 789.672C242.517 789.672 243.513 788.676 243.513 787.446Z" fill="url(#paint66_linear)"/>
<path d="M248.65 781.626C248.65 780.775 247.96 780.086 247.109 780.086C246.258 780.086 245.568 780.775 245.568 781.626C245.568 782.477 246.258 783.167 247.109 783.167C247.96 783.167 248.65 782.477 248.65 781.626Z" fill="url(#paint67_linear)"/>
<path d="M316.626 800.285C319.365 800.285 321.762 802.511 321.762 805.421C321.762 808.16 319.536 810.556 316.626 810.556C313.886 810.556 311.489 808.331 311.489 805.421C311.489 802.511 313.886 800.285 316.626 800.285Z" fill="url(#paint68_linear)"/>
<path d="M306.695 791.555C308.749 791.555 310.462 793.267 310.462 795.321C310.462 797.375 308.749 799.087 306.695 799.087C304.64 799.087 302.928 797.375 302.928 795.321C302.928 793.267 304.64 791.555 306.695 791.555Z" fill="url(#paint69_linear)"/>
<path d="M300.873 787.446C300.873 786.217 299.876 785.221 298.647 785.221C297.418 785.221 296.421 786.217 296.421 787.446C296.421 788.676 297.418 789.672 298.647 789.672C299.876 789.672 300.873 788.676 300.873 787.446Z" fill="url(#paint70_linear)"/>
<path d="M294.366 781.626C294.366 780.775 293.677 780.086 292.825 780.086C291.974 780.086 291.284 780.775 291.284 781.626C291.284 782.477 291.974 783.167 292.825 783.167C293.677 783.167 294.366 782.477 294.366 781.626Z" fill="url(#paint71_linear)"/>
<path d="M279.47 758.174C279.47 752.974 275.254 748.759 270.053 748.759C264.852 748.759 260.635 752.974 260.635 758.174C260.635 763.374 264.852 767.589 270.053 767.589C275.254 767.589 279.47 763.374 279.47 758.174Z" fill="url(#paint72_linear)"/>
<path d="M273.306 758.174C273.306 756.378 271.849 754.922 270.053 754.922C268.256 754.922 266.799 756.378 266.799 758.174C266.799 759.97 268.256 761.427 270.053 761.427C271.849 761.427 273.306 759.97 273.306 758.174Z" fill="url(#paint73_linear)"/>
<path d="M280.497 880.399C280.497 878.603 279.041 877.147 277.244 877.147C275.447 877.147 273.991 878.603 273.991 880.399C273.991 882.196 275.447 883.652 277.244 883.652C279.041 883.652 280.497 882.196 280.497 880.399Z" fill="url(#paint74_linear)"/>
<path d="M275.532 891.355C274.676 890.499 274.676 888.959 275.532 887.932C276.388 887.076 277.929 887.076 278.956 887.932C279.812 888.787 279.812 890.328 278.956 891.355C278.1 892.211 276.559 892.211 275.532 891.355Z" fill="url(#paint75_linear)"/>
<path d="M278.785 896.833C278.785 895.982 278.095 895.292 277.244 895.292C276.393 895.292 275.703 895.982 275.703 896.833C275.703 897.684 276.393 898.374 277.244 898.374C278.095 898.374 278.785 897.684 278.785 896.833Z" fill="url(#paint76_linear)"/>
<path d="M278.271 902.14C278.271 901.573 277.811 901.113 277.244 901.113C276.677 901.113 276.217 901.573 276.217 902.14C276.217 902.707 276.677 903.167 277.244 903.167C277.811 903.167 278.271 902.707 278.271 902.14Z" fill="url(#paint77_linear)"/>
<path d="M323.303 923.195C323.303 921.399 321.847 919.943 320.05 919.943C318.253 919.943 316.797 921.399 316.797 923.195C316.797 924.992 318.253 926.448 320.05 926.448C321.847 926.448 323.303 924.992 323.303 923.195Z" fill="url(#paint78_linear)"/>
<path d="M309.092 924.907C309.948 925.763 311.489 925.763 312.516 924.907C313.372 924.051 313.372 922.511 312.516 921.484C311.66 920.628 310.119 920.628 309.092 921.484C308.236 922.511 308.236 923.88 309.092 924.907Z" fill="url(#paint79_linear)"/>
<path d="M302.585 924.223C303.099 924.736 304.126 924.736 304.64 924.223C305.154 923.709 305.154 922.682 304.64 922.168C304.126 921.655 303.099 921.655 302.585 922.168C301.9 922.682 301.9 923.709 302.585 924.223Z" fill="url(#paint80_linear)"/>
<path d="M297.62 923.88C297.962 924.223 298.647 924.223 298.989 923.88C299.332 923.538 299.332 922.853 298.989 922.511C298.647 922.168 297.962 922.168 297.62 922.511C297.277 922.853 297.277 923.538 297.62 923.88Z" fill="url(#paint81_linear)"/>
<path d="M237.52 923.367C237.52 921.57 236.064 920.114 234.267 920.114C232.47 920.114 231.014 921.57 231.014 923.367C231.014 925.163 232.47 926.619 234.267 926.619C236.064 926.619 237.52 925.163 237.52 923.367Z" fill="url(#paint82_linear)"/>
<path d="M245.225 921.655C244.369 920.799 242.828 920.799 241.801 921.655C240.945 922.511 240.945 924.051 241.801 925.078C242.657 926.106 244.198 925.934 245.225 925.078C246.253 924.223 246.081 922.682 245.225 921.655Z" fill="url(#paint83_linear)"/>
<path d="M252.245 923.367C252.245 922.516 251.556 921.826 250.704 921.826C249.853 921.826 249.163 922.516 249.163 923.367C249.163 924.218 249.853 924.907 250.704 924.907C251.556 924.907 252.245 924.218 252.245 923.367Z" fill="url(#paint84_linear)"/>
<path d="M257.04 923.367C257.04 922.799 256.58 922.339 256.012 922.339C255.445 922.339 254.985 922.799 254.985 923.367C254.985 923.934 255.445 924.394 256.012 924.394C256.58 924.394 257.04 923.934 257.04 923.367Z" fill="url(#paint85_linear)"/>
<path d="M279.299 963.766C280.669 965.136 280.669 967.19 279.299 968.388C277.929 969.586 275.874 969.758 274.676 968.388C273.306 967.019 273.306 964.964 274.676 963.766C276.046 962.568 278.1 962.568 279.299 963.766Z" fill="url(#paint86_linear)"/>
<path d="M278.785 955.207C279.641 956.063 279.641 957.603 278.785 958.631C277.929 959.486 276.388 959.486 275.361 958.631C274.505 957.775 274.505 956.234 275.361 955.207C276.217 954.351 277.758 954.351 278.785 955.207Z" fill="url(#paint87_linear)"/>
<path d="M278.614 949.729C278.614 948.878 277.924 948.188 277.073 948.188C276.222 948.188 275.532 948.878 275.532 949.729C275.532 950.58 276.222 951.27 277.073 951.27C277.924 951.27 278.614 950.58 278.614 949.729Z" fill="url(#paint88_linear)"/>
<path d="M277.758 943.738C278.1 944.08 278.1 944.765 277.758 945.107C277.415 945.449 276.73 945.449 276.388 945.107C276.046 944.765 276.046 944.08 276.388 943.738C276.73 943.395 277.415 943.395 277.758 943.738Z" fill="url(#paint89_linear)"/>
<path d="M283.237 923.195C283.237 919.886 280.554 917.204 277.244 917.204C273.934 917.204 271.251 919.886 271.251 923.195C271.251 926.504 273.934 929.187 277.244 929.187C280.554 929.187 283.237 926.504 283.237 923.195Z" fill="url(#paint90_linear)"/>
<path d="M264.231 302.14C264.231 300.257 265.772 298.887 267.484 298.887C269.197 298.887 270.738 300.428 270.738 302.14C270.738 304.023 269.197 305.392 267.484 305.392C265.772 305.392 264.231 304.023 264.231 302.14Z" fill="url(#paint91_linear)"/>
<path d="M258.581 308.645C258.581 307.275 259.608 306.248 260.978 306.248C262.348 306.248 263.375 307.275 263.375 308.645C263.375 310.014 262.348 311.041 260.978 311.041C259.608 311.041 258.581 310.014 258.581 308.645Z" fill="url(#paint92_linear)"/>
<path d="M257.382 313.78C257.382 312.929 256.692 312.24 255.841 312.24C254.99 312.24 254.3 312.929 254.3 313.78C254.3 314.631 254.99 315.321 255.841 315.321C256.692 315.321 257.382 314.631 257.382 313.78Z" fill="url(#paint93_linear)"/>
<path d="M251.218 317.546C251.218 317.033 251.56 316.519 252.245 316.519C252.759 316.519 253.273 316.862 253.273 317.546C253.273 318.06 252.93 318.573 252.245 318.573C251.56 318.573 251.218 318.06 251.218 317.546Z" fill="url(#paint94_linear)"/>
<path d="M264.231 362.568C264.231 364.451 265.772 365.82 267.484 365.82C269.197 365.82 270.738 364.28 270.738 362.568C270.738 360.856 269.197 359.315 267.484 359.315C265.772 359.315 264.231 360.856 264.231 362.568Z" fill="url(#paint95_linear)"/>
<path d="M258.581 356.063C258.581 357.432 259.608 358.459 260.978 358.459C262.348 358.459 263.375 357.432 263.375 356.063C263.375 354.693 262.348 353.666 260.978 353.666C259.608 353.666 258.581 354.864 258.581 356.063Z" fill="url(#paint96_linear)"/>
<path d="M257.382 350.927C257.382 350.076 256.692 349.387 255.841 349.387C254.99 349.387 254.3 350.076 254.3 350.927C254.3 351.778 254.99 352.468 255.841 352.468C256.692 352.468 257.382 351.778 257.382 350.927Z" fill="url(#paint97_linear)"/>
<path d="M251.218 347.332C251.218 347.846 251.561 348.359 252.245 348.359C252.759 348.359 253.273 348.017 253.273 347.332C253.273 346.819 252.93 346.305 252.245 346.305C251.561 346.305 251.218 346.648 251.218 347.332Z" fill="url(#paint98_linear)"/>
<path d="M209.953 302.14C209.953 300.257 208.412 298.887 206.7 298.887C204.988 298.887 203.447 300.428 203.447 302.14C203.447 304.023 204.988 305.392 206.7 305.392C208.412 305.392 209.953 304.023 209.953 302.14Z" fill="url(#paint99_linear)"/>
<path d="M215.604 308.645C215.604 307.275 214.576 306.248 213.206 306.248C211.837 306.248 210.809 307.275 210.809 308.645C210.809 310.014 211.837 311.041 213.206 311.041C214.576 311.041 215.604 310.014 215.604 308.645Z" fill="url(#paint100_linear)"/>
<path d="M219.713 313.78C219.713 312.924 219.028 312.24 218.172 312.24C217.316 312.24 216.631 312.924 216.631 313.78C216.631 314.636 217.316 315.321 218.172 315.321C219.199 315.321 219.713 314.636 219.713 313.78Z" fill="url(#paint101_linear)"/>
<path d="M222.966 317.546C222.966 317.033 222.624 316.519 221.939 316.519C221.425 316.519 220.911 316.862 220.911 317.546C220.911 318.06 221.254 318.573 221.939 318.573C222.624 318.573 222.966 318.06 222.966 317.546Z" fill="url(#paint102_linear)"/>
<path d="M209.953 362.568C209.953 364.451 208.412 365.82 206.7 365.82C204.988 365.82 203.447 364.28 203.447 362.568C203.447 360.856 204.988 359.315 206.7 359.315C208.412 359.315 209.953 360.856 209.953 362.568Z" fill="url(#paint103_linear)"/>
<path d="M215.604 356.063C215.604 357.432 214.576 358.459 213.206 358.459C211.837 358.459 210.809 357.432 210.809 356.063C210.809 354.693 211.837 353.666 213.206 353.666C214.576 353.666 215.604 354.864 215.604 356.063Z" fill="url(#paint104_linear)"/>
<path d="M219.713 350.927C219.713 351.783 219.028 352.468 218.172 352.468C217.316 352.468 216.631 351.783 216.631 350.927C216.631 350.071 217.316 349.387 218.172 349.387C219.199 349.558 219.713 350.242 219.713 350.927Z" fill="url(#paint105_linear)"/>
<path d="M222.966 347.332C222.966 347.846 222.624 348.359 221.939 348.359C221.425 348.359 220.911 348.017 220.911 347.332C220.911 346.819 221.254 346.305 221.939 346.305C222.624 346.305 222.966 346.648 222.966 347.332Z" fill="url(#paint106_linear)"/>
<path d="M243.342 332.439C243.342 335.863 240.602 338.431 237.349 338.431C233.924 338.431 231.356 335.692 231.356 332.439C231.356 329.187 234.096 326.448 237.349 326.448C240.602 326.448 243.342 329.187 243.342 332.439Z" fill="url(#paint107_linear)"/>
<path d="M293.51 969.929L293.51 1080L403.436 1080L403.436 969.929L293.51 969.929Z" fill="url(#paint108_linear)"/>
<path d="M379.122 1050.9C381.006 1050.9 382.375 1052.44 382.375 1054.15C382.375 1055.86 380.834 1057.4 379.122 1057.4C377.239 1057.4 375.869 1055.86 375.869 1054.15C375.869 1052.44 377.41 1050.9 379.122 1050.9Z" fill="url(#paint109_linear)"/>
<path d="M375.013 1047.65C375.013 1046.32 373.939 1045.25 372.616 1045.25C371.292 1045.25 370.218 1046.32 370.218 1047.65C370.218 1048.97 371.292 1050.04 372.616 1050.04C373.939 1050.04 375.013 1048.97 375.013 1047.65Z" fill="url(#paint110_linear)"/>
<path d="M369.191 1042.51C369.191 1041.66 368.501 1040.97 367.65 1040.97C366.799 1040.97 366.109 1041.66 366.109 1042.51C366.109 1043.36 366.799 1044.05 367.65 1044.05C368.501 1044.05 369.191 1043.36 369.191 1042.51Z" fill="url(#paint111_linear)"/>
<path d="M363.883 1037.89C364.397 1037.89 364.911 1038.23 364.911 1038.92C364.911 1039.43 364.568 1039.94 363.883 1039.94C363.198 1039.94 362.856 1039.6 362.856 1038.92C362.856 1038.23 363.369 1037.89 363.883 1037.89Z" fill="url(#paint112_linear)"/>
<path d="M318.68 1050.9C316.797 1050.9 315.427 1052.44 315.427 1054.15C315.427 1055.86 316.968 1057.4 318.68 1057.4C320.564 1057.4 321.933 1055.86 321.933 1054.15C321.933 1052.44 320.564 1050.9 318.68 1050.9Z" fill="url(#paint113_linear)"/>
<path d="M327.584 1047.65C327.584 1046.32 326.511 1045.25 325.187 1045.25C323.863 1045.25 322.789 1046.32 322.789 1047.65C322.789 1048.97 323.863 1050.04 325.187 1050.04C326.511 1050.04 327.584 1048.97 327.584 1047.65Z" fill="url(#paint114_linear)"/>
<path d="M330.323 1041.14C329.467 1041.14 328.782 1041.83 328.782 1042.68C328.782 1043.54 329.467 1044.22 330.323 1044.22C331.179 1044.22 331.864 1043.54 331.864 1042.68C331.864 1041.83 331.179 1041.14 330.323 1041.14Z" fill="url(#paint115_linear)"/>
<path d="M334.09 1037.89C333.577 1037.89 333.063 1038.23 333.063 1038.92C333.063 1039.43 333.405 1039.94 334.09 1039.94C334.604 1039.94 335.118 1039.6 335.118 1038.92C335.118 1038.23 334.604 1037.89 334.09 1037.89Z" fill="url(#paint116_linear)"/>
<path d="M382.375 993.381C382.375 991.585 380.919 990.128 379.122 990.128C377.325 990.128 375.869 991.585 375.869 993.381C375.869 995.177 377.325 996.633 379.122 996.633C380.919 996.633 382.375 995.177 382.375 993.381Z" fill="url(#paint117_linear)"/>
<path d="M375.013 999.886C375.013 998.562 373.939 997.489 372.616 997.489C371.292 997.489 370.218 998.562 370.218 999.886C370.218 1001.21 371.292 1002.28 372.616 1002.28C373.939 1002.28 375.013 1001.21 375.013 999.886Z" fill="url(#paint118_linear)"/>
<path d="M369.191 1005.02C369.191 1004.17 368.501 1003.48 367.65 1003.48C366.799 1003.48 366.109 1004.17 366.109 1005.02C366.109 1005.87 366.799 1006.56 367.65 1006.56C368.501 1006.56 369.191 1005.87 369.191 1005.02Z" fill="url(#paint119_linear)"/>
<path d="M363.883 1009.81C364.397 1009.81 364.911 1009.47 364.911 1008.79C364.911 1008.27 364.568 1007.76 363.883 1007.76C363.198 1007.76 362.856 1008.1 362.856 1008.79C362.856 1009.3 363.369 1009.81 363.883 1009.81Z" fill="url(#paint120_linear)"/>
<path d="M321.933 993.381C321.933 991.585 320.477 990.128 318.68 990.128C316.883 990.128 315.427 991.585 315.427 993.381C315.427 995.177 316.883 996.633 318.68 996.633C320.477 996.633 321.933 995.177 321.933 993.381Z" fill="url(#paint121_linear)"/>
<path d="M327.584 999.886C327.584 998.562 326.511 997.489 325.187 997.489C323.863 997.489 322.789 998.562 322.789 999.886C322.789 1001.21 323.863 1002.28 325.187 1002.28C326.511 1002.28 327.584 1001.21 327.584 999.886Z" fill="url(#paint122_linear)"/>
<path d="M330.323 1006.56C329.467 1006.56 328.782 1005.88 328.782 1005.02C328.782 1004.17 329.467 1003.48 330.323 1003.48C331.179 1003.48 331.864 1004.17 331.864 1005.02C331.864 1005.88 331.179 1006.56 330.323 1006.56Z" fill="url(#paint123_linear)"/>
<path d="M334.09 1009.81C333.577 1009.81 333.063 1009.47 333.063 1008.79C333.063 1008.27 333.405 1007.76 334.09 1007.76C334.604 1007.76 335.118 1008.1 335.118 1008.79C335.118 1009.3 334.604 1009.81 334.09 1009.81Z" fill="url(#paint124_linear)"/>
<path d="M354.979 1024.02C354.979 1020.71 352.296 1018.03 348.987 1018.03C345.677 1018.03 342.994 1020.71 342.994 1024.02C342.994 1027.33 345.677 1030.01 348.987 1030.01C352.296 1030.01 354.979 1027.33 354.979 1024.02Z" fill="url(#paint125_linear)"/>
<path d="M352.069 1066.65C352.069 1064.85 350.612 1063.4 348.815 1063.4C347.019 1063.4 345.562 1064.85 345.562 1066.65C345.562 1068.44 347.019 1069.9 348.815 1069.9C350.612 1069.9 352.069 1068.44 352.069 1066.65Z" fill="url(#paint126_linear)"/>
<path d="M350.528 1055.86C351.384 1056.72 351.384 1058.26 350.528 1059.29C349.672 1060.14 348.131 1060.14 347.103 1059.29C346.247 1058.43 346.247 1056.89 347.103 1055.86C348.131 1054.84 349.672 1054.84 350.528 1055.86Z" fill="url(#paint127_linear)"/>
<path d="M349.843 1049.19C350.357 1049.7 350.357 1050.73 349.843 1051.24C349.329 1051.75 348.302 1051.75 347.788 1051.24C347.274 1050.73 347.274 1049.7 347.788 1049.19C348.473 1048.67 349.329 1048.67 349.843 1049.19Z" fill="url(#paint128_linear)"/>
<path d="M349.5 1044.22C349.843 1044.56 349.843 1045.25 349.5 1045.59C349.158 1045.93 348.473 1045.93 348.131 1045.59C347.788 1045.25 347.788 1044.56 348.131 1044.22C348.644 1043.88 349.158 1043.88 349.5 1044.22Z" fill="url(#paint129_linear)"/>
<path d="M309.434 1024.02C309.434 1022.23 307.978 1020.77 306.181 1020.77C304.384 1020.77 302.928 1022.23 302.928 1024.02C302.928 1025.82 304.384 1027.28 306.181 1027.28C307.978 1027.28 309.434 1025.82 309.434 1024.02Z" fill="url(#paint130_linear)"/>
<path d="M317.653 1024.02C317.653 1022.7 316.58 1021.63 315.256 1021.63C313.932 1021.63 312.859 1022.7 312.859 1024.02C312.859 1025.35 313.932 1026.42 315.256 1026.42C316.58 1026.42 317.653 1025.35 317.653 1024.02Z" fill="url(#paint131_linear)"/>
<path d="M324.159 1024.02C324.159 1023.17 323.469 1022.48 322.618 1022.48C321.767 1022.48 321.077 1023.17 321.077 1024.02C321.077 1024.87 321.767 1025.56 322.618 1025.56C323.469 1025.56 324.159 1024.87 324.159 1024.02Z" fill="url(#paint132_linear)"/>
<path d="M328.611 1023.34C328.269 1023 327.584 1023 327.241 1023.34C326.899 1023.68 326.899 1024.37 327.241 1024.71C327.584 1025.05 328.269 1025.05 328.611 1024.71C328.954 1024.19 328.954 1023.68 328.611 1023.34Z" fill="url(#paint133_linear)"/>
<path d="M395.046 1023.68C395.046 1021.88 393.589 1020.43 391.793 1020.43C389.996 1020.43 388.539 1021.88 388.539 1023.68C388.539 1025.48 389.996 1026.93 391.793 1026.93C393.589 1026.93 395.046 1025.48 395.046 1023.68Z" fill="url(#paint134_linear)"/>
<path d="M385.115 1023.68C385.115 1022.36 384.042 1021.28 382.718 1021.28C381.394 1021.28 380.321 1022.36 380.321 1023.68C380.321 1025 381.394 1026.08 382.718 1026.08C384.042 1026.08 385.115 1025 385.115 1023.68Z" fill="url(#paint135_linear)"/>
<path d="M376.896 1023.68C376.896 1022.83 376.206 1022.14 375.355 1022.14C374.504 1022.14 373.814 1022.83 373.814 1023.68C373.814 1024.53 374.504 1025.22 375.355 1025.22C376.206 1025.22 376.896 1024.53 376.896 1023.68Z" fill="url(#paint136_linear)"/>
<path d="M369.362 1024.37C369.705 1024.71 370.39 1024.71 370.732 1024.37C371.075 1024.02 371.075 1023.34 370.732 1023C370.39 1022.65 369.705 1022.65 369.362 1023C369.02 1023.51 369.02 1024.02 369.362 1024.37Z" fill="url(#paint137_linear)"/>
<path d="M352.411 981.056C352.411 979.259 350.955 977.803 349.158 977.803C347.361 977.803 345.905 979.259 345.905 981.056C345.905 982.852 347.361 984.308 349.158 984.308C350.955 984.308 352.411 982.852 352.411 981.056Z" fill="url(#paint138_linear)"/>
<path d="M347.446 991.84C346.59 990.984 346.59 989.444 347.446 988.417C348.302 987.561 349.843 987.561 350.87 988.417C351.726 989.272 351.726 990.813 350.87 991.84C349.843 992.867 348.302 992.867 347.446 991.84Z" fill="url(#paint139_linear)"/>
<path d="M350.699 997.489C350.699 996.638 350.009 995.949 349.158 995.949C348.307 995.949 347.617 996.638 347.617 997.489C347.617 998.34 348.307 999.03 349.158 999.03C350.009 999.03 350.699 998.34 350.699 997.489Z" fill="url(#paint140_linear)"/>
<path d="M350.185 1002.8C350.185 1002.23 349.725 1001.77 349.158 1001.77C348.59 1001.77 348.13 1002.23 348.13 1002.8C348.13 1003.36 348.59 1003.82 349.158 1003.82C349.725 1003.82 350.185 1003.36 350.185 1002.8Z" fill="url(#paint141_linear)"/>
<path d="M354.808 1023.85C354.808 1020.54 352.125 1017.86 348.815 1017.86C345.506 1017.86 342.823 1020.54 342.823 1023.85C342.823 1027.16 345.506 1029.84 348.815 1029.84C352.125 1029.84 354.808 1027.16 354.808 1023.85Z" fill="url(#paint142_linear)"/>
<path d="M-19.6575 703.395L-19.6575 813.295L104.993 813.295L104.993 703.395L-19.6575 703.395Z" fill="url(#paint143_linear)"/>
<path d="M75.8852 727.532C75.8852 725.649 77.4262 724.28 79.1384 724.28C80.8507 724.28 82.3917 725.82 82.3917 727.532C82.3917 729.415 80.8507 730.785 79.1384 730.785C77.4262 730.785 75.8852 729.244 75.8852 727.532Z" fill="url(#paint144_linear)"/>
<path d="M75.0291 734.037C75.0291 732.713 73.9559 731.641 72.632 731.641C71.3081 731.641 70.2349 732.713 70.2349 734.037C70.2349 735.361 71.3081 736.434 72.632 736.434C73.9559 736.434 75.0291 735.361 75.0291 734.037Z" fill="url(#paint145_linear)"/>
<path d="M69.0363 739.173C69.0363 738.322 68.3464 737.632 67.4953 737.632C66.6442 737.632 65.9543 738.322 65.9543 739.173C65.9543 740.023 66.6442 740.713 67.4953 740.713C68.3464 740.713 69.0363 740.023 69.0363 739.173Z" fill="url(#paint146_linear)"/>
<path d="M62.8723 742.939C62.8723 742.425 63.2147 741.912 63.8996 741.912C64.4133 741.912 64.9269 742.254 64.9269 742.939C64.9269 743.452 64.5845 743.966 63.8996 743.966C63.2147 743.795 62.8723 743.452 62.8723 742.939Z" fill="url(#paint147_linear)"/>
<path d="M75.8852 787.96C75.8852 789.843 77.4262 791.213 79.1384 791.213C80.8507 791.213 82.3917 789.672 82.3917 787.96C82.3917 786.077 80.8507 784.708 79.1384 784.708C77.4262 784.708 75.8852 786.077 75.8852 787.96Z" fill="url(#paint148_linear)"/>
<path d="M75.0291 781.455C75.0291 780.131 73.9559 779.058 72.632 779.058C71.3081 779.058 70.2349 780.131 70.2349 781.455C70.2349 782.779 71.3081 783.852 72.632 783.852C73.9559 783.852 75.0291 782.779 75.0291 781.455Z" fill="url(#paint149_linear)"/>
<path d="M69.0363 776.319C69.0363 775.469 68.3464 774.779 67.4953 774.779C66.6442 774.779 65.9543 775.469 65.9543 776.319C65.9543 777.17 66.6442 777.86 67.4953 777.86C68.3464 777.86 69.0363 777.17 69.0363 776.319Z" fill="url(#paint150_linear)"/>
<path d="M62.8723 772.553C62.8723 773.067 63.2147 773.581 63.8996 773.581C64.4133 773.581 64.9269 773.238 64.9269 772.553C64.9269 772.04 64.5845 771.526 63.8996 771.526C63.2147 771.698 62.8723 772.04 62.8723 772.553Z" fill="url(#paint151_linear)"/>
<path d="M21.6074 727.532C21.6074 725.736 20.1509 724.28 18.3541 724.28C16.5574 724.28 15.1009 725.736 15.1009 727.532C15.1009 729.328 16.5574 730.785 18.3541 730.785C20.1509 730.785 21.6074 729.328 21.6074 727.532Z" fill="url(#paint152_linear)"/>
<path d="M27.2578 734.037C27.2578 732.713 26.1845 731.641 24.8606 731.641C23.5367 731.641 22.4635 732.713 22.4635 734.037C22.4635 735.361 23.5367 736.434 24.8606 736.434C26.1845 736.434 27.2578 735.361 27.2578 734.037Z" fill="url(#paint153_linear)"/>
<path d="M31.5383 739.173C31.5383 738.317 30.8534 737.632 29.9973 737.632C29.1412 737.632 28.4563 738.317 28.4563 739.173C28.4563 740.029 29.1412 740.713 29.9973 740.713C30.8534 740.542 31.5383 739.857 31.5383 739.173Z" fill="url(#paint154_linear)"/>
<path d="M34.7916 742.939C34.7916 742.425 34.4492 741.912 33.7643 741.912C33.0794 741.912 32.7369 742.254 32.7369 742.939C32.7369 743.452 33.0794 743.966 33.7643 743.966C34.4492 743.966 34.7916 743.452 34.7916 742.939Z" fill="url(#paint155_linear)"/>
<path d="M21.7786 787.96C21.7786 789.843 20.2376 791.213 18.5253 791.213C16.8131 791.213 15.2721 789.672 15.2721 787.96C15.2721 786.077 16.8131 784.708 18.5253 784.708C20.2376 784.708 21.7786 786.077 21.7786 787.96Z" fill="url(#paint156_linear)"/>
<path d="M27.2578 781.455C27.2578 780.131 26.1845 779.058 24.8606 779.058C23.5367 779.058 22.4635 780.131 22.4635 781.455C22.4635 782.779 23.5367 783.852 24.8606 783.852C26.1845 783.852 27.2578 782.779 27.2578 781.455Z" fill="url(#paint157_linear)"/>
<path d="M31.5383 776.319C31.5383 777.175 30.8534 777.86 29.9973 777.86C29.1412 777.86 28.4563 777.175 28.4563 776.319C28.4563 775.464 29.1412 774.779 29.9973 774.779C30.8534 774.779 31.5383 775.464 31.5383 776.319Z" fill="url(#paint158_linear)"/>
<path d="M34.7916 772.553C34.7916 773.067 34.4491 773.581 33.7642 773.581C33.0793 773.581 32.7369 773.238 32.7369 772.553C32.7369 772.04 33.0793 771.526 33.7642 771.526C34.4491 771.526 34.7916 772.04 34.7916 772.553Z" fill="url(#paint159_linear)"/>
<path d="M54.996 757.832C54.996 761.255 52.2564 763.823 49.0031 763.823C45.5787 763.823 43.0103 761.084 43.0103 757.832C43.0103 754.408 45.7499 751.84 49.0031 751.84C52.2564 751.669 54.996 754.408 54.996 757.832Z" fill="url(#paint160_linear)"/>
<path d="M94.8911 757.832C94.8911 756.035 93.4345 754.579 91.6378 754.579C89.8411 754.579 88.3846 756.035 88.3846 757.832C88.3846 759.628 89.8411 761.084 91.6378 761.084C93.4345 761.084 94.8911 759.628 94.8911 757.832Z" fill="url(#paint161_linear)"/>
<path d="M84.7888 757.832C84.7888 756.508 83.7156 755.435 82.3917 755.435C81.0678 755.435 79.9946 756.508 79.9946 757.832C79.9946 759.155 81.0678 760.228 82.3917 760.228C83.7156 760.228 84.7888 759.155 84.7888 757.832Z" fill="url(#paint162_linear)"/>
<path d="M76.7413 757.832C76.7413 756.981 76.0514 756.291 75.2003 756.291C74.3492 756.291 73.6593 756.981 73.6593 757.832C73.6593 758.683 74.3492 759.372 75.2003 759.372C76.0514 759.372 76.7413 758.683 76.7413 757.832Z" fill="url(#paint163_linear)"/>
<path d="M70.9197 757.832C70.9197 757.264 70.4598 756.805 69.8924 756.805C69.325 756.805 68.8651 757.264 68.8651 757.832C68.8651 758.399 69.325 758.859 69.8924 758.859C70.4598 758.859 70.9197 758.399 70.9197 757.832Z" fill="url(#paint164_linear)"/>
<path d="M52.0852 800.628C52.0852 798.831 50.6286 797.375 48.8319 797.375C47.0352 797.375 45.5787 798.831 45.5787 800.628C45.5787 802.424 47.0352 803.88 48.8319 803.88C50.6286 803.88 52.0852 802.424 52.0852 800.628Z" fill="url(#paint165_linear)"/>
<path d="M51.229 791.384C51.229 790.06 50.1558 788.987 48.8319 788.987C47.508 788.987 46.4348 790.06 46.4348 791.384C46.4348 792.707 47.508 793.78 48.8319 793.78C50.1558 793.78 51.229 792.707 51.229 791.384Z" fill="url(#paint166_linear)"/>
<path d="M50.3729 784.194C50.3729 783.343 49.683 782.653 48.8319 782.653C47.9808 782.653 47.2909 783.343 47.2909 784.194C47.2909 785.045 47.9808 785.735 48.8319 785.735C49.683 785.735 50.3729 785.045 50.3729 784.194Z" fill="url(#paint167_linear)"/>
<path d="M49.8592 778.887C49.8592 778.32 49.3993 777.86 48.8319 777.86C48.2645 777.86 47.8046 778.32 47.8046 778.887C47.8046 779.455 48.2645 779.914 48.8319 779.914C49.3993 779.914 49.8592 779.455 49.8592 778.887Z" fill="url(#paint168_linear)"/>
<path d="M51.0578 717.261C52.4276 715.892 52.4276 713.837 51.0578 712.639C49.6881 711.27 47.6334 711.27 46.4348 712.639C45.065 714.009 45.065 716.063 46.4348 717.261C47.6334 718.459 49.6881 718.459 51.0578 717.261Z" fill="url(#paint169_linear)"/>
<path d="M50.373 725.82C51.2291 724.964 51.2291 723.424 50.3729 722.397C49.5168 721.541 47.9758 721.541 46.9485 722.397C46.0924 723.252 46.0924 724.793 46.9485 725.82C47.9758 726.676 49.5168 726.676 50.373 725.82Z" fill="url(#paint170_linear)"/>
<path d="M49.688 732.325C50.2017 731.812 50.2017 730.785 49.688 730.271C49.1744 729.758 48.147 729.758 47.6334 730.271C47.1197 730.785 47.1197 731.812 47.6334 732.325C48.147 732.839 49.1744 732.839 49.688 732.325Z" fill="url(#paint171_linear)"/>
<path d="M49.3456 737.29C49.6881 736.947 49.6881 736.262 49.3456 735.92C49.0032 735.578 48.3183 735.578 47.9758 735.92C47.6334 736.262 47.6334 736.947 47.9758 737.29C48.3183 737.632 49.0032 737.632 49.3456 737.29Z" fill="url(#paint172_linear)"/>
<path d="M9.27926 757.66C9.27926 755.864 7.82273 754.408 6.02601 754.408C4.22929 754.408 2.77277 755.864 2.77277 757.66C2.77277 759.457 4.22929 760.913 6.02601 760.913C7.82273 760.913 9.27926 759.457 9.27926 757.66Z" fill="url(#paint173_linear)"/>
<path d="M16.8131 759.372C15.957 760.228 14.416 760.228 13.3886 759.372C12.5325 758.516 12.5325 756.976 13.3886 755.949C14.2447 755.093 15.7857 755.093 16.8131 755.949C17.8404 756.805 17.8404 758.345 16.8131 759.372Z" fill="url(#paint174_linear)"/>
<path d="M23.4908 758.688C22.9771 759.201 21.9498 759.201 21.4361 758.688C20.9224 758.174 20.9224 757.147 21.4361 756.633C21.9498 756.12 22.9771 756.12 23.4908 756.633C24.0044 757.147 24.0044 758.003 23.4908 758.688Z" fill="url(#paint175_linear)"/>
<path d="M28.2851 758.345C27.9426 758.688 27.2577 758.688 26.9153 758.345C26.5728 758.003 26.5728 757.318 26.9153 756.976C27.2577 756.633 27.9426 756.633 28.2851 756.976C28.7987 757.318 28.7987 757.832 28.2851 758.345Z" fill="url(#paint176_linear)"/>
<path d="M54.8248 757.832C54.8248 754.523 52.1417 751.84 48.8319 751.84C45.5222 751.84 42.8391 754.523 42.8391 757.832C42.8391 761.141 45.5222 763.823 48.8319 763.823C52.1417 763.823 54.8248 761.141 54.8248 757.832Z" fill="url(#paint177_linear)"/>
<path d="M207.042 645.021L207.042 651.698C207.042 670.528 192.66 687.133 170.743 696.89C170.572 697.061 170.229 697.061 170.058 697.061C166.634 698.26 163.209 699.287 159.614 699.972C151.566 701.855 142.834 703.053 133.759 703.053L-19.9999 703.053L-19.9999 593.153L97.6306 593.153C123.828 593.153 144.032 594.009 159.442 596.234C163.038 597.09 166.634 598.117 169.887 599.144C170.058 599.144 170.401 599.315 170.572 599.315C192.66 609.586 207.042 626.191 207.042 645.021Z" fill="url(#paint178_linear)"/>
<path d="M97.1056 649.524L82.0926 634.515L67.0796 649.524L82.0926 664.534L97.1056 649.524Z" fill="#F7EDF6"/>
<path d="M118.023 649.558L109.064 640.601L100.105 649.558L109.064 658.515L118.023 649.558Z" fill="#F7EDF6"/>
<path d="M134.72 649.666L128.787 643.735L122.855 649.666L128.787 655.597L134.72 649.666Z" fill="#F7EDF6"/>
<path d="M295.138 48.0326C291.288 35.7651 278.219 28.9409 265.949 32.7905C253.678 36.6401 246.852 49.7057 250.703 61.9733C254.553 74.2409 267.622 81.0649 279.892 77.2153C292.163 73.3657 298.989 60.3002 295.138 48.0326Z" stroke="url(#paint179_linear)" stroke-width="2.0258" stroke-miterlimit="10"/>
<path d="M110.986 61.1127C110.986 48.255 100.56 37.8318 87.6996 37.8318C74.8389 37.8318 64.4132 48.255 64.4132 61.1127C64.4132 73.9705 74.8389 84.3938 87.6996 84.3938C100.56 84.3938 110.986 73.9705 110.986 61.1127Z" stroke="#F7EDF6" stroke-width="2.0258" stroke-miterlimit="10"/>
<path d="M209.953 545.392C209.953 532.535 199.528 522.111 186.667 522.111C173.806 522.111 163.38 532.535 163.38 545.392C163.38 558.25 173.806 568.673 186.667 568.673C199.528 568.673 209.953 558.25 209.953 545.392Z" stroke="url(#paint180_linear)" stroke-width="2.0258" stroke-miterlimit="10"/>
<path d="M250.175 530.597C242.074 528.693 233.962 533.715 232.057 541.814C230.152 549.913 235.176 558.023 243.277 559.927C251.378 561.832 259.489 556.81 261.394 548.711C263.299 540.611 258.276 532.502 250.175 530.597Z" stroke="url(#paint181_linear)" stroke-width="2.0258" stroke-miterlimit="10"/>
<path d="M303.441 545.392C303.441 539.814 298.918 535.292 293.339 535.292C287.76 535.292 283.237 539.814 283.237 545.392C283.237 550.97 287.76 555.492 293.339 555.492C298.918 555.492 303.441 550.97 303.441 545.392Z" stroke="url(#paint182_linear)" stroke-width="2.0258" stroke-miterlimit="10"/>
<path d="M362.015 531.058C354.099 529.197 346.172 534.104 344.311 542.019C342.449 549.933 347.358 557.858 355.274 559.719C363.19 561.58 371.116 556.673 372.978 548.758C374.839 540.844 369.931 532.919 362.015 531.058Z" stroke="url(#paint183_linear)" stroke-width="2.0258" stroke-miterlimit="10"/>
</g>
</g>
<defs>
<linearGradient id="paint0_linear" x1="15.1837" y1="14.4471" x2="15.1837" y2="288.746" gradientUnits="userSpaceOnUse">
<stop stop-color="#008F97"/>
<stop offset="1" stop-color="#00A3AB"/>
</linearGradient>
<linearGradient id="paint1_linear" x1="276.404" y1="105.987" x2="276.404" y2="299.157" gradientUnits="userSpaceOnUse">
<stop stop-color="#EA523D"/>
<stop offset="1" stop-color="#EC665C"/>
</linearGradient>
<linearGradient id="paint2_linear" x1="290.786" y1="105.987" x2="290.786" y2="299.157" gradientUnits="userSpaceOnUse">
<stop stop-color="#EA523D"/>
<stop offset="1" stop-color="#EC665C"/>
</linearGradient>
<linearGradient id="paint3_linear" x1="305.168" y1="105.987" x2="305.168" y2="299.157" gradientUnits="userSpaceOnUse">
<stop stop-color="#EA523D"/>
<stop offset="1" stop-color="#EC665C"/>
</linearGradient>
<linearGradient id="paint4_linear" x1="319.55" y1="105.987" x2="319.55" y2="299.157" gradientUnits="userSpaceOnUse">
<stop stop-color="#EA523D"/>
<stop offset="1" stop-color="#EC665C"/>
</linearGradient>
<linearGradient id="paint5_linear" x1="333.933" y1="105.987" x2="333.933" y2="299.157" gradientUnits="userSpaceOnUse">
<stop stop-color="#EA523D"/>
<stop offset="1" stop-color="#EC665C"/>
</linearGradient>
<linearGradient id="paint6_linear" x1="348.315" y1="105.987" x2="348.315" y2="299.157" gradientUnits="userSpaceOnUse">
<stop stop-color="#EA523D"/>
<stop offset="1" stop-color="#EC665C"/>
</linearGradient>
<linearGradient id="paint7_linear" x1="134.473" y1="3.92867" x2="134.473" y2="209.915" gradientUnits="userSpaceOnUse">
<stop stop-color="#EA523D"/>
<stop offset="1" stop-color="#EC665C"/>
</linearGradient>
<linearGradient id="paint8_linear" x1="227.357" y1="151.78" x2="165.156" y2="151.78" gradientUnits="userSpaceOnUse">
<stop stop-color="#DAB000"/>
<stop offset="1" stop-color="#FCEA00"/>
</linearGradient>
<linearGradient id="paint9_linear" x1="149.698" y1="151.398" x2="135.294" y2="151.398" gradientUnits="userSpaceOnUse">
<stop stop-color="#DAB000"/>
<stop offset="1" stop-color="#FCEA00"/>
</linearGradient>
<linearGradient id="paint10_linear" x1="121.788" y1="151.353" x2="111.987" y2="151.353" gradientUnits="userSpaceOnUse">
<stop stop-color="#DAB000"/>
<stop offset="1" stop-color="#FCEA00"/>
</linearGradient>
<linearGradient id="paint11_linear" x1="181.392" y1="170.295" x2="181.392" y2="132.412" gradientUnits="userSpaceOnUse">
<stop stop-color="#EA523D"/>
<stop offset="1" stop-color="#EC665C"/>
</linearGradient>
<linearGradient id="paint12_linear" x1="180.463" y1="106.026" x2="180.463" y2="14.391" gradientUnits="userSpaceOnUse">
<stop stop-color="#008F97"/>
<stop offset="1" stop-color="#00A3AB"/>
</linearGradient>
<linearGradient id="paint13_linear" x1="226.461" y1="14.2161" x2="162.856" y2="77.835" gradientUnits="userSpaceOnUse">
<stop stop-color="#F7EDF6"/>
<stop offset="1" stop-color="#E0DAA0"/>
</linearGradient>
<linearGradient id="paint14_linear" x1="203.408" y1="61.113" x2="203.408" y2="14.3963" gradientUnits="userSpaceOnUse">
<stop stop-color="#543A4C"/>
<stop offset="1" stop-color="#744468"/>
</linearGradient>
<linearGradient id="paint15_linear" x1="180.463" y1="106.02" x2="180.463" y2="14.3963" gradientUnits="userSpaceOnUse">
<stop stop-color="#543A4C"/>
<stop offset="1" stop-color="#744468"/>
</linearGradient>
<linearGradient id="paint16_linear" x1="188.33" y1="87.4563" x2="188.33" y2="14.391" gradientUnits="userSpaceOnUse">
<stop stop-color="#F7EDF6"/>
<stop offset="1" stop-color="#E0DAA0"/>
</linearGradient>
<linearGradient id="paint17_linear" x1="109.568" y1="414.583" x2="30.2537" y2="335.25" gradientUnits="userSpaceOnUse">
<stop stop-color="#F7EDF6"/>
<stop offset="1" stop-color="#E0DAA0"/>
</linearGradient>
<linearGradient id="paint18_linear" x1="52.2072" y1="300.06" x2="52.2072" y2="414.399" gradientUnits="userSpaceOnUse">
<stop stop-color="#EA523D"/>
<stop offset="1" stop-color="#EC665C"/>
</linearGradient>
<linearGradient id="paint19_linear" x1="62.0109" y1="323.226" x2="62.0109" y2="414.399" gradientUnits="userSpaceOnUse">
<stop stop-color="#F7EDF6"/>
<stop offset="1" stop-color="#E0DAA0"/>
</linearGradient>
<linearGradient id="paint20_linear" x1="54.56" y1="174.07" x2="54.56" y2="131.048" gradientUnits="userSpaceOnUse">
<stop stop-color="#543A4C"/>
<stop offset="1" stop-color="#744468"/>
</linearGradient>
<linearGradient id="paint21_linear" x1="317.894" y1="151.752" x2="226.342" y2="151.752" gradientUnits="userSpaceOnUse">
<stop stop-color="#008F97"/>
<stop offset="1" stop-color="#00A3AB"/>
</linearGradient>
<linearGradient id="paint22_linear" x1="215.342" y1="812.967" x2="109.733" y2="918.599" gradientUnits="userSpaceOnUse">
<stop stop-color="#543A4C"/>
<stop offset="1" stop-color="#744468"/>
</linearGradient>
<linearGradient id="paint23_linear" x1="480.939" y1="598.101" x2="214.203" y2="598.101" gradientUnits="userSpaceOnUse">
<stop stop-color="#F7EDF6"/>
<stop offset="1" stop-color="#E0DAA0"/>
</linearGradient>
<linearGradient id="paint24_linear" x1="480.939" y1="618.246" x2="214.203" y2="618.246" gradientUnits="userSpaceOnUse">
<stop stop-color="#F7EDF6"/>
<stop offset="1" stop-color="#E0DAA0"/>
</linearGradient>
<linearGradient id="paint25_linear" x1="480.939" y1="638.39" x2="214.203" y2="638.39" gradientUnits="userSpaceOnUse">
<stop stop-color="#F7EDF6"/>
<stop offset="1" stop-color="#E0DAA0"/>
</linearGradient>
<linearGradient id="paint26_linear" x1="480.939" y1="658.535" x2="214.203" y2="658.535" gradientUnits="userSpaceOnUse">
<stop stop-color="#F7EDF6"/>
<stop offset="1" stop-color="#E0DAA0"/>
</linearGradient>
<linearGradient id="paint27_linear" x1="480.939" y1="678.679" x2="214.203" y2="678.679" gradientUnits="userSpaceOnUse">
<stop stop-color="#F7EDF6"/>
<stop offset="1" stop-color="#E0DAA0"/>
</linearGradient>
<linearGradient id="paint28_linear" x1="480.939" y1="698.824" x2="214.203" y2="698.824" gradientUnits="userSpaceOnUse">
<stop stop-color="#F7EDF6"/>
<stop offset="1" stop-color="#E0DAA0"/>
</linearGradient>
<linearGradient id="paint29_linear" x1="84.7037" y1="503.452" x2="-5.14718" y2="503.452" gradientUnits="userSpaceOnUse">
<stop stop-color="#EA523D"/>
<stop offset="1" stop-color="#EC665C"/>
</linearGradient>
<linearGradient id="paint30_linear" x1="84.7037" y1="440.538" x2="-5.14718" y2="440.538" gradientUnits="userSpaceOnUse">
<stop stop-color="#543A4C"/>
<stop offset="1" stop-color="#744468"/>
</linearGradient>
<linearGradient id="paint31_linear" x1="84.7037" y1="460.691" x2="-5.14718" y2="460.691" gradientUnits="userSpaceOnUse">
<stop stop-color="#543A4C"/>
<stop offset="1" stop-color="#744468"/>
</linearGradient>
<linearGradient id="paint32_linear" x1="84.7037" y1="480.828" x2="-5.14718" y2="480.828" gradientUnits="userSpaceOnUse">
<stop stop-color="#543A4C"/>
<stop offset="1" stop-color="#744468"/>
</linearGradient>
<linearGradient id="paint33_linear" x1="84.7037" y1="500.964" x2="-5.14718" y2="500.964" gradientUnits="userSpaceOnUse">
<stop stop-color="#543A4C"/>
<stop offset="1" stop-color="#744468"/>
</linearGradient>
<linearGradient id="paint34_linear" x1="83.4011" y1="521.118" x2="-5.14718" y2="521.118" gradientUnits="userSpaceOnUse">
<stop stop-color="#543A4C"/>
<stop offset="1" stop-color="#744468"/>
</linearGradient>
<linearGradient id="paint35_linear" x1="78.2906" y1="541.271" x2="-5.14718" y2="541.271" gradientUnits="userSpaceOnUse">
<stop stop-color="#543A4C"/>
<stop offset="1" stop-color="#744468"/>
</linearGradient>
<linearGradient id="paint36_linear" x1="103.751" y1="978.182" x2="178.392" y2="978.182" gradientUnits="userSpaceOnUse">
<stop stop-color="#DAB000"/>
<stop offset="1" stop-color="#FCEA00"/>
</linearGradient>
<linearGradient id="paint37_linear" x1="196.941" y1="978.64" x2="214.226" y2="978.64" gradientUnits="userSpaceOnUse">
<stop stop-color="#DAB000"/>
<stop offset="1" stop-color="#FCEA00"/>
</linearGradient>
<linearGradient id="paint38_linear" x1="230.433" y1="978.694" x2="242.195" y2="978.694" gradientUnits="userSpaceOnUse">
<stop stop-color="#DAB000"/>
<stop offset="1" stop-color="#FCEA00"/>
</linearGradient>
<linearGradient id="paint39_linear" x1="158.909" y1="955.964" x2="158.909" y2="1001.42" gradientUnits="userSpaceOnUse">
<stop stop-color="#EA523D"/>
<stop offset="1" stop-color="#EC665C"/>
</linearGradient>
<linearGradient id="paint40_linear" x1="167.904" y1="785.368" x2="167.904" y2="731.107" gradientUnits="userSpaceOnUse">
<stop stop-color="#543A4C"/>
<stop offset="1" stop-color="#744468"/>
</linearGradient>
<linearGradient id="paint41_linear" x1="200.723" y1="777.147" x2="200.723" y2="739.328" gradientUnits="userSpaceOnUse">
<stop stop-color="#008F97"/>
<stop offset="1" stop-color="#00A3AB"/>
</linearGradient>
<linearGradient id="paint42_linear" x1="135.085" y1="777.147" x2="135.085" y2="739.328" gradientUnits="userSpaceOnUse">
<stop stop-color="#008F97"/>
<stop offset="1" stop-color="#00A3AB"/>
</linearGradient>
<linearGradient id="paint43_linear" x1="-5.31851" y1="923.474" x2="71.0592" y2="847.079" gradientUnits="userSpaceOnUse">
<stop stop-color="#F7EDF6"/>
<stop offset="1" stop-color="#E0DAA0"/>
</linearGradient>
<linearGradient id="paint44_linear" x1="22.3836" y1="867.157" x2="22.3836" y2="923.297" gradientUnits="userSpaceOnUse">
<stop stop-color="#EA523D"/>
<stop offset="1" stop-color="#EC665C"/>
</linearGradient>
<linearGradient id="paint45_linear" x1="49.9185" y1="813.192" x2="49.9185" y2="923.297" gradientUnits="userSpaceOnUse">
<stop stop-color="#DAB000"/>
<stop offset="1" stop-color="#FCEA00"/>
</linearGradient>
<linearGradient id="paint46_linear" x1="408.764" y1="897.794" x2="437.9" y2="899.181" gradientUnits="userSpaceOnUse">
<stop stop-color="#F7EDF6"/>
<stop offset="1" stop-color="#E0DAA0"/>
</linearGradient>
<linearGradient id="paint47_linear" x1="-5.31851" y1="923.126" x2="71.0592" y2="999.521" gradientUnits="userSpaceOnUse">
<stop stop-color="#F7EDF6"/>
<stop offset="1" stop-color="#E0DAA0"/>
</linearGradient>
<linearGradient id="paint48_linear" x1="22.3836" y1="979.443" x2="22.3836" y2="923.303" gradientUnits="userSpaceOnUse">
<stop stop-color="#543A4C"/>
<stop offset="1" stop-color="#744468"/>
</linearGradient>
<linearGradient id="paint49_linear" x1="49.9185" y1="1033.41" x2="49.9185" y2="923.303" gradientUnits="userSpaceOnUse">
<stop stop-color="#EA523D"/>
<stop offset="1" stop-color="#EC665C"/>
</linearGradient>
<linearGradient id="paint50_linear" x1="40.478" y1="1011.1" x2="40.478" y2="923.303" gradientUnits="userSpaceOnUse">
<stop stop-color="#F7EDF6"/>
<stop offset="1" stop-color="#E0DAA0"/>
</linearGradient>
<linearGradient id="paint51_linear" x1="114.489" y1="197.347" x2="190.867" y2="273.742" gradientUnits="userSpaceOnUse">
<stop stop-color="#F7EDF6"/>
<stop offset="1" stop-color="#E0DAA0"/>
</linearGradient>
<linearGradient id="paint52_linear" x1="170.819" y1="225.042" x2="114.667" y2="225.042" gradientUnits="userSpaceOnUse">
<stop stop-color="#543A4C"/>
<stop offset="1" stop-color="#744468"/>
</linearGradient>
<linearGradient id="paint53_linear" x1="224.797" y1="252.571" x2="114.667" y2="252.571" gradientUnits="userSpaceOnUse">
<stop stop-color="#DAB000"/>
<stop offset="1" stop-color="#FCEA00"/>
</linearGradient>
<linearGradient id="paint54_linear" x1="140.176" y1="611.333" x2="138.789" y2="640.463" gradientUnits="userSpaceOnUse">
<stop stop-color="#F7EDF6"/>
<stop offset="1" stop-color="#E0DAA0"/>
</linearGradient>
<linearGradient id="paint55_linear" x1="216.505" y1="759.544" x2="319.216" y2="757.038" gradientUnits="userSpaceOnUse">
<stop stop-color="#F7EDF6"/>
<stop offset="1" stop-color="#E0DAA0"/>
</linearGradient>
<linearGradient id="paint56_linear" x1="229.648" y1="711.601" x2="217.01" y2="711.601" gradientUnits="userSpaceOnUse">
<stop stop-color="#008F97"/>
<stop offset="1" stop-color="#00A3AB"/>
</linearGradient>
<linearGradient id="paint57_linear" x1="237.263" y1="721.613" x2="230.2" y2="721.613" gradientUnits="userSpaceOnUse">
<stop stop-color="#EA523D"/>
<stop offset="1" stop-color="#EC665C"/>
</linearGradient>
<linearGradient id="paint58_linear" x1="243.847" y1="729.522" x2="239.436" y2="729.522" gradientUnits="userSpaceOnUse">
<stop stop-color="#008F97"/>
<stop offset="1" stop-color="#00A3AB"/>
</linearGradient>
<linearGradient id="paint59_linear" x1="248.193" y1="735.317" x2="246.188" y2="735.317" gradientUnits="userSpaceOnUse">
<stop stop-color="#EA523D"/>
<stop offset="1" stop-color="#EC665C"/>
</linearGradient>
<linearGradient id="paint60_linear" x1="310.354" y1="711.601" x2="322.992" y2="711.601" gradientUnits="userSpaceOnUse">
<stop stop-color="#008F97"/>
<stop offset="1" stop-color="#00A3AB"/>
</linearGradient>
<linearGradient id="paint61_linear" x1="302.738" y1="721.613" x2="309.802" y2="721.613" gradientUnits="userSpaceOnUse">
<stop stop-color="#EA523D"/>
<stop offset="1" stop-color="#EC665C"/>
</linearGradient>
<linearGradient id="paint62_linear" x1="296.155" y1="729.522" x2="300.566" y2="729.522" gradientUnits="userSpaceOnUse">
<stop stop-color="#008F97"/>
<stop offset="1" stop-color="#00A3AB"/>
</linearGradient>
<linearGradient id="paint63_linear" x1="291.809" y1="735.317" x2="293.814" y2="735.317" gradientUnits="userSpaceOnUse">
<stop stop-color="#EA523D"/>
<stop offset="1" stop-color="#EC665C"/>
</linearGradient>
<linearGradient id="paint64_linear" x1="229.648" y1="805.325" x2="217.01" y2="805.325" gradientUnits="userSpaceOnUse">
<stop stop-color="#008F97"/>
<stop offset="1" stop-color="#00A3AB"/>
</linearGradient>
<linearGradient id="paint65_linear" x1="237.263" y1="795.312" x2="230.2" y2="795.312" gradientUnits="userSpaceOnUse">
<stop stop-color="#EA523D"/>
<stop offset="1" stop-color="#EC665C"/>
</linearGradient>
<linearGradient id="paint66_linear" x1="243.847" y1="787.403" x2="239.436" y2="787.403" gradientUnits="userSpaceOnUse">
<stop stop-color="#008F97"/>
<stop offset="1" stop-color="#00A3AB"/>
</linearGradient>
<linearGradient id="paint67_linear" x1="248.193" y1="781.609" x2="246.188" y2="781.609" gradientUnits="userSpaceOnUse">
<stop stop-color="#EA523D"/>
<stop offset="1" stop-color="#EC665C"/>
</linearGradient>
<linearGradient id="paint68_linear" x1="310.354" y1="805.325" x2="322.992" y2="805.325" gradientUnits="userSpaceOnUse">
<stop stop-color="#008F97"/>
<stop offset="1" stop-color="#00A3AB"/>
</linearGradient>
<linearGradient id="paint69_linear" x1="302.738" y1="795.312" x2="309.802" y2="795.312" gradientUnits="userSpaceOnUse">
<stop stop-color="#EA523D"/>
<stop offset="1" stop-color="#EC665C"/>
</linearGradient>
<linearGradient id="paint70_linear" x1="296.155" y1="787.403" x2="300.566" y2="787.403" gradientUnits="userSpaceOnUse">
<stop stop-color="#008F97"/>
<stop offset="1" stop-color="#00A3AB"/>
</linearGradient>
<linearGradient id="paint71_linear" x1="291.809" y1="781.609" x2="293.814" y2="781.609" gradientUnits="userSpaceOnUse">
<stop stop-color="#EA523D"/>
<stop offset="1" stop-color="#EC665C"/>
</linearGradient>
<linearGradient id="paint72_linear" x1="270.084" y1="747.284" x2="270.084" y2="769.328" gradientUnits="userSpaceOnUse">
<stop stop-color="#EA523D"/>
<stop offset="1" stop-color="#EC665C"/>
</linearGradient>
<linearGradient id="paint73_linear" x1="270.084" y1="760.809" x2="270.084" y2="748.305" gradientUnits="userSpaceOnUse">
<stop stop-color="#F7EDF6"/>
<stop offset="1" stop-color="#E0DAA0"/>
</linearGradient>
<linearGradient id="paint74_linear" x1="280.143" y1="883.34" x2="274.353" y2="877.548" gradientUnits="userSpaceOnUse">
<stop stop-color="#543A4C"/>
<stop offset="1" stop-color="#744468"/>
</linearGradient>
<linearGradient id="paint75_linear" x1="279.044" y1="891.417" x2="275.808" y2="888.181" gradientUnits="userSpaceOnUse">
<stop stop-color="#543A4C"/>
<stop offset="1" stop-color="#744468"/>
</linearGradient>
<linearGradient id="paint76_linear" x1="278.436" y1="898.058" x2="276.415" y2="896.037" gradientUnits="userSpaceOnUse">
<stop stop-color="#543A4C"/>
<stop offset="1" stop-color="#744468"/>
</linearGradient>
<linearGradient id="paint77_linear" x1="277.771" y1="902.704" x2="276.852" y2="901.786" gradientUnits="userSpaceOnUse">
<stop stop-color="#543A4C"/>
<stop offset="1" stop-color="#744468"/>
</linearGradient>
<linearGradient id="paint78_linear" x1="317.128" y1="920.316" x2="322.918" y2="926.108" gradientUnits="userSpaceOnUse">
<stop stop-color="#543A4C"/>
<stop offset="1" stop-color="#744468"/>
</linearGradient>
<linearGradient id="paint79_linear" x1="309.048" y1="921.415" x2="312.284" y2="924.652" gradientUnits="userSpaceOnUse">
<stop stop-color="#543A4C"/>
<stop offset="1" stop-color="#744468"/>
</linearGradient>
<linearGradient id="paint80_linear" x1="302.406" y1="922.023" x2="304.427" y2="924.045" gradientUnits="userSpaceOnUse">
<stop stop-color="#543A4C"/>
<stop offset="1" stop-color="#744468"/>
</linearGradient>
<linearGradient id="paint81_linear" x1="297.759" y1="922.688" x2="298.677" y2="923.607" gradientUnits="userSpaceOnUse">
<stop stop-color="#543A4C"/>
<stop offset="1" stop-color="#744468"/>
</linearGradient>
<linearGradient id="paint82_linear" x1="237.183" y1="926.29" x2="231.392" y2="920.498" gradientUnits="userSpaceOnUse">
<stop stop-color="#543A4C"/>
<stop offset="1" stop-color="#744468"/>
</linearGradient>
<linearGradient id="paint83_linear" x1="245.262" y1="925.191" x2="242.026" y2="921.954" gradientUnits="userSpaceOnUse">
<stop stop-color="#543A4C"/>
<stop offset="1" stop-color="#744468"/>
</linearGradient>
<linearGradient id="paint84_linear" x1="251.904" y1="924.583" x2="249.883" y2="922.562" gradientUnits="userSpaceOnUse">
<stop stop-color="#543A4C"/>
<stop offset="1" stop-color="#744468"/>
</linearGradient>
<linearGradient id="paint85_linear" x1="256.552" y1="923.918" x2="255.633" y2="922.999" gradientUnits="userSpaceOnUse">
<stop stop-color="#543A4C"/>
<stop offset="1" stop-color="#744468"/>
</linearGradient>
<linearGradient id="paint86_linear" x1="274.168" y1="963.266" x2="279.958" y2="969.058" gradientUnits="userSpaceOnUse">
<stop stop-color="#543A4C"/>
<stop offset="1" stop-color="#744468"/>
</linearGradient>
<linearGradient id="paint87_linear" x1="275.267" y1="955.189" x2="278.503" y2="958.426" gradientUnits="userSpaceOnUse">
<stop stop-color="#543A4C"/>
<stop offset="1" stop-color="#744468"/>
</linearGradient>
<linearGradient id="paint88_linear" x1="275.875" y1="948.548" x2="277.896" y2="950.57" gradientUnits="userSpaceOnUse">
<stop stop-color="#543A4C"/>
<stop offset="1" stop-color="#744468"/>
</linearGradient>
<linearGradient id="paint89_linear" x1="276.54" y1="943.902" x2="277.458" y2="944.82" gradientUnits="userSpaceOnUse">
<stop stop-color="#543A4C"/>
<stop offset="1" stop-color="#744468"/>
</linearGradient>
<linearGradient id="paint90_linear" x1="282.317" y1="918.218" x2="272.215" y2="928.323" gradientUnits="userSpaceOnUse">
<stop stop-color="#543A4C"/>
<stop offset="1" stop-color="#744468"/>
</linearGradient>
<linearGradient id="paint91_linear" x1="267.467" y1="306.264" x2="267.467" y2="298.075" gradientUnits="userSpaceOnUse">
<stop stop-color="#543A4C"/>
<stop offset="1" stop-color="#744468"/>
</linearGradient>
<linearGradient id="paint92_linear" x1="260.977" y1="311.198" x2="260.977" y2="306.622" gradientUnits="userSpaceOnUse">
<stop stop-color="#543A4C"/>
<stop offset="1" stop-color="#744468"/>
</linearGradient>
<linearGradient id="paint93_linear" x1="255.85" y1="315.464" x2="255.85" y2="312.606" gradientUnits="userSpaceOnUse">
<stop stop-color="#543A4C"/>
<stop offset="1" stop-color="#744468"/>
</linearGradient>
<linearGradient id="paint94_linear" x1="252.094" y1="318.28" x2="252.094" y2="316.981" gradientUnits="userSpaceOnUse">
<stop stop-color="#543A4C"/>
<stop offset="1" stop-color="#744468"/>
</linearGradient>
<linearGradient id="paint95_linear" x1="267.467" y1="358.556" x2="267.467" y2="366.745" gradientUnits="userSpaceOnUse">
<stop stop-color="#543A4C"/>
<stop offset="1" stop-color="#744468"/>
</linearGradient>
<linearGradient id="paint96_linear" x1="260.977" y1="353.622" x2="260.977" y2="358.198" gradientUnits="userSpaceOnUse">
<stop stop-color="#543A4C"/>
<stop offset="1" stop-color="#744468"/>
</linearGradient>
<linearGradient id="paint97_linear" x1="255.85" y1="349.356" x2="255.85" y2="352.214" gradientUnits="userSpaceOnUse">
<stop stop-color="#543A4C"/>
<stop offset="1" stop-color="#744468"/>
</linearGradient>
<linearGradient id="paint98_linear" x1="252.094" y1="346.541" x2="252.094" y2="347.84" gradientUnits="userSpaceOnUse">
<stop stop-color="#543A4C"/>
<stop offset="1" stop-color="#744468"/>
</linearGradient>
<linearGradient id="paint99_linear" x1="206.712" y1="306.264" x2="206.712" y2="298.075" gradientUnits="userSpaceOnUse">
<stop stop-color="#543A4C"/>
<stop offset="1" stop-color="#744468"/>
</linearGradient>
<linearGradient id="paint100_linear" x1="213.203" y1="311.198" x2="213.203" y2="306.622" gradientUnits="userSpaceOnUse">
<stop stop-color="#543A4C"/>
<stop offset="1" stop-color="#744468"/>
</linearGradient>
<linearGradient id="paint101_linear" x1="218.33" y1="315.464" x2="218.33" y2="312.606" gradientUnits="userSpaceOnUse">
<stop stop-color="#543A4C"/>
<stop offset="1" stop-color="#744468"/>
</linearGradient>
<linearGradient id="paint102_linear" x1="222.086" y1="318.28" x2="222.086" y2="316.981" gradientUnits="userSpaceOnUse">
<stop stop-color="#543A4C"/>
<stop offset="1" stop-color="#744468"/>
</linearGradient>
<linearGradient id="paint103_linear" x1="206.712" y1="358.556" x2="206.712" y2="366.745" gradientUnits="userSpaceOnUse">
<stop stop-color="#543A4C"/>
<stop offset="1" stop-color="#744468"/>
</linearGradient>
<linearGradient id="paint104_linear" x1="213.203" y1="353.622" x2="213.203" y2="358.198" gradientUnits="userSpaceOnUse">
<stop stop-color="#543A4C"/>
<stop offset="1" stop-color="#744468"/>
</linearGradient>
<linearGradient id="paint105_linear" x1="218.33" y1="349.356" x2="218.33" y2="352.214" gradientUnits="userSpaceOnUse">
<stop stop-color="#543A4C"/>
<stop offset="1" stop-color="#744468"/>
</linearGradient>
<linearGradient id="paint106_linear" x1="222.086" y1="346.541" x2="222.086" y2="347.84" gradientUnits="userSpaceOnUse">
<stop stop-color="#543A4C"/>
<stop offset="1" stop-color="#744468"/>
</linearGradient>
<linearGradient id="paint107_linear" x1="244.336" y1="332.464" x2="230.047" y2="332.464" gradientUnits="userSpaceOnUse">
<stop stop-color="#543A4C"/>
<stop offset="1" stop-color="#744468"/>
</linearGradient>
<linearGradient id="paint108_linear" x1="401.249" y1="1024.96" x2="286.548" y2="1024.96" gradientUnits="userSpaceOnUse">
<stop stop-color="#EA523D"/>
<stop offset="1" stop-color="#EC665C"/>
</linearGradient>
<linearGradient id="paint109_linear" x1="375.122" y1="1054.21" x2="383.312" y2="1054.21" gradientUnits="userSpaceOnUse">
<stop stop-color="#543A4C"/>
<stop offset="1" stop-color="#744468"/>
</linearGradient>
<linearGradient id="paint110_linear" x1="370.186" y1="1047.72" x2="374.764" y2="1047.72" gradientUnits="userSpaceOnUse">
<stop stop-color="#543A4C"/>
<stop offset="1" stop-color="#744468"/>
</linearGradient>
<linearGradient id="paint111_linear" x1="365.919" y1="1042.59" x2="368.778" y2="1042.59" gradientUnits="userSpaceOnUse">
<stop stop-color="#543A4C"/>
<stop offset="1" stop-color="#744468"/>
</linearGradient>
<linearGradient id="paint112_linear" x1="363.103" y1="1038.84" x2="364.403" y2="1038.84" gradientUnits="userSpaceOnUse">
<stop stop-color="#543A4C"/>
<stop offset="1" stop-color="#744468"/>
</linearGradient>
<linearGradient id="paint113_linear" x1="322.817" y1="1054.21" x2="314.627" y2="1054.21" gradientUnits="userSpaceOnUse">
<stop stop-color="#543A4C"/>
<stop offset="1" stop-color="#744468"/>
</linearGradient>
<linearGradient id="paint114_linear" x1="327.753" y1="1047.72" x2="323.175" y2="1047.72" gradientUnits="userSpaceOnUse">
<stop stop-color="#543A4C"/>
<stop offset="1" stop-color="#744468"/>
</linearGradient>
<linearGradient id="paint115_linear" x1="332.02" y1="1042.59" x2="329.161" y2="1042.59" gradientUnits="userSpaceOnUse">
<stop stop-color="#543A4C"/>
<stop offset="1" stop-color="#744468"/>
</linearGradient>
<linearGradient id="paint116_linear" x1="334.836" y1="1038.84" x2="333.536" y2="1038.84" gradientUnits="userSpaceOnUse">
<stop stop-color="#543A4C"/>
<stop offset="1" stop-color="#744468"/>
</linearGradient>
<linearGradient id="paint117_linear" x1="375.122" y1="993.466" x2="383.312" y2="993.466" gradientUnits="userSpaceOnUse">
<stop stop-color="#543A4C"/>
<stop offset="1" stop-color="#744468"/>
</linearGradient>
<linearGradient id="paint118_linear" x1="370.186" y1="999.955" x2="374.764" y2="999.955" gradientUnits="userSpaceOnUse">
<stop stop-color="#543A4C"/>
<stop offset="1" stop-color="#744468"/>
</linearGradient>
<linearGradient id="paint119_linear" x1="365.919" y1="1005.08" x2="368.778" y2="1005.08" gradientUnits="userSpaceOnUse">
<stop stop-color="#543A4C"/>
<stop offset="1" stop-color="#744468"/>
</linearGradient>
<linearGradient id="paint120_linear" x1="363.103" y1="1008.84" x2="364.403" y2="1008.84" gradientUnits="userSpaceOnUse">
<stop stop-color="#543A4C"/>
<stop offset="1" stop-color="#744468"/>
</linearGradient>
<linearGradient id="paint121_linear" x1="322.817" y1="993.466" x2="314.627" y2="993.466" gradientUnits="userSpaceOnUse">
<stop stop-color="#543A4C"/>
<stop offset="1" stop-color="#744468"/>
</linearGradient>
<linearGradient id="paint122_linear" x1="327.753" y1="999.955" x2="323.175" y2="999.955" gradientUnits="userSpaceOnUse">
<stop stop-color="#543A4C"/>
<stop offset="1" stop-color="#744468"/>
</linearGradient>
<linearGradient id="paint123_linear" x1="332.02" y1="1005.08" x2="329.161" y2="1005.08" gradientUnits="userSpaceOnUse">
<stop stop-color="#543A4C"/>
<stop offset="1" stop-color="#744468"/>
</linearGradient>
<linearGradient id="paint124_linear" x1="334.836" y1="1008.84" x2="333.536" y2="1008.84" gradientUnits="userSpaceOnUse">
<stop stop-color="#543A4C"/>
<stop offset="1" stop-color="#744468"/>
</linearGradient>
<linearGradient id="paint125_linear" x1="348.916" y1="1031.08" x2="348.916" y2="1016.79" gradientUnits="userSpaceOnUse">
<stop stop-color="#543A4C"/>
<stop offset="1" stop-color="#744468"/>
</linearGradient>
<linearGradient id="paint126_linear" x1="345.982" y1="1063.8" x2="351.772" y2="1069.59" gradientUnits="userSpaceOnUse">
<stop stop-color="#543A4C"/>
<stop offset="1" stop-color="#744468"/>
</linearGradient>
<linearGradient id="paint127_linear" x1="347.081" y1="1055.72" x2="350.317" y2="1058.96" gradientUnits="userSpaceOnUse">
<stop stop-color="#543A4C"/>
<stop offset="1" stop-color="#744468"/>
</linearGradient>
<linearGradient id="paint128_linear" x1="347.689" y1="1049.08" x2="349.71" y2="1051.1" gradientUnits="userSpaceOnUse">
<stop stop-color="#543A4C"/>
<stop offset="1" stop-color="#744468"/>
</linearGradient>
<linearGradient id="paint129_linear" x1="348.354" y1="1044.44" x2="349.273" y2="1045.35" gradientUnits="userSpaceOnUse">
<stop stop-color="#543A4C"/>
<stop offset="1" stop-color="#744468"/>
</linearGradient>
<linearGradient id="paint130_linear" x1="308.997" y1="1026.82" x2="303.207" y2="1021.03" gradientUnits="userSpaceOnUse">
<stop stop-color="#543A4C"/>
<stop offset="1" stop-color="#744468"/>
</linearGradient>
<linearGradient id="paint131_linear" x1="317.076" y1="1025.72" x2="313.84" y2="1022.49" gradientUnits="userSpaceOnUse">
<stop stop-color="#543A4C"/>
<stop offset="1" stop-color="#744468"/>
</linearGradient>
<linearGradient id="paint132_linear" x1="323.719" y1="1025.12" x2="321.698" y2="1023.09" gradientUnits="userSpaceOnUse">
<stop stop-color="#543A4C"/>
<stop offset="1" stop-color="#744468"/>
</linearGradient>
<linearGradient id="paint133_linear" x1="328.366" y1="1024.45" x2="327.447" y2="1023.53" gradientUnits="userSpaceOnUse">
<stop stop-color="#543A4C"/>
<stop offset="1" stop-color="#744468"/>
</linearGradient>
<linearGradient id="paint134_linear" x1="388.942" y1="1020.85" x2="394.732" y2="1026.64" gradientUnits="userSpaceOnUse">
<stop stop-color="#543A4C"/>
<stop offset="1" stop-color="#744468"/>
</linearGradient>
<linearGradient id="paint135_linear" x1="380.863" y1="1021.95" x2="384.099" y2="1025.19" gradientUnits="userSpaceOnUse">
<stop stop-color="#543A4C"/>
<stop offset="1" stop-color="#744468"/>
</linearGradient>
<linearGradient id="paint136_linear" x1="374.22" y1="1022.56" x2="376.241" y2="1024.58" gradientUnits="userSpaceOnUse">
<stop stop-color="#543A4C"/>
<stop offset="1" stop-color="#744468"/>
</linearGradient>
<linearGradient id="paint137_linear" x1="369.573" y1="1023.22" x2="370.492" y2="1024.14" gradientUnits="userSpaceOnUse">
<stop stop-color="#543A4C"/>
<stop offset="1" stop-color="#744468"/>
</linearGradient>
<linearGradient id="paint138_linear" x1="351.957" y1="983.873" x2="346.167" y2="978.082" gradientUnits="userSpaceOnUse">
<stop stop-color="#543A4C"/>
<stop offset="1" stop-color="#744468"/>
</linearGradient>
<linearGradient id="paint139_linear" x1="350.858" y1="991.95" x2="347.622" y2="988.714" gradientUnits="userSpaceOnUse">
<stop stop-color="#543A4C"/>
<stop offset="1" stop-color="#744468"/>
</linearGradient>
<linearGradient id="paint140_linear" x1="350.25" y1="998.591" x2="348.229" y2="996.57" gradientUnits="userSpaceOnUse">
<stop stop-color="#543A4C"/>
<stop offset="1" stop-color="#744468"/>
</linearGradient>
<linearGradient id="paint141_linear" x1="349.585" y1="1003.24" x2="348.666" y2="1002.32" gradientUnits="userSpaceOnUse">
<stop stop-color="#543A4C"/>
<stop offset="1" stop-color="#744468"/>
</linearGradient>
<linearGradient id="paint142_linear" x1="343.807" y1="1028.92" x2="353.909" y2="1018.82" gradientUnits="userSpaceOnUse">
<stop stop-color="#543A4C"/>
<stop offset="1" stop-color="#744468"/>
</linearGradient>
<linearGradient id="paint143_linear" x1="42.6335" y1="705.45" x2="42.6335" y2="820.124" gradientUnits="userSpaceOnUse">
<stop stop-color="#EA523D"/>
<stop offset="1" stop-color="#EC665C"/>
</linearGradient>
<linearGradient id="paint144_linear" x1="79.1694" y1="731.571" x2="79.1694" y2="723.382" gradientUnits="userSpaceOnUse">
<stop stop-color="#543A4C"/>
<stop offset="1" stop-color="#744468"/>
</linearGradient>
<linearGradient id="paint145_linear" x1="72.6793" y1="736.505" x2="72.6792" y2="731.929" gradientUnits="userSpaceOnUse">
<stop stop-color="#543A4C"/>
<stop offset="1" stop-color="#744468"/>
</linearGradient>
<linearGradient id="paint146_linear" x1="67.5523" y1="740.771" x2="67.5523" y2="737.913" gradientUnits="userSpaceOnUse">
<stop stop-color="#543A4C"/>
<stop offset="1" stop-color="#744468"/>
</linearGradient>
<linearGradient id="paint147_linear" x1="63.796" y1="743.587" x2="63.796" y2="742.287" gradientUnits="userSpaceOnUse">
<stop stop-color="#543A4C"/>
<stop offset="1" stop-color="#744468"/>
</linearGradient>
<linearGradient id="paint148_linear" x1="79.1694" y1="783.863" x2="79.1694" y2="792.052" gradientUnits="userSpaceOnUse">
<stop stop-color="#543A4C"/>
<stop offset="1" stop-color="#744468"/>
</linearGradient>
<linearGradient id="paint149_linear" x1="72.6792" y1="778.929" x2="72.6793" y2="783.505" gradientUnits="userSpaceOnUse">
<stop stop-color="#543A4C"/>
<stop offset="1" stop-color="#744468"/>
</linearGradient>
<linearGradient id="paint150_linear" x1="67.5523" y1="774.663" x2="67.5523" y2="777.521" gradientUnits="userSpaceOnUse">
<stop stop-color="#543A4C"/>
<stop offset="1" stop-color="#744468"/>
</linearGradient>
<linearGradient id="paint151_linear" x1="63.796" y1="771.847" x2="63.796" y2="773.146" gradientUnits="userSpaceOnUse">
<stop stop-color="#543A4C"/>
<stop offset="1" stop-color="#744468"/>
</linearGradient>
<linearGradient id="paint152_linear" x1="18.4148" y1="731.571" x2="18.4148" y2="723.382" gradientUnits="userSpaceOnUse">
<stop stop-color="#543A4C"/>
<stop offset="1" stop-color="#744468"/>
</linearGradient>
<linearGradient id="paint153_linear" x1="24.905" y1="736.505" x2="24.905" y2="731.929" gradientUnits="userSpaceOnUse">
<stop stop-color="#543A4C"/>
<stop offset="1" stop-color="#744468"/>
</linearGradient>
<linearGradient id="paint154_linear" x1="30.0317" y1="740.771" x2="30.0317" y2="737.913" gradientUnits="userSpaceOnUse">
<stop stop-color="#543A4C"/>
<stop offset="1" stop-color="#744468"/>
</linearGradient>
<linearGradient id="paint155_linear" x1="33.7883" y1="743.587" x2="33.7883" y2="742.287" gradientUnits="userSpaceOnUse">
<stop stop-color="#543A4C"/>
<stop offset="1" stop-color="#744468"/>
</linearGradient>
<linearGradient id="paint156_linear" x1="18.4147" y1="783.863" x2="18.4147" y2="792.052" gradientUnits="userSpaceOnUse">
<stop stop-color="#543A4C"/>
<stop offset="1" stop-color="#744468"/>
</linearGradient>
<linearGradient id="paint157_linear" x1="24.905" y1="778.929" x2="24.905" y2="783.505" gradientUnits="userSpaceOnUse">
<stop stop-color="#543A4C"/>
<stop offset="1" stop-color="#744468"/>
</linearGradient>
<linearGradient id="paint158_linear" x1="30.0317" y1="774.663" x2="30.0317" y2="777.521" gradientUnits="userSpaceOnUse">
<stop stop-color="#543A4C"/>
<stop offset="1" stop-color="#744468"/>
</linearGradient>
<linearGradient id="paint159_linear" x1="33.7882" y1="771.847" x2="33.7882" y2="773.146" gradientUnits="userSpaceOnUse">
<stop stop-color="#543A4C"/>
<stop offset="1" stop-color="#744468"/>
</linearGradient>
<linearGradient id="paint160_linear" x1="56.0385" y1="757.771" x2="41.7489" y2="757.771" gradientUnits="userSpaceOnUse">
<stop stop-color="#543A4C"/>
<stop offset="1" stop-color="#744468"/>
</linearGradient>
<linearGradient id="paint161_linear" x1="88.7647" y1="760.704" x2="94.5549" y2="754.912" gradientUnits="userSpaceOnUse">
<stop stop-color="#543A4C"/>
<stop offset="1" stop-color="#744468"/>
</linearGradient>
<linearGradient id="paint162_linear" x1="80.6854" y1="759.605" x2="83.9213" y2="756.368" gradientUnits="userSpaceOnUse">
<stop stop-color="#543A4C"/>
<stop offset="1" stop-color="#744468"/>
</linearGradient>
<linearGradient id="paint163_linear" x1="74.0429" y1="758.997" x2="76.0639" y2="756.975" gradientUnits="userSpaceOnUse">
<stop stop-color="#543A4C"/>
<stop offset="1" stop-color="#744468"/>
</linearGradient>
<linearGradient id="paint164_linear" x1="69.3955" y1="758.332" x2="70.3141" y2="757.413" gradientUnits="userSpaceOnUse">
<stop stop-color="#543A4C"/>
<stop offset="1" stop-color="#744468"/>
</linearGradient>
<linearGradient id="paint165_linear" x1="51.7797" y1="797.68" x2="45.9896" y2="803.472" gradientUnits="userSpaceOnUse">
<stop stop-color="#543A4C"/>
<stop offset="1" stop-color="#744468"/>
</linearGradient>
<linearGradient id="paint166_linear" x1="50.6805" y1="789.603" x2="47.4446" y2="792.84" gradientUnits="userSpaceOnUse">
<stop stop-color="#543A4C"/>
<stop offset="1" stop-color="#744468"/>
</linearGradient>
<linearGradient id="paint167_linear" x1="50.0725" y1="782.962" x2="48.0515" y2="784.983" gradientUnits="userSpaceOnUse">
<stop stop-color="#543A4C"/>
<stop offset="1" stop-color="#744468"/>
</linearGradient>
<linearGradient id="paint168_linear" x1="49.4077" y1="778.316" x2="48.4891" y2="779.235" gradientUnits="userSpaceOnUse">
<stop stop-color="#543A4C"/>
<stop offset="1" stop-color="#744468"/>
</linearGradient>
<linearGradient id="paint169_linear" x1="45.8045" y1="717.754" x2="51.5947" y2="711.962" gradientUnits="userSpaceOnUse">
<stop stop-color="#543A4C"/>
<stop offset="1" stop-color="#744468"/>
</linearGradient>
<linearGradient id="paint170_linear" x1="46.9036" y1="725.831" x2="50.1397" y2="722.594" gradientUnits="userSpaceOnUse">
<stop stop-color="#543A4C"/>
<stop offset="1" stop-color="#744468"/>
</linearGradient>
<linearGradient id="paint171_linear" x1="47.512" y1="732.472" x2="49.5329" y2="730.45" gradientUnits="userSpaceOnUse">
<stop stop-color="#543A4C"/>
<stop offset="1" stop-color="#744468"/>
</linearGradient>
<linearGradient id="paint172_linear" x1="48.1767" y1="737.118" x2="49.0953" y2="736.199" gradientUnits="userSpaceOnUse">
<stop stop-color="#543A4C"/>
<stop offset="1" stop-color="#744468"/>
</linearGradient>
<linearGradient id="paint173_linear" x1="8.81945" y1="754.73" x2="3.02931" y2="760.521" gradientUnits="userSpaceOnUse">
<stop stop-color="#543A4C"/>
<stop offset="1" stop-color="#744468"/>
</linearGradient>
<linearGradient id="paint174_linear" x1="16.8988" y1="755.829" x2="13.6627" y2="759.066" gradientUnits="userSpaceOnUse">
<stop stop-color="#543A4C"/>
<stop offset="1" stop-color="#744468"/>
</linearGradient>
<linearGradient id="paint175_linear" x1="23.5413" y1="756.437" x2="21.5203" y2="758.458" gradientUnits="userSpaceOnUse">
<stop stop-color="#543A4C"/>
<stop offset="1" stop-color="#744468"/>
</linearGradient>
<linearGradient id="paint176_linear" x1="28.1887" y1="757.102" x2="27.2701" y2="758.02" gradientUnits="userSpaceOnUse">
<stop stop-color="#543A4C"/>
<stop offset="1" stop-color="#744468"/>
</linearGradient>
<linearGradient id="paint177_linear" x1="53.878" y1="762.878" x2="43.776" y2="752.773" gradientUnits="userSpaceOnUse">
<stop stop-color="#543A4C"/>
<stop offset="1" stop-color="#744468"/>
</linearGradient>
<linearGradient id="paint178_linear" x1="-19.9999" y1="648.267" x2="206.988" y2="648.267" gradientUnits="userSpaceOnUse">
<stop stop-color="#DAB000"/>
<stop offset="1" stop-color="#FCEA00"/>
</linearGradient>
<linearGradient id="paint179_linear" x1="280.52" y1="78.9816" x2="265.5" y2="31.1047" gradientUnits="userSpaceOnUse">
<stop stop-color="#EA523D"/>
<stop offset="1" stop-color="#EC665C"/>
</linearGradient>
<linearGradient id="paint180_linear" x1="186.728" y1="570.438" x2="186.728" y2="520.259" gradientUnits="userSpaceOnUse">
<stop stop-color="#EA523D"/>
<stop offset="1" stop-color="#EC665C"/>
</linearGradient>
<linearGradient id="paint181_linear" x1="263.047" y1="549.181" x2="230.284" y2="541.475" gradientUnits="userSpaceOnUse">
<stop stop-color="#EA523D"/>
<stop offset="1" stop-color="#EC665C"/>
</linearGradient>
<linearGradient id="paint182_linear" x1="293.277" y1="557.207" x2="293.277" y2="533.49" gradientUnits="userSpaceOnUse">
<stop stop-color="#EA523D"/>
<stop offset="1" stop-color="#EC665C"/>
</linearGradient>
<linearGradient id="paint183_linear" x1="374.601" y1="549.133" x2="342.607" y2="541.608" gradientUnits="userSpaceOnUse">
<stop stop-color="#008F97"/>
<stop offset="1" stop-color="#00A3AB"/>
</linearGradient>
<clipPath id="clip0">
<rect x="-19.9999" y="1080" width="1080" height="501" transform="rotate(-90 -19.9999 1080)" fill="white"/>
</clipPath>
</defs>
</svg>
