<svg width="458" height="1079" viewBox="0 0 458 1079" fill="none" xmlns="http://www.w3.org/2000/svg">
<g opacity="0.1">
<g clip-path="url(#clip0)">
<path d="M382.981 750.098L382.981 456.232L458 456.232L458 750.098L382.981 750.098Z" fill="url(#paint0_linear)"/>
<path d="M101.064 1019.93L-3.10308e-06 948.943L101.064 877.953L101.064 1019.93Z" fill="url(#paint1_linear)"/>
<path d="M142.701 455.865L83.6395 414.408L142.701 373.135L142.701 455.865Z" fill="url(#paint2_linear)"/>
<path d="M324.47 641.319L324.47 759.269L442.409 759.269L442.409 641.319L324.47 641.319Z" fill="url(#paint3_linear)"/>
<path d="M372.159 641.319L442.409 641.319L442.409 759.269L374.727 759.269C372.526 757.618 370.509 755.784 368.491 753.766C338.41 723.683 338.41 674.888 368.491 644.805C369.775 643.521 370.875 642.42 372.159 641.319Z" fill="url(#paint4_linear)"/>
<path d="M442.226 641.319L442.226 759.269C427.185 759.269 411.962 753.583 400.589 742.026C377.662 719.097 377.662 681.676 400.589 658.563C412.145 647.006 427.185 641.319 442.226 641.319Z" fill="url(#paint5_linear)"/>
<path d="M324.287 961.05L206.531 961.05L206.531 759.269L324.287 759.269L324.287 961.05Z" fill="url(#paint6_linear)"/>
<path d="M324.47 877.036L206.531 877.036L206.531 759.269L324.47 759.269L324.47 877.036Z" fill="url(#paint7_linear)"/>
<path d="M324.47 641.319L324.47 759.269L206.531 759.269C206.531 759.269 207.632 643.154 319.334 641.319L324.47 641.319Z" fill="url(#paint8_linear)"/>
<path d="M442.226 877.036L324.287 877.036L324.287 759.269L442.226 759.269L442.226 877.036Z" fill="url(#paint9_linear)"/>
<path d="M206.531 961.05L265.409 877.036L324.287 961.05L206.531 961.05Z" fill="url(#paint10_linear)"/>
<path d="M442.226 877.036L442.226 919.043C442.226 941.789 424.067 960.5 401.323 961.05L324.287 961.05L324.287 877.036L442.226 877.036Z" fill="url(#paint11_linear)"/>
<path d="M199.378 877.036L199.378 759.269L208.732 759.269L208.732 877.036L199.378 877.036Z" fill="url(#paint12_linear)"/>
<path d="M179.752 877.036L179.752 759.269L188.923 759.269L188.923 877.036L179.752 877.036Z" fill="url(#paint13_linear)"/>
<path d="M160.126 877.036L160.126 759.269L169.297 759.269L169.297 877.036L160.126 877.036Z" fill="url(#paint14_linear)"/>
<path d="M140.5 877.036L140.5 759.269L149.671 759.269L149.671 877.036L140.5 877.036Z" fill="url(#paint15_linear)"/>
<path d="M120.874 877.036L120.874 759.269L130.045 759.269L130.045 877.036L120.874 877.036Z" fill="url(#paint16_linear)"/>
<path d="M101.064 877.036L101.064 759.269L110.419 759.269L110.419 877.036L101.064 877.036Z" fill="url(#paint17_linear)"/>
<path d="M324.47 1065.79L458 1065.79L458 1074.96L324.47 1074.96L324.47 1065.79Z" fill="url(#paint18_linear)"/>
<path d="M324.47 1046.16L458 1046.16L458 1055.34L324.47 1055.34L324.47 1046.16Z" fill="url(#paint19_linear)"/>
<path d="M324.47 1026.35L458 1026.35L458 1035.71L324.47 1035.71L324.47 1026.35Z" fill="url(#paint20_linear)"/>
<path d="M324.47 1006.73L458 1006.73L458 1016.08L324.47 1016.08L324.47 1006.73Z" fill="url(#paint21_linear)"/>
<path d="M324.47 987.098L458 987.098L458 996.27L324.47 996.27L324.47 987.098Z" fill="url(#paint22_linear)"/>
<path d="M324.47 967.47L458 967.47L458 976.642L324.47 976.642L324.47 967.47Z" fill="url(#paint23_linear)"/>
<path d="M340.978 868.231C340.978 863.875 337.447 860.343 333.091 860.343C328.735 860.343 325.204 863.875 325.204 868.231C325.204 872.587 328.735 876.119 333.091 876.119C337.447 876.119 340.978 872.587 340.978 868.231Z" fill="url(#paint24_linear)"/>
<path d="M349.599 857.408C349.599 860.527 347.031 863.095 343.913 863.095C340.795 863.095 338.227 860.527 338.227 857.408C338.227 854.29 340.795 851.722 343.913 851.722C347.031 851.722 349.599 854.29 349.599 857.408Z" fill="url(#paint25_linear)"/>
<path d="M355.835 848.97C355.835 847.045 354.275 845.485 352.35 845.485C350.425 845.485 348.865 847.045 348.865 848.97C348.865 850.895 350.425 852.455 352.35 852.455C354.275 852.455 355.835 850.895 355.835 848.97Z" fill="url(#paint26_linear)"/>
<path d="M360.787 842.733C360.787 844.017 359.87 844.934 358.586 844.934C357.302 844.934 356.385 844.017 356.385 842.733C356.385 841.449 357.302 840.532 358.586 840.532C359.87 840.532 360.787 841.449 360.787 842.733Z" fill="url(#paint27_linear)"/>
<path d="M441.125 768.074C441.125 763.718 437.594 760.187 433.238 760.187C428.882 760.187 425.351 763.718 425.351 768.074C425.351 772.431 428.882 775.962 433.238 775.962C437.594 775.962 441.125 772.431 441.125 768.074Z" fill="url(#paint28_linear)"/>
<path d="M416.914 778.714C416.914 775.595 419.482 773.027 422.6 773.027C425.718 773.027 428.286 775.595 428.286 778.714C428.286 781.832 425.718 784.4 422.6 784.4C419.482 784.4 416.914 782.016 416.914 778.714Z" fill="url(#paint29_linear)"/>
<path d="M417.464 787.335C417.464 785.41 415.904 783.85 413.979 783.85C412.055 783.85 410.494 785.41 410.494 787.335C410.494 789.26 412.055 790.82 413.979 790.82C415.904 790.82 417.464 789.26 417.464 787.335Z" fill="url(#paint30_linear)"/>
<path d="M405.542 793.572C405.542 792.288 406.459 791.371 407.743 791.371C409.027 791.371 409.944 792.288 409.944 793.572C409.944 794.856 409.027 795.773 407.743 795.773C406.642 795.773 405.542 794.673 405.542 793.572Z" fill="url(#paint31_linear)"/>
<path d="M341.161 768.074C341.161 763.672 337.676 760.187 333.274 760.187C328.872 760.187 325.387 763.672 325.387 768.074C325.387 772.477 328.872 775.962 333.274 775.962C337.676 775.962 341.161 772.293 341.161 768.074Z" fill="url(#paint32_linear)"/>
<path d="M349.782 778.714C349.782 775.595 347.214 773.027 344.096 773.027C340.978 773.027 338.41 775.595 338.41 778.714C338.41 781.832 340.978 784.4 344.096 784.4C347.214 784.4 349.782 782.016 349.782 778.714Z" fill="url(#paint33_linear)"/>
<path d="M356.018 787.335C356.018 785.41 354.458 783.85 352.533 783.85C350.609 783.85 349.049 785.41 349.049 787.335C349.049 789.26 350.609 790.82 352.533 790.82C354.458 790.82 356.018 789.26 356.018 787.335Z" fill="url(#paint34_linear)"/>
<path d="M360.971 793.572C360.971 792.288 360.054 791.371 358.77 791.371C357.486 791.371 356.569 792.288 356.569 793.572C356.569 794.856 357.486 795.773 358.77 795.773C359.87 795.773 360.971 794.673 360.971 793.572Z" fill="url(#paint35_linear)"/>
<path d="M433.238 860.343C437.64 860.343 441.125 863.828 441.125 868.231C441.125 872.633 437.64 876.119 433.238 876.119C428.836 876.119 425.351 872.633 425.351 868.231C425.351 863.828 429.02 860.343 433.238 860.343Z" fill="url(#paint36_linear)"/>
<path d="M422.6 851.722C425.718 851.722 428.286 854.29 428.286 857.408C428.286 860.527 425.718 863.095 422.6 863.095C419.482 863.095 416.914 860.527 416.914 857.408C416.914 854.29 419.482 851.722 422.6 851.722Z" fill="url(#paint37_linear)"/>
<path d="M413.979 845.485C415.813 845.485 417.464 846.952 417.464 848.97C417.464 850.988 415.997 852.455 413.979 852.455C412.145 852.455 410.494 850.988 410.494 848.97C410.494 846.952 412.145 845.485 413.979 845.485Z" fill="url(#paint38_linear)"/>
<path d="M407.926 840.532C409.21 840.532 410.127 841.449 410.127 842.733C410.127 844.017 409.21 844.935 407.926 844.935C406.642 844.935 405.725 844.017 405.725 842.733C405.542 841.449 406.642 840.532 407.926 840.532Z" fill="url(#paint39_linear)"/>
<path d="M236.428 852.272L187.822 818.153L236.428 784.033L236.428 852.272Z" fill="url(#paint40_linear)"/>
<path d="M283.201 842.366L248.718 818.153L283.201 793.939L283.201 842.366Z" fill="url(#paint41_linear)"/>
<path d="M178.835 840.532L146.919 818.153L178.835 795.773L178.835 840.532Z" fill="url(#paint42_linear)"/>
<path d="M324.47 700.203L324.47 759.086L264.308 759.086C264.308 744.044 269.994 728.819 281.55 717.446C293.289 705.706 308.879 699.836 324.47 700.203Z" fill="url(#paint43_linear)"/>
<path d="M324.47 641.319L324.47 700.203C309.063 699.836 293.472 705.706 281.55 717.446C269.994 729.002 264.308 744.044 264.308 759.086L206.531 759.086C206.531 759.086 207.632 642.97 319.334 641.136L324.47 641.136L324.47 641.319Z" fill="url(#paint44_linear)"/>
<path d="M206.531 961.05L324.47 961.05L324.47 1079C324.47 1079 208.365 1077.9 206.531 966.186L206.531 961.05Z" fill="url(#paint45_linear)"/>
<path d="M147.47 1018.83L206.348 1018.83L206.348 1079C191.307 1079 176.083 1073.31 164.711 1061.76C152.972 1049.83 147.286 1034.42 147.47 1018.83Z" fill="url(#paint46_linear)"/>
<path d="M206.531 961.05L265.409 961.05C265.042 976.459 270.912 992.051 282.65 1003.97C294.206 1015.53 309.246 1021.22 324.287 1021.22L324.287 1079C324.287 1079 208.182 1077.9 206.348 966.186L206.348 961.05L206.531 961.05Z" fill="url(#paint47_linear)"/>
<path d="M442.226 665.533L442.226 734.872C423.15 734.872 407.56 719.28 407.56 700.203C407.56 681.125 423.15 665.533 442.226 665.533Z" fill="url(#paint48_linear)"/>
<path d="M411.962 818.153C411.962 802.348 399.151 789.537 383.348 789.537C367.545 789.537 354.734 802.348 354.734 818.153C354.734 833.957 367.545 846.769 383.348 846.769C399.151 846.769 411.962 833.957 411.962 818.153Z" fill="url(#paint49_linear)"/>
<path d="M393.253 818.153C393.253 823.656 388.851 828.242 383.165 828.242C377.662 828.242 373.077 823.839 373.077 818.153C373.077 812.65 377.479 808.064 383.165 808.064C388.851 808.064 393.253 812.65 393.253 818.153Z" fill="url(#paint50_linear)"/>
<path d="M189.656 671.77C189.656 657.992 178.488 646.823 164.711 646.823C150.934 646.823 139.766 657.992 139.766 671.77C139.766 685.548 150.934 696.717 164.711 696.717C178.488 696.717 189.656 685.548 189.656 671.77Z" stroke="#733E5E" stroke-width="2.0258" stroke-miterlimit="10"/>
<path d="M111.886 672.137C111.886 666.16 107.041 661.314 101.064 661.314C95.0878 661.314 90.2427 666.16 90.2427 672.137C90.2427 678.114 95.0878 682.96 101.064 682.96C107.041 682.96 111.886 678.114 111.886 672.137Z" stroke="#EDBB00" stroke-width="2.0258" stroke-miterlimit="10"/>
<path d="M184.337 307.464L149.671 283.251L184.337 259.037L184.337 307.464Z" fill="url(#paint51_linear)"/>
<path d="M113.17 300.127L89.1422 283.251L113.17 266.375L113.17 300.127Z" fill="url(#paint52_linear)"/>
<path d="M324.287 -12.8165L324.287 105.133L442.226 105.133L442.226 -12.8165L324.287 -12.8165Z" fill="url(#paint53_linear)"/>
<path d="M324.287 -12.8165L442.226 -12.8165L442.226 104.95C442.226 104.95 326.121 103.849 324.287 -7.68032L324.287 -12.8165Z" fill="url(#paint54_linear)"/>
<path d="M383.348 -12.8167L442.409 -12.8167L442.409 47.1674C427.369 47.1674 412.145 41.4808 400.773 29.9242C388.667 18.1842 382.981 2.59208 383.348 -12.8167Z" fill="url(#paint55_linear)"/>
<path d="M324.287 -12.8165L383.348 -12.8165C382.981 2.59215 388.851 18.1843 400.589 30.1077C412.145 41.6642 427.185 47.3507 442.226 47.3507L442.226 104.95C442.226 104.95 326.121 103.666 324.287 -7.68032L324.287 -12.8165Z" fill="url(#paint56_linear)"/>
<path d="M344.463 -12.8167L383.165 -12.8167C382.798 2.59205 388.667 18.1842 400.406 30.1076C411.962 41.6642 427.002 47.3506 442.042 47.3506L442.042 81.1031C413.062 76.7006 346.297 60.5581 344.463 -12.8167Z" fill="url(#paint57_linear)"/>
<path d="M265.409 223.083L324.287 223.083L324.287 283.067C309.246 283.067 294.206 277.381 282.65 265.824C270.728 254.268 265.042 238.675 265.409 223.083Z" fill="#F7EDF6"/>
<path d="M206.531 223.083L265.409 223.083C265.042 238.492 270.911 254.084 282.65 265.824C294.206 277.381 309.246 283.067 324.287 283.067L324.287 340.666C324.287 340.666 208.365 339.566 206.531 228.036L206.531 223.083Z" fill="url(#paint58_linear)"/>
<path d="M290.904 12.4975C290.904 10.4797 292.555 9.01221 294.389 9.01221C296.223 9.01221 297.874 10.6631 297.874 12.4975C297.874 14.5153 296.223 15.9829 294.389 15.9829C292.555 15.9829 290.904 14.3319 290.904 12.4975Z" fill="url(#paint59_linear)"/>
<path d="M285.035 19.4683C285.035 18.0008 286.135 16.9001 287.603 16.9001C289.07 16.9001 290.171 18.0008 290.171 19.4683C290.171 20.9358 289.07 22.0364 287.603 22.0364C286.135 22.0364 285.035 20.7524 285.035 19.4683Z" fill="url(#paint60_linear)"/>
<path d="M283.751 24.9714C283.751 24.0596 283.012 23.3204 282.1 23.3204C281.188 23.3204 280.449 24.0596 280.449 24.9714C280.449 25.8831 281.188 26.6222 282.1 26.6222C283.012 26.6222 283.751 25.8831 283.751 24.9714Z" fill="url(#paint61_linear)"/>
<path d="M276.964 29.0069C276.964 28.4566 277.331 27.9062 278.065 27.9062C278.615 27.9062 279.165 28.2731 279.165 29.0069C279.165 29.5573 278.799 30.1077 278.065 30.1077C277.515 29.9242 276.964 29.5573 276.964 29.0069Z" fill="url(#paint62_linear)"/>
<path d="M290.904 77.2508C290.904 79.2687 292.555 80.7361 294.389 80.7361C296.223 80.7361 297.874 79.0852 297.874 77.2508C297.874 75.233 296.223 73.7655 294.389 73.7655C292.555 73.7655 290.904 75.233 290.904 77.2508Z" fill="url(#paint63_linear)"/>
<path d="M285.035 70.2802C285.035 71.7477 286.135 72.8484 287.603 72.8484C289.07 72.8484 290.171 71.7477 290.171 70.2802C290.171 68.8127 289.07 67.7122 287.603 67.7122C286.135 67.7122 285.035 68.8127 285.035 70.2802Z" fill="url(#paint64_linear)"/>
<path d="M283.751 64.777C283.751 63.8652 283.012 63.1262 282.1 63.1262C281.188 63.1262 280.449 63.8652 280.449 64.777C280.449 65.6888 281.188 66.428 282.1 66.428C283.012 66.428 283.751 65.6888 283.751 64.777Z" fill="url(#paint65_linear)"/>
<path d="M276.964 60.7417C276.964 61.292 277.331 61.8423 278.065 61.8423C278.615 61.8423 279.165 61.4755 279.165 60.7417C279.165 60.1914 278.799 59.641 278.065 59.641C277.515 59.641 276.964 60.1914 276.964 60.7417Z" fill="url(#paint66_linear)"/>
<path d="M232.943 12.4976C232.943 10.4799 231.293 9.01245 229.458 9.01245C227.441 9.01245 225.974 10.6633 225.974 12.4976C225.974 14.5154 227.624 15.9829 229.458 15.9829C231.293 15.9829 232.943 14.332 232.943 12.4976Z" fill="url(#paint67_linear)"/>
<path d="M238.996 19.4683C238.996 18.0008 237.896 16.9001 236.428 16.9001C234.961 16.9001 233.861 18.0008 233.861 19.4683C233.861 20.9358 234.961 22.0364 236.428 22.0364C237.712 22.0364 238.996 20.7524 238.996 19.4683Z" fill="url(#paint68_linear)"/>
<path d="M243.398 24.9714C243.398 24.0542 242.665 23.3204 241.748 23.3204C240.831 23.3204 240.097 24.0542 240.097 24.9714C240.097 25.8885 240.831 26.6222 241.748 26.6222C242.665 26.4388 243.398 25.7051 243.398 24.9714Z" fill="url(#paint69_linear)"/>
<path d="M246.883 29.0069C246.883 28.4566 246.517 27.9062 245.783 27.9062C245.233 27.9062 244.682 28.2731 244.682 29.0069C244.682 29.5573 245.049 30.1077 245.783 30.1077C246.517 29.9242 246.883 29.5573 246.883 29.0069Z" fill="url(#paint70_linear)"/>
<path d="M232.943 77.2509C232.943 79.2687 231.293 80.7361 229.458 80.7361C227.441 80.7361 225.974 79.0852 225.974 77.2509C225.974 75.2331 227.624 73.7655 229.458 73.7655C231.293 73.5821 232.943 75.2331 232.943 77.2509Z" fill="url(#paint71_linear)"/>
<path d="M238.996 70.2802C238.996 71.7477 237.896 72.8484 236.428 72.8484C234.961 72.8484 233.861 71.7477 233.861 70.2802C233.861 68.8127 234.961 67.7122 236.428 67.7122C237.712 67.7122 238.996 68.8127 238.996 70.2802Z" fill="url(#paint72_linear)"/>
<path d="M243.398 64.777C243.398 65.6942 242.665 66.428 241.748 66.428C240.83 66.428 240.097 65.6942 240.097 64.777C240.097 63.8598 240.83 63.1262 241.748 63.1262C242.665 63.1262 243.398 63.8598 243.398 64.777Z" fill="url(#paint73_linear)"/>
<path d="M246.883 60.7416C246.883 61.292 246.517 61.8422 245.783 61.8422C245.233 61.8422 244.682 61.4754 244.682 60.7416C244.682 60.1913 245.049 59.6409 245.783 59.6409C246.517 59.6409 246.883 60.1913 246.883 60.7416Z" fill="url(#paint74_linear)"/>
<path d="M268.527 44.9659C268.527 48.6347 265.592 51.3862 262.107 51.3862C258.439 51.3862 255.688 48.4512 255.688 44.9659C255.688 41.4806 258.622 38.5456 262.107 38.5456C265.776 38.3622 268.527 41.2972 268.527 44.9659Z" fill="url(#paint75_linear)"/>
<path d="M215.152 403.402L215.152 396.248C215.152 376.07 230.559 358.276 254.037 347.82C254.22 347.637 254.587 347.637 254.77 347.637C258.439 346.353 262.107 345.252 265.959 344.519C274.58 342.501 283.934 341.217 293.656 341.217L458 341.217L458 458.983L331.99 458.983C304.11 458.983 282.467 458.066 265.776 455.681C261.924 454.764 258.072 453.663 254.587 452.563C254.404 452.563 254.037 452.379 253.853 452.379C230.376 441.373 215.152 423.58 215.152 403.402Z" fill="url(#paint76_linear)"/>
<path d="M289.036 398.265L305.118 414.348L321.201 398.265L305.118 382.181L289.036 398.265Z" fill="#F7EDF6"/>
<path d="M266.69 398.43L276.288 408.029L285.885 398.43L276.288 388.832L266.69 398.43Z" fill="#F7EDF6"/>
<path d="M248.693 398.419L255.049 404.775L261.404 398.419L255.049 392.063L248.693 398.419Z" fill="#F7EDF6"/>
<path d="M206.348 104.95L206.348 222.9L324.287 222.9L324.287 104.95L206.348 104.95Z" fill="url(#paint77_linear)"/>
<path d="M271.829 164.017C271.829 160.471 268.954 157.596 265.409 157.596C261.863 157.596 258.989 160.471 258.989 164.017C258.989 167.562 261.863 170.437 265.409 170.437C268.954 170.437 271.829 167.562 271.829 164.017Z" fill="url(#paint78_linear)"/>
<path d="M255.871 118.891L254.22 118.891C250.552 118.891 247.25 119.441 244.316 120.175C237.896 121.643 232.944 124.578 229.092 128.246C216.986 139.619 216.803 157.596 216.803 157.596L216.803 169.703C216.803 169.886 216.803 170.07 216.803 170.253L216.803 208.959L218.453 208.959C222.122 208.959 225.423 208.408 228.358 207.675C234.778 206.207 239.73 203.272 243.582 199.603C255.688 188.23 255.871 170.253 255.871 170.253L255.871 158.147C255.871 157.963 255.871 157.78 255.871 157.596L255.871 118.891Z" fill="url(#paint79_linear)"/>
<path d="M313.465 118.891L311.814 118.891C308.146 118.891 304.844 119.441 301.91 120.175C295.49 121.643 290.537 124.578 286.686 128.246C274.58 139.619 274.396 157.596 274.396 157.596L274.396 169.703C274.396 169.886 274.396 170.07 274.396 170.253L274.396 208.959L276.047 208.959C279.716 208.959 283.017 208.408 285.952 207.675C292.372 206.207 297.324 203.272 301.176 199.603C313.282 188.23 313.465 170.253 313.465 170.253L313.465 158.147C313.465 157.963 313.465 157.78 313.465 157.596L313.465 118.891Z" fill="url(#paint80_linear)"/>
<path d="M432.138 390.745L432.138 104.95L442.226 104.95L442.226 390.745L432.138 390.745Z" fill="url(#paint81_linear)"/>
<path d="M410.677 390.745L410.677 104.95L420.766 104.95L420.766 390.745L410.677 390.745Z" fill="url(#paint82_linear)"/>
<path d="M389.034 390.745L389.034 104.95L399.122 104.95L399.122 390.745L389.034 390.745Z" fill="url(#paint83_linear)"/>
<path d="M367.39 390.745L367.39 104.95L377.479 104.95L377.479 390.745L367.39 390.745Z" fill="url(#paint84_linear)"/>
<path d="M345.93 390.745L345.93 104.95L356.018 104.95L356.018 390.745L345.93 390.745Z" fill="url(#paint85_linear)"/>
<path d="M324.287 390.745L324.287 104.95L334.375 104.95L334.375 390.745L324.287 390.745Z" fill="url(#paint86_linear)"/>
<path d="M156.091 543.731L156.091 536.577C156.091 516.399 170.397 498.606 192.408 488.15C192.591 487.966 192.958 487.966 193.141 487.966C196.443 486.682 199.928 485.582 203.596 484.848C211.667 482.83 220.288 481.546 229.459 481.546L383.348 481.546L383.348 599.312L265.592 599.312C239.363 599.312 219.187 598.395 203.78 596.011C200.111 595.093 196.626 593.993 193.325 592.892C193.141 592.892 192.775 592.709 192.591 592.709C170.581 581.702 156.091 563.909 156.091 543.731Z" fill="url(#paint87_linear)"/>
<path d="M255.137 509.612L285.585 540.246L255.137 570.696L224.506 540.246L255.137 509.612Z" fill="url(#paint88_linear)"/>
<path d="M200.111 521.902L218.453 540.246L200.111 558.589L181.769 540.246L200.111 521.902Z" fill="url(#paint89_linear)"/>
<path d="M159.759 528.139L171.865 540.246L159.759 552.353L147.837 540.246L159.759 528.139Z" fill="url(#paint90_linear)"/>
<path d="M437.824 540.246C437.824 526.468 426.656 515.298 412.879 515.298C399.102 515.298 387.934 526.468 387.934 540.246C387.934 554.024 399.102 565.193 412.879 565.193C426.656 565.193 437.824 554.024 437.824 540.246Z" stroke="#F7EDF6" stroke-width="2.0258" stroke-miterlimit="10"/>
</g>
</g>
<defs>
<linearGradient id="paint0_linear" x1="420.486" y1="750.088" x2="420.486" y2="456.156" gradientUnits="userSpaceOnUse">
<stop stop-color="#008F97"/>
<stop offset="1" stop-color="#00A3AB"/>
</linearGradient>
<linearGradient id="paint1_linear" x1="50.5779" y1="1019.87" x2="50.5779" y2="877.919" gradientUnits="userSpaceOnUse">
<stop stop-color="#DAB000"/>
<stop offset="1" stop-color="#FCEA00"/>
</linearGradient>
<linearGradient id="paint2_linear" x1="113.189" y1="455.79" x2="113.189" y2="373.056" gradientUnits="userSpaceOnUse">
<stop stop-color="#543A4C"/>
<stop offset="1" stop-color="#744468"/>
</linearGradient>
<linearGradient id="paint3_linear" x1="442.569" y1="641.007" x2="329.451" y2="754.114" gradientUnits="userSpaceOnUse">
<stop stop-color="#F7EDF6"/>
<stop offset="1" stop-color="#E0DAA0"/>
</linearGradient>
<linearGradient id="paint4_linear" x1="348.857" y1="700.223" x2="429.309" y2="700.223" gradientUnits="userSpaceOnUse">
<stop stop-color="#543A4C"/>
<stop offset="1" stop-color="#744468"/>
</linearGradient>
<linearGradient id="paint5_linear" x1="382.634" y1="700.223" x2="439.135" y2="700.223" gradientUnits="userSpaceOnUse">
<stop stop-color="#EA523D"/>
<stop offset="1" stop-color="#EC665C"/>
</linearGradient>
<linearGradient id="paint6_linear" x1="321.945" y1="860.129" x2="199.094" y2="860.129" gradientUnits="userSpaceOnUse">
<stop stop-color="#EA523D"/>
<stop offset="1" stop-color="#EC665C"/>
</linearGradient>
<linearGradient id="paint7_linear" x1="324.655" y1="877.36" x2="211.538" y2="764.252" gradientUnits="userSpaceOnUse">
<stop stop-color="#DAB000"/>
<stop offset="1" stop-color="#FCEA00"/>
</linearGradient>
<linearGradient id="paint8_linear" x1="324.585" y1="759.368" x2="242.782" y2="677.573" gradientUnits="userSpaceOnUse">
<stop stop-color="#F7EDF6"/>
<stop offset="1" stop-color="#E0DAA0"/>
</linearGradient>
<linearGradient id="paint9_linear" x1="324.3" y1="818.144" x2="442.213" y2="818.144" gradientUnits="userSpaceOnUse">
<stop stop-color="#008F97"/>
<stop offset="1" stop-color="#00A3AB"/>
</linearGradient>
<linearGradient id="paint10_linear" x1="265.394" y1="962.371" x2="265.394" y2="882.936" gradientUnits="userSpaceOnUse">
<stop stop-color="#DAB000"/>
<stop offset="1" stop-color="#FCEA00"/>
</linearGradient>
<linearGradient id="paint11_linear" x1="324.304" y1="919.09" x2="442.217" y2="919.09" gradientUnits="userSpaceOnUse">
<stop stop-color="#DAB000"/>
<stop offset="1" stop-color="#FCEA00"/>
</linearGradient>
<linearGradient id="paint12_linear" x1="241.861" y1="780.327" x2="135.562" y2="886.616" gradientUnits="userSpaceOnUse">
<stop stop-color="#F7EDF6"/>
<stop offset="1" stop-color="#E0DAA0"/>
</linearGradient>
<linearGradient id="paint13_linear" x1="232.032" y1="770.498" x2="125.734" y2="876.787" gradientUnits="userSpaceOnUse">
<stop stop-color="#F7EDF6"/>
<stop offset="1" stop-color="#E0DAA0"/>
</linearGradient>
<linearGradient id="paint14_linear" x1="222.204" y1="760.668" x2="115.905" y2="866.957" gradientUnits="userSpaceOnUse">
<stop stop-color="#F7EDF6"/>
<stop offset="1" stop-color="#E0DAA0"/>
</linearGradient>
<linearGradient id="paint15_linear" x1="212.376" y1="750.839" x2="106.076" y2="857.128" gradientUnits="userSpaceOnUse">
<stop stop-color="#F7EDF6"/>
<stop offset="1" stop-color="#E0DAA0"/>
</linearGradient>
<linearGradient id="paint16_linear" x1="202.547" y1="741.009" x2="96.248" y2="847.298" gradientUnits="userSpaceOnUse">
<stop stop-color="#F7EDF6"/>
<stop offset="1" stop-color="#E0DAA0"/>
</linearGradient>
<linearGradient id="paint17_linear" x1="192.718" y1="731.18" x2="86.4194" y2="837.469" gradientUnits="userSpaceOnUse">
<stop stop-color="#F7EDF6"/>
<stop offset="1" stop-color="#E0DAA0"/>
</linearGradient>
<linearGradient id="paint18_linear" x1="391.164" y1="1065.76" x2="391.164" y2="1074.97" gradientUnits="userSpaceOnUse">
<stop stop-color="#543A4C"/>
<stop offset="1" stop-color="#744468"/>
</linearGradient>
<linearGradient id="paint19_linear" x1="391.164" y1="1046.1" x2="391.164" y2="1055.31" gradientUnits="userSpaceOnUse">
<stop stop-color="#543A4C"/>
<stop offset="1" stop-color="#744468"/>
</linearGradient>
<linearGradient id="paint20_linear" x1="391.164" y1="1026.44" x2="391.164" y2="1035.65" gradientUnits="userSpaceOnUse">
<stop stop-color="#543A4C"/>
<stop offset="1" stop-color="#744468"/>
</linearGradient>
<linearGradient id="paint21_linear" x1="391.164" y1="1006.78" x2="391.164" y2="1015.99" gradientUnits="userSpaceOnUse">
<stop stop-color="#543A4C"/>
<stop offset="1" stop-color="#744468"/>
</linearGradient>
<linearGradient id="paint22_linear" x1="391.164" y1="987.122" x2="391.164" y2="996.335" gradientUnits="userSpaceOnUse">
<stop stop-color="#543A4C"/>
<stop offset="1" stop-color="#744468"/>
</linearGradient>
<linearGradient id="paint23_linear" x1="391.164" y1="967.463" x2="391.164" y2="976.676" gradientUnits="userSpaceOnUse">
<stop stop-color="#543A4C"/>
<stop offset="1" stop-color="#744468"/>
</linearGradient>
<linearGradient id="paint24_linear" x1="333.167" y1="858.553" x2="333.167" y2="877.915" gradientUnits="userSpaceOnUse">
<stop stop-color="#F7EDF6"/>
<stop offset="1" stop-color="#E0DAA0"/>
</linearGradient>
<linearGradient id="paint25_linear" x1="343.906" y1="851.488" x2="343.906" y2="862.309" gradientUnits="userSpaceOnUse">
<stop stop-color="#EA523D"/>
<stop offset="1" stop-color="#EC665C"/>
</linearGradient>
<linearGradient id="paint26_linear" x1="352.389" y1="845.037" x2="352.389" y2="851.795" gradientUnits="userSpaceOnUse">
<stop stop-color="#F7EDF6"/>
<stop offset="1" stop-color="#E0DAA0"/>
</linearGradient>
<linearGradient id="paint27_linear" x1="358.605" y1="841.044" x2="358.605" y2="844.115" gradientUnits="userSpaceOnUse">
<stop stop-color="#EA523D"/>
<stop offset="1" stop-color="#EC665C"/>
</linearGradient>
<linearGradient id="paint28_linear" x1="433.279" y1="777.663" x2="433.279" y2="758.301" gradientUnits="userSpaceOnUse">
<stop stop-color="#F7EDF6"/>
<stop offset="1" stop-color="#E0DAA0"/>
</linearGradient>
<linearGradient id="paint29_linear" x1="422.54" y1="784.728" x2="422.54" y2="773.907" gradientUnits="userSpaceOnUse">
<stop stop-color="#EA523D"/>
<stop offset="1" stop-color="#EC665C"/>
</linearGradient>
<linearGradient id="paint30_linear" x1="414.057" y1="791.179" x2="414.057" y2="784.421" gradientUnits="userSpaceOnUse">
<stop stop-color="#F7EDF6"/>
<stop offset="1" stop-color="#E0DAA0"/>
</linearGradient>
<linearGradient id="paint31_linear" x1="407.841" y1="795.172" x2="407.841" y2="792.1" gradientUnits="userSpaceOnUse">
<stop stop-color="#EA523D"/>
<stop offset="1" stop-color="#EC665C"/>
</linearGradient>
<linearGradient id="paint32_linear" x1="333.285" y1="777.663" x2="333.285" y2="758.301" gradientUnits="userSpaceOnUse">
<stop stop-color="#F7EDF6"/>
<stop offset="1" stop-color="#E0DAA0"/>
</linearGradient>
<linearGradient id="paint33_linear" x1="344.024" y1="784.728" x2="344.024" y2="773.907" gradientUnits="userSpaceOnUse">
<stop stop-color="#EA523D"/>
<stop offset="1" stop-color="#EC665C"/>
</linearGradient>
<linearGradient id="paint34_linear" x1="352.508" y1="791.179" x2="352.508" y2="784.421" gradientUnits="userSpaceOnUse">
<stop stop-color="#F7EDF6"/>
<stop offset="1" stop-color="#E0DAA0"/>
</linearGradient>
<linearGradient id="paint35_linear" x1="358.723" y1="795.172" x2="358.723" y2="792.1" gradientUnits="userSpaceOnUse">
<stop stop-color="#EA523D"/>
<stop offset="1" stop-color="#EC665C"/>
</linearGradient>
<linearGradient id="paint36_linear" x1="423.667" y1="868.168" x2="443.027" y2="868.168" gradientUnits="userSpaceOnUse">
<stop stop-color="#F7EDF6"/>
<stop offset="1" stop-color="#E0DAA0"/>
</linearGradient>
<linearGradient id="paint37_linear" x1="416.602" y1="857.428" x2="427.423" y2="857.428" gradientUnits="userSpaceOnUse">
<stop stop-color="#EA523D"/>
<stop offset="1" stop-color="#EC665C"/>
</linearGradient>
<linearGradient id="paint38_linear" x1="410.152" y1="848.944" x2="416.909" y2="848.944" gradientUnits="userSpaceOnUse">
<stop stop-color="#F7EDF6"/>
<stop offset="1" stop-color="#E0DAA0"/>
</linearGradient>
<linearGradient id="paint39_linear" x1="406.159" y1="842.728" x2="409.23" y2="842.728" gradientUnits="userSpaceOnUse">
<stop stop-color="#EA523D"/>
<stop offset="1" stop-color="#EC665C"/>
</linearGradient>
<linearGradient id="paint40_linear" x1="212.142" y1="852.248" x2="212.142" y2="784.04" gradientUnits="userSpaceOnUse">
<stop stop-color="#543A4C"/>
<stop offset="1" stop-color="#744468"/>
</linearGradient>
<linearGradient id="paint41_linear" x1="266.031" y1="842.339" x2="266.031" y2="793.949" gradientUnits="userSpaceOnUse">
<stop stop-color="#543A4C"/>
<stop offset="1" stop-color="#744468"/>
</linearGradient>
<linearGradient id="paint42_linear" x1="162.869" y1="840.599" x2="162.869" y2="795.69" gradientUnits="userSpaceOnUse">
<stop stop-color="#543A4C"/>
<stop offset="1" stop-color="#744468"/>
</linearGradient>
<linearGradient id="paint43_linear" x1="264.266" y1="729.704" x2="324.402" y2="729.704" gradientUnits="userSpaceOnUse">
<stop stop-color="#EA523D"/>
<stop offset="1" stop-color="#EC665C"/>
</linearGradient>
<linearGradient id="paint44_linear" x1="206.488" y1="700.223" x2="324.402" y2="700.223" gradientUnits="userSpaceOnUse">
<stop stop-color="#DAB000"/>
<stop offset="1" stop-color="#FCEA00"/>
</linearGradient>
<linearGradient id="paint45_linear" x1="324.585" y1="960.892" x2="242.783" y2="1042.69" gradientUnits="userSpaceOnUse">
<stop stop-color="#F7EDF6"/>
<stop offset="1" stop-color="#E0DAA0"/>
</linearGradient>
<linearGradient id="paint46_linear" x1="177.01" y1="1079" x2="177.01" y2="1018.86" gradientUnits="userSpaceOnUse">
<stop stop-color="#008F97"/>
<stop offset="1" stop-color="#00A3AB"/>
</linearGradient>
<linearGradient id="paint47_linear" x1="265.445" y1="1079" x2="265.445" y2="961.076" gradientUnits="userSpaceOnUse">
<stop stop-color="#543A4C"/>
<stop offset="1" stop-color="#744468"/>
</linearGradient>
<linearGradient id="paint48_linear" x1="424.966" y1="734.925" x2="424.966" y2="665.521" gradientUnits="userSpaceOnUse">
<stop stop-color="#F7EDF6"/>
<stop offset="1" stop-color="#E0DAA0"/>
</linearGradient>
<linearGradient id="paint49_linear" x1="416.823" y1="818.144" x2="349.268" y2="818.144" gradientUnits="userSpaceOnUse">
<stop stop-color="#EA523D"/>
<stop offset="1" stop-color="#EC665C"/>
</linearGradient>
<linearGradient id="paint50_linear" x1="375.375" y1="818.144" x2="413.693" y2="818.144" gradientUnits="userSpaceOnUse">
<stop stop-color="#F7EDF6"/>
<stop offset="1" stop-color="#E0DAA0"/>
</linearGradient>
<linearGradient id="paint51_linear" x1="167.023" y1="307.428" x2="167.023" y2="258.974" gradientUnits="userSpaceOnUse">
<stop stop-color="#543A4C"/>
<stop offset="1" stop-color="#744468"/>
</linearGradient>
<linearGradient id="paint52_linear" x1="101.156" y1="300.087" x2="101.156" y2="266.315" gradientUnits="userSpaceOnUse">
<stop stop-color="#008F97"/>
<stop offset="1" stop-color="#00A3AB"/>
</linearGradient>
<linearGradient id="paint53_linear" x1="383.297" y1="-10.4665" x2="383.297" y2="112.458" gradientUnits="userSpaceOnUse">
<stop stop-color="#EA523D"/>
<stop offset="1" stop-color="#EC665C"/>
</linearGradient>
<linearGradient id="paint54_linear" x1="442.421" y1="-13.0471" x2="360.633" y2="68.7337" gradientUnits="userSpaceOnUse">
<stop stop-color="#F7EDF6"/>
<stop offset="1" stop-color="#E0DAA0"/>
</linearGradient>
<linearGradient id="paint55_linear" x1="412.788" y1="47.2572" x2="412.788" y2="-12.8154" gradientUnits="userSpaceOnUse">
<stop stop-color="#543A4C"/>
<stop offset="1" stop-color="#744468"/>
</linearGradient>
<linearGradient id="paint56_linear" x1="383.292" y1="105.003" x2="383.292" y2="-12.8153" gradientUnits="userSpaceOnUse">
<stop stop-color="#543A4C"/>
<stop offset="1" stop-color="#744468"/>
</linearGradient>
<linearGradient id="paint57_linear" x1="393.405" y1="81.1319" x2="393.405" y2="-12.8222" gradientUnits="userSpaceOnUse">
<stop stop-color="#F7EDF6"/>
<stop offset="1" stop-color="#E0DAA0"/>
</linearGradient>
<linearGradient id="paint58_linear" x1="265.323" y1="340.874" x2="265.323" y2="223.175" gradientUnits="userSpaceOnUse">
<stop stop-color="#543A4C"/>
<stop offset="1" stop-color="#744468"/>
</linearGradient>
<linearGradient id="paint59_linear" x1="294.499" y1="16.8163" x2="294.499" y2="8.04144" gradientUnits="userSpaceOnUse">
<stop stop-color="#543A4C"/>
<stop offset="1" stop-color="#744468"/>
</linearGradient>
<linearGradient id="paint60_linear" x1="287.547" y1="22.1041" x2="287.547" y2="17.1999" gradientUnits="userSpaceOnUse">
<stop stop-color="#543A4C"/>
<stop offset="1" stop-color="#744468"/>
</linearGradient>
<linearGradient id="paint61_linear" x1="282.054" y1="26.675" x2="282.054" y2="23.6126" gradientUnits="userSpaceOnUse">
<stop stop-color="#543A4C"/>
<stop offset="1" stop-color="#744468"/>
</linearGradient>
<linearGradient id="paint62_linear" x1="278.031" y1="29.6923" x2="278.031" y2="28.3001" gradientUnits="userSpaceOnUse">
<stop stop-color="#543A4C"/>
<stop offset="1" stop-color="#744468"/>
</linearGradient>
<linearGradient id="paint63_linear" x1="294.499" y1="72.8518" x2="294.499" y2="81.6265" gradientUnits="userSpaceOnUse">
<stop stop-color="#543A4C"/>
<stop offset="1" stop-color="#744468"/>
</linearGradient>
<linearGradient id="paint64_linear" x1="287.547" y1="67.5639" x2="287.547" y2="72.4681" gradientUnits="userSpaceOnUse">
<stop stop-color="#543A4C"/>
<stop offset="1" stop-color="#744468"/>
</linearGradient>
<linearGradient id="paint65_linear" x1="282.054" y1="62.9928" x2="282.054" y2="66.0553" gradientUnits="userSpaceOnUse">
<stop stop-color="#543A4C"/>
<stop offset="1" stop-color="#744468"/>
</linearGradient>
<linearGradient id="paint66_linear" x1="278.031" y1="59.976" x2="278.031" y2="61.3681" gradientUnits="userSpaceOnUse">
<stop stop-color="#543A4C"/>
<stop offset="1" stop-color="#744468"/>
</linearGradient>
<linearGradient id="paint67_linear" x1="229.416" y1="16.8162" x2="229.416" y2="8.04172" gradientUnits="userSpaceOnUse">
<stop stop-color="#543A4C"/>
<stop offset="1" stop-color="#744468"/>
</linearGradient>
<linearGradient id="paint68_linear" x1="236.369" y1="22.1041" x2="236.369" y2="17.1999" gradientUnits="userSpaceOnUse">
<stop stop-color="#543A4C"/>
<stop offset="1" stop-color="#744468"/>
</linearGradient>
<linearGradient id="paint69_linear" x1="241.861" y1="26.675" x2="241.861" y2="23.6126" gradientUnits="userSpaceOnUse">
<stop stop-color="#543A4C"/>
<stop offset="1" stop-color="#744468"/>
</linearGradient>
<linearGradient id="paint70_linear" x1="245.885" y1="29.6923" x2="245.885" y2="28.3001" gradientUnits="userSpaceOnUse">
<stop stop-color="#543A4C"/>
<stop offset="1" stop-color="#744468"/>
</linearGradient>
<linearGradient id="paint71_linear" x1="229.416" y1="72.8518" x2="229.416" y2="81.6265" gradientUnits="userSpaceOnUse">
<stop stop-color="#543A4C"/>
<stop offset="1" stop-color="#744468"/>
</linearGradient>
<linearGradient id="paint72_linear" x1="236.369" y1="67.5639" x2="236.369" y2="72.4681" gradientUnits="userSpaceOnUse">
<stop stop-color="#543A4C"/>
<stop offset="1" stop-color="#744468"/>
</linearGradient>
<linearGradient id="paint73_linear" x1="241.861" y1="62.9928" x2="241.861" y2="66.0553" gradientUnits="userSpaceOnUse">
<stop stop-color="#543A4C"/>
<stop offset="1" stop-color="#744468"/>
</linearGradient>
<linearGradient id="paint74_linear" x1="245.885" y1="59.9759" x2="245.885" y2="61.368" gradientUnits="userSpaceOnUse">
<stop stop-color="#543A4C"/>
<stop offset="1" stop-color="#744468"/>
</linearGradient>
<linearGradient id="paint75_linear" x1="269.72" y1="44.8916" x2="254.413" y2="44.8916" gradientUnits="userSpaceOnUse">
<stop stop-color="#543A4C"/>
<stop offset="1" stop-color="#744468"/>
</linearGradient>
<linearGradient id="paint76_linear" x1="457.913" y1="399.794" x2="215.07" y2="399.794" gradientUnits="userSpaceOnUse">
<stop stop-color="#DAB000"/>
<stop offset="1" stop-color="#FCEA00"/>
</linearGradient>
<linearGradient id="paint77_linear" x1="265.323" y1="107.43" x2="265.323" y2="230.355" gradientUnits="userSpaceOnUse">
<stop stop-color="#EA523D"/>
<stop offset="1" stop-color="#EC665C"/>
</linearGradient>
<linearGradient id="paint78_linear" x1="265.322" y1="170.426" x2="265.322" y2="157.604" gradientUnits="userSpaceOnUse">
<stop stop-color="#543A4C"/>
<stop offset="1" stop-color="#744468"/>
</linearGradient>
<linearGradient id="paint79_linear" x1="236.31" y1="86.7059" x2="236.31" y2="219.927" gradientUnits="userSpaceOnUse">
<stop stop-color="#F7EDF6"/>
<stop offset="1" stop-color="#E0DAA0"/>
</linearGradient>
<linearGradient id="paint80_linear" x1="293.904" y1="86.7059" x2="293.904" y2="219.927" gradientUnits="userSpaceOnUse">
<stop stop-color="#F7EDF6"/>
<stop offset="1" stop-color="#E0DAA0"/>
</linearGradient>
<linearGradient id="paint81_linear" x1="437.258" y1="390.757" x2="437.258" y2="104.995" gradientUnits="userSpaceOnUse">
<stop stop-color="#F7EDF6"/>
<stop offset="1" stop-color="#E0DAA0"/>
</linearGradient>
<linearGradient id="paint82_linear" x1="415.674" y1="390.757" x2="415.673" y2="104.995" gradientUnits="userSpaceOnUse">
<stop stop-color="#F7EDF6"/>
<stop offset="1" stop-color="#E0DAA0"/>
</linearGradient>
<linearGradient id="paint83_linear" x1="394.089" y1="390.757" x2="394.089" y2="104.995" gradientUnits="userSpaceOnUse">
<stop stop-color="#F7EDF6"/>
<stop offset="1" stop-color="#E0DAA0"/>
</linearGradient>
<linearGradient id="paint84_linear" x1="372.505" y1="390.757" x2="372.504" y2="104.995" gradientUnits="userSpaceOnUse">
<stop stop-color="#F7EDF6"/>
<stop offset="1" stop-color="#E0DAA0"/>
</linearGradient>
<linearGradient id="paint85_linear" x1="350.92" y1="390.757" x2="350.92" y2="104.995" gradientUnits="userSpaceOnUse">
<stop stop-color="#F7EDF6"/>
<stop offset="1" stop-color="#E0DAA0"/>
</linearGradient>
<linearGradient id="paint86_linear" x1="329.336" y1="390.757" x2="329.336" y2="104.995" gradientUnits="userSpaceOnUse">
<stop stop-color="#F7EDF6"/>
<stop offset="1" stop-color="#E0DAA0"/>
</linearGradient>
<linearGradient id="paint87_linear" x1="383.365" y1="540.234" x2="156.119" y2="540.234" gradientUnits="userSpaceOnUse">
<stop stop-color="#EA523D"/>
<stop offset="1" stop-color="#EC665C"/>
</linearGradient>
<linearGradient id="paint88_linear" x1="255.101" y1="570.788" x2="255.101" y2="509.681" gradientUnits="userSpaceOnUse">
<stop stop-color="#543A4C"/>
<stop offset="1" stop-color="#744468"/>
</linearGradient>
<linearGradient id="paint89_linear" x1="200.042" y1="558.568" x2="200.042" y2="521.901" gradientUnits="userSpaceOnUse">
<stop stop-color="#543A4C"/>
<stop offset="1" stop-color="#744468"/>
</linearGradient>
<linearGradient id="paint90_linear" x1="159.85" y1="552.3" x2="159.85" y2="528.168" gradientUnits="userSpaceOnUse">
<stop stop-color="#543A4C"/>
<stop offset="1" stop-color="#744468"/>
</linearGradient>
<clipPath id="clip0">
<rect y="1079" width="1092" height="458" transform="rotate(-90 0 1079)" fill="white"/>
</clipPath>
</defs>
</svg>
