<?xml version="1.0" encoding="iso-8859-1"?>
<!-- Generator: Adobe Illustrator 19.0.0, SVG Export Plug-In . SVG Version: 6.00 Build 0)  -->
<svg version="1.1" id="Capa_1" xmlns="http://www.w3.org/2000/svg" xmlns:xlink="http://www.w3.org/1999/xlink" x="0px" y="0px"
	 viewBox="0 0 511.997 511.997" style="enable-background:new 0 0 511.997 511.997;" xml:space="preserve">
<g>
	<path style="fill:#F9F5F2;" d="M358.481,207.538c-0.085-0.939-0.085-1.792-0.085-2.645v8.448h0.853
		C358.822,211.429,358.566,209.492,358.481,207.538z"/>
	<path style="fill:#F9F5F2;" d="M221.867,435.2h68.264c18.824-0.06,34.072-15.308,34.132-34.132v-42.665H187.735v42.665
		C187.795,419.891,203.043,435.14,221.867,435.2z"/>
</g>
<path style="fill:#C84339;" d="M405.584,384.001h-81.32v17.066c-0.06,18.824-15.308,34.072-34.132,34.132h-68.264
	c-18.824-0.06-34.072-15.308-34.132-34.132v-17.066h-81.32c-32.178,0.043-59.979,22.485-66.814,53.929l-13.994,65.534h85.33
	l8.533-51.198l-8.533,51.198h290.124l-8.533-51.198l8.533,51.198h85.33l-13.994-65.534
	C465.562,406.486,437.762,384.044,405.584,384.001z"/>
<g>
	<path style="fill:#F9F5F2;" d="M358.396,324.27V194.056c-3.354,1.203-6.861,1.92-10.41,2.133
		c-21.162,1.314-39.38-14.771-40.703-35.924c-0.154-2.219-0.102-4.446,0.171-6.656h-2.475c-7.048,19.976-28.953,30.454-48.92,23.406
		c-10.342-3.644-18.619-11.545-22.758-21.7c-6.297,9.608-17.015,15.385-28.5,15.359c-6.127-0.026-12.134-1.672-17.407-4.779
		c0.239,1.579,0.358,3.183,0.341,4.779c0,18.85-15.283,34.132-34.132,34.132V324.27c0,18.85,15.283,34.132,34.132,34.132h136.529
		C343.113,358.402,358.396,343.119,358.396,324.27z M204.801,238.939c-4.71,0-8.533-3.823-8.533-8.533
		c0-4.71,3.823-8.533,8.533-8.533c4.71,0,8.533,3.823,8.533,8.533C213.334,235.117,209.511,238.939,204.801,238.939z
		 M307.197,238.939c-4.71,0-8.533-3.823-8.533-8.533c0-4.71,3.823-8.533,8.533-8.533c4.71,0,8.533,3.823,8.533,8.533
		C315.731,235.117,311.908,238.939,307.197,238.939z"/>
	<path style="fill:#F9F5F2;" d="M149.933,213.511c-13.661,1.519-25.079,11.067-29.012,24.234c-0.956,3.157-1.451,6.434-1.451,9.728
		c0,18.85,15.283,34.132,34.132,34.132V213.34C152.408,213.34,151.128,213.426,149.933,213.511z"/>
	<path style="fill:#F9F5F2;" d="M359.249,213.34h-0.853v68.264c18.849,0,34.132-15.283,34.132-34.132
		c0.017-0.29-0.017-0.572-0.085-0.853C392.067,228.427,377.433,213.758,359.249,213.34z"/>
</g>
<path style="fill:#FDCA6E;" d="M149.933,213.511c1.195-0.085,2.475-0.171,3.669-0.171v-8.533c18.85,0,34.132-15.283,34.132-34.132
	c0.017-1.596-0.102-3.2-0.341-4.779c5.273,3.106,11.281,4.753,17.407,4.779c11.485,0.026,22.203-5.751,28.5-15.359
	c7.987,19.617,30.369,29.038,49.978,21.051c10.154-4.139,18.047-12.416,21.7-22.758h2.475c-0.273,2.21-0.324,4.437-0.171,6.656
	c1.323,21.153,19.541,37.238,40.703,35.924c3.55-0.213,7.057-0.93,10.41-2.133v10.837c0,0.853,0,1.707,0.085,2.645
	c0.085,1.954,0.341,3.891,0.768,5.802c18.184,0.418,32.818,15.086,33.194,33.279c3.737,0.734,7.552,0.99,11.349,0.768
	c23.517-1.51,41.36-21.793,39.849-45.31l0,0c-0.734-12.441-6.954-23.918-16.981-31.316c18.884-14.088,22.766-40.822,8.678-59.714
	c-8.542-11.443-22.237-17.86-36.496-17.083c1.749-4.889,2.475-10.095,2.133-15.274c-1.323-21.153-19.541-37.238-40.703-35.924
	c-0.853,0.085-1.792,0.171-2.645,0.341c-4.523-23.167-26.964-38.288-50.14-33.765c-8.158,1.596-15.667,5.529-21.623,11.323
	c-16.921-16.469-43.979-16.11-60.457,0.811c-1.271,1.306-2.449,2.688-3.541,4.139c-18.815-14.122-45.515-10.316-59.637,8.499
	c-4.779,6.366-7.68,13.952-8.371,21.879c-5.231-3.14-11.221-4.796-17.322-4.779c-18.85,0-34.132,15.283-34.132,34.132
	c-0.009,3.115,0.418,6.221,1.28,9.216c-23.218,3.993-38.808,26.06-34.806,49.287c1.468,8.516,5.478,16.383,11.511,22.561
	c-16.46,16.904-16.102,43.954,0.802,60.414c7.961,7.757,18.628,12.1,29.746,12.117c3.362-0.009,6.716-0.41,9.984-1.195
	C124.855,224.578,136.272,215.03,149.933,213.511z"/>
<g>
	<circle style="fill:#F9F5F2;" cx="307.189" cy="230.389" r="8.533"/>
	<circle style="fill:#F9F5F2;" cx="204.792" cy="230.389" r="8.533"/>
</g>
<g>
	<path style="fill:#231F20;" d="M480.734,436.121c-7.808-35.284-39.013-60.465-75.151-60.653h-72.787v-9.386
		c19.848-4.079,34.107-21.546,34.132-41.812v-34.985c16.759-3.447,29.849-16.554,33.279-33.322c0.324,0,0.648,0.051,0.973,0.051
		c1.058,0,2.108,0,3.14-0.102c28.21-1.826,49.611-26.145,47.845-54.356c-0.683-11.443-5.231-22.314-12.91-30.821
		c18.858-21.068,17.066-53.434-4.011-72.292c-7.279-6.511-16.264-10.803-25.898-12.381c2.688-25.821-16.068-48.937-41.889-51.625
		c-1.135-0.119-2.27-0.196-3.405-0.23C354.59,7.489,325.262-6.505,298.536,2.958c-4.514,1.596-8.78,3.814-12.672,6.596
		c-20.181-14.395-47.759-12.305-65.542,4.958c-7.398-3.951-15.667-5.999-24.055-5.965c-22.22,0.094-41.863,14.455-48.707,35.591
		c-3.592-0.973-7.304-1.459-11.025-1.459c-23.551,0.026-42.64,19.114-42.665,42.665c0,0.981,0,1.954,0.094,2.927
		c-26.7,9.412-40.72,38.689-31.308,65.389c1.596,4.54,3.831,8.832,6.622,12.748c-16.452,23.048-11.101,55.072,11.946,71.524
		c8.67,6.186,19.054,9.523,29.712,9.54c0.026,20.266,14.284,37.733,34.132,41.812v34.985c0.026,20.266,14.284,37.733,34.132,41.812
		v9.386h-72.787c-36.146,0.188-67.351,25.386-75.159,60.678l-13.994,65.534c-0.981,4.608,1.954,9.139,6.562,10.129
		c0.589,0.128,1.186,0.188,1.783,0.188h460.785c4.71,0,8.533-3.823,8.533-8.533c0-0.597-0.06-1.195-0.188-1.783L480.734,436.121z
		 M196.268,366.935h119.463v34.132c0,14.139-11.46,25.599-25.599,25.599h-68.264c-14.139,0-25.599-11.46-25.599-25.599V366.935z
		 M366.929,271.613v-48.203c0.333,0.119,0.691,0.205,1.015,0.333c0.486,0.196,0.964,0.41,1.442,0.631
		c0.905,0.435,1.783,0.913,2.628,1.451c0.401,0.247,0.853,0.486,1.195,0.751c1.101,0.768,2.142,1.63,3.115,2.56l0.213,0.179
		c1.007,1.024,1.92,2.133,2.739,3.319c0.273,0.375,0.495,0.785,0.742,1.178c0.538,0.853,1.015,1.741,1.451,2.645
		c0.222,0.469,0.427,0.947,0.614,1.434c0.375,0.956,0.691,1.928,0.939,2.918c0.119,0.469,0.265,0.922,0.358,1.391
		c0.316,1.493,0.495,3.021,0.529,4.548c0.009,0.341,0.034,0.683,0.085,1.015C383.858,258.497,377.049,268.02,366.929,271.613z
		 M76.805,196.274c-0.034-8.926,3.439-17.51,9.685-23.893c3.251-3.319,3.251-8.627,0-11.946
		c-13.166-13.491-12.902-35.105,0.597-48.263c4.941-4.821,11.221-8.03,18.022-9.207c4.642-0.785,7.774-5.197,6.989-9.839
		c-0.06-0.333-0.128-0.657-0.23-0.981c-0.623-2.21-0.939-4.505-0.93-6.801c0-14.139,11.46-25.599,25.599-25.599
		c4.557-0.017,9.036,1.212,12.945,3.567c4.045,2.423,9.284,1.101,11.707-2.944c0.674-1.118,1.075-2.381,1.178-3.678
		c1.579-17.561,16.273-31.026,33.902-31.077c7.39-0.043,14.592,2.355,20.479,6.826c1.8,1.382,4.087,1.98,6.332,1.647
		c2.244-0.324,4.267-1.536,5.615-3.353c6.468-8.567,16.571-13.619,27.306-13.653c8.926-0.034,17.51,3.439,23.893,9.685
		c3.319,3.251,8.627,3.251,11.946,0c13.542-13.175,35.199-12.876,48.374,0.666c4.625,4.753,7.765,10.743,9.045,17.254
		c0.879,4.633,5.35,7.663,9.984,6.784c0.017,0,0.034-0.009,0.043-0.009c0.58-0.111,1.229-0.162,1.544-0.196
		c16.435-0.973,30.574,11.52,31.641,27.946c0.265,4.028-0.299,8.072-1.655,11.869c-0.956,2.688-0.503,5.666,1.195,7.953
		c1.69,2.304,4.429,3.584,7.279,3.413c18.824-1.015,34.9,13.431,35.916,32.255c0.614,11.4-4.514,22.357-13.67,29.183
		c-3.772,2.824-4.531,8.175-1.707,11.946c0.486,0.649,1.058,1.22,1.707,1.707c7.995,5.905,12.962,15.052,13.559,24.976l0,0
		c1.186,18.815-13.073,35.037-31.879,36.274c-1.007,0.06-2.022,0.085-3.072,0.051c-0.06-0.273-0.162-0.521-0.222-0.794
		c-0.154-0.691-0.375-1.34-0.563-2.005c-0.461-1.741-1.032-3.447-1.707-5.12c-0.307-0.725-0.623-1.442-0.964-2.15
		c-0.785-1.621-1.672-3.191-2.654-4.702c-0.333-0.512-0.623-1.05-0.981-1.544c-1.408-1.997-2.987-3.865-4.71-5.589l-0.137-0.111
		c-1.707-1.647-3.541-3.149-5.495-4.488c-0.461-0.316-0.939-0.597-1.408-0.853c-1.638-1.05-3.353-1.988-5.12-2.807
		c-0.521-0.239-1.033-0.486-1.57-0.708c-2.125-0.879-4.318-1.579-6.553-2.099c-0.213,0-0.41-0.119-0.623-0.171
		c-0.213-0.051-0.333-0.034-0.503-0.034v-11.605c0-4.71-3.823-8.533-8.542-8.525c-1.007,0-1.997,0.179-2.935,0.521
		c-2.586,0.913-5.282,1.459-8.013,1.621c-16.469,0.956-30.617-11.579-31.649-28.04c-0.111-1.664-0.068-3.345,0.137-5
		c0.563-4.676-2.765-8.926-7.449-9.497c-0.341-0.043-0.683-0.06-1.024-0.06h-2.475c-3.618,0-6.844,2.287-8.047,5.7
		c-5.478,15.53-22.51,23.671-38.04,18.192c-8.038-2.842-14.481-8.977-17.689-16.878c-1.775-4.36-6.758-6.46-11.119-4.685
		c-1.596,0.649-2.952,1.766-3.908,3.208c-7.68,11.221-22.689,14.668-34.491,7.91c-4.07-2.372-9.301-0.99-11.665,3.089
		c-0.99,1.707-1.357,3.695-1.05,5.64c0.171,1.135,0.247,2.278,0.23,3.422c0,14.139-11.46,25.599-25.599,25.599
		c-4.71,0-8.533,3.823-8.533,8.533v0.853c-0.452,0.094-0.853,0.247-1.331,0.35c-0.717,0.179-1.425,0.367-2.133,0.58
		c-1.212,0.35-2.381,0.768-3.541,1.22c-0.64,0.256-1.288,0.486-1.911,0.768c-1.323,0.606-2.603,1.271-3.857,2.005
		c-0.393,0.222-0.811,0.41-1.203,0.657c-1.579,0.981-3.089,2.074-4.523,3.251c-0.461,0.384-0.853,0.811-1.331,1.212
		c-0.956,0.853-1.886,1.707-2.765,2.671c-0.512,0.546-0.99,1.118-1.476,1.707c-0.742,0.853-1.451,1.8-2.125,2.756
		c-0.444,0.623-0.853,1.254-1.288,1.903c-0.666,1.058-1.263,2.15-1.835,3.268c-0.299,0.597-0.631,1.16-0.913,1.775
		c-0.068,0.145-0.154,0.282-0.222,0.435c-18.713,2.056-35.549-11.434-37.605-30.147C76.873,198.809,76.805,197.537,76.805,196.274z
		 M128.003,247.473c0-2.475,0.375-4.932,1.101-7.296c0.538-1.766,1.271-3.464,2.184-5.069c0.179-0.324,0.35-0.657,0.546-0.981
		c0.904-1.485,1.954-2.876,3.132-4.156c0.213-0.239,0.452-0.444,0.674-0.666c1.135-1.143,2.381-2.176,3.72-3.08
		c0.188-0.128,0.35-0.282,0.546-0.401c1.459-0.922,3.012-1.69,4.633-2.287l0.529-0.188v48.263
		C134.847,267.977,128.021,258.318,128.003,247.473z M162.136,324.27V212.487c17.109-3.516,30.361-17.092,33.467-34.286
		c12.74,2.782,26.043-0.384,36.172-8.593c15.914,20.462,45.396,24.149,65.858,8.234c1.408-1.092,2.756-2.27,4.028-3.516
		c7.245,19.353,26.307,31.692,46.932,30.378l1.271-0.102V324.27c0,14.139-11.46,25.599-25.599,25.599H187.735
		C173.596,349.869,162.136,338.409,162.136,324.27z M408.289,494.931l-7.347-44.065l-16.827,2.799l6.878,41.266H121.006
		l6.878-41.266l-16.827-2.799l-7.347,44.065H36.154l11.784-55.192c6.084-27.459,30.352-47.051,58.477-47.205h72.787v8.533
		c0.026,23.551,19.114,42.64,42.665,42.665h68.264c23.551-0.026,42.64-19.114,42.665-42.665v-8.533h72.787
		c28.116,0.154,52.384,19.728,58.468,47.179l11.793,55.217H408.289z"/>
	<circle style="fill:#231F20;" cx="307.189" cy="230.389" r="17.066"/>
	<circle style="fill:#231F20;" cx="204.792" cy="230.389" r="17.066"/>
</g>
<g>
</g>
<g>
</g>
<g>
</g>
<g>
</g>
<g>
</g>
<g>
</g>
<g>
</g>
<g>
</g>
<g>
</g>
<g>
</g>
<g>
</g>
<g>
</g>
<g>
</g>
<g>
</g>
<g>
</g>
</svg>
