<svg width="32" height="32" viewBox="0 0 32 32" fill="none" xmlns="http://www.w3.org/2000/svg">
<path d="M5.3335 14C4.22683 14 3.3335 14.8933 3.3335 16C3.3335 17.1067 4.22683 18 5.3335 18C6.44016 18 7.3335 17.1067 7.3335 16C7.3335 14.8933 6.44016 14 5.3335 14ZM5.3335 6C4.22683 6 3.3335 6.89333 3.3335 8C3.3335 9.10667 4.22683 10 5.3335 10C6.44016 10 7.3335 9.10667 7.3335 8C7.3335 6.89333 6.44016 6 5.3335 6ZM5.3335 22C4.22683 22 3.3335 22.9067 3.3335 24C3.3335 25.0933 4.24016 26 5.3335 26C6.42683 26 7.3335 25.0933 7.3335 24C7.3335 22.9067 6.44016 22 5.3335 22ZM9.3335 25.3333H28.0002V22.6667H9.3335V25.3333ZM9.3335 17.3333H28.0002V14.6667H9.3335V17.3333ZM9.3335 6.66667V9.33333H28.0002V6.66667H9.3335Z" fill="white"/>
</svg>
