<svg width="24" height="24" viewBox="0 0 24 24" fill="none" xmlns="http://www.w3.org/2000/svg">
<g id="Iconly/Bulk/Filter">
<g id="Filter">
<path id="Fill 1" d="M18.2179 13.8629C16.129 13.8629 14.4346 15.572 14.4346 17.6814C14.4346 19.7898 16.129 21.5 18.2179 21.5C20.3067 21.5 22 19.7898 22 17.6814C22 15.572 20.3067 13.8629 18.2179 13.8629Z" fill="#5DC8AC"/>
<path id="Fill 4" opacity="0.4" d="M10.0832 16.1605H3.50776C2.67555 16.1605 2 16.8424 2 17.6812C2 18.5201 2.67555 19.203 3.50776 19.203H10.0832C10.9143 19.203 11.5899 18.5201 11.5899 17.6812C11.5899 16.8424 10.9143 16.1605 10.0832 16.1605Z" fill="#5DC8AC"/>
<path id="Fill 7" d="M5.78329 10.1371C7.87216 10.1371 9.56658 8.428 9.56658 6.31967C9.56658 4.21022 7.87216 2.5 5.78329 2.5C3.69443 2.5 2 4.21022 2 6.31967C2 8.428 3.69443 10.1371 5.78329 10.1371Z" fill="#5DC8AC"/>
<path id="Fill 10" opacity="0.4" d="M22 6.31934C22 5.48049 21.3245 4.79865 20.4934 4.79865H13.9179C13.0857 4.79865 12.4102 5.48049 12.4102 6.31934C12.4102 7.15818 13.0857 7.84003 13.9179 7.84003H20.4934C21.3245 7.84003 22 7.15818 22 6.31934Z" fill="#5DC8AC"/>
</g>
</g>
</svg>
