<svg id="Capa_1" enable-background="new 0 0 60 59" height="512" viewBox="0 0 60 59" width="512" xmlns="http://www.w3.org/2000/svg"><path id="Shape" d="m11 29.03v22.97c.003 3.313 2.687 5.997 6 6h26c3.313-.003 5.997-2.687 6-6v-46c-.003-3.313-2.687-5.997-6-6h-26c-3.313.003-5.997 2.687-6 6z" fill="#90bae1"/><path id="Shape_1_" d="m48.91 4.99v.01s-37.91 16-37.91 47v-46c.003-3.313 2.687-5.997 6-6h26c2.923.001 5.419 2.109 5.91 4.99z" fill="#b0d3f0"/><path id="Shape_2_" d="m49 52c-.003 3.313-2.687 5.997-6 6h-26c-3.313-.003-5.997-2.687-6-6z" fill="#2c3e50"/><circle id="Oval" cx="13.5" cy="23.5" fill="#3b97d3" r="12.5"/><circle id="Oval_1_" cx="46.5" cy="23.5" fill="#3b97d3" r="12.5"/><path id="Shape_3_" d="m48.91 5h-8.11c-1.126-.001-2.177.562-2.8 1.5s-1.674 1.501-2.8 1.5h-10.4c-1.126.001-2.177-.562-2.8-1.5s-1.674-1.501-2.8-1.5h-8.11c.484-2.887 2.983-5.001 5.91-5h26c2.927-.001 5.426 2.113 5.91 5z" fill="#2c3e50"/><path id="Shape_5_" d="m34 5h-4c-.552 0-1-.448-1-1s.448-1 1-1h4c.552 0 1 .448 1 1s-.448 1-1 1z" fill="#3f5c6c"/><circle id="Oval_2_" cx="30" cy="55" fill="#3f5c6c" r="3"/><path id="Shape_6_" d="m6 59h-5c-.552 0-1-.448-1-1s.448-1 1-1h5c.552 0 1 .448 1 1s-.448 1-1 1z" fill="#2c2f38"/><path id="Shape_7_" d="m59 59h-49c-.552 0-1-.448-1-1s.448-1 1-1h49c.552 0 1 .448 1 1s-.448 1-1 1z" fill="#2c2f38"/><path id="Shape_8_" d="m13.5 37c-7.456 0-13.5-6.044-13.5-13.5s6.044-13.5 13.5-13.5 13.5 6.044 13.5 13.5c-.009 7.452-6.048 13.491-13.5 13.5zm0-25c-6.351 0-11.5 5.149-11.5 11.5s5.149 11.5 11.5 11.5 11.5-5.149 11.5-11.5c-.007-6.348-5.152-11.493-11.5-11.5z" fill="#ff5364"/><circle id="Oval_3_" cx="15.5" cy="24.5" fill="#2c3e50" r="5.5"/><circle id="Oval_4_" cx="15" cy="25" fill="#fff" r="2"/><path id="Shape_9_" d="m46.5 37c-7.456 0-13.5-6.044-13.5-13.5s6.044-13.5 13.5-13.5 13.5 6.044 13.5 13.5c-.009 7.452-6.048 13.491-13.5 13.5zm0-25c-6.351 0-11.5 5.149-11.5 11.5s5.149 11.5 11.5 11.5 11.5-5.149 11.5-11.5c-.007-6.348-5.152-11.493-11.5-11.5z" fill="#ff5364"/><circle id="Oval_5_" cx="44.5" cy="24.5" fill="#2c3e50" r="5.5"/><circle id="Oval_6_" cx="43" cy="25" fill="#fff" r="2"/><path id="Shape_10_" d="m30 36.286c-3.675 0-4.9-1.286-4.9-1.286s-1.225 9 4.9 9" fill="#2c3e50"/><path id="Shape_11_" d="m30 36.286c3.675 0 4.9-1.286 4.9-1.286s1.225 9-4.9 9" fill="#2c3e50"/><path id="Shape_12_" d="m34.18 22.35c-.247 0-.485-.091-.668-.256-1.01-.759-2.25-1.146-3.512-1.094-1.262-.052-2.502.335-3.511 1.094-.411.369-1.043.336-1.413-.075-.369-.411-.336-1.043.075-1.413 1.37-1.101 3.092-1.672 4.849-1.606 1.757-.066 3.479.505 4.849 1.606.308.277.413.715.265 1.102s-.52.642-.934.642z" fill="#ff5364"/><path id="Shape_19_" d="m33.88 41.85c-.78 1.396-2.283 2.229-3.88 2.15-1.597.079-3.1-.754-3.88-2.15.948-1.17 2.374-1.85 3.88-1.85s2.932.68 3.88 1.85z" fill="#ff5364"/><g fill="#285680"><circle cx="21" cy="38.001" r="1"/><circle cx="39" cy="38.001" r="1"/><circle cx="18" cy="40" r="1"/><circle cx="42" cy="40" r="1"/><circle cx="22" cy="42" r="1"/><circle cx="38" cy="42" r="1"/></g><circle cx="26" cy="4.006" fill="#3f5c6c" r="1"/></svg>