<svg id="main" xmlns="http://www.w3.org/2000/svg" viewBox="0 0 1000 1000"><defs><style>.cls-1,.cls-2{fill:#fff;}.cls-1{opacity:0;}</style></defs><title>speaker_w</title><rect id="frame" class="cls-1" width="1000" height="1000"/><path class="cls-2" d="M556.79,175.63a23.27,23.27,0,0,0-24.68,2.8L305.12,360H196.67A46.75,46.75,0,0,0,150,406.68V593.35A46.71,46.71,0,0,0,196.67,640H305.12L532.06,821.59a23.37,23.37,0,0,0,24.73,2.76,23.29,23.29,0,0,0,13.21-21V196.68A23.4,23.4,0,0,0,556.79,175.63Z"/><path class="cls-2" d="M805,500l56.55-56.55a37.5,37.5,0,0,0-53-53L751.93,447l-56.56-56.56a37.5,37.5,0,1,0-53,53L698.9,500l-56.56,56.55a37.5,37.5,0,0,0,53,53L751.93,553l56.55,56.56a37.5,37.5,0,0,0,53-53Z"/></svg>