<svg width="40" height="40" viewBox="0 0 40 40" fill="none" xmlns="http://www.w3.org/2000/svg">
<circle opacity="0.1" cx="20" cy="20" r="20" fill="#FF9D9D"/>
<path d="M20.0117 22.8301C18.4073 22.8301 17.1094 21.5801 17.1094 20.0101C17.1094 18.4401 18.4073 17.1801 20.0117 17.1801C21.6162 17.1801 22.8834 18.4401 22.8834 20.0101C22.8834 21.5801 21.6162 22.8301 20.0117 22.8301Z" fill="#FF9D9D"/>
<path opacity="0.4" d="M29.2301 22.3701C29.036 22.0701 28.76 21.7701 28.4023 21.5801C28.1162 21.4401 27.9322 21.2101 27.7687 20.9401C27.2475 20.0801 27.5541 18.9501 28.4228 18.4401C29.4447 17.8701 29.7718 16.6001 29.179 15.6101L28.4943 14.4301C27.9118 13.4401 26.6344 13.0901 25.6226 13.6701C24.7233 14.1501 23.5685 13.8301 23.0473 12.9801C22.8838 12.7001 22.7918 12.4001 22.8122 12.1001C22.8429 11.7101 22.7203 11.3401 22.5363 11.0401C22.1582 10.4201 21.4735 10.0001 20.7172 10.0001H19.2763C18.5302 10.0201 17.8455 10.4201 17.4674 11.0401C17.2732 11.3401 17.1608 11.7101 17.1813 12.1001C17.2017 12.4001 17.1097 12.7001 16.9462 12.9801C16.425 13.8301 15.2702 14.1501 14.3811 13.6701C13.3591 13.0901 12.0919 13.4401 11.4992 14.4301L10.8145 15.6101C10.2319 16.6001 10.559 17.8701 11.5707 18.4401C12.4394 18.9501 12.746 20.0801 12.235 20.9401C12.0612 21.2101 11.8773 21.4401 11.5911 21.5801C11.2437 21.7701 10.9371 22.0701 10.7736 22.3701C10.3955 22.9901 10.4159 23.7701 10.794 24.4201L11.4992 25.6201C11.8773 26.2601 12.5824 26.6601 13.3183 26.6601C13.6657 26.6601 14.0745 26.5601 14.4015 26.3601C14.657 26.1901 14.9636 26.1301 15.3009 26.1301C16.3126 26.1301 17.1608 26.9601 17.1813 27.9501C17.1813 29.1001 18.1215 30.0001 19.3069 30.0001H20.6968C21.872 30.0001 22.8122 29.1001 22.8122 27.9501C22.8429 26.9601 23.6911 26.1301 24.7029 26.1301C25.0299 26.1301 25.3365 26.1901 25.6022 26.3601C25.9292 26.5601 26.3278 26.6601 26.6855 26.6601C27.411 26.6601 28.1162 26.2601 28.4943 25.6201L29.2097 24.4201C29.5776 23.7501 29.6083 22.9901 29.2301 22.3701Z" fill="#FF9D9D"/>
</svg>
