<svg width="24" height="24" viewBox="0 0 24 24" fill="none" xmlns="http://www.w3.org/2000/svg">
<path d="M19.7695 11.6454C19.039 10.7924 18.7071 10.0531 18.7071 8.79722V8.37019C18.7071 6.7336 18.3304 5.67913 17.5115 4.62466C16.2493 2.98705 14.1244 2.00006 12.0442 2.00006H11.9558C9.91935 2.00006 7.86106 2.94173 6.577 4.51286C5.71333 5.58848 5.29293 6.68828 5.29293 8.37019V8.79722C5.29293 10.0531 4.98284 10.7924 4.23049 11.6454C3.67691 12.2738 3.5 13.0816 3.5 13.9558C3.5 14.831 3.78723 15.6598 4.36367 16.3336C5.11602 17.1413 6.17846 17.657 7.26375 17.7466C8.83505 17.9259 10.4063 17.9934 12.0005 17.9934C13.5937 17.9934 15.165 17.8806 16.7372 17.7466C17.8215 17.657 18.884 17.1413 19.6363 16.3336C20.2118 15.6598 20.5 14.831 20.5 13.9558C20.5 13.0816 20.3231 12.2738 19.7695 11.6454Z" fill="#FF9D9D"/>
<path opacity="0.4" d="M14.0088 19.2283C13.5088 19.1216 10.4627 19.1216 9.96275 19.2283C9.53539 19.327 9.07324 19.5566 9.07324 20.0602C9.09809 20.5406 9.37935 20.9646 9.76895 21.2335L9.76795 21.2345C10.2718 21.6273 10.8632 21.8771 11.4824 21.9667C11.8123 22.012 12.1482 22.01 12.4901 21.9667C13.1083 21.8771 13.6997 21.6273 14.2036 21.2345L14.2026 21.2335C14.5922 20.9646 14.8734 20.5406 14.8983 20.0602C14.8983 19.5566 14.4361 19.327 14.0088 19.2283Z" fill="#FF9D9D"/>
</svg>
