<svg id="main" xmlns="http://www.w3.org/2000/svg" viewBox="0 0 1000 1000"><defs><style>.cls-1,.cls-2{fill:#fff;}.cls-1{opacity:0;}</style></defs><title>particles_w</title><rect id="frame" class="cls-1" width="1000" height="1000"/><path class="cls-2" d="M829.49,633.54a155.2,155.2,0,0,1-110.06-45.21,152.94,152.94,0,0,1-45.51-109.28,20.51,20.51,0,1,0-41,0,153,153,0,0,1-45.52,109.28,155.18,155.18,0,0,1-110.06,45.21,20.51,20.51,0,1,0,0,41c85.78,0,155.58,69.51,155.58,154.94a20.51,20.51,0,1,0,41,0c0-85.43,69.79-154.94,155.57-154.94a20.51,20.51,0,1,0,0-41Z"/><path class="cls-2" d="M430.59,473.18c-60.39,0-109.53-48.77-109.53-108.73a20.51,20.51,0,0,0-41,0c0,60-49.14,108.73-109.53,108.73a20.51,20.51,0,1,0,0,41C230.9,514.2,280,563.13,280,623.27a20.51,20.51,0,0,0,41,0c0-60.14,49.14-109.07,109.53-109.07a20.51,20.51,0,1,0,0-41Z"/><path class="cls-2" d="M464,291.72c44.41,0,80.55,35.86,80.55,79.94a20.51,20.51,0,0,0,41,0c0-44.22,36.14-80.2,80.56-80.2a20.51,20.51,0,0,0,0-41c-44.42,0-80.56-35.87-80.56-79.94a20.51,20.51,0,0,0-41,0c0,44.22-36.14,80.19-80.55,80.19a20.51,20.51,0,1,0,0,41Z"/></svg>