<svg id="main" xmlns="http://www.w3.org/2000/svg" viewBox="0 0 1000 1000"><defs><style>.cls-1{fill:#fff;opacity:0;}</style></defs><title>pause_b</title><rect id="frame" class="cls-1" width="1000" height="1000"/><path d="M402.56,150l-17.06.35c-21.1,0-38.63,17.18-38.63,38.29v623.6c0,21.1,19,37.76,40.1,37.76h.12l15.57-.1c21.12,0,37.19-16.91,37.19-38V188.29C439.84,167.18,423.78,150,402.56,150Z"/><path d="M616.05,150l-17.15.35c-21.11,0-38.72,17.18-38.72,38.29v623.6c0,21.1,19.44,37.76,40.53,37.76h.12l15.35-.1c21.1,0,37-16.91,37-38V188.29C653.12,167.18,637.27,150,616.05,150Z"/></svg>