<svg id="main" xmlns="http://www.w3.org/2000/svg" viewBox="0 0 1000 1000"><defs><style>.cls-1,.cls-2{fill:#fff;}.cls-1{opacity:0;}</style></defs><title>presets_w</title><rect id="frame" class="cls-1" width="1000" height="1000"/><path class="cls-2" d="M674.6,836.82A67.22,67.22,0,0,1,640,827.21L500,743.53,360,827.22a67.46,67.46,0,0,1-100.39-72.84L295.8,594.85,173,487.17a67.51,67.51,0,0,1,38.28-118l162.43-14.74L438,204.17a67.47,67.47,0,0,1,124.06-.1l64.24,150.37,162.35,14.74a67.5,67.5,0,0,1,38.31,118L704.18,594.85l36.2,159.5a67.54,67.54,0,0,1-65.78,82.47ZM500,670.2a33.82,33.82,0,0,1,17.38,4.8l156.81,93.76L633.65,590.18a33.89,33.89,0,0,1,10.7-33L781.92,436.59,600,420.07a33.89,33.89,0,0,1-28.09-20.42L500,231.34,428.09,399.65A33.89,33.89,0,0,1,400,420.07L218.08,436.59,355.63,557.22a33.86,33.86,0,0,1,10.69,33L325.79,768.73,482.63,675A33.81,33.81,0,0,1,500,670.2ZM782.5,436.64h0Zm-.25-.18h0L814.47,426l-32.22,10.42Z"/></svg>