<?xml version="1.0" encoding="utf-8"?>
<!-- Generator: Adobe Illustrator 24.0.0, SVG Export Plug-In . SVG Version: 6.00 Build 0)  -->
<svg version="1.1" id="main" xmlns="http://www.w3.org/2000/svg" xmlns:xlink="http://www.w3.org/1999/xlink" x="0px" y="0px"
	 viewBox="0 0 1000 1000" style="enable-background:new 0 0 1000 1000;" xml:space="preserve">
<style type="text/css">
	.st0{opacity:0;}
	.st1{fill:#FFFFFF;}
</style>
<title>loader</title>
<g id="frame" class="st0">
	<rect class="st1" width="1000" height="1000"/>
</g>
<g>
	<path class="st1" d="M574.9,161.8c-1.7-2.7-4.4-4.6-7.6-5.2c-44.4-8.6-90-8.6-134.4,0c-6.4,1.3-10.5,7.5-9.2,13.9
		c0,0.2,0.1,0.5,0.2,0.7l30,113.1c1.5,5.8,7.2,9.4,13.1,8.5c21.7-3.4,43.8-3.4,65.5,0h1.8c5.4,0.2,10.3-3.4,11.7-8.6l30.3-113
		C577.2,167.9,576.7,164.5,574.9,161.8z"/>
</g>
<g>
	<path class="st1" d="M360.8,342.8c-3.9,0-7.8-1.5-10.7-4.4l-82.9-82.9l-0.1-0.1c-5.6-6.5-5-16,1.4-21.8
		c34.7-30.3,74.3-53.1,117.8-67.9c0.2-0.1,0.4-0.1,0.5-0.2c3.9-1.1,8.1-0.7,11.7,1.3c3.6,2,6.2,5.2,7.3,9.2l30.4,113.3
		c1.8,7.8-2.7,15.6-10.3,17.9c-20.1,7.7-38.8,18.5-55.5,32.1C367.6,341.7,364.2,342.8,360.8,342.8z M272.4,250.7l82.7,82.7
		c3,2.9,7.7,3.2,11,0.5c17.3-14.1,36.6-25.3,57.5-33.2l0.3-0.1c4.1-1.2,6.6-5.5,5.6-9.6l-30.3-113.1c-1.3-4.4-5.9-6.9-10.3-5.7
		l-0.3,0.1c-42.6,14.5-81.5,36.8-115.4,66.5C269.7,241.9,269.4,247.1,272.4,250.7z"/>
</g>
<g>
	<path class="st1" d="M291.7,435.6c-0.6,0-1.3,0-1.9-0.1l-0.5-0.1l-113.1-30.3c-0.2-0.1-0.4-0.1-0.5-0.2c-8.1-2.6-12.5-11.2-10-19.3
		c14.8-43.6,37.6-83.2,67.9-117.9l0.2-0.3c6.1-5.7,15.8-5.7,21.9,0l0.1,0.1l82.9,82.9c5.1,5.5,5.5,13.8,0.9,19.7
		c-13.7,16.8-24.5,35.5-32.3,55.7c-2.2,5.8-7.7,9.6-13.9,9.7C292.8,435.6,292.3,435.6,291.7,435.6z M290.8,428.6
		c0.6,0.1,1.3,0.1,1.9,0l0.4,0c3.4,0,6.4-2.1,7.6-5.2c8-20.9,19.2-40.2,33.3-57.5c2.4-3.1,2.2-7.5-0.5-10.5l-82.7-82.7
		c-3.4-3.2-8.7-3.2-12.2-0.1c-29.6,33.9-51.9,72.7-66.4,115.3c-1.4,4.3,1.1,9,5.4,10.4l0.3,0.1L290.8,428.6z"/>
</g>
<g>
	<path class="st1" d="M169.7,579.7c-0.6,0-1.1,0-1.7-0.1c0,0,0,0-0.1,0c-7.2,0-13.4-5.1-14.9-12.1c-8.8-45.1-8.8-90.7,0-135.7
		c1.6-8.2,9.6-13.5,17.8-11.9l1,0.2l113,30.3c7.5,2,12.3,9.3,11.1,17c-3.1,21.5-3.1,43.3,0.2,64.8c1.2,7.7-3.6,15-11.1,17
		l-113.2,30.4l-0.3,0C171,579.7,170.3,579.7,169.7,579.7z M168.4,572.6l0.2,0c0.7,0.1,1.3,0.1,2,0l112.7-30.2c4.1-1.1,6.6-5,6-9.2
		l0,0c-3.4-22.2-3.5-44.7-0.2-66.9c0.6-4.2-1.9-8.1-6-9.2l-112.9-30.3l-0.6-0.1c-4.4-0.9-8.7,2-9.6,6.4c-8.7,44.1-8.7,88.9,0,133
		c0.8,3.8,4.2,6.6,8.2,6.5L168.4,572.6z"/>
</g>
<g>
	<path class="st1" d="M336.8,631.9c-13.7-17.2-24.7-36.4-32.3-57c-2.1-5.6-8.1-8.6-13.9-7.1l-113.1,30.3c-6.3,1.8-9.9,8.4-8.1,14.7
		c0,0.1,0.1,0.2,0.1,0.3c14.5,42.9,37.4,82.5,67.2,116.6c2.1,2.4,5.2,3.9,8.4,4c3.1,0,6-1.2,8.3-3.4l82.8-82.8
		C340.4,643.2,340.7,636.5,336.8,631.9z"/>
</g>
<g>
	<path class="st1" d="M424.8,696c-20.5-7.8-39.6-18.9-56.6-32.8c-4.5-3.5-11-3.2-15.2,0.7l-82.8,82.8c-4.4,5.1-4.5,12.5-0.4,17.7
		c34.1,29.8,73.7,52.6,116.6,67.2c1.2,0.2,2.5,0.2,3.7,0c5.3,0,9.9-3.6,11.3-8.6l30.3-113.1C433.4,704.1,430.4,698.1,424.8,696z"/>
</g>
<g>
	<path class="st1" d="M576.3,829L546,716c-1.5-5.8-7.2-9.4-13.1-8.5c-21.7,3.4-43.8,3.4-65.5,0c-5.9-0.9-11.6,2.7-13.1,8.5L424,829
		c-1.7,6.2,2.1,12.7,8.3,14.3c0.2,0.1,0.5,0.1,0.7,0.2c44.4,8.7,90,8.7,134.3,0c6.3-1.3,10.4-7.4,9.2-13.8
		C576.5,829.5,576.4,829.2,576.3,829L576.3,829z"/>
</g>
<g>
	<path class="st1" d="M730.5,746.9l-82.8-82.8c-4.2-4.2-11-4.6-15.6-0.8c-17,13.9-36.1,24.9-56.6,32.8c-5.6,2.1-8.6,8.1-7.1,13.9
		l29.4,112.4c1.4,5.1,6,8.6,11.3,8.7c1.2,0.2,2.5,0.2,3.7,0c42.9-14.5,82.5-37.4,116.6-67.2C734.3,759.4,734.7,751.9,730.5,746.9
		L730.5,746.9z"/>
</g>
<g>
	<path class="st1" d="M830.4,604.3c-1.5-2.9-4.1-5-7.2-5.8L710,568.2c-5.8-1.5-11.8,1.5-13.9,7.1c-7.8,20.5-18.9,39.6-32.8,56.6
		c-4,4.8-3.6,11.9,1,16.1l82.8,82.8c2.2,2.1,5.2,3.3,8.3,3.4c3.2-0.1,6.3-1.6,8.4-4c29.8-34.1,52.6-73.7,67.2-116.6
		C832.2,610.5,831.9,607.2,830.4,604.3z"/>
</g>
<g>
	<path class="st1" d="M843.2,433.1c0-0.2-0.1-0.5-0.2-0.7c-1.7-6.2-8.1-9.9-14.3-8.2l-113,30.3c-5.8,1.5-9.4,7.2-8.5,13.1
		c3.4,21.7,3.4,43.8,0,65.5c-0.9,5.9,2.8,11.5,8.5,13.1l113,30.3c1,0.1,2,0.1,3,0c5.6,0.1,10.5-3.8,11.7-9.3
		C852.2,522.9,852.1,477.4,843.2,433.1L843.2,433.1z"/>
</g>
<g>
	<path class="st1" d="M831.1,387.3c-14.5-42.9-37.4-82.5-67.2-116.6c-2.1-2.4-5.2-3.9-8.4-4c-3.1-0.3-6.2,0.8-8.5,2.9l-82.8,82.8
		c-4.2,4.2-4.6,11-0.8,15.6c13.8,16.9,24.9,35.9,32.8,56.2c1.7,4.5,6,7.5,10.8,7.5c1,0.1,2,0.1,3,0l113-30.3c6.1-1.6,9.7-7.9,8-13.9
		C831,387.4,831,387.4,831.1,387.3L831.1,387.3z"/>
</g>
<g>
	<path class="st1" d="M730.3,236c-34.1-29.8-73.7-52.6-116.6-67.2c-6.2-2-12.9,1.4-14.9,7.7c0,0.1-0.1,0.2-0.1,0.3L568.3,290
		c-1.6,5.7,1.2,11.7,6.7,14c20.5,7.8,39.6,18.9,56.6,32.8c4.7,3.7,11.4,3.4,15.6-0.8l82.8-82.8C734.4,248.4,734.5,241,730.3,236
		L730.3,236z"/>
</g>
</svg>
