<svg id="main" xmlns="http://www.w3.org/2000/svg" viewBox="0 0 1000 1000"><defs><style>.cls-1{fill:#fff;opacity:0;}.cls-2{fill:none;stroke:#000;stroke-miterlimit:10;stroke-width:7px;}</style></defs><title>loader</title><rect id="frame" class="cls-1" width="1000" height="1000"/><path d="M574.87,161.75a11.65,11.65,0,0,0-7.58-5.25,351.82,351.82,0,0,0-134.35,0,11.75,11.75,0,0,0-9,14.58l30,113.13A11.66,11.66,0,0,0,467,292.72a213.14,213.14,0,0,1,65.55,0h1.75A11.66,11.66,0,0,0,546,284.09l30.32-113A11.66,11.66,0,0,0,574.87,161.75Z"/><path class="cls-2" d="M432.82,290.16,402.5,177A11.86,11.86,0,0,0,387.45,169a346.15,346.15,0,0,0-116.62,67.18,12.14,12.14,0,0,0-1.05,16.91l82.8,82.81a11.81,11.81,0,0,0,15.63.81A205.81,205.81,0,0,1,424.78,304,11.67,11.67,0,0,0,432.82,290.16Z"/><path class="cls-2" d="M336.14,352.9l-82.81-82.8a12.55,12.55,0,0,0-17.14,0A346.1,346.1,0,0,0,169,386.73a11.85,11.85,0,0,0,8.05,15l113.13,30.32a12.8,12.8,0,0,0,3,0,11.66,11.66,0,0,0,10.85-7.46,205.59,205.59,0,0,1,32.77-56.56A11.68,11.68,0,0,0,336.14,352.9Z"/><path class="cls-2" d="M292.75,532.74a223.12,223.12,0,0,1-.23-65.89A11.66,11.66,0,0,0,284,453.79L171,423.46l-.74-.17a11.67,11.67,0,0,0-13.72,9.15,348.7,348.7,0,0,0,0,134.36,11.67,11.67,0,0,0,11.66,9.33,14,14,0,0,0,3,0l113-30.32A11.67,11.67,0,0,0,292.75,532.74Z"/><path d="M336.84,631.88a205.81,205.81,0,0,1-32.31-57,11.67,11.67,0,0,0-13.88-7.12L177.52,598.06a11.84,11.84,0,0,0-8,15,346.17,346.17,0,0,0,67.17,116.63,11.68,11.68,0,0,0,8.4,4,12.22,12.22,0,0,0,8.28-3.38l82.81-82.81A11.66,11.66,0,0,0,336.84,631.88Z"/><path d="M424.78,696a205.65,205.65,0,0,1-56.57-32.77,11.66,11.66,0,0,0-15.16.7l-82.81,82.8a13.85,13.85,0,0,0-.35,17.73,346.2,346.2,0,0,0,116.63,67.18,13,13,0,0,0,3.73,0A11.88,11.88,0,0,0,401.57,823L431.89,709.9A11.67,11.67,0,0,0,424.78,696Z"/><path d="M576.27,829,546,716a11.66,11.66,0,0,0-13.06-8.51,213.14,213.14,0,0,1-65.55,0A11.66,11.66,0,0,0,454.28,716L424,829a11.7,11.7,0,0,0,9,14.46,348.65,348.65,0,0,0,134.35,0,11.69,11.69,0,0,0,9-14.46Z"/><path d="M730.45,746.87l-82.8-82.8a11.66,11.66,0,0,0-15.63-.82A205.74,205.74,0,0,1,575.46,696a11.67,11.67,0,0,0-7.12,13.88l29.39,112.43A11.88,11.88,0,0,0,609.05,831a13,13,0,0,0,3.73,0,346.13,346.13,0,0,0,116.63-67.18,12.15,12.15,0,0,0,1-16.91Z"/><path d="M830.41,604.35a11.67,11.67,0,0,0-7.24-5.83L710.05,568.2a11.65,11.65,0,0,0-13.88,7.11,205.82,205.82,0,0,1-32.78,56.57A11.66,11.66,0,0,0,664.44,648l82.81,82.81a12.27,12.27,0,0,0,8.28,3.38,11.65,11.65,0,0,0,8.4-4A346.13,346.13,0,0,0,831.1,613.57,11.66,11.66,0,0,0,830.41,604.35Z"/><path d="M843.23,433.14a6.58,6.58,0,0,0-.17-.74,11.67,11.67,0,0,0-14.29-8.24l-113,30.33a11.66,11.66,0,0,0-8.51,13.06,210.61,210.61,0,0,1,0,65.54,11.67,11.67,0,0,0,8.51,13.07l113,30.32a14,14,0,0,0,3,0,11.67,11.67,0,0,0,11.66-9.33,340.88,340.88,0,0,0-.24-134Z"/><path d="M831.1,387.31a346.17,346.17,0,0,0-67.17-116.63,11.64,11.64,0,0,0-8.4-4,11,11,0,0,0-8.51,2.91l-82.81,82.81a11.66,11.66,0,0,0-.81,15.63,206,206,0,0,1,32.77,56.21A11.67,11.67,0,0,0,707,431.75a14,14,0,0,0,3,0l113-30.33a11.38,11.38,0,0,0,8-14.11Z"/><path d="M730.34,236a346.36,346.36,0,0,0-116.63-67.18,11.85,11.85,0,0,0-15,8L568.34,290A11.67,11.67,0,0,0,575,304a205.54,205.54,0,0,1,56.57,32.77,11.82,11.82,0,0,0,15.62-.82L730,253.18a13.07,13.07,0,0,0,.35-17.14Z"/></svg>