<svg width="24" height="24" viewBox="0 0 24 24" fill="none" xmlns="http://www.w3.org/2000/svg">
<g id="Iconly/Bulk/Edit">
<g id="Edit">
<path id="Fill 1" opacity="0.4" d="M20.2301 18.5757H13.5936C13.1684 18.5757 12.8232 18.9172 12.8232 19.3379C12.8232 19.7586 13.1684 20.1001 13.5936 20.1001H20.2301C20.6553 20.1001 21.0004 19.7586 21.0004 19.3379C21.0004 18.9172 20.6553 18.5757 20.2301 18.5757Z" fill="#2C3D56"/>
<path id="Fill 3" d="M16.8738 11.7005L9.26668 19.2169C8.74592 19.7312 8.04026 20.0218 7.30481 20.0218H3.71696C3.5259 20.0218 3.3441 19.9446 3.2003 19.8125C3.06677 19.6712 3 19.4913 3 19.2932L3.09553 15.7199C3.1058 15.0116 3.40162 14.3408 3.90801 13.8388L11.4761 6.3508C11.6014 6.22682 11.8048 6.22682 11.9311 6.3508L16.8738 11.2513C17.0001 11.3753 16.9991 11.5765 16.8738 11.7005Z" fill="#2C3D56"/>
<path id="Fill 6" opacity="0.4" d="M19.5455 9.02211L18.5112 10.0547C18.3561 10.2091 18.1034 10.2101 17.9473 10.0557L13.1227 5.28219C12.9676 5.12874 12.9666 4.87975 13.1217 4.72527L14.1447 3.70391C15.0835 2.76791 16.612 2.76486 17.5549 3.69781L19.5393 5.66127C20.4761 6.58812 20.4792 8.0912 19.5455 9.02211Z" fill="#2C3D56"/>
</g>
</g>
</svg>
