<svg width="24" height="24" viewBox="0 0 24 24" fill="none" xmlns="http://www.w3.org/2000/svg">
<path opacity="0.4" d="M19.6435 9.48826C19.6435 9.55626 19.1105 16.297 18.8061 19.1339C18.6155 20.8749 17.4932 21.9308 15.8097 21.9608C14.5162 21.9898 13.2499 21.9998 12.0041 21.9998C10.6814 21.9998 9.3879 21.9898 8.13233 21.9608C6.50525 21.9218 5.38196 20.8449 5.20106 19.1339C4.8879 16.287 4.36467 9.55626 4.35494 9.48826C4.34522 9.28327 4.41135 9.08828 4.54556 8.93028C4.67783 8.78429 4.86845 8.69629 5.06879 8.69629H18.9393C19.1387 8.69629 19.3196 8.78429 19.4626 8.93028C19.5958 9.08828 19.6629 9.28327 19.6435 9.48826" fill="#2C3D56"/>
<path d="M21 5.97686C21 5.56588 20.6761 5.24389 20.2871 5.24389H17.3714C16.7781 5.24389 16.2627 4.8219 16.1304 4.22692L15.967 3.49795C15.7385 2.61698 14.9498 2 14.0647 2H9.93624C9.0415 2 8.26054 2.61698 8.02323 3.54595L7.87054 4.22792C7.7373 4.8219 7.22185 5.24389 6.62957 5.24389H3.71385C3.32386 5.24389 3 5.56588 3 5.97686V6.35685C3 6.75783 3.32386 7.08982 3.71385 7.08982H20.2871C20.6761 7.08982 21 6.75783 21 6.35685V5.97686Z" fill="#2C3D56"/>
</svg>
