<svg id="main" xmlns="http://www.w3.org/2000/svg" viewBox="0 0 1000 1000"><defs><style>.cls-1{fill:#fff;opacity:0;}.cls-2{fill:#201600;}</style></defs><title>resize_b</title><rect id="frame" class="cls-1" width="1000" height="1000"/><path class="cls-2" d="M745,850H640a35,35,0,0,1,0-70H745a35,35,0,0,0,35-35V640a35,35,0,0,1,70,0V745A105,105,0,0,1,745,850Zm-385,0H255A105,105,0,0,1,150,745V640a35,35,0,0,1,70,0V745a35,35,0,0,0,35,35H360a35,35,0,0,1,0,70ZM815,395a35,35,0,0,1-35-35V255a34.94,34.94,0,0,0-35-35H640a35,35,0,0,1,0-70H745A105,105,0,0,1,850,255V360A35,35,0,0,1,815,395Zm-630,0a35,35,0,0,1-35-35V255A105,105,0,0,1,255,150H360a35,35,0,0,1,0,70H255a34.94,34.94,0,0,0-35,35V360A35,35,0,0,1,185,395Z"/></svg>