<svg width="119" height="119" viewBox="0 0 119 119" fill="none" xmlns="http://www.w3.org/2000/svg">
<path d="M0 0H119V119H0V0Z" fill="#005551"/>
<g clip-path="url(#clip0)">
<path d="M53.1175 29.6398H54.155V23.9102H52.4077V24.8971H53.1175V29.6398Z" fill="white"/>
<path d="M55.2197 27.8572C55.2197 28.9537 56.0388 29.7762 57.1308 29.7762C58.141 29.7762 59.0146 28.9537 59.0146 27.912C59.0146 27.254 58.7416 26.7332 58.1956 26.4316C58.5232 26.13 58.6597 25.8011 58.6597 25.3624C58.6597 24.4852 57.9772 23.7998 57.1035 23.7998C56.2026 23.7998 55.6019 24.5126 55.6019 25.3898C55.6019 25.8833 55.7384 26.1026 56.0661 26.4316C55.5473 26.6509 55.2197 27.2814 55.2197 27.8572ZM57.1308 24.8141C57.4584 24.8141 57.7314 25.0883 57.7314 25.3898C57.7314 25.7188 57.4584 25.993 57.1308 25.993C56.8032 25.993 56.5302 25.7188 56.5302 25.3898C56.5302 25.0609 56.8032 24.8141 57.1308 24.8141ZM57.1308 27.0073C57.6222 27.0073 58.0045 27.3911 58.0045 27.912C58.0045 28.4054 57.6222 28.7618 57.1308 28.7618C56.6394 28.7618 56.2572 28.378 56.2572 27.912C56.2572 27.3911 56.6394 27.0073 57.1308 27.0073Z" fill="white"/>
<path d="M61.6628 29.7769C62.7822 29.7769 63.6285 28.8448 63.6285 27.7482C63.6285 27.1999 63.4647 26.7613 63.1371 26.3775C62.8368 26.0485 62.3999 25.8292 61.9631 25.8292L61.6901 25.8566L62.9733 23.9102H61.772L60.1339 26.4049C59.8882 26.7887 59.7244 27.2273 59.7244 27.7208C59.6698 28.8722 60.5162 29.7769 61.6628 29.7769ZM61.6355 26.7887C62.1815 26.7887 62.5911 27.2547 62.5911 27.803C62.5911 28.3239 62.1815 28.7625 61.6355 28.7625C61.0622 28.7625 60.68 28.2965 60.68 27.7482C60.7073 27.1999 61.1168 26.7887 61.6355 26.7887Z" fill="white"/>
<path d="M66.0856 24.8141C66.577 24.8141 66.9047 25.1705 66.9047 25.664C66.9047 26.1849 66.5497 26.5138 66.2221 26.8428L64.2564 28.6796V29.6665H67.9421V28.6796H65.6761L66.7681 27.6927L67.478 26.9251C67.751 26.5687 67.9148 26.1575 67.9148 25.6914C67.9148 24.5948 67.0685 23.7998 66.0037 23.7998C64.9936 23.7998 64.1472 24.6497 64.1472 25.664V25.8833H65.1847C65.1574 25.3076 65.485 24.8141 66.0856 24.8141Z" fill="white"/>
<path d="M64.3657 55.9018L65.0482 53.6264L63.6559 47.5678L68.9523 42.2494H62.4273L61.7448 39.2886C62.0178 38.9596 62.1816 38.521 62.1816 38.055C62.1816 36.9584 61.2533 36.0537 60.134 36.0537C58.9873 36.0537 58.0864 36.9584 58.0864 38.055C58.0864 38.521 58.2502 38.9322 58.5232 39.2886L57.8407 42.2494H51.3157L56.6121 47.5678L55.2198 53.6264L55.9023 55.9018L57.5677 48.5547L60.1067 51.1043L62.6457 48.5547L64.3657 55.9018ZM66.1676 43.4008L63.3555 46.2245L62.7003 43.4008H66.1676ZM56.967 46.2245L54.155 43.4008H57.595L56.967 46.2245ZM60.1613 37.1777C60.6527 37.1777 61.0622 37.5615 61.0622 38.055C61.0622 38.5484 60.6527 38.9322 60.1613 38.9322C59.6699 38.9322 59.2604 38.5484 59.2604 38.055C59.2604 37.5615 59.6699 37.1777 60.1613 37.1777ZM59.588 39.974C59.7791 40.0288 59.9702 40.0562 60.1613 40.0562C60.3524 40.0562 60.5435 40.0288 60.7346 39.974L61.2533 42.2494H59.0692L59.588 39.974ZM60.1613 49.432L57.9226 47.184L58.7962 43.4008H61.5264L62.4 47.184L60.1613 49.432Z" fill="white"/>
<path d="M30.7301 60.6454H28.8463L30.1841 59.7956H35.3168V54.5868L39.5212 56.4236V62.6193H41.9237L43.5617 64.2641H49.2131V60.6454H45.9916L45.5001 58.5345L46.8652 54.669L42.1148 49.9812H37.1732L41.1319 47.459L49.3223 49.3232V56.8622L60.1609 62.8934L70.9995 56.8622V49.2958L79.1899 47.4316L83.1486 49.9538H78.2071L73.5112 54.669L74.8763 58.5345L74.3849 60.6454H71.1633V64.2641H76.8147L78.4528 62.6193H80.8553V56.4236L85.0597 54.5868V59.7956H90.1923L91.5301 60.6454H89.6463V64.2641H96.5808V55.8753H90.8476V53.5451C91.1206 53.6273 91.4209 53.6821 91.7212 53.7095C93.2228 53.7095 94.4513 52.4759 94.4513 50.9681C94.4513 50.2827 94.2056 49.6522 93.7961 49.1861C93.3866 48.6927 90.5199 45.4852 90.5199 45.4852C90.0285 44.9095 89.7282 44.1693 89.7282 43.3469C89.7282 42.4422 90.0831 41.6197 90.6838 41.044C91.1206 40.6054 91.6939 40.2764 92.3218 40.1668C92.431 40.1394 92.9225 40.1394 92.9225 40.7151C92.9225 40.8796 92.8406 41.0166 92.7313 41.1263C92.0215 41.6197 91.5301 42.4422 91.5301 43.3743C91.5301 44.8821 92.7313 46.0883 94.2329 46.0883C94.9155 46.0883 95.5434 45.8416 96.0075 45.4304H95.9802C95.8983 45.4578 95.871 45.4578 95.7891 45.4578C95.2158 45.4578 94.7516 44.9917 94.7516 44.416C94.7516 44.1419 94.8608 43.8951 95.0247 43.7032C95.4615 43.292 95.6799 42.9356 95.6526 42.9356C95.871 42.5518 96.0075 42.0858 96.0075 41.6197C96.0075 40.4957 95.325 39.5362 94.3694 39.125C94.2329 39.0428 93.7688 38.9331 93.5504 38.9331C93.3593 38.9057 93.1682 38.9057 92.9771 38.9057C90.5199 38.9057 88.5269 40.907 88.5269 43.3743C88.5269 44.416 88.8819 45.3755 89.4825 46.1431C89.5098 46.1705 92.4856 49.5425 92.8679 50.0086C93.1136 50.2827 93.2501 50.6391 93.2501 51.0229C93.2501 51.4615 93.0863 51.8179 92.8132 52.1195C92.5402 52.3936 92.158 52.5581 91.7212 52.5581C91.1752 52.5581 90.6838 52.2566 90.4107 51.8179L86.6978 44.5805C87.1073 43.9226 87.353 43.155 87.353 42.3325C87.353 41.1537 86.8616 40.0845 86.0698 39.3169C86.7797 39.2347 87.353 38.6316 87.353 37.864V37.0415C87.353 36.877 87.2984 36.74 87.1892 36.6303C87.08 36.5206 86.9435 36.4658 86.7797 36.4658H85.3873C85.2235 36.4658 85.087 36.3287 85.087 36.1643C85.087 35.9998 85.2235 35.8627 85.3873 35.8627H88.0901C88.9638 35.8627 89.6736 35.1499 89.6736 34.2727V32.4633H83.2305C83.367 32.1617 83.4216 31.8328 83.4216 31.5038C83.4216 30.1057 82.3023 28.9542 80.8826 28.9542C80.555 28.9542 80.3093 29.201 80.3093 29.5299C80.3093 29.7493 80.3093 30.0508 80.3093 30.3798C80.3093 31.0377 80.3093 31.8602 80.3093 32.4633C79.9816 32.4633 79.5175 32.4633 79.5175 32.4633C75.6134 32.6004 72.4738 35.8353 72.4738 39.8104C72.4738 40.6877 72.6376 41.5375 72.9106 42.3051H70.9995V32.4085H49.3223V42.2503H47.4112C47.6842 41.4827 47.848 40.6328 47.848 39.7556C47.848 35.7805 44.7084 32.573 40.8043 32.4085C40.8043 32.4085 40.3402 32.4085 40.0126 32.4085C40.0126 31.7779 40.0126 30.9829 40.0126 30.325C40.0126 29.996 40.0126 29.6944 40.0126 29.4751C40.0126 29.1461 39.7396 28.8994 39.4392 28.8994C38.0469 28.8994 36.9002 30.0234 36.9002 31.449C36.9002 31.8054 36.9821 32.1343 37.0913 32.4085H30.6755V34.2178C30.6755 35.0951 31.3854 35.8079 32.259 35.8079H34.9618C35.1256 35.8079 35.2621 35.9449 35.2621 36.1094C35.2621 36.2739 35.1256 36.411 34.9618 36.411H33.5695C33.4057 36.411 33.2692 36.4658 33.16 36.5755C33.0507 36.6851 32.9961 36.8222 32.9961 36.9867V37.8091C32.9961 38.5493 33.5695 39.1524 34.2793 39.2621C33.4876 40.0297 32.9961 41.0989 32.9961 42.2777C32.9961 43.1001 33.2419 43.8677 33.6514 44.5257L29.9384 51.7631C29.6654 52.2017 29.174 52.5033 28.6279 52.5033C28.1911 52.5033 27.8362 52.3388 27.5359 52.0647C27.2629 51.7905 27.0991 51.4067 27.0991 50.9681C27.0991 50.5843 27.2356 50.2279 27.4813 49.9538C27.8635 49.4877 30.8393 46.1431 30.8666 46.0883C31.4673 45.3207 31.8222 44.3612 31.8222 43.3194C31.8222 40.8521 29.8292 38.8509 27.3721 38.8509C27.181 38.8509 26.9899 38.8783 26.7988 38.8783C26.5803 38.9057 26.1435 39.0154 25.9797 39.0702C25.0242 39.4814 24.3416 40.4409 24.3416 41.5649C24.3416 42.031 24.4781 42.497 24.6966 42.8808C24.6966 42.8808 24.915 43.2372 25.3245 43.6484C25.4883 43.8403 25.5975 44.087 25.5975 44.3612C25.5975 44.9369 25.1334 45.4029 24.56 45.4029C24.4781 45.4029 24.4235 45.4029 24.3689 45.3755H24.3416C24.8058 45.7867 25.4337 46.0335 26.1162 46.0335C27.6178 46.0335 28.819 44.8272 28.819 43.3194C28.819 42.3873 28.3549 41.5375 27.6178 41.0715C27.5086 40.9618 27.4267 40.8247 27.4267 40.6602C27.4267 40.0845 27.9181 40.0845 28.0273 40.1119C28.6552 40.249 29.2286 40.5506 29.6654 40.9892C30.266 41.5923 30.6209 42.3873 30.6209 43.292C30.6209 44.1145 30.3206 44.8547 29.8292 45.4304C29.8292 45.4304 26.9626 48.6379 26.553 49.1313C26.1435 49.5974 25.8978 50.2279 25.8978 50.9133C25.8978 52.4211 27.1264 53.6547 28.6279 53.6547C28.9283 53.6547 29.2286 53.5999 29.5016 53.4902V55.8205H23.7683V64.2093H30.7028V60.6454H30.7301ZM93.2774 42.0858L93.3047 42.0584C93.7688 41.7568 94.0691 41.2085 94.0691 40.6054C94.0691 40.4683 94.0418 40.3587 94.0418 40.249C94.151 40.3038 94.2329 40.3861 94.3421 40.4683C94.6151 40.7425 94.7789 41.0989 94.7789 41.5101C94.7789 41.9761 94.5605 42.3874 94.2329 42.6615C93.6869 43.1275 93.4685 43.4291 93.4139 43.9774C93.3866 44.2241 93.4685 44.4708 93.5777 44.6902C93.3866 44.6079 93.2228 44.4983 93.0863 44.3612C92.8132 44.087 92.6494 43.7032 92.6494 43.292C92.6494 42.826 92.8952 42.3873 93.2774 42.0858ZM85.0051 53.2709L79.6267 55.656V61.4404H77.9887L76.3779 63.0579H72.3373V61.8516H75.3131L76.1049 58.4797L74.8763 54.998L74.849 54.9432L78.6439 51.1326H85.0051V53.2709ZM89.619 52.8597V57.0541H95.3523V63.0579H90.8203V61.8516H93.7415V60.6454L90.5199 58.5893H86.2336V50.502L80.8826 47.0752C81.9473 46.8285 82.8756 46.6092 83.5308 46.4447C83.9676 46.335 84.4864 46.198 84.4864 46.198C84.9778 46.0335 85.4419 45.7867 85.8514 45.4578L89.619 52.8597ZM81.4559 30.1879C81.5924 30.2427 81.7289 30.3524 81.8381 30.462C82.0838 30.7088 82.2477 31.0652 82.2477 31.4215C82.2477 31.8054 82.0838 32.1343 81.8381 32.3811C81.7289 32.4907 81.5924 32.573 81.4559 32.6552C81.4559 32.0247 81.4559 30.1879 81.4559 30.1879ZM81.2375 34.2178C81.6197 33.834 82.1111 33.5873 82.6845 33.5599H88.4996V34.1904C88.4996 34.4371 88.3085 34.629 88.0628 34.629H85.3054C84.9232 34.6565 84.5956 34.7935 84.3499 35.0403C84.0768 35.287 83.913 35.6708 83.913 36.082C83.913 36.4384 84.0495 36.8222 84.2952 37.0689C84.5137 37.2883 84.7867 37.4253 85.1143 37.4802C85.2508 37.4802 85.2508 37.4802 85.3054 37.4802H86.1517V37.7269C86.1517 37.8914 86.0152 38.0284 85.8514 38.0284C85.8514 38.0284 82.7664 38.0284 82.6845 38.0284C82.1111 38.001 81.6197 37.7543 81.2375 37.3705C80.828 36.9593 80.5823 36.3836 80.5823 35.753C80.5823 35.1773 80.828 34.629 81.2375 34.2178ZM79.5994 34.6839C79.4629 35.0403 79.4083 35.4241 79.4083 35.8079C79.4083 37.5898 80.7461 39.0428 82.4661 39.2347C82.4934 39.2347 82.548 39.2347 82.5753 39.2347C82.6026 39.2347 83.1213 39.2347 83.2578 39.2347C84.0495 39.2621 84.7594 39.5911 85.2781 40.1119C85.8241 40.6602 86.1517 41.4004 86.1517 42.2229C86.1517 42.8808 85.9333 43.5113 85.5784 44.0048C85.2235 44.4983 84.7048 44.8821 84.1041 45.074C83.4489 45.2933 82.6572 45.3481 82.3842 45.3481C80.8007 45.3481 79.4083 44.7176 78.3709 43.6758C77.3334 42.6341 76.7055 41.2085 76.7055 39.6459C76.7055 38.3026 77.1696 37.0963 77.9067 36.1368C78.3982 35.5337 78.9715 35.0677 79.5994 34.6839ZM75.4496 35.3692C76.4325 34.3823 77.7429 33.7244 79.1899 33.5873C78.3436 34.0533 77.6064 34.6565 77.0331 35.4241C76.1322 36.6029 75.5861 38.0559 75.5861 39.6733C75.5861 41.4553 76.2687 43.0727 77.388 44.3064L77.3607 44.2789L76.023 44.5805C76.023 44.5805 75.6134 44.2515 75.5042 44.1145C74.3849 42.9905 73.7024 41.4553 73.7024 39.7281C73.6478 38.0284 74.3303 36.4932 75.4496 35.3692ZM70.9995 43.3743H73.4293C73.7297 43.9226 74.1119 44.4434 74.576 44.8821L70.9995 45.6771V43.3743ZM70.9995 46.8833L78.3982 45.211C78.7804 45.4852 79.1626 45.7045 79.5994 45.8964L80.0089 46.0609L70.9995 48.0896V46.8833ZM50.4963 33.5599H69.8529V56.122L60.1882 61.4953L50.4963 56.122V33.5599ZM27.6724 43.3469C27.6724 43.7581 27.5086 44.1419 27.2356 44.416C27.0991 44.5531 26.9353 44.6628 26.7442 44.745C26.8534 44.5257 26.9353 44.2789 26.908 44.0322C26.8534 43.4565 26.6076 43.1824 26.0889 42.7163C25.7613 42.4422 25.5429 42.031 25.5429 41.5649C25.5429 41.1537 25.7067 40.7699 25.9797 40.5232C26.0616 40.4409 26.1708 40.3587 26.28 40.3038C26.2527 40.4135 26.2527 40.5506 26.2527 40.6602C26.2527 41.2634 26.553 41.7842 27.0172 42.1132L27.0445 42.1406C27.4267 42.3873 27.6724 42.826 27.6724 43.3469ZM41.678 51.16L45.4728 54.9706L45.4455 55.0254L44.217 58.5071L45.0087 61.8791H47.9845V63.0853H43.9713L42.3605 61.4678H40.7224V55.6834L35.3441 53.2983V51.1874L41.678 51.16ZM49.3223 48.0896L40.3129 46.0609L40.7224 45.8964C41.1319 45.7045 41.5414 45.4578 41.9237 45.211L49.3223 46.8833V48.0896ZM49.3223 43.3743V45.7045L45.7458 44.9095C46.1827 44.4709 46.5649 43.95 46.8925 43.4017H49.3223V43.3743ZM44.8722 35.3692C45.9916 36.4932 46.6741 38.0284 46.6741 39.7556C46.6741 41.4553 45.9916 43.0179 44.8722 44.1419C44.763 44.2515 44.3535 44.6079 44.3535 44.6079L43.0157 44.3064L42.9884 44.3338C44.1078 43.1001 44.7903 41.4827 44.7903 39.7007C44.7903 38.1107 44.2443 36.6303 43.3433 35.4515C42.77 34.7113 42.0056 34.0808 41.1865 33.6147C42.6062 33.7244 43.9167 34.3823 44.8722 35.3692ZM38.4837 30.4346C38.5929 30.325 38.7294 30.2427 38.8659 30.1605C38.8659 30.1605 38.8659 31.9973 38.8659 32.6278C38.7294 32.573 38.5929 32.4633 38.4837 32.3536C38.238 32.1069 38.0742 31.7505 38.0742 31.3941C38.0742 31.0377 38.238 30.7088 38.4837 30.4346ZM34.1701 37.7817V37.535H35.0164C35.0983 37.535 35.071 37.535 35.2075 37.535C35.5079 37.4802 35.8082 37.3431 36.0266 37.1238C36.2996 36.8496 36.4361 36.4932 36.4088 36.1368C36.4088 35.7256 36.2177 35.3418 35.972 35.0951C35.7263 34.8484 35.3714 34.6839 35.0164 34.6839H32.259C32.0133 34.6839 31.8222 34.492 31.8222 34.2452V33.6147H37.6374C38.2107 33.6421 38.7021 33.8889 39.0843 34.2727C39.4938 34.6839 39.7396 35.2596 39.7396 35.8901C39.7396 36.5206 39.4938 37.0963 39.0843 37.5076C38.7021 37.8914 38.1834 38.1381 37.6374 38.1655C37.5555 38.1655 34.4704 38.1655 34.4704 38.1655C34.3066 38.0833 34.1701 37.9462 34.1701 37.7817ZM35.0437 40.1119C35.5625 39.5911 36.2723 39.2621 37.064 39.2347C37.2005 39.2347 37.7193 39.2347 37.7466 39.2347C37.7739 39.2347 37.8285 39.2347 37.8558 39.2347C39.5758 39.0428 40.9135 37.5898 40.9135 35.8079C40.9135 35.4241 40.8316 35.0403 40.7224 34.6839C41.3776 35.0403 41.9237 35.5337 42.3878 36.1368C43.1522 37.0963 43.589 38.33 43.589 39.6459C43.589 41.2359 42.9611 42.6341 41.9237 43.6758C40.8862 44.7176 39.4665 45.3481 37.9104 45.3481C37.6374 45.3481 36.8456 45.2933 36.1904 45.074C35.5898 44.8821 35.0983 44.4983 34.7161 44.0048C34.3612 43.5113 34.1428 42.8808 34.1428 42.2229C34.1701 41.4004 34.4977 40.6602 35.0437 40.1119ZM29.5289 63.0579H24.9969V57.0541H30.7301V52.8597L34.525 45.4578C34.9345 45.7867 35.3714 46.0335 35.8901 46.198C35.8901 46.198 36.4088 46.335 36.8456 46.4447C37.5009 46.6092 38.4291 46.8285 39.4938 47.0752L34.1155 50.502V58.6167H29.8292L26.6076 60.6728V61.8791H29.5289V63.0579Z" fill="white"/>
<path d="M78.5349 86.3599H80.5006V92.3911H81.8657V86.3599H83.8587V85.0166H78.5349V86.3599Z" fill="white"/>
<path d="M60.5435 86.3599V85.0166H55.6838V92.3911H60.5435V91.0752H57.0489V89.3755H60.0247V88.0322H57.0489V86.3599H60.5435Z" fill="white"/>
<path d="M43.0977 85.0166H41.7326V90.4172L38.6749 85.0166H37.146V92.3911H38.5111V87.0179L41.5961 92.3911H43.0977V85.0166Z" fill="white"/>
<path d="M74.5489 90.2796C74.5489 88.9637 73.7299 88.4154 72.8562 88.2235L71.6003 87.9219C71.027 87.7574 70.5083 87.5381 70.5083 86.9898C70.5083 86.3319 71.0816 86.0577 71.6823 86.0577C72.3648 86.0577 72.9108 86.277 73.2384 86.8253L74.1394 85.9207C73.6207 85.1805 72.8289 84.8789 71.7915 84.8789C70.3445 84.8789 69.1432 85.7013 69.1432 87.0995C69.1432 88.4154 69.935 88.854 70.9178 89.1281L72.1737 89.4297C72.747 89.5942 73.1838 89.8409 73.1838 90.3892C73.1838 91.0746 72.474 91.3761 71.7369 91.3761C71.027 91.3761 70.4264 91.0746 70.0715 90.5263L69.0886 91.5132C69.662 92.2534 70.6448 92.5824 71.6823 92.5824C73.3203 92.555 74.5489 91.6503 74.5489 90.2796Z" fill="white"/>
<path d="M67.6689 87.2645C67.6689 85.839 66.7134 85.0439 64.9934 85.0439H62.3179V92.4184H63.6829V89.4303H64.229L64.2563 89.4577L66.4131 92.4184H68.0511L65.7305 89.3754C66.9318 89.1561 67.6689 88.3885 67.6689 87.2645ZM63.6829 88.2514V86.2776H64.9661C65.8397 86.2776 66.2766 86.6066 66.2766 87.2371C66.2766 87.895 65.8397 88.224 64.9661 88.224H63.6829V88.2514Z" fill="white"/>
<path d="M35.3171 89.4577C35.3171 91.5138 34.0066 92.5282 32.1501 92.5282C30.2663 92.5282 28.9832 91.4864 28.9832 89.4577V85.0166H30.4574V89.3755C30.4574 90.5817 31.14 91.13 32.1501 91.13C33.1603 91.13 33.8428 90.6092 33.8428 89.3755V85.0166H35.3171V89.4577Z" fill="white"/>
<path d="M46.4289 85.0166H44.9546V92.4185H46.4289V85.0166Z" fill="white"/>
<path d="M51.8069 92.3911H50.005L47.2476 85.0166H48.8037L50.9332 90.9107L53.0354 85.0166H54.5643L51.8069 92.3911Z" fill="white"/>
<path d="M77.3883 85.0166H75.9141V92.4185H77.3883V85.0166Z" fill="white"/>
<path d="M88.6091 89.4578V92.4185H87.1348V89.4578L84.3501 85.0166H86.0428L87.872 88.1144L89.7011 85.0166H91.3665L88.6091 89.4578Z" fill="white"/>
<path d="M25.4886 72.625H24.1235V79.9721H25.4886V72.625Z" fill="white"/>
<path d="M45.3093 73.9683H47.275V79.9995H48.6128V73.9683H50.6058V72.625H45.3093V73.9683Z" fill="white"/>
<path d="M51.9983 79.9995H56.8306V78.6562H53.3634V76.9839H56.3392V75.6406H53.3634V73.9683H56.8306V72.625H51.9983V79.9995Z" fill="white"/>
<path d="M69.9076 75.5584H66.9318V72.625H65.594V79.9721H66.9318V76.8742H69.9076V79.9721H71.2454V72.625H69.9076V75.5584Z" fill="white"/>
<path d="M74.358 74.6263L77.443 79.9721H78.9446V72.625H77.5796V77.9982L74.5218 72.625H72.9929V79.9721H74.358V74.6263Z" fill="white"/>
<path d="M82.0296 72.625H80.6646V79.9721H82.0296V72.625Z" fill="white"/>
<path d="M92.7591 72.6797L90.2747 79.9993H91.5851L91.9946 78.7931H95.2708L95.6803 79.9993H96.9908L94.561 72.6797H92.7591ZM92.4315 77.5595L93.66 73.9682L94.8613 77.5595H92.4315Z" fill="white"/>
<path d="M37.3372 72.6523L34.8801 79.9994H36.1906L36.6001 78.7932H39.849L40.2585 79.9994H41.5689L39.1391 72.6798H37.3372V72.6523ZM37.0369 77.5321L38.2655 73.9408L39.4667 77.5321H37.0369Z" fill="white"/>
<path d="M30.6211 77.0112H32.9963C32.8871 77.4498 32.6687 77.8336 32.3684 78.1352C31.9316 78.5738 31.3037 78.8479 30.6211 78.8479C29.9386 78.8479 29.338 78.5738 28.8739 78.1352C28.437 77.6965 28.164 77.066 28.164 76.4081C28.164 75.7227 28.437 75.1196 28.8739 74.6535C29.3107 74.2149 29.9386 73.9408 30.6211 73.9408C31.331 73.9408 31.9862 74.2423 32.423 74.7358L33.2967 73.8585C32.6141 73.1457 31.6586 72.6797 30.5938 72.6797C28.5462 72.6797 26.8809 74.352 26.8809 76.4081C26.8809 78.4641 28.5462 80.1364 30.5938 80.1364C32.6414 80.1364 34.3068 78.4641 34.3068 76.4081V75.7775H30.6211V77.0112Z" fill="white"/>
<path d="M22.5127 74.8456C22.5127 73.42 21.5572 72.625 19.8372 72.625H17.189V79.9995H18.554V77.0113H19.1001L19.1274 77.0387L21.2842 79.9995H22.9222L20.6016 76.9565C21.8029 76.7372 22.5127 75.9696 22.5127 74.8456ZM18.554 75.8325V73.8587H19.8372C20.6835 73.8587 21.1204 74.1876 21.1204 74.8182C21.1204 75.4761 20.6835 75.8051 19.8372 75.8051H18.554V75.8325Z" fill="white"/>
<path d="M99.284 78.6014V72.625H97.9189V79.9721H103.133V78.6014H99.284Z" fill="white"/>
<path d="M64.5022 78.5191L63.492 77.7789C63.4101 77.8885 63.3282 77.9982 63.219 78.1078C62.7822 78.5465 62.1543 78.8206 61.4717 78.8206C60.7892 78.8206 60.1886 78.5465 59.7244 78.1078C59.2876 77.6692 59.0146 77.0387 59.0146 76.3807C59.0146 75.6954 59.2876 75.0922 59.7244 74.6262C60.1613 74.1876 60.7892 73.9134 61.4717 73.9134C62.1816 73.9134 62.8368 74.215 63.2736 74.7084L64.1473 73.8312C63.4647 73.1184 62.5092 72.6523 61.4444 72.6523C59.3968 72.6523 57.7314 74.3246 57.7314 76.3807C57.7314 78.4368 59.3968 80.1091 61.4444 80.1091C62.7276 80.1091 63.8197 79.4786 64.5022 78.5191Z" fill="white"/>
<path d="M88.6091 78.1352C88.1723 78.5738 87.5444 78.8479 86.8619 78.8479C86.1793 78.8479 85.5787 78.5738 85.1146 78.1352C84.6778 77.6965 84.4047 77.066 84.4047 76.4081C84.4047 75.7501 84.6778 75.1196 85.1146 74.6535C85.5514 74.2149 86.1793 73.9408 86.8619 73.9408C87.5717 73.9408 88.2269 74.2423 88.6637 74.7358L89.5374 73.8585C88.8549 73.1457 87.8993 72.6797 86.8346 72.6797C84.787 72.6797 83.1216 74.352 83.1216 76.4081C83.1216 78.4641 84.787 80.1364 86.8346 80.1364C88.0904 80.1364 89.1825 79.5059 89.865 78.5738L88.8549 77.8336C88.8003 77.9159 88.691 78.0255 88.6091 78.1352Z" fill="white"/>
</g>
<defs>
<clipPath id="clip0">
<rect width="85.9444" height="68.7556" fill="white" transform="translate(17.189 23.7998)"/>
</clipPath>
</defs>
</svg>
