<svg width="87" height="70" viewBox="0 0 87 70" fill="none" xmlns="http://www.w3.org/2000/svg">
<path d="M36.1175 6.63978H37.155V0.910156H35.4077V1.89708H36.1175V6.63978Z" fill="white"/>
<path d="M38.2197 4.85715C38.2197 5.95373 39.0388 6.77616 40.1308 6.77616C41.141 6.77616 42.0146 5.95373 42.0146 4.91198C42.0146 4.25403 41.7416 3.73316 41.1956 3.4316C41.5232 3.13004 41.6597 2.80106 41.6597 2.36243C41.6597 1.48517 40.9772 0.799805 40.1035 0.799805C39.2026 0.799805 38.6019 1.51258 38.6019 2.38985C38.6019 2.88331 38.7384 3.10262 39.0661 3.4316C38.5473 3.65091 38.2197 4.28145 38.2197 4.85715ZM40.1308 1.81414C40.4584 1.81414 40.7314 2.08829 40.7314 2.38985C40.7314 2.71882 40.4584 2.99296 40.1308 2.99296C39.8032 2.99296 39.5302 2.71882 39.5302 2.38985C39.5302 2.06087 39.8032 1.81414 40.1308 1.81414ZM40.1308 4.0073C40.6222 4.0073 41.0045 4.3911 41.0045 4.91198C41.0045 5.40544 40.6222 5.76183 40.1308 5.76183C39.6394 5.76183 39.2572 5.37803 39.2572 4.91198C39.2572 4.3911 39.6394 4.0073 40.1308 4.0073Z" fill="white"/>
<path d="M44.6628 6.77686C45.7822 6.77686 46.6285 5.84476 46.6285 4.74819C46.6285 4.1999 46.4647 3.76126 46.1371 3.37746C45.8368 3.04849 45.3999 2.82917 44.9631 2.82917L44.6901 2.85659L45.9733 0.910156H44.772L43.1339 3.40488C42.8882 3.78868 42.7244 4.22731 42.7244 4.72077C42.6698 5.87218 43.5162 6.77686 44.6628 6.77686ZM44.6355 3.78868C45.1815 3.78868 45.5911 4.25472 45.5911 4.80301C45.5911 5.32389 45.1815 5.76252 44.6355 5.76252C44.0622 5.76252 43.68 5.29647 43.68 4.74819C43.7073 4.1999 44.1168 3.78868 44.6355 3.78868Z" fill="white"/>
<path d="M49.0856 1.81414C49.577 1.81414 49.9047 2.17053 49.9047 2.66399C49.9047 3.18487 49.5497 3.51384 49.2221 3.84281L47.2564 5.67958V6.66651H50.9421V5.67958H48.6761L49.7681 4.69266L50.478 3.92506C50.751 3.56867 50.9148 3.15745 50.9148 2.6914C50.9148 1.59483 50.0685 0.799805 49.0037 0.799805C47.9936 0.799805 47.1472 1.64965 47.1472 2.66399V2.88331H48.1847C48.1574 2.3076 48.485 1.81414 49.0856 1.81414Z" fill="white"/>
<path d="M47.3657 32.9018L48.0482 30.6264L46.6559 24.5678L51.9523 19.2494H45.4273L44.7448 16.2886C45.0178 15.9596 45.1816 15.521 45.1816 15.055C45.1816 13.9584 44.2533 13.0537 43.134 13.0537C41.9873 13.0537 41.0864 13.9584 41.0864 15.055C41.0864 15.521 41.2502 15.9322 41.5232 16.2886L40.8407 19.2494H34.3157L39.6121 24.5678L38.2198 30.6264L38.9023 32.9018L40.5677 25.5547L43.1067 28.1043L45.6457 25.5547L47.3657 32.9018ZM49.1676 20.4008L46.3555 23.2245L45.7003 20.4008H49.1676ZM39.967 23.2245L37.155 20.4008H40.595L39.967 23.2245ZM43.1613 14.1777C43.6527 14.1777 44.0622 14.5615 44.0622 15.055C44.0622 15.5484 43.6527 15.9322 43.1613 15.9322C42.6699 15.9322 42.2604 15.5484 42.2604 15.055C42.2604 14.5615 42.6699 14.1777 43.1613 14.1777ZM42.588 16.974C42.7791 17.0288 42.9702 17.0562 43.1613 17.0562C43.3524 17.0562 43.5435 17.0288 43.7346 16.974L44.2533 19.2494H42.0692L42.588 16.974ZM43.1613 26.432L40.9226 24.184L41.7962 20.4008H44.5264L45.4 24.184L43.1613 26.432Z" fill="white"/>
<path d="M13.7301 37.6454H11.8463L13.1841 36.7956H18.3168V31.5868L22.5212 33.4236V39.6193H24.9237L26.5617 41.2641H32.2131V37.6454H28.9916L28.5001 35.5345L29.8652 31.669L25.1148 26.9812H20.1732L24.1319 24.459L32.3223 26.3232V33.8622L43.1609 39.8934L53.9995 33.8622V26.2958L62.1899 24.4316L66.1486 26.9538H61.2071L56.5112 31.669L57.8763 35.5345L57.3849 37.6454H54.1633V41.2641H59.8147L61.4528 39.6193H63.8553V33.4236L68.0597 31.5868V36.7956H73.1923L74.5301 37.6454H72.6463V41.2641H79.5808V32.8753H73.8476V30.5451C74.1206 30.6273 74.4209 30.6821 74.7212 30.7095C76.2228 30.7095 77.4513 29.4759 77.4513 27.9681C77.4513 27.2827 77.2056 26.6522 76.7961 26.1861C76.3866 25.6927 73.5199 22.4852 73.5199 22.4852C73.0285 21.9095 72.7282 21.1693 72.7282 20.3469C72.7282 19.4422 73.0831 18.6197 73.6838 18.044C74.1206 17.6054 74.6939 17.2764 75.3218 17.1668C75.431 17.1394 75.9225 17.1394 75.9225 17.7151C75.9225 17.8796 75.8406 18.0166 75.7313 18.1263C75.0215 18.6197 74.5301 19.4422 74.5301 20.3743C74.5301 21.8821 75.7313 23.0883 77.2329 23.0883C77.9155 23.0883 78.5434 22.8416 79.0075 22.4304H78.9802C78.8983 22.4578 78.871 22.4578 78.7891 22.4578C78.2158 22.4578 77.7516 21.9917 77.7516 21.416C77.7516 21.1419 77.8608 20.8951 78.0247 20.7032C78.4615 20.292 78.6799 19.9356 78.6526 19.9356C78.871 19.5518 79.0075 19.0858 79.0075 18.6197C79.0075 17.4957 78.325 16.5362 77.3694 16.125C77.2329 16.0428 76.7688 15.9331 76.5504 15.9331C76.3593 15.9057 76.1682 15.9057 75.9771 15.9057C73.5199 15.9057 71.5269 17.907 71.5269 20.3743C71.5269 21.416 71.8819 22.3755 72.4825 23.1431C72.5098 23.1705 75.4856 26.5425 75.8679 27.0086C76.1136 27.2827 76.2501 27.6391 76.2501 28.0229C76.2501 28.4615 76.0863 28.8179 75.8133 29.1195C75.5402 29.3936 75.158 29.5581 74.7212 29.5581C74.1752 29.5581 73.6838 29.2566 73.4107 28.8179L69.6978 21.5805C70.1073 20.9226 70.353 20.155 70.353 19.3325C70.353 18.1537 69.8616 17.0845 69.0698 16.3169C69.7797 16.2347 70.353 15.6316 70.353 14.864V14.0415C70.353 13.877 70.2984 13.74 70.1892 13.6303C70.08 13.5206 69.9435 13.4658 69.7797 13.4658H68.3873C68.2235 13.4658 68.087 13.3287 68.087 13.1643C68.087 12.9998 68.2235 12.8627 68.3873 12.8627H71.0901C71.9638 12.8627 72.6736 12.1499 72.6736 11.2727V9.4633H66.2305C66.367 9.16174 66.4216 8.83277 66.4216 8.50379C66.4216 7.10565 65.3023 5.95424 63.8826 5.95424C63.555 5.95424 63.3093 6.20097 63.3093 6.52995C63.3093 6.74926 63.3093 7.05082 63.3093 7.3798C63.3093 8.03775 63.3093 8.86018 63.3093 9.4633C62.9816 9.4633 62.5175 9.4633 62.5175 9.4633C58.6134 9.60037 55.4738 12.8353 55.4738 16.8104C55.4738 17.6877 55.6376 18.5375 55.9106 19.3051H53.9995V9.40847H32.3223V19.2503H30.4112C30.6842 18.4827 30.848 17.6328 30.848 16.7556C30.848 12.7805 27.7084 9.57296 23.8043 9.40847C23.8043 9.40847 23.3402 9.40847 23.0126 9.40847C23.0126 8.77794 23.0126 7.98292 23.0126 7.32497C23.0126 6.99599 23.0126 6.69443 23.0126 6.47512C23.0126 6.14614 22.7396 5.89941 22.4392 5.89941C21.0469 5.89941 19.9002 7.02341 19.9002 8.44896C19.9002 8.80535 19.9821 9.13432 20.0913 9.40847H13.6755V11.2178C13.6755 12.0951 14.3854 12.8079 15.259 12.8079H17.9618C18.1256 12.8079 18.2621 12.9449 18.2621 13.1094C18.2621 13.2739 18.1256 13.411 17.9618 13.411H16.5695C16.4057 13.411 16.2692 13.4658 16.16 13.5755C16.0507 13.6851 15.9961 13.8222 15.9961 13.9867V14.8091C15.9961 15.5493 16.5695 16.1524 17.2793 16.2621C16.4876 17.0297 15.9961 18.0989 15.9961 19.2777C15.9961 20.1001 16.2419 20.8677 16.6514 21.5257L12.9384 28.7631C12.6654 29.2017 12.174 29.5033 11.6279 29.5033C11.1911 29.5033 10.8362 29.3388 10.5359 29.0647C10.2629 28.7905 10.0991 28.4067 10.0991 27.9681C10.0991 27.5843 10.2356 27.2279 10.4813 26.9538C10.8635 26.4877 13.8393 23.1431 13.8666 23.0883C14.4673 22.3207 14.8222 21.3612 14.8222 20.3194C14.8222 17.8521 12.8292 15.8509 10.3721 15.8509C10.181 15.8509 9.98986 15.8783 9.79875 15.8783C9.58034 15.9057 9.14352 16.0154 8.97971 16.0702C8.02417 16.4814 7.34164 17.4409 7.34164 18.5649C7.34164 19.031 7.47814 19.497 7.69655 19.8808C7.69655 19.8808 7.91496 20.2372 8.32448 20.6484C8.48829 20.8403 8.5975 21.087 8.5975 21.3612C8.5975 21.9369 8.13337 22.4029 7.56005 22.4029C7.47814 22.4029 7.42354 22.4029 7.36894 22.3755H7.34164C7.80576 22.7867 8.43369 23.0335 9.11622 23.0335C10.6178 23.0335 11.819 21.8272 11.819 20.3194C11.819 19.3873 11.3549 18.5375 10.6178 18.0715C10.5086 17.9618 10.4267 17.8247 10.4267 17.6602C10.4267 17.0845 10.9181 17.0845 11.0273 17.1119C11.6552 17.249 12.2286 17.5506 12.6654 17.9892C13.266 18.5923 13.6209 19.3873 13.6209 20.292C13.6209 21.1145 13.3206 21.8547 12.8292 22.4304C12.8292 22.4304 9.96256 25.6379 9.55304 26.1313C9.14352 26.5974 8.89781 27.2279 8.89781 27.9133C8.89781 29.4211 10.1264 30.6547 11.6279 30.6547C11.9283 30.6547 12.2286 30.5999 12.5016 30.4902V32.8205H6.76831V41.2093H13.7028V37.6454H13.7301ZM76.2774 19.0858L76.3047 19.0584C76.7688 18.7568 77.0691 18.2085 77.0691 17.6054C77.0691 17.4683 77.0418 17.3587 77.0418 17.249C77.151 17.3038 77.2329 17.3861 77.3421 17.4683C77.6151 17.7425 77.7789 18.0989 77.7789 18.5101C77.7789 18.9761 77.5605 19.3873 77.2329 19.6615C76.6869 20.1275 76.4685 20.4291 76.4139 20.9774C76.3866 21.2241 76.4685 21.4709 76.5777 21.6902C76.3866 21.6079 76.2228 21.4983 76.0863 21.3612C75.8133 21.087 75.6494 20.7032 75.6494 20.292C75.6494 19.826 75.8952 19.3873 76.2774 19.0858ZM68.0051 30.2709L62.6267 32.656V38.4404H60.9887L59.3779 40.0579H55.3373V38.8516H58.3131L59.1049 35.4797L57.8763 31.998L57.849 31.9432L61.6439 28.1326H68.0051V30.2709V30.2709ZM72.619 29.8597V34.0541H78.3523V40.0579H73.8203V38.8516H76.7415V37.6454L73.5199 35.5893H69.2336V27.502L63.8826 24.0752C64.9473 23.8285 65.8756 23.6092 66.5308 23.4447C66.9676 23.335 67.4864 23.198 67.4864 23.198C67.9778 23.0335 68.4419 22.7867 68.8514 22.4578L72.619 29.8597ZM64.4559 7.1879C64.5924 7.24272 64.7289 7.35238 64.8381 7.46204C65.0838 7.70877 65.2477 8.06516 65.2477 8.42155C65.2477 8.80535 65.0838 9.13432 64.8381 9.38106C64.7289 9.49071 64.5924 9.57296 64.4559 9.6552C64.4559 9.02467 64.4559 7.1879 64.4559 7.1879ZM64.2375 11.2178C64.6197 10.834 65.1111 10.5873 65.6845 10.5599H71.4997V11.1904C71.4997 11.4371 71.3085 11.629 71.0628 11.629H68.3054C67.9232 11.6565 67.5956 11.7935 67.3499 12.0403C67.0768 12.287 66.913 12.6708 66.913 13.082C66.913 13.4384 67.0495 13.8222 67.2953 14.0689C67.5137 14.2883 67.7867 14.4253 68.1143 14.4802C68.2508 14.4802 68.2508 14.4802 68.3054 14.4802H69.1517V14.7269C69.1517 14.8914 69.0152 15.0284 68.8514 15.0284C68.8514 15.0284 65.7664 15.0284 65.6845 15.0284C65.1111 15.001 64.6197 14.7543 64.2375 14.3705C63.828 13.9593 63.5823 13.3836 63.5823 12.753C63.5823 12.1773 63.828 11.629 64.2375 11.2178ZM62.5994 11.6839C62.4629 12.0403 62.4083 12.4241 62.4083 12.8079C62.4083 14.5898 63.7461 16.0428 65.4661 16.2347C65.4934 16.2347 65.548 16.2347 65.5753 16.2347C65.6026 16.2347 66.1213 16.2347 66.2578 16.2347C67.0495 16.2621 67.7594 16.5911 68.2781 17.1119C68.8241 17.6602 69.1517 18.4004 69.1517 19.2229C69.1517 19.8808 68.9333 20.5113 68.5784 21.0048C68.2235 21.4983 67.7048 21.8821 67.1041 22.074C66.4489 22.2933 65.6572 22.3481 65.3842 22.3481C63.8007 22.3481 62.4083 21.7176 61.3709 20.6758C60.3334 19.6341 59.7055 18.2085 59.7055 16.6459C59.7055 15.3026 60.1696 14.0963 60.9067 13.1368C61.3982 12.5337 61.9715 12.0677 62.5994 11.6839ZM58.4496 12.3692C59.4325 11.3823 60.7429 10.7244 62.1899 10.5873C61.3436 11.0533 60.6064 11.6565 60.0331 12.4241C59.1322 13.6029 58.5861 15.0559 58.5861 16.6733C58.5861 18.4553 59.2687 20.0727 60.388 21.3064L60.3607 21.2789L59.023 21.5805C59.023 21.5805 58.6134 21.2515 58.5042 21.1145C57.3849 19.9905 56.7024 18.4553 56.7024 16.7281C56.6478 15.0284 57.3303 13.4932 58.4496 12.3692ZM53.9995 20.3743H56.4293C56.7297 20.9226 57.1119 21.4434 57.576 21.8821L53.9995 22.6771V20.3743ZM53.9995 23.8833L61.3982 22.211C61.7804 22.4852 62.1626 22.7045 62.5994 22.8964L63.009 23.0609L53.9995 25.0896V23.8833ZM33.4963 10.5599H52.8529V33.122L43.1882 38.4953L33.4963 33.122V10.5599ZM10.6724 20.3469C10.6724 20.7581 10.5086 21.1419 10.2356 21.416C10.0991 21.5531 9.93526 21.6628 9.74415 21.745C9.85336 21.5257 9.93526 21.279 9.90796 21.0322C9.85335 20.4565 9.60764 20.1824 9.08892 19.7163C8.7613 19.4422 8.54289 19.031 8.54289 18.5649C8.54289 18.1537 8.7067 17.7699 8.97971 17.5232C9.06162 17.4409 9.17082 17.3587 9.28003 17.3038C9.25273 17.4135 9.25273 17.5506 9.25273 17.6602C9.25273 18.2634 9.55304 18.7842 10.0172 19.1132L10.0445 19.1406C10.4267 19.3873 10.6724 19.826 10.6724 20.3469ZM24.678 28.16L28.4728 31.9706L28.4455 32.0254L27.217 35.5071L28.0087 38.8791H30.9845V40.0853H26.9713L25.3605 38.4678H23.7224V32.6834L18.3441 30.2983V28.1874L24.678 28.16ZM32.3223 25.0896L23.3129 23.0609L23.7224 22.8964C24.1319 22.7045 24.5414 22.4578 24.9237 22.211L32.3223 23.8833V25.0896V25.0896ZM32.3223 20.3743V22.7045L28.7458 21.9095C29.1827 21.4709 29.5649 20.95 29.8925 20.4017H32.3223V20.3743ZM27.8722 12.3692C28.9916 13.4932 29.6741 15.0284 29.6741 16.7556C29.6741 18.4553 28.9916 20.0179 27.8722 21.1419C27.763 21.2515 27.3535 21.6079 27.3535 21.6079L26.0157 21.3064L25.9884 21.3338C27.1078 20.1001 27.7903 18.4827 27.7903 16.7007C27.7903 15.1107 27.2443 13.6303 26.3433 12.4515C25.77 11.7113 25.0056 11.0808 24.1865 10.6147C25.6062 10.7244 26.9167 11.3823 27.8722 12.3692ZM21.4837 7.43463C21.5929 7.32497 21.7294 7.24272 21.8659 7.16048C21.8659 7.16048 21.8659 8.99725 21.8659 9.62779C21.7294 9.57296 21.5929 9.4633 21.4837 9.35364C21.238 9.10691 21.0742 8.75052 21.0742 8.39413C21.0742 8.03775 21.238 7.70877 21.4837 7.43463ZM17.1701 14.7817V14.535H18.0164C18.0983 14.535 18.071 14.535 18.2075 14.535C18.5079 14.4802 18.8082 14.3431 19.0266 14.1238C19.2996 13.8496 19.4361 13.4932 19.4088 13.1368C19.4088 12.7256 19.2177 12.3418 18.972 12.0951C18.7263 11.8484 18.3714 11.6839 18.0164 11.6839H15.259C15.0133 11.6839 14.8222 11.492 14.8222 11.2452V10.6147H20.6374C21.2107 10.6421 21.7021 10.8889 22.0843 11.2727C22.4938 11.6839 22.7396 12.2596 22.7396 12.8901C22.7396 13.5206 22.4938 14.0963 22.0843 14.5076C21.7021 14.8914 21.1834 15.1381 20.6374 15.1655C20.5555 15.1655 17.4704 15.1655 17.4704 15.1655C17.3066 15.0833 17.1701 14.9462 17.1701 14.7817ZM18.0437 17.1119C18.5625 16.5911 19.2723 16.2621 20.064 16.2347C20.2005 16.2347 20.7193 16.2347 20.7466 16.2347C20.7739 16.2347 20.8285 16.2347 20.8558 16.2347C22.5758 16.0428 23.9135 14.5898 23.9135 12.8079C23.9135 12.4241 23.8316 12.0403 23.7224 11.6839C24.3776 12.0403 24.9237 12.5337 25.3878 13.1368C26.1522 14.0963 26.589 15.33 26.589 16.6459C26.589 18.2359 25.9611 19.6341 24.9237 20.6758C23.8862 21.7176 22.4665 22.3481 20.9104 22.3481C20.6374 22.3481 19.8456 22.2933 19.1904 22.074C18.5898 21.8821 18.0983 21.4983 17.7161 21.0048C17.3612 20.5113 17.1428 19.8808 17.1428 19.2229C17.1701 18.4004 17.4977 17.6602 18.0437 17.1119ZM12.5289 40.0579H7.99687V34.0541H13.7301V29.8597L17.525 22.4578C17.9345 22.7867 18.3714 23.0335 18.8901 23.198C18.8901 23.198 19.4088 23.335 19.8456 23.4447C20.5009 23.6092 21.4291 23.8285 22.4938 24.0752L17.1155 27.502V35.6167H12.8292L9.60764 37.6728V38.8791H12.5289V40.0579Z" fill="white"/>
<path d="M61.5349 63.3599H63.5006V69.3911H64.8657V63.3599H66.8587V62.0166H61.5349V63.3599Z" fill="white"/>
<path d="M43.5435 63.3599V62.0166H38.6838V69.3911H43.5435V68.0752H40.0489V66.3755H43.0247V65.0322H40.0489V63.3599H43.5435Z" fill="white"/>
<path d="M26.0977 62.0166H24.7326V67.4172L21.6749 62.0166H20.146V69.3911H21.5111V64.0179L24.5961 69.3911H26.0977V62.0166Z" fill="white"/>
<path d="M57.5489 67.2796C57.5489 65.9637 56.7299 65.4154 55.8562 65.2235L54.6003 64.9219C54.027 64.7574 53.5083 64.5381 53.5083 63.9898C53.5083 63.3319 54.0816 63.0577 54.6823 63.0577C55.3648 63.0577 55.9108 63.277 56.2384 63.8253L57.1394 62.9207C56.6207 62.1805 55.8289 61.8789 54.7915 61.8789C53.3445 61.8789 52.1432 62.7013 52.1432 64.0995C52.1432 65.4154 52.935 65.854 53.9178 66.1281L55.1737 66.4297C55.747 66.5942 56.1838 66.8409 56.1838 67.3892C56.1838 68.0746 55.474 68.3761 54.7369 68.3761C54.027 68.3761 53.4264 68.0746 53.0715 67.5263L52.0886 68.5132C52.662 69.2534 53.6448 69.5824 54.6823 69.5824C56.3203 69.555 57.5489 68.6503 57.5489 67.2796Z" fill="white"/>
<path d="M50.6689 64.2645C50.6689 62.839 49.7134 62.0439 47.9934 62.0439H45.3179V69.4184H46.6829V66.4303H47.229L47.2563 66.4577L49.4131 69.4184H51.0511L48.7305 66.3754C49.9318 66.1561 50.6689 65.3885 50.6689 64.2645ZM46.6829 65.2514V63.2776H47.9661C48.8397 63.2776 49.2766 63.6066 49.2766 64.2371C49.2766 64.895 48.8397 65.224 47.9661 65.224H46.6829V65.2514Z" fill="white"/>
<path d="M18.3171 66.4577C18.3171 68.5138 17.0066 69.5282 15.1501 69.5282C13.2663 69.5282 11.9832 68.4864 11.9832 66.4577V62.0166H13.4574V66.3755C13.4574 67.5817 14.14 68.13 15.1501 68.13C16.1603 68.13 16.8428 67.6092 16.8428 66.3755V62.0166H18.3171V66.4577Z" fill="white"/>
<path d="M29.4289 62.0166H27.9546V69.4185H29.4289V62.0166Z" fill="white"/>
<path d="M34.8069 69.3911H33.005L30.2476 62.0166H31.8037L33.9332 67.9107L36.0354 62.0166H37.5643L34.8069 69.3911Z" fill="white"/>
<path d="M60.3883 62.0166H58.9141V69.4185H60.3883V62.0166Z" fill="white"/>
<path d="M71.6091 66.4578V69.4185H70.1348V66.4578L67.3501 62.0166H69.0428L70.872 65.1144L72.7011 62.0166H74.3665L71.6091 66.4578Z" fill="white"/>
<path d="M8.4886 49.625H7.12354V56.9721H8.4886V49.625Z" fill="white"/>
<path d="M28.3093 50.9683H30.275V56.9995H31.6128V50.9683H33.6058V49.625H28.3093V50.9683Z" fill="white"/>
<path d="M34.9983 56.9995H39.8306V55.6562H36.3634V53.9839H39.3392V52.6406H36.3634V50.9683H39.8306V49.625H34.9983V56.9995Z" fill="white"/>
<path d="M52.9076 52.5584H49.9318V49.625H48.594V56.9721H49.9318V53.8742H52.9076V56.9721H54.2454V49.625H52.9076V52.5584Z" fill="white"/>
<path d="M57.358 51.6263L60.443 56.9721H61.9446V49.625H60.5796V54.9982L57.5218 49.625H55.9929V56.9721H57.358V51.6263Z" fill="white"/>
<path d="M65.0296 49.625H63.6646V56.9721H65.0296V49.625Z" fill="white"/>
<path d="M75.7591 49.6797L73.2747 56.9993H74.5851L74.9946 55.7931H78.2708L78.6803 56.9993H79.9908L77.561 49.6797H75.7591ZM75.4315 54.5595L76.66 50.9682L77.8613 54.5595H75.4315Z" fill="white"/>
<path d="M20.3372 49.6523L17.8801 56.9994H19.1906L19.6001 55.7932H22.849L23.2585 56.9994H24.5689L22.1391 49.6798H20.3372V49.6523ZM20.0369 54.5321L21.2655 50.9408L22.4667 54.5321H20.0369Z" fill="white"/>
<path d="M13.6211 54.0112H15.9963C15.8871 54.4498 15.6687 54.8336 15.3684 55.1352C14.9316 55.5738 14.3037 55.8479 13.6211 55.8479C12.9386 55.8479 12.338 55.5738 11.8739 55.1352C11.437 54.6965 11.164 54.066 11.164 53.4081C11.164 52.7227 11.437 52.1196 11.8739 51.6535C12.3107 51.2149 12.9386 50.9408 13.6211 50.9408C14.331 50.9408 14.9862 51.2423 15.423 51.7358L16.2967 50.8585C15.6141 50.1457 14.6586 49.6797 13.5938 49.6797C11.5462 49.6797 9.88086 51.352 9.88086 53.4081C9.88086 55.4641 11.5462 57.1364 13.5938 57.1364C15.6414 57.1364 17.3068 55.4641 17.3068 53.4081V52.7775H13.6211V54.0112Z" fill="white"/>
<path d="M5.51272 51.8456C5.51272 50.42 4.55717 49.625 2.83719 49.625H0.188965V56.9995H1.55403V54.0113H2.10005L2.12736 54.0387L4.28416 56.9995H5.92224L3.60163 53.9565C4.80288 53.7372 5.51272 52.9696 5.51272 51.8456ZM1.55403 52.8325V50.8587H2.83719C3.68353 50.8587 4.12035 51.1876 4.12035 51.8182C4.12035 52.4761 3.68353 52.8051 2.83719 52.8051H1.55403V52.8325Z" fill="white"/>
<path d="M82.284 55.6014V49.625H80.9189V56.9721H86.1335V55.6014H82.284Z" fill="white"/>
<path d="M47.5022 55.5191L46.492 54.7789C46.4101 54.8885 46.3282 54.9982 46.219 55.1078C45.7822 55.5465 45.1543 55.8206 44.4717 55.8206C43.7892 55.8206 43.1886 55.5465 42.7244 55.1078C42.2876 54.6692 42.0146 54.0387 42.0146 53.3807C42.0146 52.6954 42.2876 52.0922 42.7244 51.6262C43.1613 51.1876 43.7892 50.9134 44.4717 50.9134C45.1816 50.9134 45.8368 51.215 46.2736 51.7084L47.1473 50.8312C46.4647 50.1184 45.5092 49.6523 44.4444 49.6523C42.3968 49.6523 40.7314 51.3246 40.7314 53.3807C40.7314 55.4368 42.3968 57.1091 44.4444 57.1091C45.7276 57.1091 46.8197 56.4786 47.5022 55.5191Z" fill="white"/>
<path d="M71.6091 55.1352C71.1723 55.5738 70.5444 55.8479 69.8619 55.8479C69.1793 55.8479 68.5787 55.5738 68.1146 55.1352C67.6778 54.6965 67.4047 54.066 67.4047 53.4081C67.4047 52.7501 67.6778 52.1196 68.1146 51.6535C68.5514 51.2149 69.1793 50.9408 69.8619 50.9408C70.5717 50.9408 71.2269 51.2423 71.6637 51.7358L72.5374 50.8585C71.8549 50.1457 70.8993 49.6797 69.8346 49.6797C67.787 49.6797 66.1216 51.352 66.1216 53.4081C66.1216 55.4641 67.787 57.1364 69.8346 57.1364C71.0904 57.1364 72.1825 56.5059 72.865 55.5738L71.8549 54.8336C71.8003 54.9159 71.691 55.0255 71.6091 55.1352Z" fill="white"/>
</svg>
