<svg id="main" xmlns="http://www.w3.org/2000/svg" viewBox="0 0 1000 1000"><defs><style>.cls-1{fill:#fff;opacity:0;}</style></defs><title>save_b</title><rect id="frame" class="cls-1" width="1000" height="1000"/><path d="M845.34,281.93,718.07,154.66A15.94,15.94,0,0,0,706.82,150H213.64A63.71,63.71,0,0,0,150,213.64V786.36A63.71,63.71,0,0,0,213.64,850H786.36A63.71,63.71,0,0,0,850,786.36V293.18A15.94,15.94,0,0,0,845.34,281.93ZM309.09,181.82h350V372.73a31.84,31.84,0,0,1-31.82,31.81H340.91a31.84,31.84,0,0,1-31.82-31.81ZM722.73,818.18H277.27V531.82H722.73Zm95.45-31.82a31.85,31.85,0,0,1-31.82,31.82H754.55V515.91A15.9,15.9,0,0,0,738.64,500H261.36a15.9,15.9,0,0,0-15.91,15.91V818.18H213.64a31.85,31.85,0,0,1-31.82-31.82V213.64a31.85,31.85,0,0,1,31.82-31.82h63.63V372.73a63.71,63.71,0,0,0,63.64,63.63H627.27a63.71,63.71,0,0,0,63.64-63.63V181.82h9.32l117.95,118Z"/><path d="M547.73,372.73h63.63a15.9,15.9,0,0,0,15.91-15.91V229.54a15.89,15.89,0,0,0-15.91-15.9H547.73a15.89,15.89,0,0,0-15.91,15.9V356.82A15.9,15.9,0,0,0,547.73,372.73Zm15.91-127.28h31.81v95.46H563.64Z"/></svg>