<svg id="main" xmlns="http://www.w3.org/2000/svg" viewBox="0 0 1000 1000"><defs><style>.cls-1,.cls-2{fill:#fff;}.cls-1{opacity:0;}</style></defs><title>scissors_w</title><rect id="frame" class="cls-1" width="1000" height="1000"/><path class="cls-2" d="M307.49,430c-77.19,0-140-62.79-140-140s62.81-140,140-140,140,62.79,140,140S384.69,430,307.49,430Zm0-210a70,70,0,1,0,70,70A70.08,70.08,0,0,0,307.49,220Z"/><path class="cls-2" d="M307.49,850c-77.19,0-140-62.79-140-140s62.81-140,140-140,140,62.79,140,140S384.69,850,307.49,850Zm0-210a70,70,0,1,0,70,70A70.08,70.08,0,0,0,307.49,640Z"/><path class="cls-2" d="M381.7,670.8A35,35,0,0,1,357,611.05l415.81-415.8a35,35,0,0,1,49.49,49.5L406.44,660.54A34.86,34.86,0,0,1,381.7,670.8Z"/><path class="cls-2" d="M797.47,815a34.87,34.87,0,0,1-24.71-10.22L579.2,611.56A35,35,0,0,1,628.66,562L822.19,755.22A35,35,0,0,1,797.47,815Z"/><path class="cls-2" d="M517.49,535a34.89,34.89,0,0,1-24.74-10.25L357,388.92a35,35,0,0,1,49.49-49.5l135.8,135.83A35,35,0,0,1,517.49,535Z"/></svg>