<svg id="main" xmlns="http://www.w3.org/2000/svg" viewBox="0 0 1000 1000"><defs><style>.cls-1{fill:#fff;opacity:0;}.cls-2{fill:#838b9a;}</style></defs><title>share_twitter</title><rect id="frame" class="cls-1" width="1000" height="1000"/><path class="cls-2" d="M342.67,666.11a147.1,147.1,0,0,1-126.81-77.39c1.37,0,2.76,0,4.15,0a182.45,182.45,0,0,0,47.3-6.24l-1-32.29a146.81,146.81,0,0,1-115.55-119.3,179.54,179.54,0,0,0,54.75,10.41l57.87,1.86L215.24,411a147.5,147.5,0,0,1-55.82-174.3c82.83,91.06,200.28,150.5,331.76,156.71l21.82,1-4.86-21.3a150,150,0,0,1-3.8-33.59C504.34,258.66,570,193,651,193a146,146,0,0,1,107,46.46l6.32,6.76,9.07-1.82a356.84,356.84,0,0,0,63.43-19A148.92,148.92,0,0,1,793.55,265l10.56,30.67A347.85,347.85,0,0,0,850,286.93a309.63,309.63,0,0,1-43.89,38.26l-7.54,5.41.66,9.26c.45,6.27.46,12.68.46,19.72C799.69,567.76,641.15,807,351.82,807a446.19,446.19,0,0,1-183.17-39.08,343.78,343.78,0,0,0,184-72.19L389.25,667Z"/></svg>