<svg id="main" xmlns="http://www.w3.org/2000/svg" viewBox="0 0 1000 1000"><defs><style>.cls-1{fill:#fff;opacity:0;}.cls-2{fill:#838b9a;}</style></defs><title>share_linkerin</title><rect id="frame" class="cls-1" width="1000" height="1000"/><path class="cls-2" d="M790.65,448.82h0A202.65,202.65,0,0,1,850,592.11V831.58H739.47V592.11a92.11,92.11,0,0,0-184.21,0V831.58H444.74V592.11a202.61,202.61,0,0,1,59.35-143.29h0a202.62,202.62,0,0,1,286.56,0Zm-299.56-13,0,0Z"/><path class="cls-2" d="M150,831.58V426.32H260.53V831.58Z"/><path class="cls-2" d="M260.53,223.68a55.27,55.27,0,1,1-55.27-55.26A55.27,55.27,0,0,1,260.53,223.68Z"/></svg>