<svg id="main" xmlns="http://www.w3.org/2000/svg" viewBox="0 0 1000 1000"><defs><style>.cls-1,.cls-2{fill:#fff;}.cls-1{opacity:0;}</style></defs><title>speaker_w</title><rect id="frame" class="cls-1" width="1000" height="1000"/><path class="cls-2" d="M556.79,175.63a23.27,23.27,0,0,0-24.68,2.8L305.12,360H196.67A46.75,46.75,0,0,0,150,406.68V593.35A46.71,46.71,0,0,0,196.67,640H305.12L532.06,821.59a23.37,23.37,0,0,0,24.73,2.76,23.29,23.29,0,0,0,13.21-21V196.68A23.4,23.4,0,0,0,556.79,175.63Z"/><path class="cls-2" d="M698.65,324.32h0a38.35,38.35,0,0,0-53.87,54.59c32.39,32,50.23,75,50.23,121.11s-17.84,89.15-50.22,121.1a38.31,38.31,0,1,0,53.85,54.51c47.1-46.35,73-108.71,73-175.61S745.73,370.76,698.65,324.32Z"/><path class="cls-2" d="M764.52,258.59h0a38.34,38.34,0,1,0-54,54.44,263.46,263.46,0,0,1,0,374,38.51,38.51,0,0,0-.19,54.2l.11.11a38.42,38.42,0,0,0,54.14.09C829.31,677.23,865,591.5,865,500S829.31,322.8,764.52,258.59Z"/></svg>