<svg id="main" xmlns="http://www.w3.org/2000/svg" viewBox="0 0 1000 1000"><defs><style>.cls-1{fill:#fff;opacity:0;}.cls-2{fill:#fc0;}</style></defs><title>speaker_selected_b</title><rect id="frame" class="cls-1" width="1000" height="1000"/><path class="cls-2" d="M556.79,175.63a23.27,23.27,0,0,0-24.68,2.8L305.12,360H196.67A46.75,46.75,0,0,0,150,406.68V593.35A46.71,46.71,0,0,0,196.67,640H305.12L532.06,821.59a23.37,23.37,0,0,0,24.73,2.76,23.29,23.29,0,0,0,13.21-21V196.68A23.4,23.4,0,0,0,556.79,175.63Z"/><path class="cls-2" d="M688.11,335a23.35,23.35,0,0,0-32.8,33.23C690.59,403,710,449.85,710,500s-19.41,97-54.69,131.79a23.31,23.31,0,1,0,32.8,33.13c44.24-43.54,68.56-102.15,68.56-164.92S732.35,378.63,688.11,335Z"/><path class="cls-2" d="M754,269.25a23.35,23.35,0,1,0-32.9,33.13,278.46,278.46,0,0,1,0,395.22A23.35,23.35,0,0,0,754,730.73c62-61.36,96-143.31,96-230.72S815.93,330.66,754,269.25Z"/></svg>