<svg id="main" xmlns="http://www.w3.org/2000/svg" viewBox="0 0 1000 1000"><defs><style>.cls-1{fill:#fff;opacity:0;}.cls-2{fill:#fc0;}</style></defs><title>star_selected_w</title><rect id="frame" class="cls-1" width="1000" height="1000"/><path class="cls-2" d="M832.29,390.7h0a69.92,69.92,0,0,0-23.18-17.08v-3l-180.8-25-63.95-152.8a69.74,69.74,0,0,0-128.71,0L371.7,345.66,210.26,368a69.88,69.88,0,0,0-36.87,121.38L295.54,598.27,270.36,769.76a69.64,69.64,0,0,0,108.3,68L500,755.28l121.43,82.66a69.8,69.8,0,0,0,108.23-68l-25.2-171.67L826.61,489.37a69.9,69.9,0,0,0,5.68-98.67Z"/></svg>