<svg width="570" height="557" viewBox="0 0 570 557" fill="none" xmlns="http://www.w3.org/2000/svg">
<path d="M50.2972 149.943C121.414 55.7944 217.987 5.68953 335.168 0.436597C424.468 -3.60412 494.776 36.803 519.829 132.568C529.122 167.722 540.436 202.068 548.922 237.627C564.681 304.298 578.015 371.778 564.276 440.875C548.518 521.285 501.241 558.46 419.215 556.439C417.194 556.439 415.174 556.439 413.154 556.035C299.609 545.933 194.147 507.951 93.5329 457.038C37.3669 428.753 6.65741 377.84 1.00043 314.4C-4.65656 253.385 13.9307 198.028 50.2972 149.943Z" fill="#FCEA00"/>
<path d="M419.959 341.665L457.333 343.596C470.838 344.294 484.37 342.897 497.447 339.454L533.181 330.045L537.646 373.554C540.855 404.819 518.111 432.766 486.845 435.974C455.58 439.183 427.633 416.438 424.424 385.173L419.959 341.665Z" fill="#EB5F52"/>
<path d="M98.2098 231.997C100.157 232.684 102.133 233.487 104.137 234.403C106.199 235.32 108.318 236.209 110.495 237.068C112.671 237.87 114.933 238.558 117.281 239.131C119.687 239.704 122.235 239.991 124.927 239.991C128.077 239.991 131.255 239.618 134.463 238.873C137.67 238.128 140.791 237.039 143.826 235.607C146.919 234.117 149.869 232.341 152.675 230.278C155.481 228.157 158.058 225.722 160.406 222.972C162.984 220.049 165.131 217.413 166.849 215.064C168.568 212.657 169.942 210.537 170.973 208.703C172.061 206.812 172.834 205.208 173.293 203.89C173.751 202.514 173.98 201.34 173.98 200.365C173.98 198.933 173.493 197.701 172.519 196.669C171.546 195.581 170.229 194.692 168.568 194.005C166.964 193.317 165.131 192.83 163.07 192.544C161.008 192.2 158.86 192.028 156.627 192.028C155.309 192.028 153.763 192.085 151.988 192.2C150.212 192.257 148.408 192.343 146.575 192.458C144.743 192.515 142.967 192.572 141.249 192.63C139.531 192.687 138.042 192.716 136.782 192.716C134.892 192.716 132.916 192.515 130.854 192.114C128.85 191.655 126.874 190.939 124.927 189.965C122.98 188.991 121.176 187.673 119.515 186.011C117.854 184.349 116.479 182.286 115.391 179.822C115.048 179.02 114.733 178.075 114.446 176.986C114.16 175.897 114.017 174.722 114.017 173.462C114.017 172.086 114.103 170.797 114.274 169.594C114.504 168.333 114.761 167.13 115.048 165.984C115.849 163.118 117.167 160.225 118.999 157.302C120.889 154.322 123.123 151.429 125.7 148.621C128.335 145.813 131.169 143.091 134.205 140.455C137.297 137.819 140.447 135.355 143.655 133.063C146.919 130.714 150.098 128.622 153.19 126.788C156.34 124.897 159.261 123.293 161.953 121.975C165.733 120.141 169.57 118.823 173.464 118.021C177.416 117.161 181.311 116.732 185.148 116.732C187.439 116.732 189.615 117.047 191.677 117.677C193.738 118.25 195.542 119.11 197.089 120.256C198.692 121.402 199.952 122.834 200.869 124.554C201.785 126.215 202.243 128.135 202.243 130.313C202.243 131.573 202.1 132.633 201.814 133.493C201.527 134.352 201.155 135.069 200.697 135.642C200.239 136.157 199.723 136.53 199.151 136.759C198.635 136.988 198.091 137.103 197.518 137.103C195.972 137.103 194.54 136.931 193.223 136.587C191.963 136.243 190.732 135.871 189.529 135.47C188.326 135.011 187.124 134.61 185.921 134.266C184.718 133.865 183.401 133.665 181.969 133.665C177.731 133.665 173.407 134.524 168.997 136.243C164.645 137.905 160.378 140.054 156.197 142.69C152.073 145.269 148.15 148.162 144.428 151.371C140.762 154.58 137.469 157.703 134.548 160.74C133.002 162.345 131.857 163.949 131.112 165.554C130.425 167.158 130.081 168.677 130.081 170.109C130.081 172.23 130.998 173.891 132.83 175.095C134.663 176.298 136.897 176.9 139.531 176.9C141.077 176.9 142.824 176.871 144.771 176.814C146.719 176.757 148.694 176.699 150.699 176.642C152.761 176.527 154.737 176.441 156.627 176.384C158.574 176.27 160.292 176.212 161.781 176.212C165.332 176.212 168.739 176.728 172.004 177.759C175.268 178.734 178.161 180.195 180.681 182.143C183.2 184.091 185.205 186.527 186.694 189.449C188.24 192.314 189.014 195.609 189.014 199.334C189.014 201.626 188.67 203.947 187.983 206.296C187.295 208.646 186.35 211.024 185.148 213.431C183.945 215.78 182.57 218.129 181.024 220.479C179.478 222.771 177.846 225.034 176.127 227.269C173.035 231.28 169.57 235.062 165.733 238.615C161.953 242.168 157.915 245.262 153.62 247.898C149.324 250.534 144.771 252.626 139.961 254.173C135.207 255.72 130.31 256.494 125.271 256.494C123.094 256.494 120.861 256.293 118.57 255.892C116.279 255.491 114.017 254.889 111.783 254.087C109.55 253.342 107.43 252.397 105.426 251.251C103.479 250.047 101.761 248.701 100.272 247.211C98.7825 245.721 97.5798 244.088 96.6635 242.311C95.8044 240.478 95.3749 238.501 95.3749 236.38C95.3749 235.349 95.5181 234.375 95.8044 233.458C96.148 232.484 96.9498 231.997 98.2098 231.997Z" fill="#171822"/>
<path d="M220.112 175.353C220.341 174.436 220.656 173.662 221.057 173.032C221.515 172.344 221.973 171.8 222.431 171.399C222.947 170.998 223.405 170.711 223.806 170.539C224.207 170.367 224.522 170.281 224.751 170.281C225.381 170.281 226.125 170.367 226.984 170.539C227.843 170.654 228.674 170.768 229.476 170.883C230.392 171.055 231.28 171.227 232.139 171.399C233.628 171.456 234.687 172.058 235.317 173.204C236.005 174.35 236.348 175.725 236.348 177.33C236.348 178.59 236.176 179.765 235.833 180.854C233.886 188.017 232.11 194.263 230.507 199.592C228.903 204.864 227.528 209.362 226.383 213.087C225.295 216.811 224.436 219.848 223.806 222.198C223.233 224.547 222.947 226.324 222.947 227.527C222.947 228.73 223.09 230.077 223.376 231.567C223.72 233.057 224.207 234.461 224.837 235.779C225.467 237.039 226.268 238.1 227.242 238.959C228.216 239.819 229.39 240.248 230.764 240.248C233.17 240.248 235.604 239.503 238.066 238.014C240.529 236.524 242.877 234.719 245.111 232.598C247.344 230.421 249.349 228.129 251.124 225.722C252.957 223.258 254.446 221.081 255.591 219.19L257.825 215.322C259.2 212.915 260.459 210.164 261.605 207.07C262.808 203.918 263.838 200.767 264.698 197.615C265.614 194.463 266.387 191.512 267.017 188.762C267.647 185.954 268.134 183.719 268.477 182.057L270.711 170.625C271.169 168.448 271.856 166.958 272.773 166.156C273.746 165.296 275.35 164.866 277.584 164.866C279.015 164.866 280.304 165.038 281.449 165.382C282.595 165.668 283.568 166.213 284.37 167.015C285.172 167.817 285.773 168.906 286.174 170.281C286.575 171.599 286.776 173.318 286.776 175.439C286.776 177.903 286.375 180.94 285.573 184.55C284.828 188.103 283.998 191.684 283.082 195.294C282.566 197.414 282.022 199.678 281.449 202.085C280.934 204.434 280.447 206.812 279.989 209.219C279.588 211.568 279.244 213.832 278.958 216.009C278.729 218.129 278.614 220.049 278.614 221.768C278.614 224.691 278.7 227.613 278.872 230.536C279.101 233.458 279.216 236.552 279.216 239.819C279.216 241.308 279.159 242.626 279.044 243.773C278.987 244.919 278.872 245.778 278.7 246.351C278.07 248.586 277.24 250.248 276.209 251.337C275.235 252.425 273.546 252.97 271.141 252.97C269.48 252.97 268.162 252.769 267.189 252.368C266.215 252.024 265.442 251.537 264.869 250.907C264.354 250.276 264.01 249.589 263.838 248.844C263.667 248.042 263.552 247.239 263.495 246.437L262.55 230.192L261.777 230.45C259.887 232.856 257.825 235.55 255.591 238.529C253.358 241.509 250.895 244.288 248.203 246.867C245.512 249.446 242.562 251.594 239.355 253.313C236.205 255.09 232.769 255.978 229.046 255.978C228.302 255.978 227.328 255.777 226.125 255.376C224.98 255.033 223.777 254.574 222.517 254.001C221.257 253.428 220.055 252.769 218.909 252.024C217.764 251.337 216.847 250.678 216.16 250.047C213.01 247.125 210.777 243.83 209.459 240.162C208.142 236.495 207.484 232.77 207.484 228.988C207.484 226.868 207.655 224.748 207.999 222.628C208.343 220.507 208.743 218.473 209.202 216.525C209.66 214.519 210.147 212.657 210.662 210.938C211.235 209.161 211.693 207.586 212.037 206.21C213.125 201.913 214.098 198.131 214.957 194.864C215.816 191.598 216.561 188.733 217.191 186.269C217.878 183.805 218.451 181.713 218.909 179.994C219.367 178.218 219.768 176.671 220.112 175.353Z" fill="#171822"/>
<path d="M307.565 223.659C308.711 219.018 310.028 213.975 311.517 208.531C313.006 203.03 314.552 197.443 316.156 191.77C317.759 186.04 319.334 180.367 320.881 174.751C322.484 169.135 323.945 163.835 325.262 158.849C326.579 153.864 327.696 149.366 328.612 145.355C329.586 141.343 330.245 138.106 330.588 135.642L331.533 128.679C331.705 128.164 331.877 127.591 332.049 126.96C332.278 126.33 332.593 125.757 332.994 125.241C333.395 124.668 333.91 124.181 334.54 123.78C335.227 123.379 336.058 123.178 337.031 123.178C338.807 123.178 340.296 123.493 341.498 124.124C342.701 124.754 343.646 125.614 344.333 126.702C345.078 127.734 345.593 128.937 345.88 130.313C346.166 131.688 346.309 133.12 346.309 134.61C346.309 136.1 346.195 137.619 345.966 139.166C345.736 140.656 345.479 142.002 345.192 143.206C343.302 151.056 341.126 158.993 338.663 167.015C336.258 174.98 334.082 183.003 332.135 191.082C334.368 188.962 336.774 186.957 339.351 185.066C341.928 183.117 344.62 181.427 347.426 179.994C350.29 178.504 353.21 177.33 356.189 176.47C359.167 175.611 362.145 175.181 365.123 175.181C368.273 175.181 370.993 175.639 373.284 176.556C375.575 177.473 377.465 178.734 378.954 180.338C380.443 181.885 381.531 183.748 382.218 185.925C382.963 188.103 383.335 190.452 383.335 192.973C383.335 194.177 383.249 195.437 383.077 196.755C382.963 198.016 382.762 199.248 382.476 200.451C380.987 206.411 378.868 211.74 376.119 216.439C373.427 221.138 370.335 225.35 366.841 229.074C363.405 232.742 359.653 236.008 355.587 238.873C351.578 241.681 347.512 244.202 343.388 246.437C340.697 247.87 338.091 248.987 335.571 249.789C333.108 250.534 330.674 250.907 328.269 250.907C325.921 250.907 324.117 250.678 322.857 250.219C321.654 249.703 320.566 248.958 319.592 247.984C319.306 248.557 318.934 249.159 318.475 249.789C318.074 250.42 317.559 251.021 316.929 251.594C316.356 252.11 315.64 252.54 314.781 252.884C313.98 253.228 313.063 253.399 312.032 253.399C308.768 253.399 306.448 252.597 305.074 250.993C303.699 249.331 303.012 247.125 303.012 244.374C303.012 243.4 303.069 242.426 303.184 241.452C303.356 240.42 303.585 239.417 303.871 238.443L307.565 223.659ZM362.202 188.676C359.51 188.676 356.561 189.363 353.354 190.739C350.204 192.114 347.025 193.833 343.818 195.896C340.611 197.901 337.518 200.079 334.54 202.428C331.562 204.72 328.927 206.783 326.636 208.617C325.949 210.967 325.262 213.23 324.575 215.408C323.887 217.585 323.2 219.791 322.513 222.026C321.883 224.261 321.282 226.553 320.709 228.902C320.193 231.252 319.735 233.744 319.334 236.38L318.819 239.733L319.334 241.28C320.537 240.592 321.625 240.076 322.599 239.733C323.63 239.389 324.603 239.102 325.52 238.873C326.493 238.587 327.496 238.3 328.526 238.014C329.557 237.727 330.703 237.326 331.963 236.81C340.954 233.2 348.486 228.358 354.556 222.284C360.684 216.21 364.865 208.732 367.099 199.85C367.385 198.589 367.614 197.472 367.786 196.498C367.958 195.523 368.044 194.635 368.044 193.833C368.044 192.114 367.585 190.825 366.669 189.965C365.753 189.105 364.264 188.676 362.202 188.676Z" fill="#171822"/>
<path d="M63.9006 402.49C65.7232 394.346 67.7617 386.128 70.016 377.837C72.3183 369.545 74.5486 361.327 76.707 353.183C77.6183 349.798 78.4097 346.732 79.0812 343.984C79.8007 341.188 80.4002 338.661 80.8798 336.404C81.3595 334.148 81.7192 332.111 81.959 330.296C82.1989 328.432 82.3188 326.715 82.3188 325.145C82.3188 324.85 82.3188 324.532 82.3188 324.188C82.3188 323.796 82.2948 323.33 82.2468 322.79C81.7672 322.79 80.688 323.06 79.0092 323.599C77.3785 324.139 75.4359 324.85 73.1816 325.734C70.9753 326.617 68.625 327.622 66.1309 328.751C63.6847 329.83 61.4064 330.934 59.296 332.062C57.6173 332.946 56.2023 333.681 55.0512 334.27C53.948 334.859 52.9887 335.325 52.1733 335.668C51.358 335.963 50.6145 336.184 49.943 336.331C49.2715 336.429 48.576 336.478 47.8566 336.478C46.3697 336.478 45.0747 335.889 43.9715 334.712C42.9163 333.534 42.3887 332.013 42.3887 330.149C42.3887 329.07 42.4846 328.138 42.6765 327.353C42.9163 326.518 43.252 325.783 43.6837 325.145C44.1633 324.507 44.7869 323.918 45.5543 323.379C46.3217 322.79 47.257 322.201 48.3602 321.612C60.4951 315.136 72.7739 310.402 85.1966 307.409C97.6193 304.367 110.09 302.846 122.609 302.846C123.616 302.846 124.815 302.871 126.206 302.92C127.597 302.969 129.012 303.067 130.451 303.214C131.938 303.312 133.377 303.484 134.768 303.73C136.158 303.926 137.382 304.171 138.437 304.465C139.54 304.809 140.499 305.52 141.315 306.6C142.13 307.679 142.538 308.832 142.538 310.058C142.538 311.04 142.442 311.996 142.25 312.929C142.106 313.861 141.818 314.67 141.387 315.357C140.955 316.044 140.379 316.608 139.66 317.05C138.988 317.442 138.149 317.638 137.142 317.638C135.415 317.442 133.424 317.197 131.17 316.902C128.964 316.608 126.734 316.461 124.479 316.461C119.971 316.461 115.462 316.584 110.953 316.829C106.493 317.025 101.912 317.663 97.2116 318.742C96.9718 318.84 96.8039 319.11 96.708 319.552C96.66 319.944 96.6121 320.459 96.5641 321.097C96.4202 323.747 96.2044 326.077 95.9166 328.088C95.6288 330.1 95.2211 332.111 94.6935 334.123C94.2139 336.135 93.6143 338.318 92.8949 340.673C92.1754 342.979 91.336 345.775 90.3767 349.062C89.4175 352.3 88.2903 356.201 86.9953 360.763C85.7482 365.277 84.3572 370.747 82.8224 377.174L79.369 391.451C78.5536 394.738 77.9061 397.706 77.4264 400.356C76.9948 402.956 76.611 405.532 76.2753 408.083C76.0834 408.917 75.34 409.702 74.045 410.438C72.7979 411.174 71.311 411.542 69.5843 411.542C68.5771 411.542 67.6657 411.272 66.8504 410.732C66.035 410.143 65.3635 409.408 64.8359 408.524C64.3083 407.641 63.9485 406.685 63.7567 405.654C63.5648 404.575 63.6128 403.52 63.9006 402.49Z" fill="#171822"/>
<path d="M126.062 400.871C126.781 398.025 127.645 394.714 128.652 390.936C129.659 387.158 130.715 383.16 131.818 378.94C132.969 374.721 134.12 370.404 135.271 365.988C136.422 361.573 137.501 357.28 138.509 353.11C138.557 352.913 138.725 352.595 139.012 352.153C139.3 351.662 139.708 351.196 140.235 350.755C140.763 350.264 141.435 349.847 142.25 349.504C143.065 349.16 144.025 348.989 145.128 348.989C145.943 348.989 146.735 349.087 147.502 349.283C148.269 349.43 148.941 349.675 149.516 350.019C150.14 350.362 150.62 350.828 150.955 351.417C151.339 351.957 151.531 352.595 151.531 353.331C151.531 353.478 151.531 353.649 151.531 353.846C151.531 353.993 151.507 354.14 151.459 354.287L149.445 362.088C147.19 370.821 144.888 379.578 142.538 388.36C140.235 397.142 137.981 405.949 135.775 414.78C135.679 415.074 135.535 415.442 135.343 415.884C135.151 416.325 134.887 416.767 134.552 417.208C134.216 417.65 133.808 418.018 133.329 418.312C132.849 418.607 132.273 418.754 131.602 418.754C130.355 418.754 129.252 418.484 128.292 417.944C127.333 417.454 126.518 416.816 125.846 416.031C125.175 415.246 124.671 414.387 124.335 413.455C124 412.523 123.832 411.64 123.832 410.806C123.832 410.561 123.832 410.34 123.832 410.143C123.832 409.947 123.88 409.726 123.976 409.481L126.062 400.871ZM144.84 324.703C145.08 323.673 145.511 322.422 146.135 320.95C146.759 319.478 147.862 318.154 149.445 316.976C150.212 316.535 151.147 316.142 152.25 315.799C153.354 315.406 154.145 315.21 154.625 315.21C155.104 315.21 155.584 315.382 156.064 315.725C156.591 316.068 157.047 316.436 157.431 316.829C157.91 317.319 158.366 317.859 158.798 318.448C159.997 318.546 160.764 318.988 161.1 319.773C161.483 320.558 161.675 321.49 161.675 322.569C161.675 323.354 161.603 324.065 161.46 324.703C161.316 325.341 161.196 325.856 161.1 326.249C160.812 327.279 160.26 328.236 159.445 329.119C158.63 329.953 157.694 330.689 156.639 331.327C155.584 331.915 154.481 332.381 153.33 332.725C152.178 333.068 151.171 333.24 150.308 333.24C149.205 333.24 148.341 333.044 147.718 332.651C147.142 332.259 146.399 331.425 145.487 330.149C144.96 329.413 144.648 328.849 144.552 328.456C144.504 328.015 144.48 327.647 144.48 327.353C144.48 326.813 144.504 326.347 144.552 325.954C144.648 325.513 144.744 325.096 144.84 324.703Z" fill="#171822"/>
<path d="M173.762 391.451C173.762 387.33 174.218 383.062 175.129 378.646C176.041 374.182 177 369.913 178.007 365.841C176.76 365.792 175.489 365.596 174.194 365.252C172.899 364.909 171.724 364.443 170.669 363.854C169.613 363.265 168.75 362.554 168.079 361.72C167.407 360.837 167.071 359.831 167.071 358.703C167.071 358.261 167.167 357.697 167.359 357.01C167.551 356.323 167.815 355.661 168.15 355.023C168.534 354.336 169.014 353.772 169.589 353.331C170.165 352.84 170.812 352.595 171.532 352.595H181.173C182.084 352.595 182.708 352.202 183.043 351.417C183.379 350.583 183.643 349.774 183.835 348.989C184.458 346.143 185.034 343.69 185.561 341.629C186.137 339.52 186.617 337.754 187 336.331C187.384 334.859 187.672 333.681 187.864 332.798C188.104 331.866 188.223 331.13 188.223 330.591C188.223 329.953 188.199 329.34 188.152 328.751C188.104 328.162 188.08 327.353 188.08 326.322V325.586C188.08 325.194 188.104 324.679 188.152 324.041C188.247 323.403 188.487 322.495 188.871 321.318C189.159 320.386 189.686 319.503 190.454 318.669C191.221 317.835 192.348 317.418 193.835 317.418C195.13 317.418 196.233 317.687 197.145 318.227C198.056 318.767 198.8 319.478 199.375 320.361C199.951 321.244 200.382 322.25 200.67 323.379C200.958 324.507 201.102 325.635 201.102 326.764C201.102 327.99 200.982 329.094 200.742 330.075L195.49 350.681C198.08 350.24 200.382 349.823 202.397 349.43C204.411 349.038 206.426 348.645 208.44 348.253C210.647 347.811 212.541 347.394 214.124 347.002C215.755 346.609 217.146 346.29 218.297 346.045C219.448 345.751 220.407 345.53 221.175 345.383C221.99 345.186 222.662 345.088 223.189 345.088C223.957 345.088 224.724 345.162 225.492 345.309C226.307 345.407 227.002 345.603 227.578 345.898C228.202 346.192 228.705 346.609 229.089 347.149C229.473 347.688 229.664 348.4 229.664 349.283C229.664 350.46 229.425 351.515 228.945 352.447C228.513 353.33 227.938 354.115 227.218 354.802C226.499 355.44 225.683 355.98 224.772 356.421C223.861 356.814 222.949 357.108 222.038 357.304C221.271 357.452 220.263 357.672 219.016 357.967C217.817 358.261 216.474 358.58 214.987 358.923C213.549 359.267 212.038 359.635 210.455 360.027C208.872 360.42 207.337 360.812 205.85 361.205C203.644 361.794 201.749 362.284 200.167 362.677C198.632 363.069 197.313 363.364 196.209 363.56C195.106 363.756 194.195 363.903 193.476 364.001C192.804 364.099 192.252 364.148 191.821 364.148C190.909 366.945 190.118 369.692 189.447 372.391C188.775 375.089 188.199 377.616 187.72 379.971C187.288 382.277 186.952 384.362 186.713 386.226C186.521 388.041 186.425 389.464 186.425 390.494C186.425 391.819 186.545 393.095 186.785 394.321C187.024 395.499 187.432 396.529 188.008 397.412C188.583 398.295 189.351 399.007 190.31 399.546C191.317 400.037 192.564 400.282 194.051 400.282C196.593 400.282 199.087 399.571 201.534 398.148C203.98 396.725 206.306 394.934 208.512 392.776C210.767 390.568 212.877 388.164 214.844 385.564C216.858 382.964 218.705 380.486 220.383 378.131C220.959 377.248 221.702 376.806 222.614 376.806C222.902 376.806 223.237 376.855 223.621 376.953C224.053 377.052 224.46 377.223 224.844 377.469C225.228 377.714 225.54 378.033 225.779 378.425C226.067 378.818 226.211 379.284 226.211 379.824C226.211 380.216 226.187 380.51 226.139 380.707C225.372 383.749 224.173 386.815 222.542 389.906C220.959 392.948 219.328 396.014 217.649 399.105C217.074 400.184 216.306 401.239 215.347 402.269C214.436 403.299 213.429 404.305 212.325 405.286C211.222 406.219 210.071 407.126 208.872 408.009C207.673 408.843 206.546 409.604 205.491 410.291C203.668 411.468 201.677 412.278 199.519 412.719C197.361 413.161 195.274 413.382 193.26 413.382C190.142 413.382 187.36 412.817 184.914 411.689C182.516 410.511 180.477 408.941 178.799 406.979C177.168 404.968 175.921 402.637 175.057 399.988C174.194 397.338 173.762 394.493 173.762 391.451Z" fill="#171822"/>
<path d="M262.688 318.889C262.832 317.221 263.023 315.406 263.263 313.444C263.503 311.481 263.887 309.666 264.414 307.998C264.942 306.33 265.638 304.956 266.501 303.877C267.412 302.748 268.563 302.184 269.954 302.184C270.722 302.184 271.561 302.331 272.472 302.626C273.432 302.92 274.319 303.337 275.134 303.877C275.998 304.367 276.717 304.981 277.293 305.716C277.868 306.452 278.156 307.262 278.156 308.145C278.156 308.538 278.084 309.004 277.94 309.543C277.796 310.034 277.676 310.525 277.581 311.015L259.594 384.754C258.875 387.698 258.275 390.519 257.795 393.217C257.316 395.867 256.956 398.05 256.716 399.767V401.533C256.716 403.005 256.62 404.624 256.428 406.39C256.237 408.107 255.877 409.726 255.349 411.247C254.822 412.719 254.078 413.946 253.119 414.927C252.208 415.957 251.008 416.472 249.522 416.472C248.227 416.472 247.099 416.178 246.14 415.589C245.181 415.05 244.389 414.338 243.766 413.455C243.142 412.572 242.687 411.64 242.399 410.659C242.111 409.628 241.967 408.672 241.967 407.789C241.967 407.004 242.039 406.047 242.183 404.918C242.327 403.741 242.495 402.539 242.687 401.312C242.927 400.037 243.166 398.786 243.406 397.559C243.646 396.284 243.886 395.18 244.126 394.248L262.688 318.889Z" fill="#171822"/>
<path d="M277.437 385.932C277.437 383.822 277.988 382.031 279.091 380.56C280.195 379.088 281.658 378.106 283.48 377.616C284.008 376.537 284.823 375.089 285.926 373.274C287.029 371.41 288.396 369.398 290.027 367.239C291.658 365.081 293.505 362.922 295.567 360.763C297.678 358.556 299.98 356.569 302.474 354.802C305.016 352.987 307.726 351.515 310.604 350.387C313.53 349.258 316.623 348.694 319.885 348.694C322.667 348.694 325.089 349.038 327.151 349.724C329.214 350.411 330.917 351.368 332.26 352.595C333.603 353.821 334.61 355.293 335.281 357.01C335.953 358.678 336.289 360.493 336.289 362.456C336.289 364.124 336.073 365.718 335.641 367.239C334.97 369.987 333.723 372.391 331.9 374.451C330.077 376.512 327.919 378.327 325.425 379.897C322.979 381.418 320.293 382.694 317.367 383.724C314.489 384.754 311.587 385.613 308.661 386.3C305.783 386.987 303.002 387.526 300.316 387.919C297.63 388.262 295.303 388.532 293.337 388.728C292.905 389.611 292.521 390.74 292.186 392.113C291.898 393.438 291.754 394.738 291.754 396.014C291.754 398.859 292.857 401.067 295.063 402.637C297.27 404.207 300.316 404.992 304.201 404.992C306.455 404.992 308.613 404.747 310.676 404.256C312.738 403.716 314.681 403.054 316.503 402.269C318.374 401.435 320.125 400.552 321.755 399.62C323.386 398.639 324.873 397.682 326.216 396.75C327.943 395.572 329.574 394.591 331.108 393.806C332.691 392.972 334.082 392.555 335.281 392.555C336.48 392.555 337.248 392.874 337.584 393.512C337.919 394.1 338.087 394.738 338.087 395.425C338.087 395.818 338.063 396.21 338.015 396.603C338.015 396.946 337.991 397.24 337.943 397.486C337.704 398.761 337.224 400.037 336.504 401.312C335.785 402.588 334.874 403.692 333.771 404.624C328.782 408.647 323.65 411.517 318.374 413.234C313.146 414.952 307.558 415.81 301.611 415.81C300.459 415.81 299.092 415.736 297.51 415.589C295.975 415.442 294.368 415.148 292.689 414.706C291.01 414.265 289.356 413.627 287.725 412.793C286.094 411.959 284.631 410.855 283.336 409.481C282.089 408.107 281.058 406.415 280.243 404.403C279.475 402.392 279.091 399.963 279.091 397.118C279.091 394.812 279.403 392.236 280.027 389.391C279.403 389.292 278.804 388.974 278.228 388.434C277.7 387.845 277.437 387.011 277.437 385.932ZM322.475 365.547C322.571 365.301 322.619 365.081 322.619 364.884C322.619 364.688 322.619 364.467 322.619 364.222C322.619 362.897 322.139 361.916 321.18 361.278C320.221 360.592 319.069 360.248 317.726 360.248C315.616 360.248 313.53 360.812 311.467 361.941C309.453 363.069 307.534 364.492 305.712 366.209C303.937 367.877 302.354 369.692 300.963 371.655C299.572 373.568 298.493 375.31 297.725 376.88C301.179 376.586 304.345 376.119 307.222 375.482C310.1 374.795 312.594 373.961 314.705 372.98C316.863 371.949 318.59 370.821 319.885 369.594C321.228 368.319 322.091 366.97 322.475 365.547Z" fill="#171822"/>
<path d="M352.98 401.312C353.364 401.312 353.7 401.362 353.987 401.46C354.323 401.558 354.683 401.68 355.067 401.828C355.45 401.926 355.882 402.024 356.362 402.122C356.841 402.22 357.465 402.269 358.232 402.269C360.486 402.269 362.981 402.024 365.715 401.533C368.496 401.043 371.111 400.405 373.557 399.62C376.003 398.835 378.089 397.952 379.816 396.971C381.591 395.94 382.598 394.885 382.838 393.806C382.982 393.217 383.054 392.702 383.054 392.261C383.054 391.427 382.646 390.642 381.831 389.906C381.063 389.121 380.08 388.385 378.881 387.698C377.682 387.011 376.387 386.373 374.996 385.785C373.605 385.196 372.31 384.656 371.111 384.166L368.664 383.135C367.417 382.645 366.194 382.056 364.995 381.369C363.796 380.633 362.669 379.799 361.614 378.867C360.606 377.935 359.695 376.855 358.88 375.629C358.112 374.353 357.537 372.906 357.153 371.287C356.961 370.6 356.793 369.913 356.649 369.226C356.553 368.539 356.505 367.804 356.505 367.019C356.505 365.743 356.913 364.296 357.729 362.677C358.592 361.009 359.719 359.365 361.11 357.746C362.549 356.127 364.156 354.582 365.93 353.11C367.753 351.638 369.648 350.411 371.614 349.43C373.053 348.4 374.444 347.468 375.787 346.634C377.13 345.8 378.473 345.088 379.816 344.499C381.207 343.911 382.598 343.445 383.989 343.101C385.428 342.758 386.939 342.586 388.521 342.586C389.96 342.586 391.519 342.66 393.198 342.807C394.877 342.954 396.412 343.297 397.803 343.837C399.193 344.377 400.345 345.186 401.256 346.266C402.215 347.296 402.695 348.694 402.695 350.46C402.695 351 402.623 351.711 402.479 352.595C402.335 353.478 402.095 354.361 401.76 355.244C401.424 356.127 401.016 356.887 400.536 357.525C400.057 358.163 399.481 358.482 398.81 358.482C397.707 358.482 396.795 358.261 396.076 357.82C395.356 357.378 394.709 356.912 394.133 356.421C393.558 355.882 392.958 355.391 392.335 354.95C391.711 354.508 390.944 354.287 390.032 354.287C388.929 354.287 387.634 354.508 386.147 354.95C384.708 355.342 383.221 355.906 381.687 356.642C380.152 357.329 378.641 358.139 377.154 359.071C375.715 360.003 374.396 360.96 373.197 361.941C372.046 362.922 371.111 363.903 370.391 364.884C369.672 365.817 369.312 366.675 369.312 367.46C369.312 368.294 369.576 368.981 370.103 369.521C370.631 370.06 371.302 370.526 372.118 370.919C373.173 371.508 374.372 372.096 375.715 372.685C377.106 373.274 378.497 373.863 379.888 374.451C381.279 375.04 382.622 375.629 383.917 376.218C385.26 376.806 386.411 377.346 387.37 377.837C388.665 378.523 389.816 379.21 390.824 379.897C391.879 380.535 392.766 381.246 393.486 382.031C394.205 382.816 394.757 383.699 395.141 384.681C395.524 385.662 395.716 386.815 395.716 388.14C395.716 388.777 395.668 389.415 395.572 390.053C395.476 390.691 395.332 391.427 395.141 392.261C394.997 392.997 394.733 393.855 394.349 394.836C394.013 395.818 393.63 396.799 393.198 397.78C392.814 398.712 392.407 399.571 391.975 400.356C391.543 401.092 391.183 401.582 390.896 401.828C389.025 403.594 386.819 405.262 384.277 406.832C381.735 408.353 379.073 409.702 376.291 410.879C373.557 412.008 370.799 412.915 368.017 413.602C365.283 414.289 362.765 414.633 360.462 414.633C359.311 414.633 358.04 414.412 356.649 413.97C355.258 413.48 353.963 412.866 352.764 412.13C351.613 411.345 350.63 410.462 349.814 409.481C349.047 408.5 348.663 407.519 348.663 406.537C348.663 406.047 348.807 405.507 349.095 404.918C349.383 404.281 349.743 403.716 350.174 403.226C350.606 402.686 351.062 402.245 351.541 401.901C352.069 401.509 352.548 401.312 352.98 401.312Z" fill="#171822"/>
</svg>
