<svg id="main" xmlns="http://www.w3.org/2000/svg" viewBox="0 0 1000 1000"><defs><style>.cls-1{fill:#fff;opacity:0;}</style></defs><title>trash</title><rect id="frame" class="cls-1" width="1000" height="1000"/><path d="M784.09,306.46l-15.46-46.33a43.1,43.1,0,0,0-40.93-29.5H597.8V188.34A38.37,38.37,0,0,0,559.48,150h-119a38.37,38.37,0,0,0-38.32,38.34v42.29H272.31a43.11,43.11,0,0,0-40.94,29.5l-15.46,46.33a34.7,34.7,0,0,0,32.9,45.66H265l35.55,439.69a63.62,63.62,0,0,0,63,58.19H643.65a63.61,63.61,0,0,0,63-58.19l35.55-439.69h9a34.69,34.69,0,0,0,32.9-45.66ZM443.22,191H556.78v39.61H443.22ZM665.8,788.5A22.36,22.36,0,0,1,643.65,809H363.56a22.36,22.36,0,0,1-22.15-20.48L306.12,352.12h395ZM257.61,311.1l12.67-38a2.14,2.14,0,0,1,2-1.46H727.7a2.13,2.13,0,0,1,2,1.46l12.68,38Z"/><path d="M600.39,787.05c.37,0,.72,0,1.09,0a20.51,20.51,0,0,0,20.46-19.44L641.19,398a20.51,20.51,0,1,0-41-2.13L581,765.5A20.51,20.51,0,0,0,600.39,787.05Z"/><path d="M379,767.69a20.51,20.51,0,0,0,20.46,19.39c.37,0,.76,0,1.13,0a20.51,20.51,0,0,0,19.36-21.6L399.76,395.77A20.51,20.51,0,0,0,358.81,398Z"/><path d="M500.23,787.08a20.51,20.51,0,0,0,20.51-20.51V396.88a20.51,20.51,0,0,0-41,0V766.57A20.51,20.51,0,0,0,500.23,787.08Z"/></svg>