<?xml version="1.0" encoding="utf-8"?>
<!-- Generator: Adobe Illustrator 24.0.0, SVG Export Plug-In . SVG Version: 6.00 Build 0)  -->
<svg version="1.1" id="main" xmlns="http://www.w3.org/2000/svg" xmlns:xlink="http://www.w3.org/1999/xlink" x="0px" y="0px"
	 viewBox="0 0 1000 1000" style="enable-background:new 0 0 1000 1000;" xml:space="preserve">
<style type="text/css">
	.st0{fill:#FFFFFF;fill-opacity:0;}
	.st1{fill:#FFFFFF;}
</style>
<title>trash</title>
<rect id="frame" class="st0" width="1000" height="1000"/>
<path class="st1" d="M784.1,306.5l-15.5-46.3c-5.9-17.6-22.4-29.5-40.9-29.5H597.8v-42.3c0-21.2-17.2-38.3-38.3-38.3h-119
	c-21.2,0-38.3,17.2-38.3,38.3v42.3H272.3c-18.6,0-35.1,11.9-40.9,29.5l-15.5,46.3c-6.1,18.2,3.8,37.8,22,43.9
	c3.5,1.2,7.2,1.8,10.9,1.8H265l35.5,439.7c2.8,32.8,30.1,58,63,58.2h280.1c32.9-0.2,60.2-25.4,63-58.2l35.5-439.7h9
	c19.2,0,34.7-15.5,34.7-34.7C785.9,313.7,785.3,310,784.1,306.5L784.1,306.5z M443.2,191h113.6v39.6H443.2V191z M665.8,788.5
	c-1,11.5-10.6,20.4-22.1,20.5H363.6c-11.6-0.1-21.2-9-22.1-20.5l-35.3-436.4h395L665.8,788.5z M257.6,311.1l12.7-38
	c0.3-0.9,1.1-1.4,2-1.5h455.4c0.9,0,1.7,0.6,2,1.5l12.7,38H257.6z"/>
<path class="st1" d="M600.4,787c0.4,0,0.7,0,1.1,0c10.9,0,19.9-8.6,20.5-19.4L641.2,398c0.6-11.3-8.1-21-19.4-21.6
	s-21,8.1-21.6,19.4L581,765.5C580.4,776.8,589.1,786.4,600.4,787z"/>
<path class="st1" d="M379,767.7c0.6,10.9,9.6,19.4,20.5,19.4c0.4,0,0.8,0,1.1,0c11.3-0.6,20-10.3,19.4-21.6c0,0,0,0,0,0l-20.2-369.7
	c-0.9-11.3-10.7-19.8-22-18.9c-11,0.8-19.3,10.1-18.9,21.1L379,767.7z"/>
<path class="st1" d="M500.2,787.1c11.3,0,20.5-9.2,20.5-20.5V396.9c-0.4-11.3-9.8-20.2-21.1-19.9c-10.8,0.3-19.5,9-19.9,19.9v369.7
	C479.7,777.9,488.9,787.1,500.2,787.1z"/>
</svg>
