<svg width="24" height="24" viewBox="0 0 24 24" fill="none" xmlns="http://www.w3.org/2000/svg">
<g id="Iconly/Bulk/Delete">
<g id="Delete">
<path id="Fill 1" opacity="0.4" d="M19.643 9.48844C19.643 9.55644 19.11 16.2972 18.8056 19.1341C18.615 20.875 17.4927 21.931 15.8092 21.961C14.5157 21.99 13.2494 22 12.0036 22C10.6809 22 9.38741 21.99 8.13185 21.961C6.50477 21.922 5.38147 20.845 5.20057 19.1341C4.88741 16.2872 4.36418 9.55644 4.35445 9.48844C4.34473 9.28345 4.41086 9.08846 4.54507 8.93046C4.67734 8.78447 4.86796 8.69647 5.06831 8.69647H18.9388C19.1382 8.69647 19.3191 8.78447 19.4621 8.93046C19.5953 9.08846 19.6624 9.28345 19.643 9.48844" fill="#E85B5B"/>
<path id="Fill 4" d="M21 5.97686C21 5.56588 20.6761 5.24389 20.2871 5.24389H17.3714C16.7781 5.24389 16.2627 4.8219 16.1304 4.22692L15.967 3.49795C15.7385 2.61698 14.9498 2 14.0647 2H9.93624C9.0415 2 8.26054 2.61698 8.02323 3.54595L7.87054 4.22792C7.7373 4.8219 7.22185 5.24389 6.62957 5.24389H3.71385C3.32386 5.24389 3 5.56588 3 5.97686V6.35685C3 6.75783 3.32386 7.08982 3.71385 7.08982H20.2871C20.6761 7.08982 21 6.75783 21 6.35685V5.97686Z" fill="#E85B5B"/>
</g>
</g>
</svg>
