<?xml version="1.0" encoding="utf-8"?>
<!-- Generator: Adobe Illustrator 25.0.0, SVG Export Plug-In . SVG Version: 6.00 Build 0)  -->
<svg version="1.1" id="main" xmlns="http://www.w3.org/2000/svg" xmlns:xlink="http://www.w3.org/1999/xlink" x="0px" y="0px"
	 viewBox="0 0 1000 1000" style="enable-background:new 0 0 1000 1000;" xml:space="preserve">
<style type="text/css">
	.st0{fill:#FFFFFF;fill-opacity:0;}
	.st1{fill:#FFFFFF;}
</style>
<rect id="frame" class="st0" width="1000" height="1000"/>
<g>
	<path class="st1" d="M500,250c66.8,0,129.6,26,176.8,73.2S750,433.2,750,500s-26,129.6-73.2,176.8S566.8,750,500,750
		s-129.6-26-176.8-73.2S250,566.8,250,500s26-129.6,73.2-176.8S433.2,250,500,250 M500,150c-193.3,0-350,156.7-350,350
		s156.7,350,350,350s350-156.7,350-350S693.3,150,500,150L500,150z"/>
</g>
</svg>
