<svg width="26" height="30" viewBox="0 0 26 30" fill="none" xmlns="http://www.w3.org/2000/svg">
<path d="M23.5045 7.63393C22.6629 7.99665 21.7489 8.25781 20.8058 8.35938C21.7779 7.77902 22.5179 6.86495 22.8661 5.77679C21.9665 6.31361 20.9509 6.70536 19.8917 6.90848C19.0357 5.99442 17.817 5.42857 16.4676 5.42857C13.8705 5.42857 11.7813 7.53236 11.7813 10.115C11.7813 10.4777 11.8248 10.8404 11.8973 11.1886C8.00893 10.9855 4.54129 9.12835 2.23438 6.2846C1.82812 6.98103 1.59598 7.77902 1.59598 8.64955C1.59598 10.2746 2.42299 11.7109 3.68527 12.5525C2.91629 12.5234 2.19085 12.3058 1.56696 11.9576C1.56696 11.9721 1.56696 12.0011 1.56696 12.0156C1.56696 14.2935 3.17746 16.1797 5.32478 16.615C4.93304 16.7165 4.51228 16.7746 4.09152 16.7746C3.78683 16.7746 3.49665 16.7455 3.20647 16.702C3.80134 18.5592 5.5279 19.9085 7.58817 19.952C5.97768 21.2143 3.96094 21.9542 1.77009 21.9542C1.37835 21.9542 1.01562 21.9397 0.638393 21.8962C2.71317 23.231 5.17969 24 7.83482 24C16.4531 24 21.1685 16.8616 21.1685 10.6663C21.1685 10.4632 21.1685 10.26 21.154 10.0569C22.0681 9.38951 22.8661 8.5625 23.5045 7.63393Z" fill="white"/>
</svg>
