<svg width="42" height="42" viewBox="0 0 42 42" fill="none" xmlns="http://www.w3.org/2000/svg">
<path opacity="0.4" d="M37.3291 13.0248C36.5959 12.5629 35.6946 12.522 34.9264 12.9129L32.3328 14.2223C31.3738 14.7055 30.7788 15.6827 30.7788 16.77V26.9786C30.7788 28.0659 31.3738 29.0413 32.3328 29.5281L34.9246 30.8357C35.2764 31.0169 35.6526 31.104 36.0289 31.104C36.4804 31.104 36.9284 30.9761 37.3291 30.7256C38.0624 30.2654 38.4999 29.4677 38.4999 28.5936V15.1586C38.4999 14.2845 38.0624 13.4867 37.3291 13.0248Z" fill="#374A5E"/>
<path d="M20.8339 35H10.6978C6.45928 35 3.5 32.0774 3.5 27.8934V15.8566C3.5 11.6708 6.45928 8.75 10.6978 8.75H20.8339C25.0725 8.75 28.0317 11.6708 28.0317 15.8566V27.8934C28.0317 32.0774 25.0725 35 20.8339 35Z" fill="#374A5E"/>
</svg>
