<svg id="main" xmlns="http://www.w3.org/2000/svg" viewBox="0 0 1000 1000"><defs><style>.cls-1{fill:#fff;opacity:0;}</style></defs><title>view_b</title><rect id="frame" class="cls-1" width="1000" height="1000"/><path d="M500,404.55A95.45,95.45,0,1,0,595.45,500,95.52,95.52,0,0,0,500,404.55Z"/><path d="M500,261.36c-159.09,0-294.95,99-350,238.64,55.05,139.68,190.91,238.64,350,238.64,159.25,0,295-99,350-238.64C795,360.32,659.25,261.36,500,261.36Zm0,397.73A159.09,159.09,0,1,1,659.09,500,159.15,159.15,0,0,1,500,659.09Z"/></svg>