<?xml version="1.0" encoding="utf-8"?>
<!-- Generator: Adobe Illustrator 24.0.0, SVG Export Plug-In . SVG Version: 6.00 Build 0)  -->
<svg version="1.1" id="main" xmlns="http://www.w3.org/2000/svg" xmlns:xlink="http://www.w3.org/1999/xlink" x="0px" y="0px"
	 viewBox="0 0 1000 1000" style="enable-background:new 0 0 1000 1000;" xml:space="preserve">
<style type="text/css">
	.st0{fill:#FFFFFF;fill-opacity:0;stroke:#FFFFFF;stroke-miterlimit:10;}
	.st1{fill:#FFFFFF;stroke:#FFFFFF;stroke-width:30;stroke-miterlimit:10;}
</style>
<title>wave</title>
<rect id="frame" class="st0" width="1000" height="1000"/>
<path class="st1" d="M847.6,500c-1.8,4.5-6.3,15.5-8.8,21.2c-3.9,8.9-7.8,18-11.6,26.8c-9.5,22.1-19.3,44.9-29.8,66.7
	c-16,33.4-30.2,59.9-44.4,83.5c-12.3,20.3-25.3,36.1-39.9,48.2c-10.5,8.7-19.4,12.7-29,12.8h-0.6c-10.2,0-19.5-4-29.1-12.6
	c-19.8-17.7-36.7-39.8-51.9-67.6c-23.2-42.7-44.1-86.7-62.5-131.7c-4.1-9.9-8.4-19.8-12.7-29.4c-2.2-4.9-4.3-9.8-6.5-14.8
	c-0.2-0.6-1-2.7-1.5-4.4l-2.3-6.4l-0.2-0.6c-1.5-3.4-8.8-20.6-9.7-22.5c-6.9-15.1-13.7-30.7-20.3-45.7
	c-14.8-33.7-30-68.5-47.6-101.8s-36.2-60.6-57-83.6c-14.1-15.6-27.8-25.1-43.1-29.9c-26.2-8.3-51.8-2.6-74.1,16.5
	c-23.1,19.7-42.5,44.4-59.5,75.3c-23.9,43.6-43,83.1-58.3,120.7c-6.9,17-14.5,34.2-21.9,50.8c-3.3,7.5-6.8,15.3-10.1,23L114,497v3
	h37.5c0.2-0.5,6.2-13.4,9.6-21c3.7-8.5,7.4-17.1,11-25.5c9.1-21.2,18.5-43,28.6-64c17.1-35.5,31.2-62.1,45.6-86.4
	c12.2-20.5,25.5-36.7,40.7-49.4c10.7-9,20-12.9,30.1-12.6s19.6,4.5,29,13.1c19.5,17.8,36.4,40,51.8,67.9
	c26.8,48.8,49,99.5,65.2,138.2c3.2,7.6,6.6,15.3,9.8,22.8c2,4.5,4,9,5.9,13.5c0.3,0.7,1.2,3.2,1.8,5l0.2,0.5l3.6,8.5l2.2,5.3
	l4.7,12.2l0.3,0.8c0.1,0.3,12.9,27.6,18.6,41.3c24.9,60,46.9,104.7,71.3,144.8c16.4,27,32.8,46.5,51.5,61.3c0.8,0.6,1.5,1.2,2.3,1.9
	c6.4,5.1,13.6,10.9,23.9,13.7c8.2,2.3,16.6,3.6,25.1,3.7c9.2,0,18.3-1.8,26.8-5.5c8-3.4,15.6-7.8,22.4-13.1
	c18.8-15.2,35.1-34.6,50-59.1c15.2-25.1,30.2-53.2,47-88.2c10.8-22.7,20.9-46,30.6-68.6c4.1-9.6,8.4-19.6,12.7-29.3l1.3-2.9L887,500
	H847.6z"/>
</svg>
