<svg width="23" height="24" viewBox="0 0 23 24" fill="none" xmlns="http://www.w3.org/2000/svg">
<path d="M9.96689 8.24756C9.33286 8.24756 8.81689 8.76279 8.81689 9.39592H9.58356C9.58356 9.18501 9.75529 9.01313 9.96689 9.01313C10.1785 9.01313 10.3502 9.18501 10.3502 9.39592H11.1169C11.1169 8.76279 10.6009 8.24756 9.96689 8.24756Z" fill="#5DC8AC"/>
<path d="M13.0333 8.24756C12.3993 8.24756 11.8833 8.76279 11.8833 9.39592H12.65C12.65 9.18501 12.8217 9.01313 13.0333 9.01313C13.2449 9.01313 13.4166 9.18501 13.4166 9.39592H14.1833C14.1833 8.76279 13.6673 8.24756 13.0333 8.24756Z" fill="#5DC8AC"/>
<path d="M20.7 23.1763V18.2001C20.7 15.034 18.1206 12.4583 14.95 12.4583H14.5325C14.669 12.3384 14.7974 12.2106 14.9189 12.0755H15.3333C16.3902 12.0755 17.25 11.2169 17.25 10.1615V9.48705C17.7119 9.17776 18.0167 8.65181 18.0167 8.05619C18.0167 7.45828 17.7096 6.93156 17.2454 6.62265C17.1944 3.50025 14.6391 0.974609 11.5 0.974609C8.36088 0.974609 5.80558 3.50025 5.7546 6.62265C5.29038 6.93156 4.98333 7.45828 4.98333 8.05619C4.98333 9.00589 5.75728 9.77874 6.70833 9.77874H6.96938C7.14878 10.8394 7.69158 11.7761 8.46783 12.4583H8.05C4.87945 12.4583 2.3 15.034 2.3 18.2001V23.1763H0V23.9419H2.68333H4.6H18.4H20.3167H23V23.1763H20.7ZM16.4833 10.1615C16.4833 10.7422 16.0479 11.2184 15.4871 11.2942C15.7527 10.8329 15.939 10.3219 16.0306 9.77874H16.2917C16.3572 9.77874 16.4197 9.76649 16.4833 9.75922V10.1615ZM17.25 8.05619C17.25 8.58367 16.8203 9.01316 16.2917 9.01316H16.1V7.09922H16.2917C16.8203 7.09922 17.25 7.52871 17.25 8.05619ZM6.9 9.01316H6.70833C6.17972 9.01316 5.75 8.58367 5.75 8.05619C5.75 7.52871 6.17972 7.09922 6.70833 7.09922H6.9V9.01316ZM6.70833 6.33364C6.64892 6.33364 6.59295 6.34513 6.53507 6.35125C6.72367 3.77777 8.8757 1.74019 11.5 1.74019C14.1243 1.74019 16.2763 3.77777 16.4649 6.35125C16.407 6.34513 16.3511 6.33364 16.2917 6.33364H16.0306C15.6642 4.16477 13.7747 2.50576 11.5 2.50576C9.2253 2.50576 7.33585 4.16477 6.96938 6.33364H6.70833ZM15.3329 7.08965C12.5664 6.99242 10.7333 5.86281 10.7333 4.80249C10.7333 4.59119 10.562 4.4197 10.35 4.4197C10.138 4.4197 9.96667 4.59119 9.96667 4.80249C9.96667 5.75908 8.97613 6.55183 7.6889 6.69232C7.89322 4.77225 9.5243 3.27134 11.5 3.27134C13.6102 3.27134 15.3276 4.98355 15.3329 7.08965ZM7.66667 9.01316V7.46057C8.86382 7.35684 9.87965 6.78036 10.3868 5.97306C11.1887 7.03415 13.0628 7.78097 15.3333 7.85714V9.01316C15.3333 9.87558 15.0428 10.6691 14.5594 11.3099H11.5V12.0755H13.79C13.57 12.2401 13.3327 12.3817 13.0797 12.4965C12.0738 12.9528 10.9258 12.9528 9.91952 12.4965C8.59318 11.894 7.66667 10.5612 7.66667 9.01316ZM10.3151 13.4466C10.6938 13.5477 11.0898 13.6066 11.5 13.6066C11.9102 13.6066 12.3061 13.5477 12.6849 13.4466L11.5 15.813L10.3151 13.4466ZM10.8798 16.2861H10.2036L8.67023 13.2238H9.34643L10.8798 16.2861ZM13.6536 13.2238H14.3298L12.7964 16.2861H12.1202L13.6536 13.2238ZM4.21667 18.2001V23.1763H3.06667V18.2001C3.06667 15.534 5.17883 13.3574 7.81885 13.2357L9.34643 16.2861H6.13333C5.07648 16.2861 4.21667 17.1447 4.21667 18.2001ZM18.0167 23.1763H4.98333V18.2001C4.98333 17.5669 5.4993 17.0517 6.13333 17.0517H9.96667H11.5H13.0333H16.8667C17.5007 17.0517 18.0167 17.5669 18.0167 18.2001V23.1763ZM19.9333 23.1763H18.7833V18.2001C18.7833 17.1447 17.9235 16.2861 16.8667 16.2861H13.6536L15.1811 13.2357C17.8212 13.3574 19.9333 15.534 19.9333 18.2001V23.1763Z" fill="#5DC8AC"/>
<path d="M17.2501 19.7314H16.4834V22.411H17.2501V19.7314Z" fill="#5DC8AC"/>
<path d="M17.2501 18.2002H16.4834V18.9658H17.2501V18.2002Z" fill="#5DC8AC"/>
</svg>
