<svg width="24" height="24" viewBox="0 0 24 24" fill="none" xmlns="http://www.w3.org/2000/svg">
<path d="M22.5093 0.97168H0.523487C0.234139 0.97168 0 1.20549 0 1.49442V15.608C0 16.7612 0.939058 17.699 2.0939 17.699H8.17292L6.30874 23.2835C6.21722 23.5577 6.36547 23.8537 6.63951 23.9446C6.69472 23.963 6.75042 23.9717 6.80514 23.9717C7.02446 23.9717 7.22841 23.8333 7.30154 23.6143L9.27613 17.699H10.9929V23.4489C10.9929 23.7379 11.227 23.9717 11.5164 23.9717C11.8057 23.9717 12.0399 23.7379 12.0399 23.4489V17.6989H13.7567L15.7313 23.6143C15.8044 23.8333 16.0083 23.9716 16.2277 23.9716C16.2824 23.9716 16.3381 23.963 16.3933 23.9446C16.6673 23.8537 16.8155 23.5576 16.7241 23.2835L14.8599 17.6989H20.9389C22.0937 17.6989 23.0328 16.7612 23.0328 15.608V1.49437C23.0327 1.20549 22.7986 0.97168 22.5093 0.97168ZM21.9858 15.608C21.9858 16.1843 21.516 16.6535 20.9389 16.6535H2.0939C1.51677 16.6535 1.04697 16.1843 1.04697 15.608V2.01712H21.9858V15.608Z" fill="#5DC8AC"/>
<path d="M3.6646 14.5622H6.80543C7.09478 14.5622 7.32891 14.3284 7.32891 14.0395V9.8577C7.32891 9.56877 7.09478 9.33496 6.80543 9.33496H3.6646C3.37525 9.33496 3.14111 9.56877 3.14111 9.8577V14.0395C3.14111 14.3284 3.37525 14.5622 3.6646 14.5622ZM4.18804 10.3804H6.28194V13.5168H4.18804V10.3804Z" fill="#5DC8AC"/>
<path d="M9.94585 14.5624H13.0867C13.376 14.5624 13.6102 14.3286 13.6102 14.0396V6.72147C13.6102 6.43254 13.376 6.19873 13.0867 6.19873H9.94585C9.6565 6.19873 9.42236 6.43254 9.42236 6.72147V14.0396C9.42236 14.3286 9.6565 14.5624 9.94585 14.5624ZM10.4693 7.24422H12.5632V13.5169H10.4693V7.24422Z" fill="#5DC8AC"/>
<path d="M16.2276 14.5625H19.3684C19.6578 14.5625 19.8919 14.3287 19.8919 14.0397V4.63065C19.8919 4.34172 19.6578 4.10791 19.3684 4.10791H16.2276C15.9382 4.10796 15.7041 4.34176 15.7041 4.6307V14.0398C15.7041 14.3287 15.9382 14.5625 16.2276 14.5625ZM16.751 5.1534H18.8449V13.517H16.751V5.1534Z" fill="#5DC8AC"/>
</svg>
