<svg width="24" height="26" viewBox="0 0 24 26" fill="none" xmlns="http://www.w3.org/2000/svg">
<path d="M22.015 8.65961C21.6708 4.36387 18.0322 0.972656 13.6089 0.972656H10.3168C5.89355 0.972656 2.25498 4.36387 1.91079 8.65961C0.81748 8.91306 0 9.89311 0 11.0608V15.1011C0 16.2694 0.81831 17.2498 1.91245 17.5027C2.23872 21.3706 5.37324 24.4601 9.28472 24.7576C9.54048 25.4456 10.2043 25.9371 10.9811 25.9371H12.7227C13.7201 25.9371 14.5316 25.1268 14.5316 24.1308V23.9689C14.5316 22.9729 13.7201 22.1626 12.7227 22.1626H10.9811C10.2237 22.1626 9.57393 22.6301 9.30488 23.2911C6.18779 23.0101 3.69424 20.5628 3.38184 17.4884C3.87563 17.3608 4.30947 17.0836 4.63306 16.7089C5.98018 19.3691 8.75962 21.1995 11.9629 21.1995C15.1662 21.1995 17.9456 19.3691 19.2927 16.7089C19.7458 17.2336 20.4157 17.5667 21.1623 17.5667H21.4566C22.8181 17.5667 23.9258 16.4607 23.9258 15.1012V11.0608C23.9258 9.89311 23.1083 8.91306 22.015 8.65961ZM10.6371 23.9689C10.6371 23.7795 10.7914 23.6254 10.9811 23.6254H12.7227C12.9124 23.6254 13.0667 23.7795 13.0667 23.9689V24.1308C13.0667 24.3202 12.9124 24.4743 12.7227 24.4743H10.9811C10.7914 24.4743 10.6371 24.3202 10.6371 24.1308V23.9689ZM10.3168 2.43542H13.6089C17.2283 2.43542 20.2116 5.17868 20.5455 8.67312C20.051 8.80057 19.6166 9.07796 19.2927 9.45306C17.9456 6.79288 15.1662 4.96248 11.9629 4.96248C8.75962 4.96248 5.98018 6.79288 4.63306 9.45306C4.30913 9.07796 3.87471 8.80057 3.38022 8.67312C3.71426 5.17868 6.69751 2.43542 10.3168 2.43542ZM3.76777 15.1011C3.76777 15.6541 3.31724 16.1039 2.76348 16.1039H2.46914C1.91538 16.1039 1.46484 15.6541 1.46484 15.1011V11.0608C1.46484 10.5079 1.91538 10.058 2.46914 10.058H2.76348C3.31724 10.058 3.76777 10.5079 3.76777 11.0608V15.1011ZM11.9629 19.7367C8.25181 19.7367 5.23262 16.751 5.23262 13.0809C5.23262 9.41098 8.25181 6.42524 11.9629 6.42524C15.674 6.42524 18.6932 9.41098 18.6932 13.0809C18.6932 16.751 15.674 19.7367 11.9629 19.7367ZM22.4609 15.1011C22.4609 15.6541 22.0104 16.1039 21.4566 16.1039H21.1623C20.6085 16.1039 20.158 15.654 20.158 15.1011V11.0608C20.158 10.5079 20.6085 10.058 21.1623 10.058H21.4566C22.0104 10.058 22.4609 10.5079 22.4609 11.0608V15.1011Z" fill="#5DC8AC"/>
<path d="M9.43603 12.256C9.84053 12.256 10.1685 11.9286 10.1685 11.5247V10.8198C10.1685 10.4158 9.84053 10.0884 9.43603 10.0884C9.03154 10.0884 8.70361 10.4158 8.70361 10.8198V11.5247C8.70361 11.9286 9.03154 12.256 9.43603 12.256Z" fill="#5DC8AC"/>
<path d="M14.4897 10.0884C14.0853 10.0884 13.7573 10.4158 13.7573 10.8198V11.5247C13.7573 11.9286 14.0853 12.256 14.4897 12.256C14.8942 12.256 15.2222 11.9286 15.2222 11.5247V10.8198C15.2222 10.4158 14.8942 10.0884 14.4897 10.0884Z" fill="#5DC8AC"/>
<path d="M14.4896 13.6504C14.0852 13.6504 13.7572 13.9779 13.7572 14.3818C13.7572 14.7972 13.4129 15.1351 12.9897 15.1351H10.9359C10.5127 15.1351 10.1685 14.7971 10.1685 14.3818C10.1685 13.9779 9.84053 13.6504 9.43604 13.6504C9.03154 13.6504 8.70361 13.9779 8.70361 14.3818C8.70361 15.6038 9.70503 16.5978 10.9359 16.5978H12.9897C14.2207 16.5978 15.2221 15.6037 15.2221 14.3818C15.2221 13.9779 14.8941 13.6504 14.4896 13.6504Z" fill="#5DC8AC"/>
</svg>
