<svg xmlns="http://www.w3.org/2000/svg" viewBox="0 0 992.24 88.49"><defs><style>.cls-1{fill:#164194;}.cls-2{fill:#ffed00;}.cls-3,.cls-4{font-size:17.16px;}.cls-3,.cls-4,.cls-7{fill:#1d1d1b;}.cls-3{font-family:Verdana-Bold, Verdana;font-weight:700;}.cls-4{font-family:Verdana;}.cls-5{letter-spacing:-0.02em;}.cls-6{letter-spacing:0em;}.cls-8{fill:#a2192d;}.cls-9{fill:#fff;}.cls-10{fill:#313c55;}.cls-11{fill:#313130;}</style></defs><g id="Слой_2" data-name="Слой 2"><g id="Layer_1" data-name="Layer 1"><rect class="cls-1" x="649.23" y="0.3" width="126.9" height="84.6"/><polygon class="cls-2" points="709.97 18.74 712.65 16.78 715.32 18.74 714.3 15.57 717.02 13.62 713.67 13.62 712.65 10.42 711.62 13.63 708.27 13.62 710.99 15.57 709.97 18.74"/><polygon class="cls-2" points="696.11 22.46 698.79 20.5 701.47 22.46 700.45 19.3 703.17 17.34 699.81 17.34 698.79 14.14 697.76 17.34 694.41 17.34 697.13 19.3 696.11 22.46"/><polygon class="cls-2" points="688.65 24.3 687.62 27.51 684.27 27.5 686.99 29.46 685.97 32.62 688.65 30.66 691.33 32.62 690.31 29.46 693.03 27.5 689.67 27.5 688.65 24.3"/><polygon class="cls-2" points="684.93 44.5 687.61 46.45 686.59 43.29 689.31 41.34 685.96 41.34 684.93 38.14 683.91 41.35 680.55 41.34 683.27 43.29 682.25 46.45 684.93 44.5"/><polygon class="cls-2" points="689.67 55.22 688.65 52.02 687.62 55.23 684.27 55.22 686.99 57.18 685.97 60.34 688.65 58.38 691.33 60.34 690.31 57.18 693.03 55.22 689.67 55.22"/><polygon class="cls-2" points="699.83 65.39 698.81 62.19 697.79 65.39 694.43 65.39 697.15 67.34 696.14 70.5 698.81 68.54 701.49 70.5 700.47 67.34 703.19 65.39 699.83 65.39"/><polygon class="cls-2" points="713.67 69.06 712.65 65.86 711.62 69.06 708.27 69.06 710.99 71.02 709.97 74.18 712.65 72.22 715.33 74.18 714.31 71.02 717.02 69.06 713.67 69.06"/><polygon class="cls-2" points="727.51 65.39 726.49 62.19 725.46 65.39 722.12 65.39 724.83 67.34 723.82 70.5 726.49 68.54 729.17 70.5 728.15 67.34 730.87 65.39 727.51 65.39"/><polygon class="cls-2" points="737.67 55.22 736.65 52.02 735.62 55.23 732.27 55.22 734.99 57.18 733.97 60.34 736.65 58.38 739.33 60.34 738.31 57.18 741.03 55.22 737.67 55.22"/><polygon class="cls-2" points="744.71 41.3 741.36 41.3 740.33 38.1 739.3 41.31 735.95 41.3 738.67 43.26 737.65 46.42 740.33 44.46 743.01 46.42 741.98 43.26 744.71 41.3"/><polygon class="cls-2" points="733.97 32.57 736.65 30.62 739.33 32.57 738.31 29.42 741.03 27.46 737.67 27.46 736.65 24.27 735.62 27.47 732.27 27.46 734.99 29.42 733.97 32.57"/><polygon class="cls-2" points="726.53 14.15 725.5 17.35 722.15 17.34 724.87 19.3 723.85 22.46 726.53 20.5 729.21 22.46 728.19 19.3 730.91 17.34 727.55 17.34 726.53 14.15"/><text class="cls-3" transform="translate(789.12 25.03)">EIROPAS SAVIENĪBA</text><text class="cls-4" transform="translate(789.13 54.57)">Eiropas <tspan class="cls-5" x="69.29" y="0">R</tspan><tspan class="cls-6" x="80.8" y="0">eģionālās</tspan><tspan x="0" y="20.6">attīstības fonds</tspan></text><rect class="cls-7" x="619.32" y="0.3" width="0.69" height="84.6"/><rect class="cls-7" x="275.33" y="0.3" width="0.69" height="84.6"/><polygon class="cls-8" points="581.89 41 579.44 39.67 580.55 31.1 576.44 21.33 560.48 16.62 549.91 15.9 539.49 4.79 530.63 0 517.22 5.16 509.07 9.48 509.6 13.07 511.28 32.66 503.1 37.97 495.09 35.31 492.22 26.16 486.92 23.2 484.98 19.17 480.82 10.88 463.02 16.92 454.38 38.18 448.95 41.93 445.74 69.44 451.26 73.16 460.77 62.27 473.79 61.07 500.22 63.96 513.84 65.94 523.06 60.45 526.42 68.26 535.97 70.97 544.5 77.08 550.84 84.6 557.57 84.59 567.55 80.74 576.91 80.74 584.02 70.27 589.36 65.17 581.89 41"/><path class="cls-9" d="M579.77,31.21l-1.08,8.36-.06.51.45.25,2.17,1.19.7,2.23a16.94,16.94,0,0,1-9.43,2.68c-4.21.07-8.48-1.53-12.57-3.07a59.3,59.3,0,0,0-7.65-2.49c-6.69-1.49-13.8,1-20.06,3.17l-1.73.6c-3,1-6,2.33-8.86,3.57a76.56,76.56,0,0,1-13.79,5c-7.45,1.68-15.07,1.66-24.71-.06-1.22-.21-2.48-.48-3.69-.75a46,46,0,0,0-8.24-1.27,48.59,48.59,0,0,0-12.37,1,52,52,0,0,0-10.77,3.82l.78-6.68c7.15-4.53,17.18-5.47,23.67-4.87a46.37,46.37,0,0,1,8.59,2c3.43,1,7,2.06,10.54,2.07h.11a28.07,28.07,0,0,0,17.85-6.16,69.53,69.53,0,0,1,17.75-11.09,42.64,42.64,0,0,1,10.81-2.87,33.26,33.26,0,0,1,8.38.44c.49.07,1,.14,1.46.19,5.5.71,11.33.85,16.72-2.9.81-.56,1.6-1.15,2.36-1.74a34.75,34.75,0,0,1,5.15-3.4L575.88,22Z"/><path class="cls-8" d="M449.67,42.37l5.14-3.56.18-.14.09-.21,8.51-20.93,16.85-5.72,3.85,7.69,1.94,4,.11.22.21.11,5,2.81,2.78,8.87.12.37.37.12,8,2.66.35.12.31-.21,8.18-5.3.39-.25,0-.45L510.36,13v0L509.9,9.9l7.63-4.05,13.05-5L539,5.4l10.33,11,.2.22.31,0,10.49.72,11.2,3.3a38,38,0,0,0-4.75,3.21c-.76.58-1.55,1.17-2.35,1.73-5.24,3.64-11,3.51-16.36,2.81l-1.46-.19a33.75,33.75,0,0,0-8.51-.44,42.85,42.85,0,0,0-10.94,2.91,69.35,69.35,0,0,0-17.89,11.16,27.67,27.67,0,0,1-17.63,6c-3.49,0-7-1-10.39-2a47,47,0,0,0-8.69-2c-6.47-.59-16.42.32-23.65,4.73Z"/><path class="cls-8" d="M583.49,69.72l-.06.06,0,.06L576.51,80h-9.1l-.13,0-9.85,3.8H551.2l-6.12-7.25-.06-.07-.08-.06-8.53-6.11-.11-.08-.12,0L527,67.63l-3.21-7.47-.34-.8-.75.45-9,5.34-13.35-1.94h0l-26.44-2.9h-.15l-13,1.2-.31,0-.2.23-9.07,10.39-4.58-3.09L448,56.53A51.72,51.72,0,0,1,459,52.62a48.07,48.07,0,0,1,12.25-1,47.16,47.16,0,0,1,8.14,1.26c1.22.27,2.48.54,3.7.76,9.72,1.73,17.41,1.74,24.92.06a77.9,77.9,0,0,0,13.89-5c2.84-1.23,5.79-2.52,8.81-3.56l1.73-.6c6.21-2.16,13.24-4.61,19.79-3.15a58.4,58.4,0,0,1,7.59,2.48c4.13,1.56,8.41,3.17,12.75,3.1,1.83,0,6.29-.36,9.57-2.68L588.49,65Z"/><path class="cls-8" d="M317.13,27.29H315l-6.13-11.57V27.29h-1.61V14.36h2.67l5.59,10.56V14.36h1.61Z"/><path class="cls-8" d="M330.77,27.29h-1.84l-1.26-3.61h-5.6l-1.27,3.61h-1.74l4.71-12.93h2.29Zm-3.63-5.08-2.27-6.35-2.28,6.35Z"/><path class="cls-8" d="M342.72,26.35l-.87.39a7.44,7.44,0,0,1-1,.39c-.35.1-.73.2-1.15.28a8.18,8.18,0,0,1-1.37.11,8,8,0,0,1-2.56-.39,5.26,5.26,0,0,1-2-1.24,5.68,5.68,0,0,1-1.3-2.1,8.57,8.57,0,0,1-.47-2.95,8.46,8.46,0,0,1,.45-2.86,5.76,5.76,0,0,1,1.31-2.13,5.37,5.37,0,0,1,2-1.28,7.15,7.15,0,0,1,2.59-.45,9.17,9.17,0,0,1,2.08.25,11.59,11.59,0,0,1,2.31.89v2h-.13a7.73,7.73,0,0,0-2.12-1.3,6.2,6.2,0,0,0-2.25-.41,4.94,4.94,0,0,0-1.77.31,4.08,4.08,0,0,0-1.4,1,4.72,4.72,0,0,0-.94,1.65,7.29,7.29,0,0,0-.33,2.3,6.57,6.57,0,0,0,.37,2.34,4.68,4.68,0,0,0,1,1.6,3.74,3.74,0,0,0,1.42.95,4.9,4.9,0,0,0,1.72.31,6.17,6.17,0,0,0,2.32-.43,6.68,6.68,0,0,0,2-1.27h.12Z"/><path class="cls-8" d="M349.71,27.29H344.6V26h1.7V15.68h-1.7V14.36h5.11v1.32H348V26h1.69Z"/><path class="cls-8" d="M362.28,15.84A5.84,5.84,0,0,1,363.49,18a9,9,0,0,1,.42,2.85,8.79,8.79,0,0,1-.43,2.87,6.1,6.1,0,0,1-1.2,2.11,5.3,5.3,0,0,1-1.89,1.32,6.7,6.7,0,0,1-2.49.44,6.56,6.56,0,0,1-2.48-.45,5.18,5.18,0,0,1-1.9-1.31,5.93,5.93,0,0,1-1.2-2.12,8.92,8.92,0,0,1-.42-2.86,8.91,8.91,0,0,1,.42-2.83,6,6,0,0,1,1.21-2.15,4.92,4.92,0,0,1,1.9-1.3,7.09,7.09,0,0,1,5,0A5.33,5.33,0,0,1,362.28,15.84Zm-.16,5A6,6,0,0,0,361,16.94a4.17,4.17,0,0,0-6.18,0,6,6,0,0,0-1.12,3.88,5.87,5.87,0,0,0,1.14,3.9,4.18,4.18,0,0,0,6.15,0A5.87,5.87,0,0,0,362.12,20.82Z"/><path class="cls-8" d="M376.5,27.29h-2.12l-6.14-11.57V27.29h-1.6V14.36h2.66l5.6,10.56V14.36h1.6Z"/><path class="cls-8" d="M390.14,27.29h-1.83L387,23.68h-5.59l-1.27,3.61h-1.75l4.71-12.93h2.29Zm-2.63-14.75h-6.44V11.2h6.44Zm-1,9.67-2.27-6.35L382,22.21Z"/><path class="cls-8" d="M400.28,27.29H392.1V14.36h1.72v11.4h6.46Z"/><path class="cls-8" d="M412.2,27.29h-1.83l-1.27-3.61h-5.59l-1.27,3.61h-1.75l4.71-12.93h2.29Zm-3.63-5.08-2.27-6.35L404,22.21Z"/><path class="cls-8" d="M418.72,27.29h-5.1V26h1.69V15.68h-1.69V14.36h5.1v1.32H417V26h1.69Z"/><path class="cls-8" d="M431.05,23.6a3.49,3.49,0,0,1-.35,1.49,3.66,3.66,0,0,1-1,1.25,5.24,5.24,0,0,1-1.62.87,7,7,0,0,1-2.23.31,10.7,10.7,0,0,1-2.51-.26,12.67,12.67,0,0,1-2.27-.77V24.34h.12a7,7,0,0,0,2.27,1.25,7.28,7.28,0,0,0,2.41.45,4.43,4.43,0,0,0,2.49-.6,1.85,1.85,0,0,0,.89-1.6,1.72,1.72,0,0,0-.42-1.27,2.89,2.89,0,0,0-1.28-.63,13.47,13.47,0,0,0-1.41-.29c-.51-.07-1-.17-1.62-.29A4.71,4.71,0,0,1,422,20.12a3.19,3.19,0,0,1-.83-2.3,3.18,3.18,0,0,1,1.37-2.66,5.6,5.6,0,0,1,3.48-1,11.42,11.42,0,0,1,2.5.26,11.72,11.72,0,0,1,2,.64v2h-.12a6.11,6.11,0,0,0-1.94-1,7.49,7.49,0,0,0-2.47-.41,3.89,3.89,0,0,0-2.22.57,1.72,1.72,0,0,0-.83,1.48,1.79,1.79,0,0,0,.41,1.26,2.8,2.8,0,0,0,1.47.71c.37.08.9.18,1.58.29s1.26.24,1.74.36a4.52,4.52,0,0,1,2.17,1.15A3,3,0,0,1,431.05,23.6Z"/><path class="cls-8" d="M319,48.63h-1.83L315.87,45h-5.59L309,48.63h-1.75L312,35.7h2.29Zm-3.63-5.08-2.27-6.35-2.27,6.35Z"/><path class="cls-8" d="M329.12,37.23H324.5v11.4h-1.72V37.23h-4.62V35.7h11Z"/><path class="cls-8" d="M339.47,37.23h-4.62v11.4h-1.72V37.23h-4.62V35.7h11Z"/><path class="cls-8" d="M346.13,33.89h-5.84V32.55h5.84Zm-.36,14.74h-5.11V47.32h1.69V37h-1.69V35.7h5.11V37h-1.7v10.3h1.7Z"/><path class="cls-8" d="M358.09,44.94a3.5,3.5,0,0,1-.35,1.5,3.44,3.44,0,0,1-1,1.25,5.46,5.46,0,0,1-1.62.87,6.91,6.91,0,0,1-2.22.31,11.35,11.35,0,0,1-2.52-.26,12.74,12.74,0,0,1-2.27-.78V45.68h.12a7,7,0,0,0,2.27,1.26,7.3,7.3,0,0,0,2.41.44,4.41,4.41,0,0,0,2.49-.6,1.84,1.84,0,0,0,.89-1.59,1.69,1.69,0,0,0-.42-1.27,3,3,0,0,0-1.28-.64c-.43-.11-.9-.2-1.41-.28s-1.05-.17-1.61-.29A4.71,4.71,0,0,1,349,41.46a3.39,3.39,0,0,1,.54-5,5.58,5.58,0,0,1,3.48-1,11.32,11.32,0,0,1,4.52.9v2h-.12a5.65,5.65,0,0,0-1.94-1A7.45,7.45,0,0,0,353,37a3.76,3.76,0,0,0-2.21.58A1.71,1.71,0,0,0,350,39a1.8,1.8,0,0,0,.42,1.27,2.8,2.8,0,0,0,1.46.71c.37.08.9.17,1.59.29s1.26.23,1.73.36a4.44,4.44,0,0,1,2.17,1.15A3,3,0,0,1,358.09,44.94Z"/><path class="cls-8" d="M370.08,37.23h-4.62v11.4h-1.72V37.23h-4.62V35.7h11Z"/><path class="cls-8" d="M376.74,33.89H370.9V32.55h5.84Zm-.36,14.74h-5.11V47.32H373V37h-1.69V35.7h5.11V37h-1.7v10.3h1.7Z"/><path class="cls-8" d="M389.06,44.66a3.7,3.7,0,0,1-.37,1.7,3.42,3.42,0,0,1-1,1.21,4.43,4.43,0,0,1-1.6.82,8.54,8.54,0,0,1-2.22.24H379.3V35.7h3.83a15.42,15.42,0,0,1,2.12.11,4.34,4.34,0,0,1,1.35.43,2.41,2.41,0,0,1,1,1,2.92,2.92,0,0,1,.32,1.4,2.54,2.54,0,0,1-.47,1.57,3.37,3.37,0,0,1-1.25,1v.07a3.54,3.54,0,0,1,2.07,1.15A3.33,3.33,0,0,1,389.06,44.66Zm-2.9-5.83A1.86,1.86,0,0,0,386,38a1.27,1.27,0,0,0-.51-.52,2.26,2.26,0,0,0-1-.29,14.33,14.33,0,0,0-1.44-.06H381v3.74h2.23a7.27,7.27,0,0,0,1.28-.09,2.31,2.31,0,0,0,.88-.34,1.38,1.38,0,0,0,.58-.67A2.49,2.49,0,0,0,386.16,38.83Zm1.11,5.9a2.68,2.68,0,0,0-.24-1.24,1.83,1.83,0,0,0-.85-.79,2.86,2.86,0,0,0-1-.28c-.4,0-.88-.06-1.45-.06H381v4.81h2.28a11.75,11.75,0,0,0,1.85-.12,2.94,2.94,0,0,0,1.18-.43,2.32,2.32,0,0,0,.71-.77A2.48,2.48,0,0,0,387.27,44.73Z"/><path class="cls-8" d="M401.69,48.63h-1.83L398.59,45H393l-1.27,3.6H390l4.7-12.93H397Zm-3.63-5.08-2.27-6.35-2.27,6.35Z"/><path class="cls-8" d="M413,44.94a3.36,3.36,0,0,1-.35,1.5,3.52,3.52,0,0,1-1,1.25,5.46,5.46,0,0,1-1.62.87,7,7,0,0,1-2.23.31,11.26,11.26,0,0,1-2.51-.26,12.56,12.56,0,0,1-2.28-.78V45.68h.13a6.94,6.94,0,0,0,2.26,1.26,7.35,7.35,0,0,0,2.42.44,4.43,4.43,0,0,0,2.49-.6,1.84,1.84,0,0,0,.89-1.59,1.69,1.69,0,0,0-.42-1.27,3,3,0,0,0-1.29-.64c-.43-.11-.9-.2-1.41-.28s-1-.17-1.61-.29a4.75,4.75,0,0,1-2.55-1.25,3.39,3.39,0,0,1,.55-5,5.54,5.54,0,0,1,3.48-1,11.42,11.42,0,0,1,2.5.26,11.72,11.72,0,0,1,2,.64v2h-.13a5.65,5.65,0,0,0-1.94-1,7.4,7.4,0,0,0-2.46-.42,3.81,3.81,0,0,0-2.22.58,1.71,1.71,0,0,0-.84,1.47,1.8,1.8,0,0,0,.42,1.27,2.88,2.88,0,0,0,1.47.71c.37.08.9.17,1.58.29s1.26.23,1.73.36a4.43,4.43,0,0,1,2.18,1.15A3.06,3.06,0,0,1,413,44.94Z"/><path class="cls-8" d="M315.72,61a4.17,4.17,0,0,1-.3,1.59,3.78,3.78,0,0,1-.83,1.27,4.41,4.41,0,0,1-1.59,1,6.79,6.79,0,0,1-2.3.33H309V70h-1.72V57.05h3.51a8.68,8.68,0,0,1,2,.19,4.72,4.72,0,0,1,1.43.61,3.55,3.55,0,0,1,1.14,1.24A3.84,3.84,0,0,1,315.72,61Zm-1.79,0a2.58,2.58,0,0,0-.23-1.16A1.92,1.92,0,0,0,313,59a2.94,2.94,0,0,0-1-.39,6.2,6.2,0,0,0-1.34-.12H309v5.17h1.45a6.13,6.13,0,0,0,1.7-.19,2.38,2.38,0,0,0,1.06-.59,2.63,2.63,0,0,0,.58-.88A3,3,0,0,0,313.93,61Z"/><path class="cls-8" d="M326.17,70H318V57.05h1.72v11.4h6.46Z"/><path class="cls-8" d="M338.09,70h-1.83L335,66.38H329.4L328.13,70h-1.75l4.71-12.93h2.29Zm-2.63-14.75H329V53.9h6.45Zm-1,9.67-2.27-6.35-2.27,6.35Z"/><path class="cls-8" d="M349.92,70h-2.13l-6.13-11.57V70h-1.61V57.05h2.67l5.59,10.56V57.05h1.61Z"/><path class="cls-8" d="M362.75,66.29a3.35,3.35,0,0,1-.35,1.49,3.52,3.52,0,0,1-1,1.25,5.26,5.26,0,0,1-1.62.87,7,7,0,0,1-2.23.31,10.7,10.7,0,0,1-2.51-.26,12.5,12.5,0,0,1-2.28-.77V67h.13a7.32,7.32,0,0,0,2.26,1.26,7.58,7.58,0,0,0,2.42.44,4.45,4.45,0,0,0,2.49-.6,1.84,1.84,0,0,0,.88-1.6,1.68,1.68,0,0,0-.42-1.27,2.83,2.83,0,0,0-1.28-.63,12.49,12.49,0,0,0-1.41-.29c-.5-.07-1-.17-1.61-.28a4.78,4.78,0,0,1-2.55-1.25,3.4,3.4,0,0,1,.55-5,5.6,5.6,0,0,1,3.48-1,11.42,11.42,0,0,1,2.5.26,11.31,11.31,0,0,1,2,.65v2h-.12a5.82,5.82,0,0,0-1.94-1,7.65,7.65,0,0,0-2.46-.41,3.89,3.89,0,0,0-2.22.57,1.73,1.73,0,0,0-.84,1.48,1.82,1.82,0,0,0,.42,1.27,2.8,2.8,0,0,0,1.47.7c.37.08.89.18,1.58.29s1.26.24,1.73.36A4.52,4.52,0,0,1,362,64.13,3,3,0,0,1,362.75,66.29Z"/><path class="cls-8" d="M380.19,70h-8.76V68.16c.61-.51,1.22-1,1.83-1.56s1.18-1,1.71-1.55a17,17,0,0,0,2.28-2.57,3.72,3.72,0,0,0,.62-2.06,2,2,0,0,0-.67-1.57,2.75,2.75,0,0,0-1.85-.57,6.09,6.09,0,0,0-1.71.28,6.85,6.85,0,0,0-1.8.85h-.09V57.58A8.54,8.54,0,0,1,373.4,57a8.28,8.28,0,0,1,2-.25,4.66,4.66,0,0,1,3.12,1,3.24,3.24,0,0,1,1.13,2.6,4.75,4.75,0,0,1-.19,1.38,4.39,4.39,0,0,1-.55,1.21,8.32,8.32,0,0,1-.79,1.06c-.31.34-.68.73-1.11,1.15q-.93.92-1.92,1.77l-1.85,1.58h7Z"/><path class="cls-8" d="M391.48,63.51a9.33,9.33,0,0,1-1.09,5.11,4.33,4.33,0,0,1-6.79,0,9.52,9.52,0,0,1-1.07-5.07,9.38,9.38,0,0,1,1.09-5.1A3.77,3.77,0,0,1,387,56.79a3.71,3.71,0,0,1,3.39,1.67A9.43,9.43,0,0,1,391.48,63.51Zm-2.29,3.94a5.54,5.54,0,0,0,.41-1.65,18.85,18.85,0,0,0,.11-2.29,19.18,19.18,0,0,0-.11-2.29,5.23,5.23,0,0,0-.42-1.65,2.32,2.32,0,0,0-.82-1,2.87,2.87,0,0,0-2.71,0,2.39,2.39,0,0,0-.84,1,5.57,5.57,0,0,0-.41,1.68,22.58,22.58,0,0,0-.1,2.27c0,.9,0,1.66.09,2.27a5.27,5.27,0,0,0,.41,1.62,2.31,2.31,0,0,0,.81,1,2.44,2.44,0,0,0,1.4.36,2.55,2.55,0,0,0,1.35-.34A2.16,2.16,0,0,0,389.19,67.45Z"/><path class="cls-8" d="M402.8,70h-8.75V68.16c.61-.51,1.22-1,1.83-1.56s1.18-1,1.7-1.55a16.63,16.63,0,0,0,2.29-2.57,3.72,3.72,0,0,0,.62-2.06,2,2,0,0,0-.67-1.57,2.77,2.77,0,0,0-1.85-.57,6.22,6.22,0,0,0-1.72.28,6.8,6.8,0,0,0-1.79.85h-.09V57.58A8.54,8.54,0,0,1,396,57a8.22,8.22,0,0,1,2-.25,4.61,4.61,0,0,1,3.11,1,3.21,3.21,0,0,1,1.14,2.6,5.11,5.11,0,0,1-.19,1.38,4.7,4.7,0,0,1-.55,1.21,8.42,8.42,0,0,1-.8,1.06c-.3.34-.67.73-1.1,1.15q-.93.92-1.92,1.77l-1.85,1.58h6.95Z"/><path class="cls-8" d="M414.09,63.51A9.33,9.33,0,0,1,413,68.62a4.32,4.32,0,0,1-6.78,0,9.52,9.52,0,0,1-1.07-5.07,9.49,9.49,0,0,1,1.08-5.1,3.8,3.8,0,0,1,3.39-1.64,3.73,3.73,0,0,1,3.4,1.67A9.44,9.44,0,0,1,414.09,63.51Zm-2.28,3.94a5.86,5.86,0,0,0,.41-1.65,21.13,21.13,0,0,0,.11-2.29,21.54,21.54,0,0,0-.11-2.29,5.23,5.23,0,0,0-.42-1.65,2.27,2.27,0,0,0-.83-1,2.41,2.41,0,0,0-1.35-.34,2.46,2.46,0,0,0-1.35.34,2.26,2.26,0,0,0-.84,1,5.29,5.29,0,0,0-.41,1.68,22.42,22.42,0,0,0-.11,2.27,20.64,20.64,0,0,0,.1,2.27,5.27,5.27,0,0,0,.41,1.62,2.25,2.25,0,0,0,.81,1,2.41,2.41,0,0,0,1.39.36,2.56,2.56,0,0,0,1.36-.34A2.28,2.28,0,0,0,411.81,67.45Z"/><rect class="cls-10" y="0.35" width="84.48" height="84.48"/><path class="cls-11" d="M104.34,14.09a.36.36,0,0,1-.15.31.83.83,0,0,1-.45.11.66.66,0,0,1-.3-.07.86.86,0,0,1-.2-.22l-3.37-5.4H96.59V14a.53.53,0,0,1-.15.39.51.51,0,0,1-.4.16.54.54,0,0,1-.4-.16.53.53,0,0,1-.15-.39V.74a.56.56,0,0,1,.15-.41A.61.61,0,0,1,96,.19h3.5a4.92,4.92,0,0,1,2.36.55,4.06,4.06,0,0,1,1.64,1.54,4.34,4.34,0,0,1,.58,2.25,4.13,4.13,0,0,1-.83,2.6A4.2,4.2,0,0,1,101,8.62l3.16,5.05A1,1,0,0,1,104.34,14.09Zm-4.8-6.37a3.91,3.91,0,0,0,1.8-.4A3.08,3.08,0,0,0,103,4.53a3.2,3.2,0,0,0-.45-1.68,3.17,3.17,0,0,0-1.23-1.15,3.79,3.79,0,0,0-1.8-.41h-3V7.72Z"/><path class="cls-11" d="M116.31.32a.52.52,0,0,1,.14.36.48.48,0,0,1-.5.5h-4.64V14a.53.53,0,0,1-.15.39.54.54,0,0,1-.4.16.55.55,0,0,1-.55-.55V1.18h-4.64a.51.51,0,0,1-.36-.14.48.48,0,0,1-.13-.36.52.52,0,0,1,.13-.36.5.5,0,0,1,.36-.13H116A.48.48,0,0,1,116.31.32Z"/><path class="cls-11" d="M121.2,14.17a4.7,4.7,0,0,1-2.65-4.34V.74a.57.57,0,0,1,.16-.41.64.64,0,0,1,.8,0,.55.55,0,0,1,.14.41V9.83a3.67,3.67,0,0,0,.56,2,3.87,3.87,0,0,0,1.56,1.38,5.57,5.57,0,0,0,4.57,0,3.9,3.9,0,0,0,1.57-1.38,3.59,3.59,0,0,0,.56-2V.74a.57.57,0,0,1,.16-.41.59.59,0,0,1,.4-.14.57.57,0,0,1,.4.14.56.56,0,0,1,.15.41V9.83a4.76,4.76,0,0,1-.71,2.58,4.85,4.85,0,0,1-2,1.76,6.78,6.78,0,0,1-5.71,0Z"/><path class="cls-11" d="M96.64,37.63A4,4,0,0,1,95,36.48a.53.53,0,0,1-.13-.33.54.54,0,0,1,.55-.51.54.54,0,0,1,.43.2,3.61,3.61,0,0,0,3,1.12,3.5,3.5,0,0,0,2.13-.52,1.57,1.57,0,0,0,.69-1.32c0-1-.93-1.58-2.8-1.85a5.6,5.6,0,0,1-2.69-1,2.12,2.12,0,0,1-.91-1.72,2.45,2.45,0,0,1,1-2.08,4.12,4.12,0,0,1,2.56-.75,4,4,0,0,1,3.5,1.65.44.44,0,0,1,.11.31.47.47,0,0,1-.29.43.76.76,0,0,1-.27.07.55.55,0,0,1-.46-.24,3.16,3.16,0,0,0-2.62-1.19,2.89,2.89,0,0,0-1.78.49,1.44,1.44,0,0,0-.66,1.2,1.35,1.35,0,0,0,.63,1.17A5.33,5.33,0,0,0,99,32.3a5.28,5.28,0,0,1,2.79,1,2.37,2.37,0,0,1,.86,1.84,2.21,2.21,0,0,1-.54,1.48,3.57,3.57,0,0,1-1.44,1,5.27,5.27,0,0,1-2,.35A5.87,5.87,0,0,1,96.64,37.63Z"/><path class="cls-11" d="M110,36.93a.56.56,0,0,1,.15.41.57.57,0,0,1-.15.4.58.58,0,0,1-.42.15h-.42a3.43,3.43,0,0,1-1.79-.46,3.15,3.15,0,0,1-1.23-1.25,3.62,3.62,0,0,1-.44-1.81V29.22h-1.43a.48.48,0,0,1-.5-.5.48.48,0,0,1,.14-.35.45.45,0,0,1,.36-.14h1.43v-3a.56.56,0,0,1,.15-.41.54.54,0,0,1,.4-.16.53.53,0,0,1,.41.16.57.57,0,0,1,.16.41v3h2.42a.48.48,0,0,1,.49.49.45.45,0,0,1-.14.36.48.48,0,0,1-.35.14h-2.42v5.15a2.34,2.34,0,0,0,.66,1.73,2.26,2.26,0,0,0,1.7.67h.4A.59.59,0,0,1,110,36.93Z"/><path class="cls-11" d="M121.34,28a.54.54,0,0,1,.15.4v8.93a.57.57,0,0,1-.15.4.54.54,0,0,1-.4.15.52.52,0,0,1-.55-.55v-1A4.4,4.4,0,0,1,116.9,38a5,5,0,0,1-2.39-.55,4,4,0,0,1-1.65-1.6,5.05,5.05,0,0,1-.6-2.52V28.41a.53.53,0,0,1,.16-.39.51.51,0,0,1,.39-.16.52.52,0,0,1,.4.16.53.53,0,0,1,.16.39v4.94a3.42,3.42,0,0,0,1,2.65,3.54,3.54,0,0,0,2.55.92,4.1,4.1,0,0,0,1.77-.37,3.11,3.11,0,0,0,1.26-1,2.54,2.54,0,0,0,.46-1.48V28.41a.54.54,0,0,1,.15-.4.57.57,0,0,1,.4-.15A.54.54,0,0,1,121.34,28Z"/><path class="cls-11" d="M134.31,23.72a.57.57,0,0,1,.14.4V33a5.12,5.12,0,0,1-.69,2.57,4.84,4.84,0,0,1-1.85,1.8,5.09,5.09,0,0,1-2.57.65,5.2,5.2,0,0,1-2.63-.67,4.85,4.85,0,0,1-1.84-1.84,5.44,5.44,0,0,1,0-5.23,4.92,4.92,0,0,1,1.84-1.84,5.3,5.3,0,0,1,2.63-.67,5,5,0,0,1,2.35.56,4.16,4.16,0,0,1,1.66,1.53V24.12a.54.54,0,0,1,.16-.4.53.53,0,0,1,.39-.15A.56.56,0,0,1,134.31,23.72Zm-2.92,12.72A4,4,0,0,0,132.83,35a4.46,4.46,0,0,0,0-4.18,3.84,3.84,0,0,0-1.44-1.47,4.25,4.25,0,0,0-4.11,0,3.93,3.93,0,0,0-1.45,1.47,4.39,4.39,0,0,0,0,4.18,4.11,4.11,0,0,0,1.45,1.48,4.18,4.18,0,0,0,4.11,0Z"/><path class="cls-11" d="M144.27,28.4a4.39,4.39,0,0,1,1.64,1.75,5.33,5.33,0,0,1,.59,2.55.49.49,0,0,1-.15.38.52.52,0,0,1-.38.14h-7.68a4,4,0,0,0,.56,1.93,3.74,3.74,0,0,0,1.38,1.33,3.89,3.89,0,0,0,1.93.48,4.37,4.37,0,0,0,1.44-.25,3,3,0,0,0,1.14-.65.6.6,0,0,1,.39-.15.52.52,0,0,1,.33.11.46.46,0,0,1,0,.74,4.85,4.85,0,0,1-1.53.88,5.24,5.24,0,0,1-1.8.34,5,5,0,0,1-2.58-.65,4.67,4.67,0,0,1-1.77-1.81,5.33,5.33,0,0,1-.64-2.63,5.81,5.81,0,0,1,.59-2.65,4.52,4.52,0,0,1,1.67-1.82,4.67,4.67,0,0,1,2.45-.65A4.56,4.56,0,0,1,144.27,28.4Zm-4.8,1.35a4.05,4.05,0,0,0-1.17,2.51h7.14a3.84,3.84,0,0,0-1.1-2.51,3.4,3.4,0,0,0-2.46-.95A3.34,3.34,0,0,0,139.47,29.75Z"/><path class="cls-11" d="M155.83,28.28a4.06,4.06,0,0,1,1.65,1.61,5.1,5.1,0,0,1,.59,2.52v4.93a.52.52,0,0,1-.55.55.53.53,0,0,1-.39-.15.54.54,0,0,1-.16-.4V32.41a3.48,3.48,0,0,0-1-2.66,3.6,3.6,0,0,0-2.56-.92,4.16,4.16,0,0,0-1.77.38,3,3,0,0,0-1.25,1.05,2.49,2.49,0,0,0-.46,1.47v5.61a.57.57,0,0,1-.15.4.54.54,0,0,1-.4.15.52.52,0,0,1-.55-.55V28.41A.54.54,0,0,1,149,28a.57.57,0,0,1,.4-.15.52.52,0,0,1,.55.55v1a4.14,4.14,0,0,1,1.52-1.2,4.44,4.44,0,0,1,2-.44A5.21,5.21,0,0,1,155.83,28.28Z"/><path class="cls-11" d="M166.09,36.93a.53.53,0,0,1,.16.41.54.54,0,0,1-.16.4.56.56,0,0,1-.41.15h-.42a3.5,3.5,0,0,1-1.8-.46,3.28,3.28,0,0,1-1.23-1.25,3.73,3.73,0,0,1-.44-1.81V29.22h-1.43a.48.48,0,0,1-.35-.14.45.45,0,0,1-.14-.36.48.48,0,0,1,.49-.49h1.43v-3a.57.57,0,0,1,.16-.41.51.51,0,0,1,.39-.16.55.55,0,0,1,.42.16.56.56,0,0,1,.15.41v3h2.42a.45.45,0,0,1,.36.14.48.48,0,0,1,.14.35.48.48,0,0,1-.5.5h-2.42v5.15a2.34,2.34,0,0,0,.66,1.73,2.28,2.28,0,0,0,1.71.67h.4A.57.57,0,0,1,166.09,36.93Z"/><path class="cls-11" d="M177.4,28a.54.54,0,0,1,.15.4v8.93a.57.57,0,0,1-.15.4.54.54,0,0,1-.4.15.52.52,0,0,1-.55-.55v-1a4.49,4.49,0,0,1-1.53,1.2,4.4,4.4,0,0,1-2,.43,5,5,0,0,1-2.39-.55,4,4,0,0,1-1.65-1.6,5.05,5.05,0,0,1-.6-2.52V28.41a.55.55,0,0,1,.55-.55.54.54,0,0,1,.4.16.53.53,0,0,1,.15.39v4.94a3.46,3.46,0,0,0,1,2.65,3.58,3.58,0,0,0,2.56.92,4.1,4.1,0,0,0,1.77-.37,3.18,3.18,0,0,0,1.26-1,2.62,2.62,0,0,0,.46-1.48V28.41a.54.54,0,0,1,.15-.4.57.57,0,0,1,.4-.15A.54.54,0,0,1,177.4,28Z"/><path class="cls-11" d="M95.6,48.89a.84.84,0,0,1-.24-.61.79.79,0,0,1,.25-.63,1,1,0,0,1,.61-.22.92.92,0,0,1,.6.22.82.82,0,0,1,.24.63.84.84,0,0,1-.86.86A.77.77,0,0,1,95.6,48.89Zm.23,12.23a.5.5,0,0,1-.16-.39V51.8a.53.53,0,0,1,.16-.41.56.56,0,0,1,.39-.14.57.57,0,0,1,.4.14.56.56,0,0,1,.15.41v8.93a.53.53,0,0,1-.15.39.51.51,0,0,1-.4.16A.5.5,0,0,1,95.83,61.12Z"/><path class="cls-11" d="M107.49,51.67a4,4,0,0,1,1.65,1.6,5,5,0,0,1,.59,2.52v4.94a.53.53,0,0,1-.15.39.54.54,0,0,1-.4.16.51.51,0,0,1-.39-.16.53.53,0,0,1-.16-.39V55.79a3.42,3.42,0,0,0-1-2.65,3.54,3.54,0,0,0-2.55-.92,4.1,4.1,0,0,0-1.77.37,3,3,0,0,0-1.26,1,2.54,2.54,0,0,0-.46,1.48v5.61a.53.53,0,0,1-.15.39.49.49,0,0,1-.4.16.55.55,0,0,1-.55-.55V51.8a.53.53,0,0,1,.16-.41.56.56,0,0,1,.39-.14.5.5,0,0,1,.55.55v1a4.4,4.4,0,0,1,3.49-1.63A5,5,0,0,1,107.49,51.67Z"/><path class="cls-11" d="M114.89,60.72A4.88,4.88,0,0,1,113,58.88a5.44,5.44,0,0,1,0-5.23,4.81,4.81,0,0,1,1.85-1.84,5.42,5.42,0,0,1,5.22,0A4.81,4.81,0,0,1,122,53.65a5.44,5.44,0,0,1,0,5.23,4.88,4.88,0,0,1-1.85,1.84,5.42,5.42,0,0,1-5.22,0Zm4.67-.89A3.84,3.84,0,0,0,121,58.36a4.39,4.39,0,0,0,0-4.18,3.91,3.91,0,0,0-1.44-1.47A4,4,0,0,0,114,54.18a4.39,4.39,0,0,0,0,4.18,3.79,3.79,0,0,0,1.45,1.47,4.23,4.23,0,0,0,4.1,0Z"/><path class="cls-11" d="M133.28,51.74a.35.35,0,0,1,0,.2l-4.12,9a.62.62,0,0,1-.59.39.54.54,0,0,1-.3-.1.7.7,0,0,1-.21-.29L123.84,52a.37.37,0,0,1,0-.2.5.5,0,0,1,.31-.48.59.59,0,0,1,.22-.05.48.48,0,0,1,.46.31l3.76,8.14,3.7-8.16a.5.5,0,0,1,.48-.31.5.5,0,0,1,.24.06A.47.47,0,0,1,133.28,51.74Z"/><path class="cls-11" d="M142,51.81a4.78,4.78,0,0,1,1.84,1.84,5.16,5.16,0,0,1,.67,2.62v4.46a.53.53,0,0,1-.15.39.49.49,0,0,1-.4.16.55.55,0,0,1-.55-.55V59.3a4.23,4.23,0,0,1-1.66,1.53,5,5,0,0,1-2.36.56,5.16,5.16,0,0,1-2.62-.67,4.92,4.92,0,0,1-1.84-1.84,5.44,5.44,0,0,1,0-5.23,4.85,4.85,0,0,1,1.84-1.84,5.44,5.44,0,0,1,5.23,0Zm-.55,8a3.84,3.84,0,0,0,1.44-1.47,4.46,4.46,0,0,0,0-4.18,4.06,4.06,0,0,0-5.55-1.47,4,4,0,0,0-1.45,1.47,4.39,4.39,0,0,0,0,4.18,3.93,3.93,0,0,0,1.45,1.47,4.25,4.25,0,0,0,4.11,0ZM136.57,49a.53.53,0,0,1-.15-.39.59.59,0,0,1,.15-.41A.54.54,0,0,1,137,48h4.86a.51.51,0,0,1,.39.16.6.6,0,0,1,.16.41.53.53,0,0,1-.16.39.55.55,0,0,1-.39.16H137A.58.58,0,0,1,136.57,49Z"/><path class="cls-11" d="M149.23,60.72a4.84,4.84,0,0,1-1.78-1.84,5.25,5.25,0,0,1-.66-2.61,5.64,5.64,0,0,1,.61-2.61,4.62,4.62,0,0,1,1.69-1.84,4.53,4.53,0,0,1,2.42-.66,5,5,0,0,1,2.14.45A4.78,4.78,0,0,1,155.34,53a.56.56,0,0,1,.13.31.47.47,0,0,1-.26.41.44.44,0,0,1-.29.11.52.52,0,0,1-.42-.22,3.75,3.75,0,0,0-3-1.4,3.44,3.44,0,0,0-3.17,2,4.84,4.84,0,0,0-.45,2.11,4.39,4.39,0,0,0,.5,2.09,3.74,3.74,0,0,0,1.37,1.47,3.88,3.88,0,0,0,2,.53,3.66,3.66,0,0,0,2.59-.9.52.52,0,0,1,.38-.16.42.42,0,0,1,.33.13.5.5,0,0,1,.19.4.43.43,0,0,1-.15.33,4.75,4.75,0,0,1-1.5.91,5.35,5.35,0,0,1-1.84.32A4.91,4.91,0,0,1,149.23,60.72Z"/><path class="cls-11" d="M158.59,48.89a.84.84,0,0,1-.24-.61.79.79,0,0,1,.25-.63,1,1,0,0,1,.61-.22.88.88,0,0,1,.59.22.79.79,0,0,1,.25.63.85.85,0,0,1-.86.86A.77.77,0,0,1,158.59,48.89Zm.22,12.23a.53.53,0,0,1-.15-.39V51.8a.56.56,0,0,1,.15-.41.61.61,0,0,1,.4-.14.57.57,0,0,1,.4.14.56.56,0,0,1,.15.41v8.93a.53.53,0,0,1-.15.39.51.51,0,0,1-.4.16A.54.54,0,0,1,158.81,61.12Z"/><path class="cls-11" d="M160.35,65.41a.53.53,0,0,1-.15-.39.55.55,0,0,1,.57-.57,3,3,0,0,0,3.15-3.15V51.8a.53.53,0,0,1,.16-.41.62.62,0,0,1,.8,0,.54.54,0,0,1,.16.4v9.5a4.36,4.36,0,0,1-.55,2.2A4,4,0,0,1,163,65a4.36,4.36,0,0,1-2.2.55A.57.57,0,0,1,160.35,65.41Zm3.5-16.52a.84.84,0,0,1-.24-.61.8.8,0,0,1,.26-.63.93.93,0,0,1,1.2,0,.83.83,0,0,1,.25.63.85.85,0,0,1-.25.61.83.83,0,0,1-.62.25A.79.79,0,0,1,163.85,48.89Z"/><path class="cls-11" d="M177.68,51.39a.6.6,0,0,1,.14.41v8.93a.56.56,0,0,1-.14.39.53.53,0,0,1-.41.16.55.55,0,0,1-.55-.55v-1A4.27,4.27,0,0,1,175.2,61a4.57,4.57,0,0,1-2,.43,5.21,5.21,0,0,1-2.4-.55,4.06,4.06,0,0,1-1.65-1.61,5.1,5.1,0,0,1-.59-2.52V51.8a.52.52,0,0,1,.55-.55.53.53,0,0,1,.39.15.54.54,0,0,1,.16.4v4.93a3.44,3.44,0,0,0,1,2.66,3.6,3.6,0,0,0,2.56.92,4.13,4.13,0,0,0,1.77-.38,3,3,0,0,0,1.25-1,2.49,2.49,0,0,0,.46-1.47V51.8a.53.53,0,0,1,.16-.41.56.56,0,0,1,.39-.14A.6.6,0,0,1,177.68,51.39Z"/><path class="cls-11" d="M102.54,75.18A4.68,4.68,0,0,1,104.35,77a5.26,5.26,0,0,1,.65,2.65v3.59a5.45,5.45,0,0,1-.66,2.67A4.87,4.87,0,0,1,100,88.49,5.65,5.65,0,0,1,97.42,88a5.14,5.14,0,0,1-1.82-1.47.61.61,0,0,1-.15-.37.41.41,0,0,1,.18-.35.58.58,0,0,1,.81.13,4.38,4.38,0,0,0,1.49,1.16,4.72,4.72,0,0,0,2,.42,3.79,3.79,0,0,0,3.43-2.07,4.52,4.52,0,0,0,.51-2.15v-.81a4,4,0,0,1-1.58,1.71,4.77,4.77,0,0,1-2.43.62,5.26,5.26,0,0,1-2.65-.65,4.68,4.68,0,0,1-1.83-1.81,5.29,5.29,0,0,1-.66-2.65A5.19,5.19,0,0,1,95.43,77a4.81,4.81,0,0,1,1.85-1.84,5.57,5.57,0,0,1,5.26,0Zm-.58,8a3.69,3.69,0,0,0,1.43-1.45,4.28,4.28,0,0,0,.51-2.11,4.36,4.36,0,0,0-.51-2.13A3.72,3.72,0,0,0,102,76.07a4.42,4.42,0,0,0-4.16,0,3.65,3.65,0,0,0-1.43,1.46,4.25,4.25,0,0,0-.52,2.13,4.18,4.18,0,0,0,.52,2.11,3.63,3.63,0,0,0,1.43,1.45,4.35,4.35,0,0,0,4.16,0Z"/><path class="cls-11" d="M113.4,75.13a.28.28,0,0,1,0,.14.46.46,0,0,1-.17.29.61.61,0,0,1-.32.08,2.53,2.53,0,0,1-.43,0l-.45,0a3.33,3.33,0,0,0-1.63.38A2.82,2.82,0,0,0,109.26,77a2.91,2.91,0,0,0-.41,1.52v5.57a.5.5,0,0,1-.55.55.53.53,0,0,1-.39-.15.58.58,0,0,1-.16-.4V75.18a.54.54,0,0,1,.16-.4.53.53,0,0,1,.39-.15.56.56,0,0,1,.41.15.53.53,0,0,1,.14.4v1.14A4,4,0,0,1,110.21,75a3.52,3.52,0,0,1,1.8-.48C112.94,74.52,113.4,74.72,113.4,75.13Z"/><path class="cls-11" d="M121.87,75.19A4.88,4.88,0,0,1,123.72,77a5.3,5.3,0,0,1,.67,2.63v4.45a.57.57,0,0,1-.15.4.54.54,0,0,1-.4.15.52.52,0,0,1-.55-.55V82.68a4.3,4.3,0,0,1-1.66,1.53,4.9,4.9,0,0,1-2.36.56,5.14,5.14,0,0,1-2.62-.67,4.88,4.88,0,0,1-1.85-1.84,5.21,5.21,0,0,1-.66-2.6A5.29,5.29,0,0,1,114.8,77a5,5,0,0,1,1.85-1.84,5.42,5.42,0,0,1,5.22,0Zm-.55,8a3.81,3.81,0,0,0,1.44-1.46,4.39,4.39,0,0,0,0-4.18,3.86,3.86,0,0,0-1.44-1.48,4.16,4.16,0,0,0-4.1,0,3.82,3.82,0,0,0-1.45,1.48,4.39,4.39,0,0,0,0,4.18,3.77,3.77,0,0,0,1.45,1.46,4.16,4.16,0,0,0,4.1,0Z"/><path class="cls-11" d="M134.11,75.05a3.88,3.88,0,0,1,1.65,1.61,5,5,0,0,1,.6,2.52v4.93a.54.54,0,0,1-.16.4.58.58,0,0,1-.78,0,.54.54,0,0,1-.16-.4V79.18a3.48,3.48,0,0,0-1-2.66,3.62,3.62,0,0,0-2.56-.92A4.1,4.1,0,0,0,130,76a3.16,3.16,0,0,0-1.26,1,2.61,2.61,0,0,0-.45,1.48v5.61a.57.57,0,0,1-.15.4.54.54,0,0,1-.4.15.52.52,0,0,1-.55-.55V75.18a.54.54,0,0,1,.15-.4.57.57,0,0,1,.4-.15.52.52,0,0,1,.55.55v1a4.27,4.27,0,0,1,1.52-1.21,4.57,4.57,0,0,1,2-.43A5.16,5.16,0,0,1,134.11,75.05Z"/><path class="cls-11" d="M144.42,83.7a.57.57,0,0,1,.16.41.58.58,0,0,1-.16.4.56.56,0,0,1-.41.15h-.42a3.44,3.44,0,0,1-1.8-.46A3.15,3.15,0,0,1,140.56,83a3.73,3.73,0,0,1-.44-1.81V76h-1.43a.48.48,0,0,1-.5-.5.48.48,0,0,1,.14-.35.45.45,0,0,1,.36-.14h1.43V72a.53.53,0,0,1,.16-.41.5.5,0,0,1,.39-.16.55.55,0,0,1,.57.57v3h2.42a.47.47,0,0,1,.36.14.48.48,0,0,1,.13.35.48.48,0,0,1-.13.36.51.51,0,0,1-.36.14h-2.42v5.15a2.34,2.34,0,0,0,.66,1.73,2.28,2.28,0,0,0,1.7.67H144A.57.57,0,0,1,144.42,83.7Z"/><path class="cls-11" d="M147.16,72.27a.82.82,0,0,1-.24-.61.76.76,0,0,1,.26-.62.87.87,0,0,1,.6-.22.84.84,0,0,1,.6.22.76.76,0,0,1,.25.62.79.79,0,0,1-.25.61.81.81,0,0,1-.61.25A.79.79,0,0,1,147.16,72.27Zm.23,12.24a.58.58,0,0,1-.16-.4V75.18a.57.57,0,0,1,1-.4.53.53,0,0,1,.14.4v8.93a.56.56,0,0,1-.14.4.61.61,0,0,1-.8,0Z"/><path class="cls-9" d="M42.24,33.53A8.74,8.74,0,1,0,51,42.27,8.73,8.73,0,0,0,42.24,33.53Zm1,14.4H41.27V37.07H43.2Z"/><path class="cls-9" d="M64.07,33.53a8.74,8.74,0,1,0,8.74,8.73A8.73,8.73,0,0,0,64.07,33.53Zm0,14.37a5.64,5.64,0,1,1,0-11.27,5.75,5.75,0,0,1,5.19,3.19l-1.9.32a3.91,3.91,0,0,0-3.29-1.8,3.85,3.85,0,0,0-3.79,3.91,3.89,3.89,0,0,0,3.87,3.9,3.85,3.85,0,0,0,3.78-2.95H63.67V41.75h6a5.38,5.38,0,0,1,.05.64A5.62,5.62,0,0,1,64.08,47.9Z"/><path class="cls-9" d="M20.41,33.53a8.74,8.74,0,1,0,8.73,8.74A8.74,8.74,0,0,0,20.41,33.53Zm.24,14.31c-2.1,0-4.16-1-4.32-3.31h1.93a2.17,2.17,0,0,0,2.39,1.74c1,0,2-.43,2-1.46s-1.15-1.48-2.51-1.9c-2.11-.66-3.62-1.39-3.62-3.29s1.62-3,3.88-3c2,0,3.8.86,4,3.15h-1.9a2,2,0,0,0-2.1-1.61c-.91,0-2,.39-2,1.41s1.13,1.39,2.36,1.77c2,.65,3.76,1.18,3.76,3.37S22.91,47.84,20.65,47.84Z"/></g></g></svg>