<svg width="47" height="46" viewBox="0 0 47 46" fill="none" xmlns="http://www.w3.org/2000/svg">
<path d="M15.2189 33.3468L19.2465 29.28C22.1018 31.7166 25.8026 33.1902 29.8415 33.1903C38.8536 33.1901 46.1856 25.8579 46.1857 16.8457C46.1857 7.83356 38.8537 0.50157 29.8415 0.50157C24.7634 0.50157 20.2189 2.82968 17.2188 6.47457L13.9494 3.20514H17.51V0.451172H9.24807L9.24798 8.71309H12.002L12.002 5.15248L15.6301 8.78065C12.3491 14.5392 12.8119 21.954 17.308 27.3235L13.2714 31.3993L10.9113 29.039L0.686523 39.2641L7.3638 45.9414L17.5885 35.7165L15.2189 33.3468ZM17.6649 10.8156L20.3389 13.4895C19.964 14.5533 19.7683 15.6845 19.7683 16.8458C19.7683 22.4002 24.2871 26.9189 29.8414 26.9189C35.4084 26.9189 39.9146 22.4136 39.9145 16.8458C39.9146 11.2791 35.4091 6.77282 29.8414 6.77282C26.5349 6.77282 23.5583 8.35645 21.6813 10.9373L19.1763 8.43218C21.6675 5.28127 25.5223 3.25554 29.8415 3.25554C37.3352 3.25554 43.4317 9.3521 43.4317 16.8457C43.4317 24.3395 37.3351 30.4361 29.8415 30.4363C22.3479 30.4361 16.2513 24.3395 16.2513 16.8457C16.2513 14.6812 16.7609 12.6336 17.6649 10.8156ZM37.0856 17.8959L31.9281 12.7386L27.7056 16.9615L23.6639 12.9198C26.1924 8.95911 31.7115 8.36544 35.0169 11.6706C36.7138 13.3674 37.4029 15.6716 37.0856 17.8959ZM27.7056 20.8564L31.9283 16.6334L36.0376 20.7426C34.7171 22.8332 32.4268 24.165 29.8415 24.165C25.8057 24.165 22.5224 20.8816 22.5224 16.8457C22.5224 16.4767 22.5497 16.112 22.603 15.7535L27.7056 20.8564ZM7.3638 42.0468L4.58119 39.2642L10.9114 32.9341L13.6939 35.7166L7.3638 42.0468Z" fill="white"/>
</svg>
