<svg width="47" height="47" viewBox="0 0 47 47" fill="none" xmlns="http://www.w3.org/2000/svg">
<path d="M32.3577 0.725586C24.8931 0.725586 18.7838 6.57085 18.326 13.9221H16.0064L13.6248 11.5405L12.3808 12.7846L13.5183 13.9221H9.9236C4.82971 13.9221 0.686035 18.0662 0.686035 23.1597C0.686035 28.2531 4.82971 32.3972 9.9236 32.3972H19.6767L22.0582 34.7788L23.3023 33.5347L22.1647 32.3972H38.9559C41.6236 32.3972 43.7947 34.5679 43.7947 37.236C43.7947 39.904 41.6236 42.0747 38.9559 42.0747H30.9624L28.5809 39.6931L27.3368 40.9372L28.4743 42.0747H14.7623V43.8342H28.4743L27.3368 44.9717L28.5809 46.2158L30.9624 43.8342H38.9559C42.5944 43.8342 45.5542 40.8745 45.5542 37.236C45.5542 33.5975 42.5944 30.6377 38.9559 30.6377H22.1647L23.3023 29.5002L22.0582 28.2561L19.6767 30.6377H9.9236C5.80055 30.6377 2.44557 27.2832 2.44557 23.1597C2.44557 19.0362 5.80055 15.6816 9.9236 15.6816H13.5183L12.3808 16.8192L13.6248 18.0632L16.0064 15.6816H18.326C18.7838 23.0329 24.8931 28.8782 32.3577 28.8782C40.1192 28.8782 46.434 22.5634 46.434 14.8019C46.434 7.04032 40.1192 0.725586 32.3577 0.725586ZM32.3577 27.1186C25.8631 27.1186 20.5397 22.0625 20.0855 15.6816H22.7248C23.1713 20.6065 27.3185 24.4793 32.3577 24.4793C37.6939 24.4793 42.0351 20.138 42.0351 14.8019C42.0351 9.4657 37.6939 5.12443 32.3577 5.12443C27.3185 5.12443 23.1713 8.99725 22.7248 13.9221H20.0855C20.5397 7.54121 25.8631 2.48512 32.3577 2.48512C39.1493 2.48512 44.6744 8.0103 44.6744 14.8019C44.6744 21.5934 39.1493 27.1186 32.3577 27.1186ZM30.3404 18.0632L32.9797 15.4239C33.3234 15.0802 33.3234 14.5235 32.9797 14.1799L30.3404 11.5405L29.0964 12.7846L30.2339 13.9221H24.4917C24.9311 9.96933 28.2892 6.88396 32.3577 6.88396C36.7239 6.88396 40.2756 10.4361 40.2756 14.8019C40.2756 19.1676 36.7239 22.7198 32.3577 22.7198C28.2892 22.7198 24.9311 19.6344 24.4917 15.6816H30.2339L29.0964 16.8192L30.3404 18.0632Z" fill="white"/>
</svg>
