<svg width="48" height="48" viewBox="0 0 48 48" fill="none" xmlns="http://www.w3.org/2000/svg">
<path d="M26.9143 47.3529H21.0859C19.7259 47.3529 18.1717 46.1873 18.1717 43.8559V39.776C18.1717 37.8331 17.2002 36.0846 15.646 34.7246C12.1489 32.0047 10.4004 28.1191 10.4004 23.8449C10.5947 16.4622 16.6174 10.6337 23.8058 10.4395C27.4972 10.4395 30.9942 11.7994 33.5199 14.3251C36.0456 16.8507 37.5998 20.3478 37.5998 24.0392C37.5998 28.1191 35.8513 32.0047 32.5485 34.5304C30.8 35.8903 29.8285 38.0274 29.8285 39.9702V44.4387C29.8285 45.993 28.4686 47.3529 26.9143 47.3529ZM24.0001 12.3823C17.7831 12.3823 12.5375 17.6279 12.3432 23.8449C12.3432 27.5362 13.8975 31.0333 16.8117 33.1704C18.9488 34.9189 20.1145 37.2503 20.1145 39.776V43.8559C20.1145 44.2444 20.1145 45.4101 21.0859 45.4101H26.9143C27.4972 45.4101 27.8857 45.0216 27.8857 44.4387V39.9702C27.8857 37.4446 29.2457 34.7246 31.3828 32.9761C34.1027 30.839 35.657 27.5362 35.657 24.0392C35.657 20.9307 34.4913 18.0164 32.1599 15.6851C30.0228 13.548 27.1086 12.3823 24.0001 12.3823Z" fill="white"/>
<path d="M28.8574 41.5244H19.1433C18.5604 41.5244 18.1719 41.1358 18.1719 40.5529C18.1719 39.9701 18.5604 39.5815 19.1433 39.5815H28.8574C29.4402 39.5815 29.8288 39.9701 29.8288 40.5529C29.8288 41.1358 29.4402 41.5244 28.8574 41.5244Z" fill="white"/>
<path d="M24.0002 6.55403C23.4174 6.55403 23.0288 6.16547 23.0288 5.58263V1.69699C23.0288 1.11415 23.4174 0.725586 24.0002 0.725586C24.5831 0.725586 24.9716 1.11415 24.9716 1.69699V5.58263C24.9716 6.16547 24.5831 6.55403 24.0002 6.55403Z" fill="white"/>
<path d="M37.0171 11.993C36.8228 11.993 36.4343 11.993 36.2401 11.7988C35.8516 11.4103 35.8516 10.8275 36.2401 10.439L38.9595 7.71959C39.348 7.3311 39.9308 7.3311 40.3193 7.71959C40.7078 8.10808 40.7078 8.69082 40.3193 9.07931L37.5998 11.7988C37.5998 11.7988 37.2113 11.993 37.0171 11.993Z" fill="white"/>
<path d="M46.3424 25.0107H42.4568C41.8739 25.0107 41.4854 24.6221 41.4854 24.0393C41.4854 23.4564 41.8739 23.0679 42.4568 23.0679H46.3424C46.9252 23.0679 47.3138 23.4564 47.3138 24.0393C47.3138 24.6221 46.9252 25.0107 46.3424 25.0107Z" fill="white"/>
<path d="M39.7365 40.7469C39.5423 40.7469 39.1538 40.7469 38.9595 40.5527L36.2401 37.8332C35.8516 37.4447 35.8516 36.862 36.2401 36.4735C36.6286 36.085 37.2113 36.085 37.5998 36.4735L40.3193 39.1929C40.7078 39.5814 40.7078 40.1642 40.3193 40.5527C40.3193 40.7469 40.125 40.7469 39.7365 40.7469Z" fill="white"/>
<path d="M8.26318 40.7469C8.06893 40.7469 7.68044 40.7469 7.48619 40.5527C7.0977 40.1642 7.0977 39.5814 7.48619 39.1929L10.2056 36.4735C10.5941 36.085 11.1769 36.085 11.5654 36.4735C11.9538 36.862 11.9538 37.4447 11.5654 37.8332L8.84591 40.5527C8.65167 40.7469 8.45742 40.7469 8.26318 40.7469Z" fill="white"/>
<path d="M5.54356 25.0107H1.65793C1.07509 25.0107 0.686523 24.6221 0.686523 24.0393C0.686523 23.4564 1.07509 23.0679 1.65793 23.0679H5.54356C6.12641 23.0679 6.51497 23.4564 6.51497 24.0393C6.51497 24.6221 6.12641 25.0107 5.54356 25.0107Z" fill="white"/>
<path d="M10.9826 11.9929C10.7884 11.9929 10.3999 11.9929 10.2056 11.7987L7.48619 8.88497C7.0977 8.49648 7.0977 7.91375 7.48619 7.52526C7.87468 7.13676 8.45742 7.13676 8.84591 7.52526L11.5654 10.2447C11.9538 10.6332 11.9538 11.2159 11.5654 11.6044C11.3711 11.7987 11.1769 11.9929 10.9826 11.9929Z" fill="white"/>
<path d="M31.7715 25.011C31.1886 25.011 30.8001 24.6224 30.8001 24.0395C30.8001 20.3482 27.6916 17.2397 24.0002 17.2397C23.4174 17.2397 23.0288 16.8511 23.0288 16.2683C23.0288 15.6854 23.4174 15.2969 24.0002 15.2969C28.8573 15.2969 32.7429 19.1825 32.7429 24.0395C32.7429 24.6224 32.3543 25.011 31.7715 25.011Z" fill="white"/>
</svg>
