<svg width="47" height="46" viewBox="0 0 47 46" fill="none" xmlns="http://www.w3.org/2000/svg">
<path d="M46.0534 8.79542L37.9682 0.711408C37.8016 0.544818 37.5757 0.451172 37.34 0.451172H10.9522C9.48244 0.451172 8.28672 1.64689 8.28672 3.11661V4.81041C3.92206 6.52251 0.823486 10.7766 0.823486 15.7411C0.823486 16.2317 1.22135 16.6296 1.71197 16.6296H12.5595C13.0501 16.6296 13.448 16.2317 13.448 15.7411V4.89357C13.448 4.40295 13.0501 4.00509 12.5595 4.00509C11.7032 4.00509 10.8684 4.09812 10.0637 4.27315V3.11661C10.0637 2.6267 10.4623 2.22813 10.9522 2.22813H36.4515V7.64786C36.4515 9.11759 37.6473 10.3133 39.117 10.3133H44.5367V43.2759C44.5367 43.7658 44.1381 44.1644 43.6482 44.1644H10.9522C10.4623 44.1644 10.0637 43.7658 10.0637 43.2759V35.6646C10.0637 35.174 9.66582 34.7761 9.1752 34.7761C8.68458 34.7761 8.28672 35.174 8.28672 35.6646V43.2759C8.28672 44.7456 9.48244 45.9414 10.9522 45.9414H43.6482C45.118 45.9414 46.3137 44.7456 46.3137 43.2759V9.42367C46.3137 9.18804 46.22 8.96201 46.0534 8.79542ZM11.6709 5.82141V14.8526H2.63972C3.0645 10.0683 6.88674 6.2462 11.6709 5.82141ZM39.117 8.53634C38.6271 8.53634 38.2285 8.13777 38.2285 7.64786V3.48444L43.2811 8.53634H39.117Z" fill="white"/>
<path d="M9.80289 31.8081C9.63775 31.6428 9.40857 31.5479 9.17494 31.5479C8.94131 31.5479 8.71213 31.6428 8.5469 31.8081C8.38167 31.9734 8.28662 32.2025 8.28662 32.4362C8.28662 32.6698 8.38158 32.899 8.5469 33.0641C8.71213 33.2294 8.94131 33.3245 9.17494 33.3245C9.40857 33.3245 9.63775 33.2294 9.80289 33.0641C9.96821 32.899 10.0633 32.6698 10.0633 32.4362C10.0633 32.2025 9.96821 31.9734 9.80289 31.8081Z" fill="white"/>
<path d="M15.7418 7.1875C15.2512 7.1875 14.8533 7.58536 14.8533 8.07598V18.035H4.89434C4.40372 18.035 4.00586 18.4328 4.00586 18.9234C4.00586 25.3947 9.27055 30.6595 15.7418 30.6595C22.213 30.6595 27.4778 25.3947 27.4778 18.9234C27.4778 12.4522 22.213 7.1875 15.7418 7.1875ZM16.6303 9.00382C18.7102 9.18845 20.6081 10.0156 22.1243 11.2845L16.6303 16.7785V9.00382ZM15.7418 28.8825C10.5498 28.8825 6.27291 24.8889 5.82218 19.8119H15.7418C15.987 19.8119 16.209 19.7126 16.3698 19.5519C16.3699 19.5519 16.37 19.5519 16.3701 19.5517L23.381 12.5409C24.8285 14.2705 25.7009 16.497 25.7009 18.9234C25.7009 24.4149 21.2332 28.8825 15.7418 28.8825Z" fill="white"/>
<path d="M39.7456 28.4922C38.2759 28.4922 37.0801 29.6879 37.0801 31.1576C37.0801 31.526 37.1553 31.877 37.291 32.1964L32.1722 37.3152C31.8204 37.1439 31.4256 37.0474 31.0087 37.0474C30.6017 37.0474 30.2159 37.1395 29.8706 37.3032L26.4714 33.9041C26.5892 33.6034 26.6546 33.2766 26.6546 32.9345C26.6546 31.4648 25.4589 30.2691 23.9892 30.2691C22.5194 30.2691 21.3237 31.4648 21.3237 32.9345C21.3237 33.3327 21.4121 33.7105 21.5694 34.0502L18.3091 37.3104C17.9618 37.1443 17.5732 37.0511 17.1632 37.0511C15.6935 37.0511 14.4978 38.2468 14.4978 39.7165C14.4978 41.1863 15.6935 42.382 17.1632 42.382C18.633 42.382 19.8287 41.1863 19.8287 39.7165C19.8287 39.3045 19.7347 38.9141 19.5671 38.5656L22.8092 35.3235C23.1652 35.5002 23.5657 35.5999 23.9894 35.5999C24.4678 35.5999 24.9167 35.4726 25.3053 35.251L28.6086 38.5543C28.4387 38.9048 28.3433 39.2979 28.3433 39.7129C28.3433 41.1826 29.539 42.3783 31.0087 42.3783C32.4784 42.3783 33.6741 41.1826 33.6741 39.7129C33.6741 39.3079 33.583 38.9239 33.4207 38.5799L38.4917 33.5089C38.8656 33.7092 39.2925 33.8231 39.7456 33.8231C41.2153 33.8231 42.411 32.6274 42.411 31.1576C42.411 29.6879 41.2153 28.4922 39.7456 28.4922ZM17.1632 40.6051C16.6732 40.6051 16.2747 40.2065 16.2747 39.7166C16.2747 39.2267 16.6732 38.8281 17.1632 38.8281C17.4017 38.8281 17.6181 38.9231 17.7778 39.0766C17.7814 39.0804 17.7845 39.0844 17.7881 39.088C17.7924 39.0923 17.797 39.0958 17.8014 39.0999C17.9559 39.2599 18.0516 39.4772 18.0516 39.7166C18.0516 40.2064 17.6531 40.6051 17.1632 40.6051ZM23.9892 33.823C23.4993 33.823 23.1007 33.4244 23.1007 32.9345C23.1007 32.4446 23.4993 32.046 23.9892 32.046C24.4791 32.046 24.8777 32.4446 24.8777 32.9345C24.8777 33.4244 24.4791 33.823 23.9892 33.823ZM31.0085 40.6014C30.5186 40.6014 30.12 40.2028 30.12 39.7129C30.12 39.223 30.5186 38.8244 31.0085 38.8244C31.4984 38.8244 31.897 39.223 31.897 39.7129C31.897 40.2028 31.4984 40.6014 31.0085 40.6014ZM39.7454 32.046C39.2555 32.046 38.8569 31.6474 38.8569 31.1575C38.8569 30.6676 39.2556 30.2691 39.7454 30.2691C40.2353 30.2691 40.6339 30.6676 40.6339 31.1575C40.6339 31.6474 40.2353 32.046 39.7454 32.046Z" fill="white"/>
<path d="M35.3046 21.3306H30.6153C30.1247 21.3306 29.7268 21.7284 29.7268 22.219C29.7268 22.7097 30.1246 23.1075 30.6153 23.1075H35.3046C35.7952 23.1075 36.1931 22.7097 36.1931 22.219C36.1931 21.7284 35.7952 21.3306 35.3046 21.3306Z" fill="white"/>
<path d="M39.9772 21.5908C39.8121 21.4256 39.5829 21.3306 39.3493 21.3306C39.1156 21.3306 38.8864 21.4255 38.7212 21.5908C38.556 21.7561 38.4609 21.9853 38.4609 22.2189C38.4609 22.4525 38.5559 22.6817 38.7212 22.8468C38.8864 23.0121 39.1147 23.1072 39.3493 23.1072C39.5829 23.1072 39.8121 23.0122 39.9772 22.8468C40.1424 22.6817 40.2376 22.4525 40.2376 22.2189C40.2376 21.9853 40.1425 21.7561 39.9772 21.5908Z" fill="white"/>
<path d="M41.4684 12.8013H30.6153C30.1247 12.8013 29.7268 13.1991 29.7268 13.6898C29.7268 14.1804 30.1246 14.5782 30.6153 14.5782H41.4684C41.959 14.5782 42.3569 14.1804 42.3569 13.6898C42.3569 13.1991 41.959 12.8013 41.4684 12.8013Z" fill="white"/>
<path d="M41.4684 17.0659H30.6153C30.1247 17.0659 29.7268 17.4638 29.7268 17.9544C29.7268 18.445 30.1246 18.8429 30.6153 18.8429H41.4684C41.959 18.8429 42.3569 18.445 42.3569 17.9544C42.3569 17.4638 41.959 17.0659 41.4684 17.0659Z" fill="white"/>
</svg>
