<svg width="201" height="231" viewBox="0 0 201 231" fill="none" xmlns="http://www.w3.org/2000/svg">
<rect x="0.963867" width="200" height="230.816" rx="12" fill="white"/>
<path d="M186.764 13.8975H15.4653V185.197H186.764V13.8975Z" fill="#FFCA37"/>
<path d="M15.7057 215.046C15.5848 214.925 15.5244 214.744 15.5244 214.563V198.007C15.5244 197.826 15.5848 197.644 15.7057 197.524C15.8265 197.403 16.0078 197.342 16.1891 197.342C16.3703 197.342 16.5516 197.403 16.6725 197.524C16.7933 197.644 16.8537 197.826 16.8537 198.007V214.563C16.8537 214.744 16.7933 214.925 16.6725 215.046C16.5516 215.167 16.3703 215.227 16.1891 215.227C16.0078 215.227 15.8265 215.167 15.7057 215.046Z" fill="black"/>
<path d="M33.1686 197.462C33.2894 197.583 33.3498 197.765 33.3498 197.946V209.064V209.124C33.3498 210.333 33.0477 211.36 32.5039 212.326C31.9601 213.293 31.1746 214.018 30.2078 214.562C29.2411 215.106 28.1535 215.348 27.0054 215.348C25.797 215.348 24.7093 215.046 23.7426 214.502C22.7758 213.958 21.9903 213.172 21.4465 212.206C20.9027 211.239 20.6006 210.151 20.6006 208.943C20.6006 207.734 20.9027 206.647 21.4465 205.68C21.9903 204.713 22.7758 203.928 23.7426 203.384C24.7093 202.84 25.797 202.538 27.0054 202.538C28.093 202.538 29.0598 202.78 29.9661 203.263C30.8725 203.746 31.5371 204.351 32.0205 205.197V198.006C32.0205 197.765 32.081 197.644 32.2018 197.523C32.3226 197.402 32.5039 197.342 32.6852 197.342C32.9269 197.281 33.0477 197.342 33.1686 197.462ZM29.5432 213.414C30.3287 212.991 30.9329 212.326 31.3559 211.541C31.7788 210.755 32.0205 209.91 32.0205 208.943C32.0205 207.976 31.7788 207.13 31.3559 206.345C30.9329 205.559 30.3287 204.955 29.5432 204.532C28.7577 204.109 27.9118 203.867 26.945 203.867C25.9782 203.867 25.1323 204.109 24.3468 204.532C23.5613 204.955 22.9571 205.559 22.5341 206.345C22.1112 207.13 21.8695 207.976 21.8695 208.943C21.8695 209.91 22.1112 210.755 22.5341 211.541C22.9571 212.326 23.5613 212.931 24.3468 213.414C25.1323 213.837 25.9782 214.079 26.945 214.079C27.9118 214.079 28.7577 213.897 29.5432 213.414Z" fill="black"/>
<path d="M45.7364 203.384C46.6428 203.928 47.3074 204.653 47.7908 205.559C48.2742 206.466 48.5159 207.553 48.5159 208.762C48.5159 208.943 48.4555 209.124 48.3346 209.245C48.2138 209.366 48.0325 209.426 47.8512 209.426H38.244C38.3044 210.333 38.5461 211.118 38.9691 211.843C39.392 212.568 39.9962 213.112 40.7213 213.535C41.4464 213.958 42.2319 214.139 43.1382 214.139C43.7425 214.139 44.3467 214.018 44.9509 213.837C45.5552 213.656 46.0385 213.354 46.4011 213.052C46.5824 212.931 46.7032 212.87 46.8845 212.87C47.0657 212.87 47.1866 212.931 47.3074 212.991C47.4887 213.112 47.5491 213.293 47.5491 213.475C47.5491 213.656 47.4887 213.777 47.3678 213.898C46.8845 214.321 46.2198 214.683 45.4343 214.985C44.6488 215.287 43.8633 215.408 43.1987 215.408C41.9902 215.408 40.9026 215.106 39.9962 214.623C39.0899 214.139 38.3044 213.293 37.7606 212.327C37.2168 211.36 36.9751 210.272 36.9751 209.003C36.9751 207.734 37.2168 206.647 37.7002 205.68C38.1836 204.713 38.9086 203.928 39.815 203.384C40.7213 202.84 41.7485 202.598 42.8965 202.598C43.8633 202.538 44.8301 202.84 45.7364 203.384ZM39.6941 205.076C38.8482 205.861 38.3648 206.949 38.244 208.218H47.1866C47.0657 206.888 46.6428 205.861 45.7969 205.076C45.0114 204.29 43.9842 203.867 42.7153 203.867C41.5068 203.867 40.5401 204.23 39.6941 205.076Z" fill="black"/>
<path d="M60.056 203.384C61.0228 203.927 61.8082 204.713 62.3521 205.68C62.8959 206.646 63.198 207.734 63.198 208.942V214.501C63.198 214.683 63.1376 214.864 63.0167 214.985C62.8959 215.106 62.7146 215.166 62.5333 215.166C62.3521 215.166 62.1708 215.106 62.0499 214.985C61.9291 214.864 61.8687 214.683 61.8687 214.501V212.689C61.3853 213.474 60.6602 214.139 59.8143 214.622C58.9079 215.106 57.9412 215.347 56.8536 215.347C55.6451 215.347 54.5575 215.045 53.5907 214.501C52.624 213.958 51.8385 213.172 51.2947 212.205C50.7508 211.239 50.4487 210.151 50.4487 208.942C50.4487 207.734 50.7508 206.646 51.2947 205.68C51.8385 204.713 52.624 203.927 53.5907 203.384C54.5575 202.84 55.6451 202.538 56.8536 202.538C58.0016 202.538 59.0892 202.84 60.056 203.384ZM59.3309 213.414C60.1164 212.991 60.7206 212.387 61.1436 211.601C61.5666 210.816 61.8082 209.97 61.8082 209.003C61.8082 208.036 61.5666 207.19 61.1436 206.405C60.7206 205.619 60.1164 205.015 59.3309 204.532C58.5454 204.109 57.6995 203.867 56.7327 203.867C55.766 203.867 54.92 204.109 54.1345 204.532C53.349 204.955 52.7448 205.619 52.3218 206.405C51.8989 207.19 51.6572 208.036 51.6572 209.003C51.6572 209.97 51.8989 210.816 52.3218 211.601C52.7448 212.387 53.349 212.991 54.1345 213.414C54.92 213.837 55.766 214.078 56.7327 214.078C57.7599 214.078 58.6058 213.897 59.3309 213.414Z" fill="black"/>
<path d="M67.0655 215.045C66.9447 214.924 66.8843 214.743 66.8843 214.562V198.006C66.8843 197.825 66.9447 197.643 67.0655 197.523C67.1864 197.402 67.3677 197.341 67.5489 197.341C67.7302 197.341 67.9115 197.402 68.0323 197.523C68.1532 197.643 68.2136 197.825 68.2136 198.006V214.018H77.7C77.8813 214.018 78.0625 214.078 78.1834 214.199C78.3042 214.32 78.3646 214.441 78.3646 214.622C78.3646 214.804 78.3042 214.985 78.1834 215.045C78.0625 215.166 77.8813 215.227 77.7 215.227H67.5489C67.3677 215.227 67.1864 215.166 67.0655 215.045Z" fill="black"/>
<path d="M94.7999 214.562C94.7999 214.743 94.7395 214.925 94.6187 215.046C94.4978 215.166 94.3166 215.227 94.1353 215.227C93.8332 215.227 93.5915 215.106 93.4706 214.804L91.7788 210.756H82.4132L80.7214 214.804C80.6005 215.106 80.4193 215.227 80.0567 215.227C79.815 215.227 79.6942 215.166 79.5734 215.046C79.4525 214.925 79.3921 214.743 79.3921 214.562C79.3921 214.441 79.3921 214.381 79.4525 214.26L86.4012 197.765C86.522 197.463 86.7637 197.281 87.0658 197.281C87.3679 197.281 87.6096 197.463 87.7305 197.765L94.7395 214.26C94.7999 214.321 94.7999 214.441 94.7999 214.562ZM82.957 209.487H91.235L87.0658 199.577L82.957 209.487Z" fill="black"/>
<path d="M97.6391 215.046C97.4579 214.925 97.3975 214.743 97.3975 214.502V197.946C97.3975 197.704 97.4579 197.583 97.5787 197.463C97.6996 197.342 97.8808 197.281 98.0621 197.281H103.681C104.527 197.281 105.313 197.463 106.038 197.825C106.763 198.188 107.307 198.731 107.73 199.396C108.153 200.061 108.334 200.786 108.334 201.632C108.334 202.478 108.092 203.263 107.669 203.928C107.246 204.592 106.582 205.136 105.857 205.438C106.944 205.74 107.79 206.284 108.394 207.07C108.999 207.855 109.301 208.822 109.301 209.97C109.301 210.997 109.059 211.904 108.636 212.689C108.213 213.475 107.549 214.079 106.763 214.562C105.978 214.985 105.071 215.227 104.044 215.227H98.3038C98.0017 215.227 97.8204 215.166 97.6391 215.046ZM103.742 204.895C104.709 204.895 105.494 204.592 106.159 203.988C106.823 203.384 107.065 202.598 107.065 201.632C107.065 200.725 106.763 199.94 106.159 199.456C105.555 198.913 104.769 198.671 103.742 198.671H98.7872V204.895H103.742ZM104.044 213.898C104.769 213.898 105.494 213.716 106.038 213.414C106.642 213.112 107.065 212.629 107.428 212.024C107.79 211.42 107.911 210.756 107.911 210.03C107.911 209.305 107.73 208.641 107.428 208.097C107.065 207.493 106.642 207.07 106.038 206.768C105.434 206.466 104.769 206.284 104.044 206.284H98.7872V213.898H104.044Z" fill="black"/>
<path d="M120.42 159.879C127.369 157.885 132.263 153.052 132.142 148.58C132.142 147.795 131.357 147.311 130.632 147.493L105.193 154.743C104.468 154.925 104.106 155.771 104.468 156.435C106.825 160.363 113.471 161.873 120.42 159.879Z" fill="white"/>
<path d="M99.2122 142.115C97.2787 142.115 95.3451 141.39 93.895 140L74.0762 121.027C68.9403 116.495 65.0732 110.634 62.898 104.109C59.333 93.4741 60.4811 81.6916 66.1004 71.8427C71.7198 61.9937 81.2666 54.9847 92.2636 52.6886C112.505 48.3986 132.807 60.6644 138.487 80.604C140.542 87.8548 140.542 95.4681 138.427 102.598L131.538 129.245C130.874 131.843 128.819 133.957 126.221 134.683L101.327 141.812C100.602 141.994 99.9373 142.115 99.2122 142.115ZM77.0974 116.797L77.5808 117.22L97.4599 136.254C98.0642 136.858 99.0309 137.099 99.8769 136.858L124.771 129.728C125.617 129.486 126.282 128.822 126.463 127.976L133.351 101.329L135.889 101.994L133.412 101.269C135.285 94.9847 135.285 88.3986 133.532 82.0542C128.578 64.7732 110.934 54.1388 93.4116 57.8246C83.8043 59.8185 75.5264 65.8608 70.6321 74.4409C65.7379 83.0209 64.7107 93.2324 67.7923 102.477C69.6654 107.976 72.8678 112.87 77.0974 116.797Z" fill="white"/>
<path d="M126.22 96.8581C127.489 97.0998 128.758 96.1934 128.879 94.8641C129 93.3535 129.06 91.9034 128.939 90.3928C128.879 89.1239 127.731 88.2176 126.462 88.3384C125.314 88.5197 124.468 89.4865 124.529 90.6949C124.589 91.9638 124.589 93.1723 124.468 94.4412C124.347 95.5892 125.072 96.6164 126.22 96.8581Z" fill="white" stroke="white" stroke-width="1.7214" stroke-miterlimit="10"/>
<path d="M129.242 144.713L103.985 151.903C102.354 152.386 100.722 151.42 100.239 149.849L99.8765 148.64C99.3932 147.009 100.36 145.377 101.931 144.894L127.188 137.704C128.819 137.22 130.451 138.187 130.934 139.758L131.296 140.967C131.78 142.598 130.874 144.29 129.242 144.713Z" fill="white"/>
<path d="M68.336 57.0996L68.0339 57.3413C67.0672 58.1872 65.617 58.0663 64.7711 57.0996L59.2122 50.6947C58.3663 49.728 58.4871 48.2778 59.4539 47.4319L59.756 47.1902C60.7228 46.3443 62.1729 46.4651 63.0188 47.4319L68.5777 53.8367C69.4237 54.8035 69.3028 56.2537 68.336 57.0996Z" fill="white"/>
<path d="M50.5713 96.435V96.7975C50.5713 98.0664 49.6045 99.0936 48.3356 99.154L39.816 99.2748C38.5471 99.2748 37.5199 98.3081 37.4595 97.0392V96.6767C37.4595 95.4078 38.4262 94.3806 39.6951 94.3202L48.2148 94.1993C49.4836 94.1389 50.5713 95.1661 50.5713 96.435Z" fill="white"/>
<path d="M69.242 135.347L69.5442 135.589C70.5109 136.375 70.6922 137.825 69.9067 138.792L64.529 145.378C63.7435 146.344 62.2934 146.526 61.3266 145.74L61.0245 145.499C60.0577 144.713 59.8765 143.263 60.662 142.296L66.0396 135.71C66.8251 134.683 68.2753 134.562 69.242 135.347Z" fill="white"/>
<path d="M109.483 45.3169L109.846 45.3773C111.115 45.5586 112.263 44.7127 112.444 43.5042L113.773 35.1054C113.955 33.8366 113.109 32.6885 111.9 32.5073L111.538 32.4468C110.269 32.2656 109.121 33.1115 108.939 34.3199L107.61 42.7187C107.368 43.9876 108.214 45.1357 109.483 45.3169Z" fill="white"/>
<path d="M145.375 69.3656L145.556 69.6677C146.221 70.7553 147.61 71.1179 148.698 70.4532L156.009 66.1028C157.097 65.4381 157.459 64.0484 156.795 62.9608L156.613 62.6586C155.949 61.571 154.559 61.2085 153.471 61.8731L146.16 66.2236C145.072 66.8882 144.71 68.278 145.375 69.3656Z" fill="white"/>
<path d="M150.027 112.326L149.907 112.689C149.484 113.897 150.148 115.166 151.296 115.589L159.333 118.369C160.541 118.792 161.81 118.127 162.233 116.979L162.354 116.616C162.777 115.408 162.112 114.139 160.964 113.716L152.928 110.937C151.719 110.453 150.39 111.118 150.027 112.326Z" fill="white"/>
<path d="M125.375 83.6255C126.583 83.2025 127.248 81.8732 126.764 80.6647C126.523 80.1209 126.281 79.5771 126.039 78.9729C122.656 72.1451 116.976 67.0696 110.45 64.411C109.302 63.9276 107.973 64.5922 107.55 65.7403C107.187 66.8883 107.731 68.0363 108.819 68.5197C114.378 70.8158 119.151 75.1058 121.991 80.9064C122.233 81.3898 122.414 81.8732 122.656 82.2962C123.079 83.4442 124.287 83.988 125.375 83.6255Z" fill="white" stroke="white" stroke-width="1.7214" stroke-miterlimit="10"/>
</svg>
