<svg width="201" height="297" viewBox="0 0 201 297" fill="none" xmlns="http://www.w3.org/2000/svg">
<rect x="0.963867" width="200" height="296.073" rx="12" fill="white"/>
<path d="M186.826 13.897H15.5269V185.196H186.826V13.897Z" fill="#A7A9AC"/>
<path d="M63.4425 41.2085C70.4515 41.2085 74.5603 47.1299 74.5603 54.5015C74.5603 61.8731 70.4515 67.7946 63.4425 67.7946C60.3005 67.7946 57.4606 66.4049 55.3458 64.1692V77.281H46.3428V41.7523H55.3458V44.8943C57.4606 42.5982 60.3005 41.2085 63.4425 41.2085ZM55.3458 51.6012V57.4623C56.3126 59.0937 58.0648 60.2417 60.1192 60.2417C63.2008 60.2417 65.6781 57.704 65.6781 54.562C65.6781 51.42 63.1404 48.8822 60.1192 48.8822C58.0648 48.8218 56.3126 49.9698 55.3458 51.6012Z" fill="white"/>
<path d="M59.9378 85.0752C66.0405 85.0148 70.9952 87.6734 70.9952 94.6221V111.178H61.9317V108.157C59.5752 110.513 56.7354 111.722 53.3517 111.722C48.5783 111.722 45.0737 108.58 45.0737 103.746C45.0737 98.9725 48.6387 96.2535 54.3789 96.2535H61.9317V95.5888C61.9317 93.1115 60.0586 92.0843 57.4604 92.0843C55.1039 92.0843 52.3849 92.9302 50.0284 94.2595L47.4906 88.5193C51.2369 86.4045 55.7082 85.1356 59.9378 85.0752ZM57.8834 99.6372C55.4665 99.6372 54.0163 100.725 54.0163 102.84C54.0163 105.015 55.4665 106.405 57.4604 106.405C59.2127 106.405 60.7233 105.982 61.9922 105.075V99.6976L57.8834 99.6372Z" fill="white"/>
<path d="M63.4425 128.942C70.4515 128.942 74.5603 134.864 74.5603 142.235C74.5603 149.607 70.4515 155.528 63.4425 155.528C60.3005 155.528 57.4606 154.139 55.3458 151.903V165.015H46.3428V129.426H55.3458V132.568C57.4606 130.332 60.3005 128.942 63.4425 128.942ZM55.3458 139.335V145.196C56.3126 146.828 58.0648 147.976 60.1192 147.976C63.2008 147.976 65.6781 145.438 65.6781 142.296C65.6781 139.154 63.1404 136.616 60.1192 136.616C58.0648 136.556 56.3126 137.704 55.3458 139.335Z" fill="#FFCB36"/>
<path d="M101.025 41.209C107.128 41.1486 112.083 43.8072 112.083 50.7558V67.3117H103.019V64.2906C100.663 66.6471 97.8228 67.8555 94.4391 67.8555C89.6657 67.8555 86.1611 64.7135 86.1611 59.8797C86.1611 55.1063 89.7261 52.3873 95.4663 52.3873H103.019V51.7226C103.019 49.2453 101.146 48.2181 98.5478 48.2181C96.1914 48.2181 93.4723 49.064 91.1158 50.3933L88.5781 44.6531C92.3243 42.5383 96.856 41.2694 101.025 41.209ZM98.9708 55.7709C96.5539 55.7709 95.1037 56.8586 95.1037 58.9734C95.1037 61.1486 96.5539 62.5383 98.5478 62.5383C100.3 62.5383 101.811 62.1154 103.08 61.209V55.8314L98.9708 55.7709Z" fill="white"/>
<path d="M101.025 85.0752C107.128 85.0148 112.083 87.6734 112.083 94.6221V111.178H103.019V108.157C100.663 110.513 97.8228 111.722 94.4391 111.722C89.6657 111.722 86.1611 108.58 86.1611 103.746C86.1611 98.9725 89.7261 96.2535 95.4663 96.2535H103.019V95.5888C103.019 93.1115 101.146 92.0843 98.5478 92.0843C96.1914 92.0843 93.4723 92.9302 91.1158 94.2595L88.5781 88.5193C92.3243 86.4045 96.856 85.1356 101.025 85.0752ZM98.9708 99.6372C96.5539 99.6372 95.1037 100.725 95.1037 102.84C95.1037 105.015 96.5539 106.405 98.5478 106.405C100.3 106.405 101.811 105.982 103.08 105.075V99.6976L98.9708 99.6372Z" fill="#FFCB36"/>
<path d="M101.025 128.943C107.128 128.882 112.083 131.541 112.083 138.49V155.046H103.019V152.024C100.663 154.381 97.8228 155.589 94.4391 155.589C89.6657 155.589 86.1611 152.447 86.1611 147.614C86.1611 142.84 89.7261 140.121 95.4663 140.121H103.019V139.456C103.019 136.979 101.146 135.952 98.5478 135.952C96.1914 135.952 93.4723 136.798 91.1158 138.127L88.5781 132.387C92.3243 130.272 96.856 129.003 101.025 128.943ZM98.9708 143.444C96.5539 143.444 95.1037 144.532 95.1037 146.647C95.1037 148.822 96.5539 150.212 98.5478 150.212C100.3 150.212 101.811 149.789 103.08 148.882V143.505L98.9708 143.444Z" fill="white"/>
<path d="M145.618 41.2085C152.627 41.2085 156.736 47.1299 156.736 54.5015C156.736 61.8731 152.627 67.7946 145.618 67.7946C142.476 67.7946 139.636 66.4049 137.522 64.1692V77.281H128.519V41.7523H137.522V44.8943C139.636 42.5982 142.476 41.2085 145.618 41.2085ZM137.522 51.6012V57.4623C138.488 59.0937 140.241 60.2417 142.295 60.2417C145.377 60.2417 147.854 57.704 147.854 54.562C147.854 51.42 145.316 48.8822 142.295 48.8822C140.241 48.8218 138.488 49.9698 137.522 51.6012Z" fill="#FFCB36"/>
<path d="M142.115 85.0752C148.217 85.0148 153.172 87.6734 153.172 94.6221V111.178H144.108V108.157C141.752 110.513 138.912 111.722 135.528 111.722C130.755 111.722 127.25 108.58 127.25 103.746C127.25 98.9725 130.815 96.2535 136.556 96.2535H144.108V95.5888C144.108 93.1115 142.235 92.0843 139.637 92.0843C137.281 92.0843 134.562 92.9302 132.205 94.2595L129.667 88.5193C133.414 86.4045 137.885 85.1356 142.115 85.0752ZM140.06 99.6372C137.643 99.6372 136.193 100.725 136.193 102.84C136.193 105.015 137.643 106.405 139.637 106.405C141.389 106.405 142.9 105.982 144.169 105.075V99.6976L140.06 99.6372Z" fill="white"/>
<path d="M145.618 128.942C152.627 128.942 156.736 134.864 156.736 142.235C156.736 149.607 152.627 155.528 145.618 155.528C142.476 155.528 139.636 154.139 137.522 151.903V165.015H128.519V129.426H137.522V132.568C139.636 130.332 142.476 128.942 145.618 128.942ZM137.522 139.335V145.196C138.488 146.828 140.241 147.976 142.295 147.976C145.377 147.976 147.854 145.438 147.854 142.296C147.854 139.154 145.316 136.616 142.295 136.616C140.241 136.556 138.488 137.704 137.522 139.335Z" fill="white"/>
<path d="M25.1947 203.384C26.1614 203.927 26.9469 204.713 27.4907 205.68C28.0345 206.646 28.3366 207.734 28.3366 208.942C28.3366 210.151 28.0345 211.239 27.4907 212.205C26.9469 213.172 26.1614 213.958 25.1947 214.501C24.2279 215.045 23.1403 215.347 21.9318 215.347C20.8442 215.347 19.8774 215.106 18.9711 214.622C18.0647 214.139 17.4001 213.535 16.9167 212.689V219.939C16.9167 220.181 16.8563 220.302 16.7354 220.423C16.6146 220.544 16.4333 220.604 16.2521 220.604C16.0708 220.604 15.8895 220.544 15.7687 220.423C15.6478 220.302 15.5874 220.121 15.5874 219.939V208.882V208.822C15.5874 207.613 15.8895 206.586 16.4333 205.619C16.9771 204.652 17.7626 203.927 18.7294 203.384C19.6962 202.84 20.7838 202.538 21.9318 202.538C23.1403 202.598 24.2279 202.84 25.1947 203.384ZM24.4696 213.474C25.2551 213.051 25.8593 212.447 26.2823 211.661C26.7052 210.876 26.9469 210.03 26.9469 209.063C26.9469 208.097 26.7052 207.251 26.2823 206.465C25.8593 205.68 25.2551 205.075 24.4696 204.592C23.6841 204.169 22.8382 203.927 21.8714 203.927C20.9046 203.927 20.0587 204.169 19.2732 204.592C18.4877 205.015 17.8835 205.68 17.4605 206.465C17.0376 207.251 16.7959 208.097 16.7959 209.063C16.7959 210.03 17.0376 210.876 17.4605 211.661C17.8835 212.447 18.4877 213.051 19.2732 213.474C20.0587 213.897 20.9046 214.139 21.8714 214.139C22.8382 214.139 23.6841 213.897 24.4696 213.474Z" fill="black"/>
<path d="M38.8504 203.323C38.8504 203.383 38.8504 203.444 38.8504 203.504C38.7899 203.685 38.7295 203.806 38.6087 203.867C38.4878 203.927 38.367 203.987 38.1857 203.987C38.0649 203.987 37.8836 203.987 37.6419 203.927C37.4002 203.927 37.219 203.867 37.0981 203.867C36.3126 203.867 35.648 204.048 35.0437 204.35C34.4395 204.652 33.9561 205.135 33.654 205.679C33.2915 206.223 33.1706 206.888 33.1706 207.613V214.622C33.1706 214.803 33.1102 214.984 32.9893 215.105C32.8685 215.226 32.6872 215.286 32.506 215.286C32.3247 215.286 32.1434 215.226 32.0226 215.105C31.9017 214.984 31.8413 214.803 31.8413 214.622V203.444C31.8413 203.202 31.9017 203.081 32.0226 202.96C32.1434 202.839 32.3247 202.779 32.506 202.779C32.7477 202.779 32.8685 202.839 32.9893 202.96C33.1102 203.081 33.1706 203.262 33.1706 203.444V204.894C33.5936 204.169 34.1978 203.625 34.8625 203.262C35.5271 202.839 36.3126 202.658 37.0981 202.658C38.2461 202.598 38.8504 202.839 38.8504 203.323Z" fill="black"/>
<path d="M42.8988 214.562C41.9321 214.018 41.1466 213.233 40.6028 212.266C40.059 211.299 39.7568 210.211 39.7568 209.003C39.7568 207.795 40.059 206.707 40.6028 205.74C41.1466 204.773 41.9321 203.988 42.8988 203.444C43.8656 202.9 44.9532 202.598 46.1617 202.598C47.3701 202.598 48.4577 202.9 49.4245 203.444C50.3913 203.988 51.1768 204.773 51.7206 205.74C52.2644 206.707 52.5665 207.795 52.5665 209.003C52.5665 210.211 52.2644 211.299 51.7206 212.266C51.1768 213.233 50.3913 214.018 49.4245 214.562C48.4577 215.106 47.3701 215.408 46.1617 215.408C45.0136 215.408 43.926 215.166 42.8988 214.562ZM48.7599 213.474C49.5454 213.051 50.1496 212.447 50.5725 211.662C50.9955 210.876 51.2372 210.03 51.2372 209.063C51.2372 208.097 50.9955 207.251 50.5725 206.465C50.1496 205.68 49.5454 205.075 48.7599 204.592C47.9744 204.169 47.1284 203.927 46.1617 203.927C45.1949 203.927 44.349 204.169 43.5635 204.592C42.778 205.015 42.1738 205.68 41.7508 206.465C41.3278 207.251 41.0861 208.097 41.0861 209.063C41.0861 210.03 41.3278 210.876 41.7508 211.662C42.1738 212.447 42.778 213.051 43.5635 213.474C44.349 213.897 45.1949 214.139 46.1617 214.139C47.1889 214.139 48.0348 213.897 48.7599 213.474Z" fill="black"/>
<path d="M68.0338 197.522C68.1546 197.643 68.2151 197.825 68.2151 198.006V209.063V209.124C68.2151 210.332 67.9129 211.359 67.3691 212.326C66.8253 213.293 66.0398 214.018 65.0731 214.562C64.1063 215.106 63.0187 215.408 61.8707 215.408C60.6622 215.408 59.5746 215.106 58.6078 214.562C57.641 214.018 56.8555 213.232 56.3117 212.266C55.7679 211.299 55.4658 210.211 55.4658 209.003C55.4658 207.794 55.7679 206.707 56.3117 205.74C56.8555 204.773 57.641 203.988 58.6078 203.444C59.5746 202.9 60.6622 202.598 61.8707 202.598C62.9583 202.598 63.925 202.84 64.8314 203.323C65.7377 203.806 66.4024 204.411 66.8858 205.257V198.066C66.8858 197.825 66.9462 197.704 67.067 197.583C67.1879 197.462 67.3691 197.402 67.5504 197.402C67.7317 197.341 67.9129 197.402 68.0338 197.522ZM64.4084 213.474C65.1939 213.051 65.7981 212.387 66.2211 211.601C66.6441 210.816 66.8858 209.97 66.8858 209.003C66.8858 208.036 66.6441 207.19 66.2211 206.405C65.7981 205.619 65.1939 205.015 64.4084 204.592C63.6229 204.169 62.777 203.927 61.8102 203.927C60.8435 203.927 59.9975 204.169 59.212 204.592C58.4265 205.015 57.8223 205.619 57.3994 206.405C56.9764 207.19 56.7347 208.036 56.7347 209.003C56.7347 209.97 56.9764 210.816 57.3994 211.601C57.8223 212.387 58.4265 212.991 59.212 213.474C59.9975 213.897 60.8435 214.139 61.8102 214.139C62.777 214.139 63.6229 213.897 64.4084 213.474Z" fill="black"/>
<path d="M83.5016 202.9C83.6225 203.021 83.6829 203.202 83.6829 203.383V214.562C83.6829 214.743 83.6225 214.924 83.5016 215.045C83.3808 215.166 83.1995 215.226 83.0182 215.226C82.837 215.226 82.6557 215.166 82.5348 215.045C82.414 214.924 82.3536 214.743 82.3536 214.562V213.353C81.8098 214.018 81.2055 214.501 80.42 214.864C79.695 215.226 78.849 215.408 77.9427 215.408C76.7947 215.408 75.8279 215.166 74.9215 214.743C74.0152 214.26 73.3505 213.595 72.8672 212.749C72.3838 211.843 72.1421 210.815 72.1421 209.607V203.444C72.1421 203.263 72.2025 203.081 72.3234 202.96C72.4442 202.84 72.6255 202.779 72.8067 202.779C72.988 202.779 73.1693 202.84 73.2901 202.96C73.411 203.081 73.4714 203.263 73.4714 203.444V209.607C73.4714 211.057 73.8944 212.145 74.6799 212.93C75.5258 213.716 76.553 214.078 77.8823 214.078C78.6678 214.078 79.4533 213.897 80.1179 213.595C80.7826 213.293 81.3264 212.87 81.6889 212.266C82.0515 211.722 82.2931 211.118 82.2931 210.392V203.383C82.2931 203.142 82.3536 203.021 82.4744 202.9C82.5953 202.779 82.7765 202.719 82.9578 202.719C83.1995 202.719 83.3808 202.779 83.5016 202.9Z" fill="black"/>
<path d="M97.4598 214.683C97.4598 214.864 97.3994 214.985 97.2181 215.166C97.0368 215.287 96.916 215.347 96.7951 215.347C96.6139 215.347 96.4326 215.226 96.3117 215.045L91.2966 208.942L89.1818 210.876V214.501C89.1818 214.683 89.1214 214.864 89.0006 214.985C88.8797 215.106 88.6985 215.166 88.5172 215.166C88.3359 215.166 88.1547 215.106 88.0338 214.985C87.913 214.864 87.8525 214.683 87.8525 214.501V197.945C87.8525 197.704 87.913 197.583 88.0338 197.462C88.1547 197.341 88.3359 197.281 88.5172 197.281C88.7589 197.281 88.8797 197.341 89.0006 197.462C89.1214 197.583 89.1818 197.764 89.1818 197.945V209.184L96.3117 202.719C96.493 202.598 96.6139 202.538 96.7347 202.538C96.916 202.538 97.0368 202.598 97.1577 202.779C97.2785 202.9 97.3389 203.081 97.3389 203.202C97.3389 203.383 97.2785 203.504 97.0972 203.625L92.203 208.036L97.2181 214.199C97.3994 214.38 97.4598 214.501 97.4598 214.683Z" fill="black"/>
<path d="M107.188 214.078C107.309 214.199 107.369 214.38 107.369 214.622C107.369 214.803 107.309 214.984 107.188 215.105C107.067 215.226 106.886 215.286 106.644 215.286H106.101C105.255 215.286 104.53 215.105 103.865 214.682C103.2 214.259 102.717 213.776 102.354 213.111C101.992 212.446 101.81 211.661 101.81 210.875V204.41H99.9978C99.8165 204.41 99.6352 204.35 99.5748 204.229C99.454 204.108 99.3936 203.987 99.3936 203.806C99.3936 203.625 99.454 203.443 99.5748 203.383C99.6957 203.262 99.8165 203.202 99.9978 203.202H101.81V199.395C101.81 199.153 101.871 199.032 101.992 198.851C102.113 198.73 102.294 198.67 102.475 198.67C102.717 198.67 102.838 198.73 103.019 198.851C103.14 198.972 103.2 199.153 103.2 199.395V203.141H106.221C106.403 203.141 106.584 203.202 106.644 203.322C106.765 203.443 106.826 203.564 106.826 203.745C106.826 203.927 106.765 204.108 106.644 204.168C106.523 204.289 106.403 204.35 106.221 204.35H103.2V210.875C103.2 211.782 103.502 212.507 104.046 213.051C104.59 213.594 105.315 213.897 106.161 213.897H106.644C106.886 213.897 107.067 213.957 107.188 214.078Z" fill="black"/>
<path d="M121.387 202.9C121.508 203.021 121.569 203.202 121.569 203.383V214.562C121.569 214.743 121.508 214.924 121.387 215.045C121.266 215.166 121.085 215.226 120.904 215.226C120.723 215.226 120.541 215.166 120.421 215.045C120.3 214.924 120.239 214.743 120.239 214.562V213.353C119.696 214.018 119.091 214.501 118.306 214.864C117.581 215.226 116.735 215.408 115.828 215.408C114.68 215.408 113.714 215.166 112.807 214.743C111.901 214.26 111.236 213.595 110.753 212.749C110.27 211.843 110.028 210.815 110.028 209.607V203.444C110.028 203.263 110.088 203.081 110.209 202.96C110.33 202.84 110.511 202.779 110.692 202.779C110.874 202.779 111.055 202.84 111.176 202.96C111.297 203.081 111.357 203.263 111.357 203.444V209.607C111.357 211.057 111.78 212.145 112.566 212.93C113.412 213.716 114.439 214.078 115.768 214.078C116.554 214.078 117.339 213.897 118.004 213.595C118.668 213.293 119.212 212.87 119.575 212.266C119.937 211.722 120.179 211.118 120.179 210.392V203.383C120.179 203.142 120.239 203.021 120.36 202.9C120.481 202.779 120.662 202.719 120.844 202.719C121.146 202.719 121.266 202.779 121.387 202.9Z" fill="black"/>
<path d="M24.4691 230.996C25.4358 231.54 26.2213 232.326 26.7651 233.292C27.3089 234.259 27.6111 235.347 27.6111 236.555V242.114C27.6111 242.295 27.5506 242.477 27.4298 242.598C27.3089 242.718 27.1277 242.779 26.9464 242.779C26.7651 242.779 26.5839 242.718 26.463 242.598C26.3422 242.477 26.2818 242.295 26.2818 242.114V240.301C25.7984 241.087 25.0733 241.752 24.2274 242.235C23.321 242.718 22.3543 242.96 21.2666 242.96C20.0582 242.96 18.9706 242.658 18.0038 242.114C17.037 241.57 16.2515 240.785 15.7077 239.818C15.1639 238.851 14.8618 237.764 14.8618 236.555C14.8618 235.347 15.1639 234.259 15.7077 233.292C16.2515 232.326 17.037 231.54 18.0038 230.996C18.9706 230.453 20.0582 230.15 21.2666 230.15C22.4147 230.15 23.5023 230.453 24.4691 230.996ZM23.8044 241.027C24.5899 240.604 25.1941 239.999 25.6171 239.214C26.0401 238.428 26.2818 237.582 26.2818 236.616C26.2818 235.649 26.0401 234.803 25.6171 234.017C25.1941 233.232 24.5899 232.628 23.8044 232.144C23.0189 231.721 22.173 231.48 21.2062 231.48C20.2395 231.48 19.3935 231.721 18.608 232.144C17.8225 232.567 17.2183 233.232 16.7954 234.017C16.3724 234.803 16.1307 235.649 16.1307 236.616C16.1307 237.582 16.3724 238.428 16.7954 239.214C17.2183 239.999 17.8225 240.604 18.608 241.027C19.3935 241.449 20.2395 241.691 21.2062 241.691C22.173 241.691 23.0189 241.449 23.8044 241.027Z" fill="black"/>
<path d="M37.2794 241.631C37.4003 241.752 37.4607 241.933 37.4607 242.175C37.4607 242.356 37.4003 242.537 37.2794 242.658C37.1586 242.779 36.9773 242.84 36.7356 242.84H36.1918C35.3459 242.84 34.6208 242.658 33.9562 242.235C33.2915 241.812 32.8081 241.329 32.4456 240.664C32.0831 240 31.9018 239.214 31.9018 238.429V231.963H30.0891C29.9078 231.963 29.7266 231.903 29.6661 231.782C29.5453 231.661 29.4849 231.54 29.4849 231.359C29.4849 231.178 29.5453 230.997 29.6661 230.936C29.787 230.815 29.9078 230.755 30.0891 230.755H31.9018V227.009C31.9018 226.767 31.9622 226.646 32.0831 226.465C32.2039 226.344 32.3852 226.284 32.5664 226.284C32.8081 226.284 32.929 226.344 33.1102 226.465C33.2311 226.586 33.2915 226.767 33.2915 227.009V230.755H36.3127C36.4939 230.755 36.6752 230.815 36.7356 230.936C36.8565 231.057 36.9169 231.178 36.9169 231.359C36.9169 231.54 36.8565 231.722 36.7356 231.782C36.6148 231.903 36.4939 231.963 36.3127 231.963H33.2915V238.429C33.2915 239.335 33.5936 240.06 34.1374 240.604C34.6812 241.148 35.4063 241.45 36.2522 241.45H36.7356C36.9773 241.45 37.1586 241.51 37.2794 241.631Z" fill="black"/>
<path d="M46.5241 241.631C46.6449 241.752 46.7053 241.933 46.7053 242.175C46.7053 242.356 46.6449 242.537 46.5241 242.658C46.4032 242.779 46.2219 242.84 45.9802 242.84H45.4364C44.5905 242.84 43.8654 242.658 43.2008 242.235C42.5361 241.812 42.0528 241.329 41.6902 240.664C41.3277 240 41.1464 239.214 41.1464 238.429V231.963H39.3337C39.1525 231.963 38.9712 231.903 38.9108 231.782C38.7899 231.661 38.7295 231.54 38.7295 231.359C38.7295 231.178 38.7899 230.997 38.9108 230.936C39.0316 230.815 39.1525 230.755 39.3337 230.755H41.1464V227.009C41.1464 226.767 41.2068 226.646 41.3277 226.465C41.4485 226.344 41.6298 226.284 41.8111 226.284C42.0528 226.284 42.1736 226.344 42.3549 226.465C42.4757 226.586 42.5361 226.767 42.5361 227.009V230.755H45.5573C45.7386 230.755 45.9198 230.815 45.9802 230.936C46.1011 231.057 46.1615 231.178 46.1615 231.359C46.1615 231.54 46.1011 231.722 45.9802 231.782C45.8594 231.903 45.7386 231.963 45.5573 231.963H42.5361V238.429C42.5361 239.335 42.8383 240.06 43.3821 240.604C43.9259 241.148 44.6509 241.45 45.4969 241.45H45.9802C46.2219 241.45 46.4032 241.51 46.5241 241.631Z" fill="black"/>
<path d="M47.9122 227.492C47.7914 227.371 47.731 227.19 47.731 227.008C47.731 226.827 47.7914 226.646 47.9122 226.525C48.0331 226.404 48.1539 226.344 48.2748 226.344H53.169C53.3503 226.344 53.4711 226.404 53.5316 226.525C53.6524 226.646 53.7128 226.827 53.7128 227.008C53.7128 227.19 53.6524 227.371 53.5316 227.492C53.4107 227.613 53.2899 227.673 53.169 227.673H48.2748C48.1539 227.673 48.0331 227.613 47.9122 227.492ZM50.2687 242.658C50.1479 242.537 50.0875 242.356 50.0875 242.175V230.996C50.0875 230.755 50.1479 230.634 50.2687 230.513C50.3896 230.392 50.5708 230.332 50.7521 230.332C50.9938 230.332 51.1146 230.392 51.2355 230.513C51.3563 230.634 51.4168 230.815 51.4168 230.996V242.175C51.4168 242.356 51.3563 242.537 51.2355 242.658C51.1146 242.779 50.9334 242.839 50.7521 242.839C50.5708 242.839 50.3896 242.779 50.2687 242.658Z" fill="black"/>
<path d="M57.7018 242.537C56.8559 242.235 56.1913 241.752 55.587 241.087C55.4662 240.966 55.4058 240.845 55.4058 240.664C55.4058 240.422 55.5266 240.301 55.7079 240.12C55.8287 240.06 55.9496 239.999 56.0704 239.999C56.3121 239.999 56.433 240.06 56.6142 240.241C57.3997 241.147 58.6082 241.631 60.3 241.631C61.5085 241.631 62.4148 241.389 62.9586 240.966C63.5024 240.543 63.8046 239.999 63.8046 239.335C63.8046 238.126 62.6565 237.341 60.3 237.039C58.7895 236.797 57.7018 236.434 56.9163 235.83C56.1308 235.226 55.7683 234.501 55.7683 233.655C55.7683 232.507 56.1913 231.661 56.9768 231.057C57.8227 230.453 58.8499 230.15 60.1792 230.15C62.1127 230.15 63.5629 230.815 64.5901 232.205C64.7109 232.326 64.7109 232.446 64.7109 232.567C64.7109 232.809 64.5901 232.93 64.3484 233.111C64.1671 233.172 64.1067 233.232 63.9858 233.232C63.7441 233.232 63.5629 233.111 63.3816 232.93C62.5961 231.963 61.5085 231.419 60.1188 231.419C59.2124 231.419 58.4269 231.601 57.8831 232.024C57.3393 232.446 57.0372 232.93 57.0372 233.534C57.0372 234.138 57.2789 234.622 57.8227 234.984C58.3665 235.347 59.2124 235.649 60.4813 235.83C62.1127 236.072 63.2607 236.495 63.9858 237.099C64.7109 237.764 65.0734 238.489 65.0734 239.395C65.0734 240.12 64.8317 240.724 64.4088 241.268C63.9858 241.812 63.3816 242.235 62.5961 242.537C61.871 242.839 61.0251 242.96 60.1188 242.96C59.4541 242.96 58.5478 242.839 57.7018 242.537Z" fill="black"/>
<path d="M74.5597 241.631C74.6805 241.752 74.741 241.933 74.741 242.175C74.741 242.356 74.6805 242.537 74.5597 242.658C74.4389 242.779 74.2576 242.84 74.0159 242.84H73.4721C72.6262 242.84 71.9011 242.658 71.2364 242.235C70.5718 241.812 70.0884 241.329 69.7259 240.664C69.3633 240 69.1821 239.275 69.1821 238.429V231.963H67.3694C67.1881 231.963 67.0068 231.903 66.9464 231.782C66.8256 231.661 66.7651 231.54 66.7651 231.359C66.7651 231.178 66.8256 230.997 66.9464 230.936C67.0673 230.815 67.1881 230.755 67.3694 230.755H69.1821V227.009C69.1821 226.767 69.2425 226.646 69.3633 226.465C69.4842 226.344 69.6654 226.284 69.8467 226.284C70.0884 226.284 70.2092 226.344 70.3905 226.465C70.5114 226.586 70.5718 226.767 70.5718 227.009V230.755H73.5929C73.7742 230.755 73.9555 230.815 74.0159 230.936C74.1367 231.057 74.1972 231.178 74.1972 231.359C74.1972 231.54 74.1367 231.722 74.0159 231.782C73.895 231.903 73.7742 231.963 73.5929 231.963H70.5718V238.429C70.5718 239.335 70.8739 240.06 71.4177 240.604C71.9615 241.148 72.6866 241.45 73.5325 241.45H74.0159C74.2576 241.45 74.4389 241.51 74.5597 241.631Z" fill="black"/>
<path d="M75.9503 227.492C75.8295 227.371 75.769 227.19 75.769 227.008C75.769 226.827 75.8295 226.646 75.9503 226.525C76.0712 226.404 76.192 226.344 76.3129 226.344H81.2071C81.3884 226.344 81.5092 226.404 81.5696 226.525C81.6905 226.646 81.7509 226.827 81.7509 227.008C81.7509 227.19 81.6905 227.371 81.5696 227.492C81.4488 227.613 81.328 227.673 81.2071 227.673H76.3129C76.192 227.673 76.0712 227.613 75.9503 227.492ZM78.2464 242.658C78.1255 242.537 78.0651 242.356 78.0651 242.175V230.996C78.0651 230.755 78.1255 230.634 78.2464 230.513C78.3672 230.392 78.5485 230.332 78.7298 230.332C78.9715 230.332 79.0923 230.392 79.2132 230.513C79.334 230.634 79.3944 230.815 79.3944 230.996V242.175C79.3944 242.356 79.334 242.537 79.2132 242.658C79.0923 242.779 78.911 242.839 78.7298 242.839C78.5485 242.839 78.4277 242.779 78.2464 242.658Z" fill="black"/>
<path d="M93.7742 230.997C94.741 231.541 95.5265 232.326 96.0703 233.293C96.6141 234.26 96.9162 235.347 96.9162 236.556C96.9162 237.764 96.6141 238.852 96.0703 239.819C95.5265 240.785 94.741 241.571 93.7742 242.115C92.8075 242.658 91.7199 242.961 90.5114 242.961C89.3029 242.961 88.2758 242.658 87.309 242.115C86.3422 241.571 85.5567 240.846 85.0129 239.879C84.4691 238.912 84.167 237.825 84.167 236.677V236.616V225.559C84.167 225.317 84.2274 225.196 84.3483 225.075C84.4691 224.954 84.6504 224.894 84.8316 224.894C85.0733 224.894 85.1942 224.954 85.315 225.075C85.4359 225.196 85.4963 225.377 85.4963 225.559V232.749C85.9797 231.964 86.7048 231.299 87.5507 230.815C88.457 230.332 89.4238 230.09 90.5114 230.09C91.6594 230.151 92.747 230.453 93.7742 230.997ZM93.0492 241.027C93.8347 240.604 94.4389 239.939 94.8619 239.154C95.2848 238.368 95.5265 237.522 95.5265 236.556C95.5265 235.589 95.2848 234.743 94.8619 233.957C94.4389 233.172 93.8347 232.568 93.0492 232.145C92.2637 231.722 91.4177 231.48 90.451 231.48C89.4842 231.48 88.6383 231.722 87.8528 232.145C87.0673 232.568 86.4631 233.172 86.0401 233.957C85.6171 234.743 85.3755 235.589 85.3755 236.556C85.3755 237.522 85.6171 238.368 86.0401 239.154C86.4631 239.939 87.0673 240.544 87.8528 241.027C88.6383 241.45 89.4842 241.692 90.451 241.692C91.4177 241.692 92.2637 241.45 93.0492 241.027Z" fill="black"/>
<path d="M109.363 230.996C110.33 231.54 111.115 232.326 111.659 233.292C112.203 234.259 112.505 235.347 112.505 236.555V242.114C112.505 242.295 112.445 242.477 112.324 242.598C112.203 242.718 112.022 242.779 111.84 242.779C111.659 242.779 111.478 242.718 111.357 242.598C111.236 242.477 111.176 242.295 111.176 242.114V240.301C110.692 241.087 109.967 241.752 109.121 242.235C108.215 242.718 107.248 242.96 106.161 242.96C104.952 242.96 103.865 242.658 102.898 242.114C101.931 241.57 101.146 240.785 100.602 239.818C100.058 238.851 99.7559 237.764 99.7559 236.555C99.7559 235.347 100.058 234.259 100.602 233.292C101.146 232.326 101.931 231.54 102.898 230.996C103.865 230.453 104.952 230.15 106.161 230.15C107.309 230.15 108.396 230.453 109.363 230.996ZM108.638 241.027C109.424 240.604 110.028 239.999 110.451 239.214C110.874 238.428 111.115 237.582 111.115 236.616C111.115 235.649 110.874 234.803 110.451 234.017C110.028 233.232 109.424 232.628 108.638 232.144C107.853 231.721 107.007 231.48 106.04 231.48C105.073 231.48 104.227 231.721 103.442 232.144C102.656 232.567 102.052 233.232 101.629 234.017C101.206 234.803 100.964 235.649 100.964 236.616C100.964 237.582 101.206 238.428 101.629 239.214C102.052 239.999 102.656 240.604 103.442 241.027C104.227 241.449 105.073 241.691 106.04 241.691C107.007 241.691 107.913 241.449 108.638 241.027Z" fill="black"/>
<path d="M117.642 242.537C116.796 242.235 116.131 241.752 115.527 241.087C115.406 240.966 115.346 240.845 115.346 240.664C115.346 240.422 115.467 240.301 115.648 240.12C115.769 240.06 115.89 239.999 116.01 239.999C116.252 239.999 116.373 240.06 116.554 240.241C117.34 241.147 118.548 241.631 120.24 241.631C121.448 241.631 122.355 241.389 122.899 240.966C123.442 240.543 123.744 239.999 123.744 239.335C123.744 238.126 122.596 237.341 120.24 237.039C118.729 236.797 117.642 236.434 116.856 235.83C116.071 235.226 115.708 234.501 115.708 233.655C115.708 232.507 116.131 231.661 116.917 231.057C117.763 230.453 118.79 230.15 120.119 230.15C122.053 230.15 123.503 230.815 124.53 232.205C124.651 232.326 124.651 232.446 124.651 232.567C124.651 232.809 124.53 232.93 124.288 233.111C124.107 233.172 124.047 233.232 123.926 233.232C123.684 233.232 123.503 233.111 123.322 232.93C122.536 231.963 121.448 231.419 120.059 231.419C119.152 231.419 118.367 231.601 117.823 232.024C117.279 232.446 116.977 232.93 116.977 233.534C116.977 234.138 117.219 234.622 117.763 234.984C118.306 235.347 119.152 235.649 120.421 235.83C122.053 236.072 123.201 236.495 123.926 237.099C124.651 237.764 125.013 238.489 125.013 239.395C125.013 240.12 124.772 240.724 124.349 241.268C123.926 241.812 123.322 242.235 122.536 242.537C121.811 242.839 120.965 242.96 120.059 242.96C119.334 242.96 118.488 242.839 117.642 242.537Z" fill="black"/>
<path d="M25.1947 258.549C26.1614 259.093 26.9469 259.879 27.4907 260.846C28.0345 261.812 28.3366 262.9 28.3366 264.108C28.3366 265.317 28.0345 266.404 27.4907 267.371C26.9469 268.338 26.1614 269.123 25.1947 269.667C24.2279 270.211 23.1403 270.513 21.9318 270.513C20.8442 270.513 19.8774 270.272 18.9711 269.788C18.0647 269.305 17.4001 268.701 16.9167 267.855V275.045C16.9167 275.287 16.8563 275.407 16.7354 275.528C16.6146 275.649 16.4333 275.71 16.2521 275.71C16.0708 275.71 15.8895 275.649 15.7687 275.528C15.6478 275.407 15.5874 275.226 15.5874 275.045V264.048V263.988C15.5874 262.779 15.8895 261.752 16.4333 260.785C16.9771 259.818 17.7626 259.093 18.7294 258.549C19.6962 258.006 20.7838 257.764 21.9318 257.764C23.1403 257.704 24.2279 258.006 25.1947 258.549ZM24.4696 268.58C25.2551 268.157 25.8593 267.552 26.2823 266.767C26.7052 265.981 26.9469 265.136 26.9469 264.169C26.9469 263.202 26.7052 262.356 26.2823 261.571C25.8593 260.785 25.2551 260.181 24.4696 259.697C23.6841 259.275 22.8382 259.033 21.8714 259.033C20.9046 259.033 20.0587 259.275 19.2732 259.697C18.4877 260.12 17.8835 260.785 17.4605 261.571C17.0376 262.356 16.7959 263.202 16.7959 264.169C16.7959 265.136 17.0376 265.981 17.4605 266.767C17.8835 267.552 18.4877 268.157 19.2732 268.58C20.0587 269.003 20.9046 269.244 21.8714 269.244C22.8382 269.244 23.6841 269.063 24.4696 268.58Z" fill="black"/>
<path d="M38.8504 258.489C38.8504 258.55 38.8504 258.61 38.8504 258.67C38.7899 258.852 38.7295 258.972 38.6087 259.033C38.4878 259.093 38.367 259.154 38.1857 259.154C38.0649 259.154 37.8836 259.154 37.6419 259.093C37.4002 259.093 37.219 259.033 37.0981 259.033C36.3126 259.033 35.648 259.214 35.0437 259.516C34.4395 259.818 33.9561 260.302 33.654 260.846C33.2915 261.389 33.1706 262.054 33.1706 262.779V269.788C33.1706 269.969 33.1102 270.151 32.9893 270.272C32.8685 270.392 32.6872 270.453 32.506 270.453C32.3247 270.453 32.1434 270.392 32.0226 270.272C31.9017 270.151 31.8413 269.969 31.8413 269.788V258.61C31.8413 258.368 31.9017 258.247 32.0226 258.127C32.1434 258.006 32.3247 257.945 32.506 257.945C32.7477 257.945 32.8685 258.006 32.9893 258.127C33.1102 258.247 33.1706 258.429 33.1706 258.61V260.06C33.5936 259.335 34.1978 258.791 34.8625 258.429C35.5271 258.006 36.3126 257.824 37.0981 257.824C38.2461 257.704 38.8504 257.945 38.8504 258.489Z" fill="black"/>
<path d="M42.8988 269.728C41.9321 269.184 41.1466 268.399 40.6028 267.432C40.059 266.465 39.7568 265.377 39.7568 264.169C39.7568 262.961 40.059 261.873 40.6028 260.906C41.1466 259.939 41.9321 259.154 42.8988 258.61C43.8656 258.066 44.9532 257.764 46.1617 257.764C47.3701 257.764 48.4577 258.066 49.4245 258.61C50.3913 259.154 51.1768 259.939 51.7206 260.906C52.2644 261.873 52.5665 262.961 52.5665 264.169C52.5665 265.377 52.2644 266.465 51.7206 267.432C51.1768 268.399 50.3913 269.184 49.4245 269.728C48.4577 270.272 47.3701 270.574 46.1617 270.574C45.0136 270.574 43.926 270.272 42.8988 269.728ZM48.7599 268.58C49.5454 268.157 50.1496 267.553 50.5725 266.767C50.9955 265.982 51.2372 265.136 51.2372 264.169C51.2372 263.202 50.9955 262.356 50.5725 261.571C50.1496 260.785 49.5454 260.181 48.7599 259.698C47.9744 259.275 47.1284 259.033 46.1617 259.033C45.1949 259.033 44.349 259.275 43.5635 259.698C42.778 260.121 42.1738 260.785 41.7508 261.571C41.3278 262.356 41.0861 263.202 41.0861 264.169C41.0861 265.136 41.3278 265.982 41.7508 266.767C42.1738 267.553 42.778 268.157 43.5635 268.58C44.349 269.003 45.1949 269.245 46.1617 269.245C47.1889 269.245 48.0348 269.063 48.7599 268.58Z" fill="black"/>
<path d="M52.1432 275.589C52.0223 275.468 51.9619 275.286 51.9619 275.105C51.9619 274.924 52.0223 274.743 52.1432 274.622C52.264 274.501 52.4453 274.441 52.687 274.441C53.835 274.441 54.8018 274.078 55.5269 273.353C56.2519 272.628 56.6145 271.661 56.6145 270.513V258.61C56.6145 258.368 56.6749 258.247 56.7958 258.126C56.9166 258.005 57.0979 257.945 57.2791 257.945C57.5208 257.945 57.6417 258.005 57.8229 258.126C57.9438 258.247 58.0042 258.428 58.0042 258.61V270.513C58.0042 271.54 57.7625 272.447 57.3396 273.292C56.8562 274.078 56.2519 274.743 55.406 275.226C54.6205 275.709 53.6538 275.891 52.6266 275.891C52.4453 275.77 52.264 275.709 52.1432 275.589ZM56.4936 254.924C56.3124 254.743 56.1915 254.441 56.1915 254.138C56.1915 253.776 56.3124 253.534 56.4936 253.353C56.7353 253.172 56.977 253.051 57.2791 253.051C57.5813 253.051 57.8229 253.172 58.0042 253.353C58.1855 253.534 58.3063 253.776 58.3063 254.138C58.3063 254.441 58.1855 254.682 58.0042 254.924C57.8229 255.105 57.5208 255.226 57.2187 255.226C56.977 255.226 56.6749 255.105 56.4936 254.924Z" fill="black"/>
<path d="M70.3297 258.55C71.236 259.094 71.9007 259.819 72.3841 260.725C72.8675 261.632 73.1091 262.719 73.1091 263.928C73.1091 264.109 73.0487 264.29 72.9279 264.411C72.807 264.532 72.6258 264.592 72.4445 264.592H62.8372C62.8977 265.499 63.1394 266.284 63.5623 267.009C63.9853 267.734 64.5895 268.278 65.3146 268.701C66.0397 269.124 66.8252 269.305 67.7315 269.305C68.3357 269.305 68.94 269.184 69.5442 269.003C70.1484 268.822 70.6318 268.52 70.9943 268.218C71.1756 268.097 71.2965 268.036 71.4777 268.036C71.659 268.036 71.7798 268.097 71.9007 268.157C72.082 268.278 72.1424 268.459 72.1424 268.641C72.1424 268.822 72.082 268.943 71.9611 269.064C71.4777 269.487 70.8131 269.849 70.0276 270.151C69.2421 270.453 68.4566 270.574 67.7919 270.574C66.5835 270.574 65.4959 270.272 64.5895 269.728C63.6227 269.184 62.8977 268.399 62.3539 267.432C61.81 266.465 61.5684 265.378 61.5684 264.109C61.5684 262.84 61.81 261.752 62.2934 260.786C62.7768 259.819 63.5019 259.033 64.4082 258.49C65.3146 257.946 66.3418 257.704 67.4898 257.704C68.4566 257.765 69.4838 258.006 70.3297 258.55ZM64.3478 260.242C63.5019 261.027 63.0185 262.115 62.8977 263.384H71.8403C71.7194 262.055 71.2965 261.027 70.4505 260.242C69.665 259.456 68.6378 259.033 67.369 259.033C66.1605 259.033 65.1333 259.396 64.3478 260.242Z" fill="black"/>
<path d="M85.7987 269.849C85.7987 270.03 85.7382 270.151 85.557 270.332C85.3757 270.453 85.2549 270.513 85.134 270.513C84.9527 270.513 84.7715 270.393 84.6506 270.211L79.6355 264.109L77.5207 266.042V269.667C77.5207 269.849 77.4603 270.03 77.3394 270.151C77.2186 270.272 77.0373 270.332 76.8561 270.332C76.6748 270.332 76.4935 270.272 76.3727 270.151C76.2518 270.03 76.1914 269.849 76.1914 269.667V253.172C76.1914 252.93 76.2518 252.809 76.3727 252.689C76.4935 252.568 76.6748 252.507 76.8561 252.507C77.0977 252.507 77.2186 252.568 77.3394 252.689C77.4603 252.809 77.5207 252.991 77.5207 253.172V264.411L84.6506 257.945C84.8319 257.825 84.9527 257.764 85.0736 257.764C85.2549 257.764 85.3757 257.825 85.4965 258.006C85.6174 258.127 85.6778 258.308 85.6778 258.429C85.6778 258.61 85.6174 258.731 85.4361 258.852L80.5419 263.263L85.557 269.426C85.7382 269.547 85.7987 269.667 85.7987 269.849Z" fill="black"/>
<path d="M95.527 269.244C95.6478 269.365 95.7083 269.547 95.7083 269.788C95.7083 269.969 95.6478 270.151 95.527 270.272C95.4061 270.392 95.2249 270.453 94.9832 270.453H94.4394C93.5935 270.453 92.8684 270.272 92.2037 269.849C91.5391 269.426 91.0557 268.942 90.6931 268.278C90.3306 267.613 90.1493 266.827 90.1493 266.042V259.577H88.3367C88.1554 259.577 87.9741 259.516 87.9137 259.395C87.7928 259.275 87.7324 259.154 87.7324 258.972C87.7324 258.791 87.7928 258.61 87.9137 258.55C88.0345 258.429 88.1554 258.368 88.3367 258.368H90.1493V254.622C90.1493 254.38 90.2098 254.26 90.3306 254.078C90.4515 253.957 90.6327 253.897 90.814 253.897C91.0557 253.897 91.1765 253.957 91.3578 254.078C91.4786 254.199 91.5391 254.38 91.5391 254.622V258.368H94.5602C94.7415 258.368 94.9228 258.429 94.9832 258.55C95.104 258.67 95.1644 258.791 95.1644 258.972C95.1644 259.154 95.104 259.335 94.9832 259.395C94.8623 259.516 94.7415 259.577 94.5602 259.577H91.5391V266.042C91.5391 266.948 91.8412 267.673 92.385 268.217C92.9288 268.761 93.6539 269.063 94.4998 269.063H94.9832C95.2249 269.003 95.3457 269.063 95.527 269.244Z" fill="black"/>
<path d="M100.24 270.091C99.3945 269.789 98.7298 269.305 98.1256 268.641C98.0048 268.52 97.9443 268.399 97.9443 268.218C97.9443 267.976 98.0652 267.855 98.2465 267.674C98.3673 267.613 98.4881 267.553 98.609 267.553C98.8507 267.553 98.9715 267.613 99.1528 267.795C99.9383 268.701 101.147 269.184 102.839 269.184C104.047 269.184 104.953 268.943 105.497 268.52C106.041 268.097 106.343 267.553 106.343 266.888C106.343 265.68 105.195 264.894 102.839 264.592C101.328 264.351 100.24 263.988 99.4549 263.384C98.6694 262.78 98.3069 262.055 98.3069 261.209C98.3069 260.061 98.7298 259.215 99.5153 258.61C100.361 258.006 101.388 257.704 102.718 257.704C104.651 257.704 106.101 258.369 107.129 259.758C107.249 259.879 107.249 260 107.249 260.121C107.249 260.363 107.129 260.484 106.887 260.665C106.706 260.725 106.645 260.786 106.524 260.786C106.283 260.786 106.101 260.665 105.92 260.484C105.135 259.517 104.047 258.973 102.657 258.973C101.751 258.973 100.965 259.154 100.422 259.577C99.8779 260 99.5758 260.484 99.5758 261.088C99.5758 261.692 99.8174 262.175 100.361 262.538C100.905 262.9 101.751 263.203 103.02 263.384C104.651 263.626 105.799 264.049 106.524 264.653C107.249 265.317 107.612 266.042 107.612 266.949C107.612 267.674 107.37 268.278 106.947 268.822C106.524 269.366 105.92 269.789 105.135 270.091C104.41 270.393 103.564 270.514 102.657 270.514C101.932 270.574 101.086 270.393 100.24 270.091Z" fill="black"/>
</svg>
