<svg width="201" height="259" viewBox="0 0 201 259" fill="none" xmlns="http://www.w3.org/2000/svg">
<rect x="0.963867" width="200" height="258.006" rx="12" fill="white"/>
<path d="M186.764 13.8975H15.4653V185.197H186.764V13.8975Z" fill="#ED1C24"/>
<path d="M15.7071 215.046C15.5863 214.925 15.5259 214.744 15.5259 214.562V198.006C15.5259 197.765 15.5863 197.644 15.7071 197.523C15.828 197.402 16.0093 197.342 16.1905 197.342H20.2993C22.0516 197.342 23.5621 197.704 24.9519 198.49C26.3416 199.275 27.3688 200.303 28.1543 201.692C28.9398 203.022 29.3023 204.593 29.3023 206.345C29.3023 208.097 28.9398 209.608 28.1543 210.997C27.3688 212.387 26.3416 213.414 24.9519 214.2C23.5621 214.985 22.0516 215.348 20.2993 215.348H16.1905C16.0093 215.227 15.828 215.167 15.7071 215.046ZM20.2993 214.019C21.7494 214.019 23.0787 213.656 24.2268 212.991C25.3748 212.327 26.2812 211.42 26.9458 210.212C27.6105 209.003 27.9126 207.735 27.9126 206.224C27.9126 204.774 27.6105 203.445 26.9458 202.236C26.2812 201.088 25.3748 200.121 24.2268 199.457C23.0787 198.792 21.7494 198.429 20.2993 198.429H16.8552V213.898H20.2993V214.019Z" fill="black"/>
<path d="M33.1691 215.046C33.0482 214.925 32.9878 214.744 32.9878 214.562V198.006C32.9878 197.825 33.0482 197.644 33.1691 197.523C33.2899 197.402 33.4712 197.342 33.6524 197.342H44.7098C44.8911 197.342 45.0724 197.402 45.1932 197.523C45.3141 197.644 45.3745 197.825 45.3745 198.006C45.3745 198.188 45.3141 198.369 45.1932 198.49C45.0724 198.611 44.8911 198.671 44.7098 198.671H34.3171V205.559H41.9304C42.1117 205.559 42.2929 205.62 42.4138 205.741C42.5346 205.861 42.595 206.043 42.595 206.224C42.595 206.405 42.5346 206.587 42.4138 206.707C42.2929 206.828 42.1117 206.889 41.9304 206.889H34.3171V213.777H44.6494C44.8307 213.777 45.012 213.837 45.1328 213.958C45.2537 214.079 45.3141 214.26 45.3141 214.441C45.3141 214.623 45.2537 214.804 45.1328 214.925C45.012 215.046 44.8307 215.106 44.6494 215.106H33.6524C33.4712 215.227 33.2899 215.167 33.1691 215.046Z" fill="black"/>
<path d="M66.4617 197.522C66.5826 197.643 66.643 197.824 66.643 198.006V214.562C66.643 214.743 66.5826 214.924 66.4617 215.045C66.3409 215.166 66.1596 215.226 65.9784 215.226C65.7971 215.226 65.6158 215.166 65.495 215.045C65.3741 214.924 65.3137 214.743 65.3137 214.562V200.483L58.3046 214.682C58.1838 214.924 58.0025 214.985 57.7004 214.985C57.3983 214.985 57.217 214.864 57.0358 214.562L50.0871 200.664V214.562C50.0871 214.743 50.0267 214.924 49.9058 215.045C49.785 215.166 49.6037 215.226 49.4225 215.226C49.2412 215.226 49.0599 215.166 48.9391 215.045C48.8182 214.924 48.7578 214.743 48.7578 214.562V198.006C48.7578 197.824 48.8182 197.643 48.9391 197.522C49.0599 197.401 49.2412 197.341 49.4225 197.341C49.7246 197.341 49.9058 197.462 50.0267 197.704L57.7608 212.93L65.3741 197.704C65.495 197.462 65.7367 197.341 65.9784 197.341C66.1596 197.281 66.3409 197.341 66.4617 197.522Z" fill="black"/>
<path d="M74.8613 214.259C73.4716 213.474 72.384 212.326 71.538 210.936C70.6921 209.546 70.3296 207.975 70.3296 206.223C70.3296 204.531 70.7526 202.96 71.538 201.57C72.3235 200.181 73.4716 199.093 74.8613 198.247C76.251 197.462 77.822 197.039 79.5743 197.039C81.2661 197.039 82.8371 197.462 84.2269 198.247C85.6166 199.033 86.7042 200.181 87.5501 201.57C88.3356 202.96 88.7586 204.531 88.7586 206.223C88.7586 207.975 88.3356 209.546 87.5501 210.936C86.7646 212.326 85.6166 213.413 84.2269 214.259C82.8371 215.105 81.2661 215.468 79.5743 215.468C77.822 215.468 76.251 215.045 74.8613 214.259ZM83.5018 213.051C84.7103 212.386 85.6166 211.419 86.3417 210.211C87.0063 209.002 87.3689 207.673 87.3689 206.223C87.3689 204.773 87.0063 203.443 86.3417 202.235C85.677 201.026 84.7103 200.12 83.5018 199.395C82.2933 198.73 80.964 198.368 79.5139 198.368C78.0637 198.368 76.7344 198.73 75.526 199.395C74.3175 200.06 73.4112 201.026 72.6861 202.235C72.0214 203.443 71.6589 204.773 71.6589 206.223C71.6589 207.673 72.0214 209.002 72.6861 210.211C73.3507 211.419 74.3175 212.326 75.526 213.051C76.7344 213.715 78.0637 214.078 79.5139 214.078C80.964 214.078 82.2933 213.715 83.5018 213.051Z" fill="black"/>
<path d="M92.566 215.046C92.4452 214.925 92.3848 214.744 92.3848 214.562V198.006C92.3848 197.825 92.4452 197.644 92.566 197.523C92.6869 197.402 92.8682 197.342 93.0494 197.342C93.2307 197.342 93.412 197.402 93.5328 197.523C93.6537 197.644 93.7141 197.825 93.7141 198.006V214.019H103.14C103.321 214.019 103.503 214.079 103.623 214.2C103.744 214.321 103.805 214.441 103.805 214.623C103.805 214.804 103.744 214.985 103.623 215.046C103.503 215.167 103.321 215.227 103.14 215.227H92.989C92.8681 215.227 92.7473 215.167 92.566 215.046Z" fill="black"/>
<path d="M120.298 214.562C120.298 214.744 120.238 214.925 120.117 215.046C119.996 215.167 119.815 215.227 119.634 215.227C119.332 215.227 119.09 215.106 118.969 214.804L117.277 210.756H107.912L106.22 214.804C106.099 215.106 105.918 215.227 105.555 215.227C105.314 215.227 105.193 215.167 105.072 215.046C104.951 214.925 104.891 214.744 104.891 214.562C104.891 214.441 104.891 214.381 104.951 214.26L111.9 197.825C112.021 197.523 112.262 197.342 112.564 197.342C112.866 197.342 113.108 197.523 113.229 197.825L120.238 214.26C120.298 214.321 120.298 214.441 120.298 214.562ZM108.456 209.487H116.734L112.564 199.577L108.456 209.487Z" fill="black"/>
<path d="M15.7071 242.598C15.5863 242.477 15.5259 242.296 15.5259 242.115V225.559C15.5259 225.377 15.5863 225.196 15.7071 225.075C15.828 224.954 16.0093 224.894 16.1905 224.894C16.3718 224.894 16.5531 224.954 16.6739 225.075C16.7948 225.196 16.8552 225.377 16.8552 225.559V241.571H26.2812C26.4624 241.571 26.6437 241.631 26.7646 241.752C26.8854 241.873 26.9458 241.994 26.9458 242.175C26.9458 242.356 26.8854 242.538 26.7646 242.598C26.6437 242.719 26.4624 242.779 26.2812 242.779H16.1905C16.0093 242.779 15.828 242.719 15.7071 242.598Z" fill="black"/>
<path d="M38.6673 230.936C39.6341 231.48 40.4196 232.266 40.9634 233.232C41.5072 234.199 41.8093 235.287 41.8093 236.495V242.054C41.8093 242.235 41.7489 242.417 41.628 242.537C41.5072 242.658 41.3259 242.719 41.1447 242.719C40.9634 242.719 40.7821 242.658 40.6613 242.537C40.5404 242.417 40.48 242.235 40.48 242.054V240.241C39.9966 241.027 39.2715 241.692 38.4256 242.175C37.5193 242.658 36.5525 242.9 35.4649 242.9C34.2564 242.9 33.1688 242.598 32.2021 242.054C31.2353 241.51 30.4498 240.725 29.906 239.758C29.3622 238.791 29.0601 237.704 29.0601 236.495C29.0601 235.287 29.3622 234.199 29.906 233.232C30.4498 232.266 31.2353 231.48 32.2021 230.936C33.1688 230.392 34.2564 230.09 35.4649 230.09C36.5525 230.09 37.6401 230.392 38.6673 230.936ZM37.9422 240.966C38.7277 240.544 39.332 239.939 39.7549 239.154C40.1779 238.368 40.4196 237.522 40.4196 236.556C40.4196 235.589 40.1779 234.743 39.7549 233.957C39.332 233.172 38.7277 232.568 37.9422 232.084C37.1567 231.661 36.3108 231.42 35.344 231.42C34.3773 231.42 33.5314 231.661 32.7459 232.084C31.9604 232.507 31.3561 233.172 30.9332 233.957C30.5102 234.743 30.2685 235.589 30.2685 236.556C30.2685 237.522 30.5102 238.368 30.9332 239.154C31.3561 239.939 31.9604 240.544 32.7459 240.966C33.5314 241.389 34.3773 241.631 35.344 241.631C36.3108 241.631 37.1567 241.389 37.9422 240.966Z" fill="black"/>
<path d="M51.4166 241.571C51.5375 241.691 51.5979 241.873 51.5979 242.114C51.5979 242.296 51.5375 242.477 51.4166 242.598C51.2958 242.719 51.1145 242.779 50.8728 242.779H50.329C49.4831 242.779 48.758 242.598 48.0934 242.175C47.4287 241.812 46.9453 241.268 46.5828 240.604C46.2203 239.939 46.039 239.214 46.039 238.368V231.903H44.2263C44.045 231.903 43.8638 231.842 43.8033 231.722C43.6825 231.601 43.6221 231.48 43.6221 231.299C43.6221 231.117 43.6825 230.936 43.8033 230.876C43.9242 230.755 44.045 230.694 44.2263 230.694H46.039V226.948C46.039 226.707 46.0994 226.586 46.2203 226.404C46.3411 226.284 46.5224 226.223 46.7036 226.223C46.9453 226.223 47.0662 226.284 47.2474 226.404C47.3683 226.525 47.4287 226.707 47.4287 226.948V230.694H50.4499C50.6311 230.694 50.8124 230.755 50.8728 230.876C50.9937 230.997 51.0541 231.117 51.0541 231.299C51.0541 231.48 50.9937 231.661 50.8728 231.722C50.752 231.842 50.6311 231.903 50.4499 231.903H47.4287V238.368C47.4287 239.275 47.7308 240 48.2746 240.543C48.8184 241.087 49.5435 241.389 50.3894 241.389H50.8728C51.1145 241.389 51.2958 241.45 51.4166 241.571Z" fill="black"/>
<path d="M64.7697 230.876C64.7697 230.997 64.7697 231.057 64.7092 231.117L59.5733 242.356C59.392 242.658 59.1503 242.839 58.8482 242.839C58.7274 242.839 58.6065 242.779 58.4857 242.719C58.3648 242.658 58.3044 242.537 58.244 242.356L52.9872 231.178C52.9268 231.117 52.9268 231.057 52.9268 230.936C52.9268 230.634 53.0476 230.453 53.2893 230.332C53.4101 230.271 53.4706 230.271 53.5914 230.271C53.8331 230.271 54.0144 230.392 54.1352 230.634L58.8482 240.846L63.5008 230.634C63.6216 230.392 63.8029 230.271 64.105 230.271C64.2259 230.271 64.2863 230.271 64.4071 230.332C64.5884 230.392 64.7697 230.574 64.7697 230.876Z" fill="black"/>
<path d="M67.6107 227.251C67.4294 227.069 67.3086 226.767 67.3086 226.465C67.3086 226.103 67.4294 225.861 67.6107 225.68C67.8524 225.498 68.0941 225.377 68.3962 225.377C68.6983 225.377 68.94 225.498 69.1213 225.68C69.3026 225.861 69.4234 226.103 69.4234 226.465C69.4234 226.767 69.3026 227.009 69.1213 227.251C68.94 227.432 68.6379 227.553 68.3358 227.553C68.0941 227.613 67.8524 227.492 67.6107 227.251ZM67.9128 242.598C67.792 242.477 67.7316 242.296 67.7316 242.115V230.936C67.7316 230.695 67.792 230.574 67.9128 230.453C68.0337 230.332 68.2149 230.272 68.3962 230.272C68.6379 230.272 68.7587 230.332 68.8796 230.453C69.0004 230.574 69.0609 230.755 69.0609 230.936V242.115C69.0609 242.296 69.0004 242.477 68.8796 242.598C68.7587 242.719 68.5775 242.779 68.3962 242.779C68.2149 242.779 68.0337 242.719 67.9128 242.598Z" fill="black"/>
<path d="M69.7863 247.976C69.6654 247.855 69.605 247.674 69.605 247.492C69.605 247.311 69.6654 247.13 69.7863 247.009C69.9071 246.888 70.0884 246.828 70.3301 246.828C71.4781 246.828 72.4449 246.465 73.1699 245.74C73.895 245.015 74.2575 244.048 74.2575 242.9V230.997C74.2575 230.755 74.318 230.634 74.4388 230.513C74.5597 230.393 74.7409 230.332 74.9222 230.332C75.1639 230.332 75.2847 230.393 75.466 230.513C75.5869 230.634 75.6473 230.816 75.6473 230.997V242.9C75.6473 243.927 75.4056 244.834 74.9826 245.68C74.4992 246.465 73.895 247.13 73.0491 247.613C72.2636 248.096 71.2968 248.278 70.2696 248.278C70.0884 248.157 69.9071 248.096 69.7863 247.976ZM74.1367 227.251C73.9554 227.069 73.8346 226.767 73.8346 226.465C73.8346 226.103 73.9554 225.861 74.1367 225.68C74.3784 225.498 74.6201 225.377 74.9222 225.377C75.2243 225.377 75.466 225.498 75.6473 225.68C75.8285 225.861 75.9494 226.103 75.9494 226.465C75.9494 226.767 75.8285 227.009 75.6473 227.251C75.466 227.432 75.1639 227.553 74.8618 227.553C74.5597 227.613 74.318 227.492 74.1367 227.251Z" fill="black"/>
<path d="M88.7591 230.936C89.7259 231.48 90.5114 232.266 91.0552 233.232C91.599 234.199 91.9011 235.287 91.9011 236.495V242.054C91.9011 242.235 91.8407 242.417 91.7198 242.537C91.599 242.658 91.4177 242.719 91.2364 242.719C91.0552 242.719 90.8739 242.658 90.7531 242.537C90.6322 242.417 90.5718 242.235 90.5718 242.054V240.241C90.0884 241.027 89.3633 241.692 88.5174 242.175C87.6111 242.658 86.6443 242.9 85.5567 242.9C84.3482 242.9 83.2606 242.598 82.2938 242.054C81.3271 241.51 80.5416 240.725 79.9978 239.758C79.454 238.791 79.1519 237.704 79.1519 236.495C79.1519 235.287 79.454 234.199 79.9978 233.232C80.5416 232.266 81.3271 231.48 82.2938 230.936C83.2606 230.392 84.3482 230.09 85.5567 230.09C86.7047 230.09 87.7923 230.392 88.7591 230.936ZM88.0945 240.966C88.8799 240.544 89.4842 239.939 89.9071 239.154C90.3301 238.368 90.5718 237.522 90.5718 236.556C90.5718 235.589 90.3301 234.743 89.9071 233.957C89.4842 233.172 88.8799 232.568 88.0945 232.084C87.309 231.661 86.463 231.42 85.4963 231.42C84.5295 231.42 83.6836 231.661 82.8981 232.084C82.1126 232.507 81.5083 233.172 81.0854 233.957C80.6624 234.743 80.4207 235.589 80.4207 236.556C80.4207 237.522 80.6624 238.368 81.0854 239.154C81.5083 239.939 82.1126 240.544 82.8981 240.966C83.6836 241.389 84.5295 241.631 85.4963 241.631C86.463 241.631 87.309 241.389 88.0945 240.966Z" fill="black"/>
<path d="M139.936 76.3139C141.628 76.3139 142.957 74.9242 142.957 73.2323V68.0359L138.425 64.471C138.123 64.2293 138.304 63.7459 138.727 63.7459H141.507C142.353 63.7459 143.017 63.0813 143.017 62.2353V52.5677C143.017 51.7217 142.353 51.0571 141.507 51.0571H138.727C138.365 51.0571 138.183 50.5737 138.425 50.332L142.957 46.1024V41.0873C142.957 39.3955 141.567 38.0057 139.875 38.0057L125.495 37.9453C113.531 37.9453 103.803 46.5858 103.803 57.1598C103.803 67.7338 113.531 76.3743 125.495 76.3743L139.936 76.3139Z" fill="white"/>
<path d="M124.165 119.154C135.077 119.154 143.923 110.308 143.923 99.3955C143.923 88.4833 135.077 79.6372 124.165 79.6372C113.252 79.6372 104.406 88.4833 104.406 99.3955C104.406 110.308 113.252 119.154 124.165 119.154Z" fill="white"/>
<path d="M142.897 144.229C142.897 144.169 142.897 144.169 142.897 144.109C142.897 132.205 134.014 122.538 123.38 122.538C112.745 122.538 103.863 132.205 103.863 144.109C103.863 144.169 103.863 144.169 103.863 144.229V157.945C103.863 159.637 105.253 161.027 106.945 161.027H117.761C118.667 161.027 119.513 160.604 120.117 159.939L122.413 157.583C122.594 157.402 123.017 157.039 123.319 157.039C123.682 157.039 124.045 157.402 124.226 157.583L126.522 159.939C127.126 160.604 127.972 161.027 128.878 161.027H139.694C141.386 161.027 142.776 159.637 142.776 157.945L142.897 144.229Z" fill="white"/>
<path d="M61.4467 37.9453C59.7548 37.9453 58.3047 39.335 58.3047 41.0269V73.2323C58.3047 74.9242 59.7548 76.3139 61.4467 76.3139H75.8273C87.7911 76.3139 97.5192 67.7338 97.5192 57.0994C97.5192 46.465 87.7911 37.9453 75.8273 37.9453H61.4467V37.9453Z" fill="white"/>
<path d="M101.446 80.2412H100.238H101.446C100.963 80.2412 99.4522 80.2412 97.4583 80.3016C88.8782 80.6642 81.8087 88.5192 80.1773 97.5222C80.1169 97.7034 79.996 97.7639 79.8752 97.7639C79.7543 97.7639 79.5731 97.7034 79.5731 97.5222C77.8812 88.5192 70.8722 80.6642 62.2921 80.3016C60.2982 80.2412 58.7876 80.2412 58.3042 80.2412H59.5127H58.3042C58.3042 80.2412 58.3042 115.83 58.3042 116.012C58.5459 117.522 59.8148 118.67 61.3858 118.67H71.4764C73.1682 118.67 74.4975 117.28 74.558 115.589C74.558 115.528 74.6184 114.32 74.6184 114.32C74.6184 113.957 75.1018 113.776 75.3435 114.018L79.8148 118.489L84.2861 114.018C84.5278 113.776 85.0111 113.957 85.0111 114.32C85.0111 114.32 85.0716 115.528 85.0716 115.589C85.132 117.28 86.4613 118.61 88.1531 118.67H98.2438C99.8148 118.67 101.084 117.522 101.325 116.012C101.507 115.83 101.446 80.2412 101.446 80.2412Z" fill="white"/>
<path d="M58.3042 158.006C58.3042 159.698 59.6939 161.087 61.3858 161.087L94.135 161.148C95.8269 161.148 97.5187 159.818 97.5187 158.127V147.25C97.5187 145.257 95.8873 143.625 93.8933 143.625H80.3586C78.6667 143.625 77.277 142.235 77.277 140.544V122.477C66.7634 122.598 58.3042 131.782 58.3042 143.081V158.006Z" fill="white"/>
</svg>
