<svg width="201" height="259" viewBox="0 0 201 259" fill="none" xmlns="http://www.w3.org/2000/svg">
<rect x="0.963867" width="200" height="258.006" rx="12" fill="white"/>
<path d="M187.248 13.8975H15.9487V185.197H187.248V13.8975Z" fill="#414042"/>
<path d="M159.574 82.9609L144.469 74.26V58.127L114.559 40.7856L98.5472 49.9095V55.7101C92.8674 54.9246 88.1544 51.0575 86.2209 45.8612C85.8583 44.9548 84.8312 44.411 83.8644 44.7131C80.2994 45.8008 76.8553 47.2509 73.6529 48.9427C72.807 49.4261 72.4444 50.4533 72.807 51.3597C75.4052 57.0394 74.4384 63.9881 69.7254 68.6406C65.0728 73.2932 58.1242 74.3204 52.4444 71.7222C51.5381 71.2992 50.5109 71.6618 50.0275 72.5681C48.2753 75.831 46.8855 79.2146 45.7979 82.7796C45.4958 83.7464 45.9792 84.7736 46.946 85.1361C52.807 87.3113 56.9762 92.9307 56.9762 99.5168C56.9762 106.103 52.807 111.722 46.946 113.897C45.9792 114.26 45.4958 115.287 45.7979 116.254C46.8855 119.819 48.3357 123.263 50.0275 126.465C50.5109 127.311 51.5381 127.674 52.4444 127.311C58.1242 124.713 65.0728 125.68 69.7254 130.393C74.378 135.045 75.4052 141.994 72.807 147.674C72.384 148.58 72.7466 149.607 73.6529 150.091C76.9157 151.843 80.2994 153.233 83.8644 154.32C84.8312 154.623 85.8583 154.079 86.2209 153.172C88.1544 147.916 92.8674 144.048 98.5472 143.323V149.366L113.955 158.248L145.617 140.242V124.774L159.574 116.979V82.9609ZM143.562 121.269L130.571 114.562L130.692 100.242L144.408 92.4473L142.414 88.8823L128.638 96.6769L116.009 89.3657V76.979L130.39 68.8823L128.396 65.3174L111.961 74.6225V91.7222L126.644 100.181L126.523 114.562L112.565 122.357V139.819H116.674V124.774L128.638 118.067L141.689 124.774V137.825L131.659 143.505V131.843H127.55V145.861L113.955 153.535L102.596 147.009V125.861H100.541C99.8161 125.861 99.1514 125.861 98.4263 125.801C85.6167 124.774 75.2843 114.441 74.2571 101.632C73.0487 86.1029 85.2541 73.1724 100.541 73.1724H102.596V52.266L114.559 45.4986L124.106 50.9971L113.532 56.979L115.526 60.544L128.154 53.3536L140.36 60.4231V74.1995L127.49 81.5711L129.484 85.1361L142.414 77.7645L155.466 85.3174V99.6376L142.535 107.009L144.589 110.574L155.466 104.351V114.623L143.562 121.269Z" fill="white"/>
<path d="M15.9491 199.818C15.7678 199.637 15.647 199.335 15.647 199.033C15.647 198.67 15.7678 198.429 15.9491 198.247C16.1908 198.066 16.4325 197.945 16.7346 197.945C17.0367 197.945 17.2784 198.066 17.4597 198.247C17.6409 198.429 17.7618 198.67 17.7618 199.033C17.7618 199.335 17.6409 199.577 17.4597 199.818C17.2784 200 16.9763 200.121 16.6742 200.121C16.372 200.121 16.1304 200 15.9491 199.818ZM16.1908 215.226C16.0699 215.105 16.0095 214.924 16.0095 214.743V203.504C16.0095 203.263 16.0699 203.142 16.1908 203.021C16.3116 202.9 16.4929 202.84 16.6742 202.84C16.9159 202.84 17.0367 202.9 17.1575 203.021C17.2784 203.142 17.3388 203.323 17.3388 203.504V214.743C17.3388 214.924 17.2784 215.105 17.1575 215.226C17.0367 215.347 16.8554 215.408 16.6742 215.408C16.4929 215.408 16.372 215.347 16.1908 215.226Z" fill="black"/>
<path d="M30.8127 203.323C31.7191 203.806 32.3837 204.471 32.8671 205.317C33.3505 206.223 33.5922 207.251 33.5922 208.519V214.743C33.5922 214.924 33.5318 215.105 33.4109 215.226C33.2901 215.347 33.1088 215.408 32.9275 215.408C32.7463 215.408 32.565 215.347 32.4441 215.226C32.3233 215.105 32.2629 214.924 32.2629 214.743V208.519C32.2629 207.069 31.8399 205.921 31.0544 205.196C30.2085 204.411 29.1813 204.048 27.852 204.048C27.0061 204.048 26.281 204.229 25.6163 204.531C24.9517 204.834 24.4079 205.257 24.0454 205.861C23.6828 206.405 23.4411 207.069 23.4411 207.734V214.803C23.4411 214.985 23.3807 215.166 23.2599 215.287C23.139 215.408 22.9577 215.468 22.7765 215.468C22.5952 215.468 22.4139 215.408 22.2931 215.287C22.1722 215.166 22.1118 214.985 22.1118 214.803V203.565C22.1118 203.323 22.1722 203.202 22.2931 203.081C22.4139 202.96 22.5952 202.9 22.7765 202.9C23.0182 202.9 23.139 202.96 23.2599 203.081C23.3807 203.202 23.4411 203.383 23.4411 203.565V204.773C23.9849 204.109 24.5892 203.625 25.3747 203.263C26.0997 202.9 26.9457 202.719 27.852 202.719C28.9396 202.598 29.9064 202.84 30.8127 203.323Z" fill="black"/>
<path d="M49.6047 197.583C49.7256 197.704 49.786 197.885 49.786 198.066V209.184V209.244C49.786 210.453 49.4839 211.48 48.8796 212.447C48.3358 213.414 47.5503 214.199 46.5836 214.743C45.6168 215.287 44.5292 215.589 43.3207 215.589C42.1123 215.589 41.0247 215.287 39.9975 214.743C39.0307 214.199 38.2452 213.414 37.7014 212.447C37.1576 211.48 36.8555 210.332 36.8555 209.124C36.8555 207.915 37.1576 206.828 37.7014 205.861C38.2452 204.894 39.0307 204.109 39.9975 203.565C40.9642 203.021 42.1123 202.719 43.3207 202.719C44.4083 202.719 45.3751 202.96 46.2814 203.444C47.1878 203.927 47.8524 204.531 48.3963 205.377V198.187C48.3963 197.945 48.4567 197.825 48.5775 197.704C48.6984 197.583 48.8796 197.522 49.0609 197.522C49.3026 197.402 49.4839 197.462 49.6047 197.583ZM45.9189 213.595C46.7044 213.112 47.3086 212.507 47.7316 211.722C48.1546 210.936 48.3963 210.03 48.3963 209.063C48.3963 208.096 48.1546 207.19 47.7316 206.405C47.3086 205.619 46.7044 205.015 45.9189 204.531C45.1334 204.048 44.2875 203.867 43.3207 203.867C42.354 203.867 41.508 204.109 40.7225 204.531C39.937 204.954 39.3328 205.619 38.9098 206.405C38.4869 207.19 38.2452 208.096 38.2452 209.063C38.2452 210.03 38.4869 210.936 38.9098 211.722C39.3328 212.507 39.937 213.112 40.7225 213.595C41.508 214.078 42.354 214.26 43.3207 214.26C44.2875 214.26 45.1334 214.018 45.9189 213.595Z" fill="black"/>
<path d="M65.1334 202.96C65.2543 203.081 65.3147 203.263 65.3147 203.444V214.682C65.3147 214.864 65.2543 215.045 65.1334 215.166C65.0126 215.287 64.8313 215.347 64.6501 215.347C64.4688 215.347 64.2875 215.287 64.1667 215.166C64.0458 215.045 63.9854 214.864 63.9854 214.682V213.474C63.4416 214.139 62.8374 214.622 62.0519 214.985C61.3268 215.347 60.4809 215.528 59.5745 215.528C58.4265 215.528 57.4597 215.287 56.5534 214.864C55.647 214.38 54.9824 213.716 54.499 212.87C54.0156 212.024 53.7739 210.936 53.7739 209.667V203.444C53.7739 203.263 53.8343 203.081 53.9552 202.96C54.076 202.84 54.2573 202.779 54.4386 202.779C54.6198 202.779 54.8011 202.84 54.922 202.96C55.0428 203.081 55.1032 203.263 55.1032 203.444V209.667C55.1032 211.118 55.5262 212.266 56.3117 212.991C57.1576 213.776 58.1848 214.139 59.5141 214.139C60.36 214.139 61.0851 213.957 61.7498 213.655C62.4144 213.353 62.9582 212.93 63.3208 212.326C63.6833 211.782 63.925 211.118 63.925 210.453V203.383C63.925 203.142 63.9854 203.021 64.1063 202.9C64.2271 202.779 64.4084 202.719 64.5896 202.719C64.8313 202.779 65.0126 202.84 65.1334 202.96Z" fill="black"/>
<path d="M71.175 215.105C70.3291 214.803 69.604 214.32 69.0602 213.655C68.9393 213.534 68.8789 213.413 68.8789 213.232C68.8789 212.99 68.9998 212.87 69.181 212.688C69.3019 212.628 69.4227 212.567 69.5436 212.567C69.7852 212.567 69.9061 212.628 70.0874 212.809C70.8729 213.776 72.0813 214.199 73.8336 214.199C75.042 214.199 75.9484 213.957 76.5526 213.534C77.1568 213.111 77.3985 212.567 77.3985 211.842C77.3985 210.634 76.2505 209.848 73.894 209.486C72.3834 209.244 71.2958 208.882 70.5103 208.277C69.7248 207.673 69.3623 206.948 69.3623 206.102C69.3623 204.954 69.7852 204.108 70.5707 203.504C71.4167 202.9 72.4439 202.598 73.7732 202.598C75.7067 202.598 77.1569 203.262 78.184 204.652C78.3049 204.773 78.3049 204.894 78.3049 205.015C78.3049 205.256 78.184 205.377 77.9423 205.558C77.7611 205.619 77.7007 205.679 77.5798 205.679C77.3381 205.679 77.1569 205.558 76.9756 205.377C76.1901 204.35 75.1025 203.867 73.6523 203.867C72.6856 203.867 71.9605 204.048 71.4167 204.471C70.8729 204.894 70.5707 205.377 70.5707 205.981C70.5707 206.586 70.8124 207.069 71.3562 207.431C71.9001 207.794 72.8064 208.096 74.0149 208.277C75.6463 208.519 76.7943 208.942 77.5194 209.607C78.2445 210.271 78.607 210.996 78.607 211.903C78.607 212.628 78.3653 213.232 77.9423 213.776C77.459 214.32 76.8547 214.743 76.1297 215.045C75.4046 215.347 74.5587 215.468 73.6523 215.468C72.8668 215.528 72.0209 215.407 71.175 215.105Z" fill="black"/>
<path d="M88.0332 214.199C88.1541 214.32 88.2145 214.501 88.2145 214.743C88.2145 214.924 88.1541 215.105 88.0332 215.226C87.9124 215.347 87.7311 215.407 87.4894 215.407H86.9456C86.0997 215.407 85.3746 215.226 84.7099 214.803C84.0453 214.441 83.5619 213.897 83.1389 213.232C82.7764 212.567 82.5951 211.782 82.5951 210.936V204.471H80.7825C80.6012 204.471 80.4199 204.41 80.3595 204.29C80.2386 204.169 80.1782 204.048 80.1782 203.867C80.1782 203.685 80.2386 203.504 80.3595 203.444C80.4803 203.323 80.6012 203.262 80.7825 203.262H82.5951V199.516C82.5951 199.274 82.6556 199.154 82.7764 198.972C82.8973 198.851 83.0785 198.791 83.2598 198.791C83.5015 198.791 83.6223 198.851 83.8036 198.972C83.9244 199.093 83.9849 199.274 83.9849 199.516V203.262H87.006C87.1873 203.262 87.3686 203.323 87.429 203.444C87.5498 203.564 87.6102 203.685 87.6102 203.867C87.6102 204.048 87.5498 204.229 87.429 204.29C87.3081 204.41 87.1873 204.471 87.006 204.471H83.9849V210.936C83.9849 211.842 84.287 212.567 84.8308 213.111C85.3746 213.655 86.0997 213.957 87.006 213.957H87.4894C87.7311 214.018 87.9124 214.078 88.0332 214.199Z" fill="black"/>
<path d="M98.2464 203.383C98.2464 203.444 98.2464 203.504 98.2464 203.564C98.1859 203.746 98.1255 203.867 98.0047 203.927C97.8838 203.987 97.763 204.048 97.5817 204.048C97.4609 204.048 97.2796 204.048 97.0379 203.987C96.7962 203.927 96.615 203.927 96.4941 203.927C95.7086 203.927 95.0439 204.108 94.4397 204.41C93.8355 204.712 93.3521 205.196 93.05 205.74C92.6875 206.283 92.5666 206.948 92.5666 207.673V214.682C92.5666 214.864 92.5062 215.045 92.3853 215.166C92.2645 215.286 92.0832 215.347 91.902 215.347C91.7207 215.347 91.5394 215.286 91.4186 215.166C91.2977 215.045 91.2373 214.864 91.2373 214.682V203.444C91.2373 203.202 91.2977 203.081 91.4186 202.96C91.5394 202.839 91.7207 202.779 91.902 202.779C92.1436 202.779 92.2645 202.839 92.3853 202.96C92.5062 203.081 92.5666 203.262 92.5666 203.444V204.894C92.9896 204.169 93.5938 203.625 94.2584 203.202C94.9231 202.779 95.7086 202.598 96.4941 202.598C97.6421 202.658 98.2464 202.9 98.2464 203.383Z" fill="black"/>
<path d="M101.629 199.818C101.448 199.637 101.327 199.335 101.327 199.033C101.327 198.67 101.448 198.429 101.629 198.247C101.871 198.066 102.113 197.945 102.415 197.945C102.717 197.945 102.959 198.066 103.14 198.247C103.321 198.429 103.442 198.67 103.442 199.033C103.442 199.335 103.321 199.577 103.14 199.818C102.959 200 102.656 200.121 102.354 200.121C102.052 200.121 101.811 200 101.629 199.818ZM101.931 215.226C101.811 215.105 101.75 214.924 101.75 214.743V203.504C101.75 203.263 101.811 203.142 101.931 203.021C102.052 202.9 102.233 202.84 102.415 202.84C102.656 202.84 102.777 202.9 102.898 203.021C103.019 203.142 103.079 203.323 103.079 203.504V214.743C103.079 214.924 103.019 215.105 102.898 215.226C102.777 215.347 102.596 215.408 102.415 215.408C102.233 215.408 102.052 215.347 101.931 215.226Z" fill="black"/>
<path d="M116.796 203.504C117.763 204.048 118.548 204.833 119.092 205.8C119.636 206.767 119.938 207.915 119.938 209.123V214.743C119.938 214.924 119.878 215.105 119.757 215.226C119.636 215.347 119.455 215.407 119.273 215.407C119.092 215.407 118.911 215.347 118.79 215.226C118.669 215.105 118.609 214.924 118.609 214.743V212.93C118.125 213.776 117.4 214.38 116.494 214.864C115.588 215.347 114.621 215.589 113.533 215.589C112.325 215.589 111.237 215.286 110.21 214.743C109.243 214.199 108.458 213.413 107.914 212.447C107.37 211.48 107.068 210.392 107.068 209.184C107.068 207.975 107.37 206.888 107.914 205.861C108.458 204.894 109.243 204.108 110.21 203.564C111.177 203.021 112.325 202.719 113.533 202.719C114.681 202.658 115.769 202.9 116.796 203.504ZM116.071 213.595C116.856 213.172 117.461 212.507 117.884 211.722C118.307 210.936 118.548 210.03 118.548 209.063C118.548 208.096 118.307 207.19 117.884 206.404C117.461 205.619 116.856 205.015 116.071 204.531C115.285 204.048 114.439 203.867 113.473 203.867C112.506 203.867 111.66 204.108 110.875 204.531C110.089 205.015 109.485 205.619 109.062 206.404C108.639 207.19 108.397 208.096 108.397 209.063C108.397 210.03 108.639 210.936 109.062 211.722C109.485 212.507 110.089 213.111 110.875 213.595C111.66 214.018 112.506 214.259 113.473 214.259C114.439 214.259 115.285 214.018 116.071 213.595ZM109.908 199.939C109.787 199.818 109.726 199.637 109.726 199.456C109.726 199.274 109.787 199.093 109.908 198.972C110.029 198.851 110.21 198.791 110.391 198.791H116.494C116.675 198.791 116.856 198.851 116.977 198.972C117.098 199.093 117.159 199.274 117.159 199.456C117.159 199.637 117.098 199.818 116.977 199.939C116.856 200.06 116.675 200.12 116.494 200.12H110.391C110.21 200.181 110.029 200.06 109.908 199.939Z" fill="black"/>
<path d="M123.744 214.32C123.2 213.595 122.898 212.688 122.898 211.601V198.066C122.898 197.824 122.958 197.703 123.079 197.583C123.2 197.462 123.381 197.401 123.563 197.401C123.804 197.401 123.925 197.462 124.046 197.583C124.167 197.703 124.227 197.885 124.227 198.066V211.601C124.227 212.326 124.348 212.87 124.65 213.353C124.952 213.836 125.315 214.018 125.798 214.018H126.402C126.584 214.018 126.705 214.078 126.825 214.199C126.946 214.32 127.007 214.501 127.007 214.682C127.007 214.864 126.946 215.045 126.825 215.166C126.705 215.287 126.523 215.347 126.342 215.347H125.859C125.073 215.407 124.348 215.045 123.744 214.32Z" fill="black"/>
<path d="M138.428 203.505C139.395 204.049 140.18 204.834 140.724 205.801C141.268 206.768 141.57 207.916 141.57 209.124V214.744C141.57 214.925 141.509 215.106 141.389 215.227C141.268 215.348 141.086 215.408 140.905 215.408C140.724 215.408 140.543 215.348 140.422 215.227C140.301 215.106 140.24 214.925 140.24 214.744V212.931C139.757 213.777 139.032 214.381 138.126 214.864C137.219 215.348 136.253 215.59 135.165 215.59C133.957 215.59 132.869 215.287 131.842 214.744C130.875 214.2 130.089 213.414 129.546 212.448C129.002 211.481 128.7 210.393 128.7 209.185C128.7 207.976 129.002 206.889 129.546 205.861C130.089 204.895 130.875 204.109 131.842 203.565C132.808 203.022 133.957 202.719 135.165 202.719C136.373 202.659 137.461 202.901 138.428 203.505ZM137.763 213.596C138.549 213.173 139.153 212.508 139.576 211.722C139.999 210.937 140.24 210.031 140.24 209.064C140.24 208.097 139.999 207.191 139.576 206.405C139.153 205.62 138.549 205.016 137.763 204.532C136.978 204.049 136.132 203.867 135.165 203.867C134.198 203.867 133.352 204.109 132.567 204.532C131.781 205.016 131.177 205.62 130.754 206.405C130.331 207.191 130.089 208.097 130.089 209.064C130.089 210.031 130.331 210.937 130.754 211.722C131.177 212.508 131.781 213.112 132.567 213.596C133.352 214.019 134.198 214.26 135.165 214.26C136.132 214.26 136.978 214.019 137.763 213.596Z" fill="black"/>
<path d="M145.436 199.818C145.255 199.637 145.134 199.335 145.134 199.033C145.134 198.67 145.255 198.429 145.436 198.247C145.678 198.066 145.919 197.945 146.221 197.945C146.524 197.945 146.765 198.066 146.946 198.247C147.128 198.429 147.249 198.67 147.249 199.033C147.249 199.335 147.128 199.577 146.946 199.818C146.765 200 146.463 200.121 146.161 200.121C145.919 200.121 145.617 200 145.436 199.818ZM145.738 215.226C145.617 215.105 145.557 214.924 145.557 214.743V203.504C145.557 203.263 145.617 203.142 145.738 203.021C145.859 202.9 146.04 202.84 146.221 202.84C146.463 202.84 146.584 202.9 146.705 203.021C146.826 203.142 146.886 203.323 146.886 203.504V214.743C146.886 214.924 146.826 215.105 146.705 215.226C146.584 215.347 146.403 215.408 146.221 215.408C146.04 215.408 145.859 215.347 145.738 215.226Z" fill="black"/>
<path d="M153.23 215.105C152.384 214.803 151.659 214.32 151.115 213.655C150.994 213.534 150.934 213.413 150.934 213.232C150.934 212.99 151.054 212.87 151.236 212.688C151.357 212.628 151.477 212.567 151.598 212.567C151.84 212.567 151.961 212.628 152.142 212.809C152.928 213.776 154.136 214.199 155.888 214.199C157.097 214.199 158.003 213.957 158.607 213.534C159.212 213.111 159.453 212.567 159.453 211.842C159.453 210.634 158.305 209.848 155.949 209.486C154.438 209.244 153.351 208.882 152.565 208.277C151.78 207.673 151.417 206.948 151.417 206.102C151.417 204.954 151.84 204.108 152.625 203.504C153.471 202.9 154.499 202.598 155.828 202.598C157.761 202.598 159.212 203.262 160.239 204.652C160.36 204.773 160.36 204.894 160.36 205.015C160.36 205.256 160.239 205.377 159.997 205.558C159.816 205.619 159.755 205.679 159.635 205.679C159.393 205.679 159.212 205.558 159.03 205.377C158.245 204.35 157.157 203.867 155.707 203.867C154.74 203.867 154.015 204.048 153.471 204.471C152.928 204.894 152.625 205.377 152.625 205.981C152.625 206.586 152.867 207.069 153.411 207.431C153.955 207.794 154.861 208.096 156.07 208.277C157.701 208.519 158.849 208.942 159.574 209.607C160.299 210.271 160.662 210.996 160.662 211.903C160.662 212.628 160.42 213.232 159.997 213.776C159.514 214.32 158.909 214.743 158.184 215.045C157.459 215.347 156.613 215.468 155.707 215.468C154.922 215.528 154.076 215.407 153.23 215.105Z" fill="black"/>
<path d="M27.6111 225.256C27.7319 225.377 27.7923 225.558 27.7923 225.74V236.857V236.918C27.7923 238.126 27.4902 239.153 26.886 240.12C26.3422 241.087 25.5567 241.872 24.5899 242.416C23.6231 242.96 22.5355 243.262 21.3271 243.262C20.1186 243.262 19.031 242.96 18.0038 242.416C17.037 241.872 16.2515 241.087 15.7077 240.12C15.1639 239.153 14.8618 238.005 14.8618 236.797C14.8618 235.588 15.1639 234.501 15.7077 233.534C16.2515 232.567 17.037 231.782 18.0038 231.238C18.9706 230.694 20.1186 230.392 21.3271 230.392C22.4147 230.392 23.3815 230.634 24.2878 231.117C25.1941 231.601 25.8588 232.205 26.4026 233.051V225.86C26.4026 225.619 26.463 225.498 26.5839 225.377C26.7047 225.256 26.886 225.196 27.0673 225.196C27.3089 225.075 27.4298 225.135 27.6111 225.256ZM23.9253 241.268C24.7108 240.785 25.315 240.181 25.7379 239.395C26.1609 238.61 26.4026 237.703 26.4026 236.737C26.4026 235.77 26.1609 234.863 25.7379 234.078C25.315 233.292 24.7108 232.688 23.9253 232.205C23.1398 231.721 22.2938 231.54 21.3271 231.54C20.3603 231.54 19.5144 231.782 18.7289 232.205C17.9434 232.628 17.3392 233.292 16.9162 234.078C16.4932 234.863 16.2515 235.77 16.2515 236.737C16.2515 237.703 16.4932 238.61 16.9162 239.395C17.3392 240.181 17.9434 240.785 18.7289 241.268C19.5144 241.752 20.3603 241.933 21.3271 241.933C22.2938 241.933 23.1398 241.752 23.9253 241.268Z" fill="black"/>
<path d="M34.3783 242.417C33.4116 241.873 32.6261 241.087 32.0822 240.121C31.5384 239.154 31.2363 238.066 31.2363 236.858C31.2363 235.649 31.5384 234.562 32.0822 233.535C32.6261 232.568 33.4116 231.782 34.3783 231.239C35.3451 230.695 36.4931 230.393 37.7016 230.393C38.91 230.393 39.9977 230.695 40.9644 231.239C41.9312 231.782 42.7167 232.568 43.2605 233.535C43.8043 234.501 44.1064 235.649 44.1064 236.858C44.1064 238.066 43.8043 239.154 43.2605 240.121C42.7167 241.087 41.9312 241.873 40.9644 242.417C39.9977 242.961 38.91 243.263 37.7016 243.263C36.4931 243.263 35.4055 242.961 34.3783 242.417ZM40.2998 241.269C41.0853 240.846 41.6895 240.181 42.1125 239.396C42.5354 238.61 42.7771 237.704 42.7771 236.737C42.7771 235.77 42.5354 234.864 42.1125 234.078C41.6895 233.293 41.0853 232.689 40.2998 232.205C39.5143 231.722 38.6684 231.541 37.7016 231.541C36.7348 231.541 35.8889 231.782 35.1034 232.205C34.3179 232.689 33.7137 233.293 33.2907 234.078C32.8677 234.864 32.6261 235.77 32.6261 236.737C32.6261 237.704 32.8677 238.61 33.2907 239.396C33.7137 240.181 34.3179 240.785 35.1034 241.269C35.8889 241.692 36.7348 241.933 37.7016 241.933C38.6684 241.933 39.5143 241.752 40.2998 241.269Z" fill="black"/>
<path d="M57.2795 242.538C57.2795 242.719 57.2191 242.84 57.0378 243.021C56.8565 243.142 56.7357 243.202 56.6148 243.202C56.4336 243.202 56.2523 243.081 56.1315 242.9L51.1163 236.797L48.9411 238.731V242.417C48.9411 242.598 48.8807 242.779 48.7599 242.9C48.639 243.021 48.4577 243.081 48.2765 243.081C48.0952 243.081 47.9139 243.021 47.7931 242.9C47.6722 242.779 47.6118 242.598 47.6118 242.417V225.8C47.6118 225.559 47.6722 225.438 47.7931 225.317C47.9139 225.196 48.0952 225.136 48.2765 225.136C48.5182 225.136 48.639 225.196 48.7599 225.317C48.8807 225.438 48.9411 225.619 48.9411 225.8V237.099L56.071 230.574C56.2523 230.453 56.3731 230.393 56.494 230.393C56.6753 230.393 56.7961 230.453 56.917 230.634C57.0378 230.755 57.0982 230.936 57.0982 231.057C57.0982 231.238 57.0378 231.359 56.8565 231.48L51.9623 235.951L56.9774 242.115C57.2191 242.235 57.2795 242.356 57.2795 242.538Z" fill="black"/>
<path d="M67.0669 241.933C67.1877 242.054 67.2482 242.235 67.2482 242.477C67.2482 242.658 67.1877 242.839 67.0669 242.96C66.9461 243.081 66.7648 243.142 66.5231 243.142H65.9793C65.1334 243.142 64.4083 242.96 63.7436 242.537C63.079 242.175 62.5956 241.631 62.1726 240.966C61.8101 240.302 61.6288 239.516 61.6288 238.67V232.205H59.8161C59.6349 232.205 59.4536 232.145 59.3932 232.024C59.2723 231.903 59.2119 231.782 59.2119 231.601C59.2119 231.42 59.2723 231.238 59.3932 231.178C59.514 231.057 59.6349 230.997 59.8161 230.997H61.6288V227.19C61.6288 226.948 61.6893 226.827 61.8101 226.646C61.9309 226.525 62.1122 226.465 62.2935 226.465C62.5352 226.465 62.656 226.525 62.8373 226.646C62.9581 226.767 63.0186 226.948 63.0186 227.19V230.936H66.0397C66.221 230.936 66.4022 230.997 66.4627 231.117C66.5835 231.238 66.6439 231.359 66.6439 231.54C66.6439 231.722 66.5835 231.903 66.4627 231.963C66.3418 232.084 66.221 232.145 66.0397 232.145H63.0186V238.67C63.0186 239.577 63.3207 240.302 63.8645 240.846C64.4083 241.389 65.1334 241.691 66.0397 241.691H66.5231C66.7648 241.691 66.9461 241.752 67.0669 241.933Z" fill="black"/>
<path d="M72.6259 242.417C71.6591 241.873 70.8736 241.087 70.3298 240.121C69.786 239.154 69.4839 238.066 69.4839 236.858C69.4839 235.649 69.786 234.562 70.3298 233.535C70.8736 232.568 71.6591 231.782 72.6259 231.239C73.5926 230.695 74.7407 230.393 75.9491 230.393C77.1576 230.393 78.2452 230.695 79.212 231.239C80.1787 231.782 80.9642 232.568 81.5081 233.535C82.0519 234.501 82.354 235.649 82.354 236.858C82.354 238.066 82.0519 239.154 81.5081 240.121C80.9642 241.087 80.1787 241.873 79.212 242.417C78.2452 242.961 77.1576 243.263 75.9491 243.263C74.6803 243.263 73.5926 242.961 72.6259 242.417ZM78.4869 241.269C79.2724 240.846 79.8766 240.181 80.2996 239.396C80.7226 238.61 80.9642 237.704 80.9642 236.737C80.9642 235.77 80.7226 234.864 80.2996 234.078C79.8766 233.293 79.2724 232.689 78.4869 232.205C77.7014 231.722 76.8555 231.541 75.8887 231.541C74.922 231.541 74.076 231.782 73.2905 232.205C72.505 232.689 71.9008 233.293 71.4778 234.078C71.0549 234.864 70.8132 235.77 70.8132 236.737C70.8132 237.704 71.0549 238.61 71.4778 239.396C71.9008 240.181 72.505 240.785 73.2905 241.269C74.076 241.692 74.922 241.933 75.8887 241.933C76.8555 241.933 77.7618 241.752 78.4869 241.269Z" fill="black"/>
<path d="M92.928 231.118C92.928 231.178 92.928 231.238 92.928 231.299C92.8676 231.48 92.8072 231.601 92.6863 231.661C92.5655 231.722 92.4446 231.782 92.2634 231.782C92.1425 231.782 91.9612 231.782 91.7195 231.722C91.4779 231.661 91.2966 231.661 91.1757 231.661C90.3902 231.661 89.7256 231.843 89.1214 232.145C88.5171 232.447 88.0337 232.93 87.7316 233.474C87.4295 234.018 87.2483 234.682 87.2483 235.408V242.417C87.2483 242.598 87.1878 242.779 87.067 242.9C86.9461 243.021 86.7649 243.081 86.5836 243.081C86.4023 243.081 86.2211 243.021 86.1002 242.9C85.9794 242.779 85.9189 242.598 85.9189 242.417V231.178C85.9189 230.936 85.9794 230.815 86.1002 230.695C86.2211 230.574 86.4023 230.513 86.5836 230.513C86.8253 230.513 86.9461 230.574 87.067 230.695C87.1878 230.815 87.2483 230.997 87.2483 231.178V232.628C87.6712 231.903 88.2754 231.359 88.9401 230.936C89.6047 230.513 90.3902 230.332 91.1757 230.332C92.3842 230.332 92.928 230.574 92.928 231.118Z" fill="black"/>
<path d="M97.6413 242.78C96.7954 242.477 96.0703 241.994 95.5265 241.329C95.4056 241.209 95.3452 241.088 95.3452 240.906C95.3452 240.665 95.4661 240.544 95.6473 240.363C95.7682 240.302 95.889 240.242 96.0099 240.242C96.2516 240.242 96.3724 240.302 96.5537 240.483C97.3392 241.45 98.5476 241.873 100.3 241.873C101.508 241.873 102.415 241.631 103.019 241.209C103.623 240.786 103.865 240.242 103.865 239.517C103.865 238.308 102.717 237.523 100.36 237.16C98.8497 236.918 97.7621 236.556 96.9766 235.952C96.1911 235.347 95.8286 234.622 95.8286 233.776C95.8286 232.628 96.2516 231.783 97.0371 231.178C97.883 230.574 98.9102 230.272 100.239 230.272C102.173 230.272 103.623 230.937 104.65 232.326C104.771 232.447 104.771 232.568 104.771 232.689C104.771 232.931 104.65 233.051 104.409 233.233C104.227 233.293 104.167 233.354 104.046 233.354C103.804 233.354 103.623 233.233 103.442 233.051C102.656 232.024 101.569 231.541 100.119 231.541C99.1519 231.541 98.4268 231.722 97.883 232.145C97.3392 232.568 97.0371 233.051 97.0371 233.656C97.0371 234.26 97.2788 234.743 97.8226 235.106C98.3664 235.468 99.2727 235.77 100.481 235.952C102.113 236.193 103.261 236.616 103.986 237.281C104.711 237.946 105.073 238.671 105.073 239.577C105.073 240.302 104.832 240.906 104.409 241.45C103.925 241.994 103.321 242.417 102.596 242.719C101.871 243.021 101.025 243.142 100.119 243.142C99.3331 243.263 98.4872 243.082 97.6413 242.78Z" fill="black"/>
</svg>
