<svg width="201" height="259" viewBox="0 0 201 259" fill="none" xmlns="http://www.w3.org/2000/svg">
<rect x="0.963867" width="200" height="258.006" rx="12" fill="white"/>
<path d="M186.765 13.8965H15.4663V185.196H186.765V13.8965Z" fill="#414042"/>
<path d="M26.8838 203.082C27.0047 203.202 27.0651 203.384 27.0651 203.565V214.804C27.0651 214.985 27.0047 215.166 26.8838 215.287C26.763 215.408 26.5817 215.468 26.4004 215.468C26.2192 215.468 26.0379 215.408 25.917 215.287C25.7962 215.166 25.7358 214.985 25.7358 214.804V213.595C25.192 214.26 24.5877 214.743 23.8022 215.106C23.0772 215.468 22.2312 215.65 21.3249 215.65C20.1769 215.65 19.2101 215.408 18.3037 214.985C17.3974 214.501 16.7327 213.837 16.2494 212.991C15.766 212.145 15.4639 210.997 15.4639 209.788V203.565C15.4639 203.384 15.5243 203.202 15.6451 203.082C15.766 202.961 15.9473 202.9 16.1285 202.9C16.3098 202.9 16.4911 202.961 16.6119 203.082C16.7327 203.202 16.7932 203.384 16.7932 203.565V209.788C16.7932 211.239 17.2161 212.387 18.0016 213.112C18.8476 213.897 19.8747 214.26 21.204 214.26C22.05 214.26 22.775 214.079 23.4397 213.776C24.1043 213.474 24.6482 213.051 25.0107 212.447C25.3732 211.903 25.6149 211.239 25.6149 210.574V203.504C25.6149 203.263 25.6753 203.142 25.7962 203.021C25.917 202.9 26.0983 202.84 26.2796 202.84C26.5817 202.9 26.763 202.961 26.8838 203.082Z" fill="black"/>
<path d="M39.9968 203.384C40.9031 203.867 41.5678 204.532 42.0512 205.378C42.5346 206.224 42.7763 207.311 42.7763 208.58V214.804C42.7763 214.985 42.7158 215.166 42.595 215.287C42.4741 215.408 42.2929 215.469 42.1116 215.469C41.9303 215.469 41.7491 215.408 41.6282 215.287C41.5074 215.166 41.447 214.985 41.447 214.804V208.58C41.447 207.13 41.024 205.982 40.2385 205.257C39.3926 204.472 38.3654 204.109 37.0361 204.109C36.1902 204.109 35.4651 204.29 34.8004 204.592C34.1358 204.894 33.592 205.317 33.2294 205.922C32.8669 206.465 32.6252 207.13 32.6252 207.795V214.864C32.6252 215.046 32.5648 215.227 32.4439 215.348C32.3231 215.469 32.1418 215.529 31.9606 215.529C31.7793 215.529 31.598 215.469 31.4772 215.348C31.3563 215.227 31.2959 215.046 31.2959 214.864V203.626C31.2959 203.384 31.3563 203.263 31.4772 203.142C31.598 203.021 31.7793 202.961 31.9606 202.961C32.2022 202.961 32.3231 203.021 32.4439 203.142C32.5648 203.263 32.6252 203.444 32.6252 203.626V204.834C33.169 204.169 33.7732 203.686 34.5587 203.323C35.2838 202.961 36.1297 202.78 37.0361 202.78C38.1237 202.719 39.1509 202.961 39.9968 203.384Z" fill="black"/>
<path d="M47.1263 199.879C46.9451 199.698 46.8242 199.396 46.8242 199.093C46.8242 198.731 46.9451 198.489 47.1263 198.308C47.368 198.127 47.6097 198.006 47.9118 198.006C48.2139 198.006 48.4556 198.127 48.6369 198.308C48.8182 198.489 48.939 198.731 48.939 199.093C48.939 199.396 48.8182 199.637 48.6369 199.879C48.4556 200.06 48.1535 200.181 47.8514 200.181C47.6097 200.241 47.368 200.121 47.1263 199.879ZM47.4284 215.347C47.3076 215.226 47.2472 215.045 47.2472 214.864V203.625C47.2472 203.383 47.3076 203.263 47.4284 203.142C47.5493 203.021 47.7306 202.961 47.9118 202.961C48.1535 202.961 48.2744 203.021 48.3952 203.142C48.5161 203.263 48.5765 203.444 48.5765 203.625V214.864C48.5765 215.045 48.5161 215.226 48.3952 215.347C48.2744 215.468 48.0931 215.529 47.9118 215.529C47.7306 215.529 47.5493 215.468 47.4284 215.347Z" fill="black"/>
<path d="M63.5607 203.504C63.5607 203.625 63.5607 203.686 63.5003 203.746L58.3643 215.045C58.183 215.347 57.9413 215.529 57.6392 215.529C57.5184 215.529 57.3975 215.468 57.2767 215.408C57.1558 215.347 57.0954 215.227 57.035 215.045L51.7782 203.746C51.7178 203.686 51.7178 203.625 51.7178 203.504C51.7178 203.202 51.8386 203.021 52.1407 202.9C52.2616 202.84 52.322 202.84 52.4428 202.84C52.6845 202.84 52.9262 202.961 53.0471 203.263L57.7601 213.535L62.4126 203.263C62.5335 203.021 62.7148 202.84 63.0169 202.84C63.1377 202.84 63.1981 202.84 63.319 202.9C63.4398 203.021 63.5607 203.202 63.5607 203.504Z" fill="black"/>
<path d="M73.7121 203.565C74.6185 204.109 75.2831 204.834 75.7665 205.801C76.2499 206.767 76.4916 207.795 76.4916 209.003C76.4916 209.184 76.4312 209.366 76.3103 209.486C76.1895 209.607 76.0082 209.668 75.8269 209.668H66.1593C66.2197 210.574 66.4614 211.36 66.8843 212.085C67.3073 212.81 67.9115 213.354 68.6366 213.777C69.3617 214.199 70.1472 214.381 71.0535 214.381C71.6577 214.381 72.262 214.26 72.8662 214.079C73.4704 213.897 73.9538 213.595 74.3164 213.233C74.4976 213.112 74.6185 213.051 74.7997 213.051C74.981 213.051 75.1019 213.112 75.2227 213.172C75.404 213.293 75.4644 213.474 75.4644 213.656C75.4644 213.837 75.404 213.958 75.2831 214.079C74.7997 214.502 74.1351 214.925 73.3496 215.166C72.5641 215.468 71.7786 215.589 71.0535 215.589C69.8451 215.589 68.7574 215.287 67.7907 214.743C66.8239 214.199 66.0988 213.414 65.555 212.447C65.0112 211.48 64.7695 210.393 64.7695 209.124C64.7695 207.855 65.0112 206.767 65.4946 205.801C65.978 204.834 66.7031 204.048 67.6094 203.505C68.5158 202.961 69.5429 202.659 70.691 202.659C71.7786 202.78 72.8058 203.021 73.7121 203.565ZM67.6094 205.257C66.7635 206.042 66.2801 207.13 66.1593 208.399H75.1623C75.0414 207.07 74.6185 206.042 73.7726 205.257C72.9266 204.471 71.8994 204.048 70.691 204.048C69.4825 204.048 68.4553 204.471 67.6094 205.257Z" fill="black"/>
<path d="M86.6419 203.505C86.6419 203.565 86.6419 203.626 86.6419 203.686C86.5815 203.867 86.521 203.988 86.4002 204.049C86.2793 204.109 86.1585 204.169 85.9772 204.169C85.8564 204.169 85.6751 204.169 85.4334 204.109C85.1917 204.049 85.0105 204.049 84.8896 204.049C84.1041 204.049 83.4395 204.23 82.8352 204.532C82.231 204.834 81.7476 205.317 81.4455 205.861C81.083 206.405 80.9621 207.07 80.9621 207.795V214.804C80.9621 214.985 80.9017 215.166 80.7808 215.287C80.66 215.408 80.4787 215.468 80.2975 215.468C80.1162 215.468 79.9349 215.408 79.8141 215.287C79.6932 215.166 79.6328 214.985 79.6328 214.804V203.565C79.6328 203.323 79.6932 203.203 79.8141 203.082C79.9349 202.961 80.1162 202.9 80.2975 202.9C80.5392 202.9 80.66 202.961 80.7808 203.082C80.9017 203.203 80.9621 203.384 80.9621 203.565V205.015C81.3851 204.29 81.9893 203.746 82.654 203.323C83.3186 202.901 84.1041 202.719 84.8896 202.719C86.0376 202.719 86.6419 203.021 86.6419 203.505Z" fill="black"/>
<path d="M91.2951 215.166C90.4492 214.864 89.7241 214.381 89.1803 213.716C89.0594 213.595 88.999 213.474 88.999 213.293C88.999 213.051 89.1199 212.87 89.3011 212.749C89.422 212.689 89.5428 212.628 89.7241 212.628C89.9658 212.628 90.0866 212.689 90.2679 212.87C91.0534 213.837 92.2619 214.26 94.0141 214.26C95.2226 214.26 96.1289 214.018 96.7332 213.595C97.3374 213.172 97.5791 212.628 97.5791 211.903C97.5791 210.695 96.3706 209.909 94.0141 209.547C92.5036 209.305 91.4159 208.943 90.6304 208.338C89.8449 207.734 89.4824 207.009 89.4824 206.163C89.4824 205.015 89.9054 204.169 90.6909 203.565C91.5368 202.961 92.564 202.659 93.8933 202.659C95.8268 202.659 97.277 203.323 98.3042 204.713C98.425 204.834 98.425 204.955 98.425 205.136C98.425 205.378 98.3042 205.559 98.0625 205.68C97.8812 205.74 97.8208 205.801 97.6999 205.801C97.4582 205.801 97.277 205.68 97.0957 205.499C96.3102 204.471 95.2226 203.988 93.7724 203.988C92.8057 203.988 92.0806 204.169 91.5368 204.592C90.993 205.015 90.6909 205.499 90.6909 206.103C90.6909 206.707 90.9326 207.19 91.4764 207.553C92.0202 207.915 92.9265 208.218 94.135 208.399C95.7664 208.641 96.9144 209.064 97.6395 209.728C98.3646 210.393 98.7271 211.118 98.7271 212.024C98.7271 212.749 98.4854 213.354 98.0625 213.897C97.5791 214.441 96.9749 214.864 96.2498 215.166C95.5247 215.468 94.6788 215.589 93.7724 215.589C93.0474 215.65 92.141 215.529 91.2951 215.166Z" fill="black"/>
<path d="M102.353 199.879C102.172 199.698 102.051 199.396 102.051 199.093C102.051 198.731 102.172 198.489 102.353 198.308C102.595 198.127 102.836 198.006 103.138 198.006C103.441 198.006 103.682 198.127 103.863 198.308C104.045 198.489 104.166 198.731 104.166 199.093C104.166 199.396 104.045 199.637 103.863 199.879C103.682 200.06 103.38 200.181 103.078 200.181C102.836 200.241 102.595 200.121 102.353 199.879ZM102.655 215.347C102.534 215.226 102.474 215.045 102.474 214.864V203.625C102.474 203.383 102.534 203.263 102.655 203.142C102.776 203.021 102.957 202.961 103.138 202.961C103.38 202.961 103.501 203.021 103.622 203.142C103.743 203.263 103.803 203.444 103.803 203.625V214.864C103.803 215.045 103.743 215.226 103.622 215.347C103.501 215.468 103.32 215.529 103.138 215.529C102.957 215.529 102.776 215.468 102.655 215.347Z" fill="black"/>
<path d="M114.678 214.319C114.799 214.44 114.859 214.622 114.859 214.863C114.859 215.045 114.799 215.226 114.678 215.347C114.557 215.468 114.376 215.528 114.134 215.528H113.59C112.744 215.528 111.959 215.347 111.354 214.924C110.69 214.561 110.146 214.017 109.783 213.353C109.421 212.688 109.24 211.903 109.24 211.057V204.591H107.427C107.246 204.591 107.064 204.531 107.004 204.41C106.944 204.289 106.823 204.168 106.823 203.987C106.823 203.806 106.883 203.625 107.004 203.564C107.125 203.443 107.246 203.383 107.427 203.383H109.24V199.637C109.24 199.395 109.3 199.274 109.421 199.093C109.542 198.972 109.723 198.912 109.904 198.912C110.146 198.912 110.267 198.972 110.448 199.093C110.569 199.214 110.629 199.395 110.629 199.637V203.383H113.651C113.832 203.383 114.013 203.443 114.074 203.564C114.194 203.685 114.255 203.806 114.255 203.987C114.255 204.168 114.194 204.35 114.074 204.41C113.953 204.531 113.832 204.591 113.651 204.591H110.629V211.057C110.629 211.963 110.932 212.688 111.475 213.232C112.019 213.776 112.744 214.078 113.651 214.078H114.134C114.376 214.138 114.557 214.199 114.678 214.319Z" fill="black"/>
<path d="M126.823 203.564C127.79 204.108 128.575 204.893 129.119 205.86C129.663 206.827 129.965 207.975 129.965 209.184V214.803C129.965 214.984 129.904 215.165 129.784 215.286C129.663 215.407 129.481 215.468 129.3 215.468C129.119 215.468 128.938 215.407 128.817 215.286C128.696 215.165 128.636 214.984 128.636 214.803V212.99C128.152 213.836 127.427 214.44 126.521 214.924C125.614 215.407 124.648 215.649 123.56 215.649C122.352 215.649 121.264 215.347 120.237 214.803C119.27 214.259 118.484 213.474 117.941 212.507C117.397 211.54 117.095 210.452 117.095 209.244C117.095 208.035 117.397 206.948 117.941 205.921C118.484 204.893 119.27 204.168 120.237 203.625C121.203 203.081 122.352 202.779 123.56 202.779C124.768 202.718 125.856 203.02 126.823 203.564ZM126.158 213.715C126.944 213.292 127.548 212.628 127.971 211.842C128.394 211.057 128.636 210.15 128.636 209.184C128.636 208.217 128.394 207.31 127.971 206.525C127.548 205.739 126.944 205.135 126.158 204.652C125.373 204.168 124.527 203.987 123.56 203.987C122.593 203.987 121.747 204.229 120.962 204.652C120.176 205.135 119.572 205.739 119.149 206.525C118.726 207.31 118.484 208.217 118.484 209.184C118.484 210.15 118.726 211.057 119.149 211.842C119.572 212.628 120.176 213.232 120.962 213.715C121.747 214.138 122.593 214.38 123.56 214.38C124.527 214.38 125.373 214.138 126.158 213.715ZM119.995 200.06C119.874 199.939 119.814 199.758 119.814 199.576C119.814 199.395 119.874 199.214 119.995 199.093C120.116 198.972 120.297 198.912 120.478 198.912H126.642C126.823 198.912 127.004 198.972 127.125 199.093C127.246 199.214 127.306 199.395 127.306 199.576C127.306 199.758 127.246 199.939 127.125 200.06C127.004 200.18 126.823 200.241 126.642 200.241H120.539C120.297 200.241 120.116 200.18 119.995 200.06Z" fill="black"/>
<path d="M135.162 215.166C134.316 214.864 133.591 214.381 133.047 213.716C132.926 213.595 132.866 213.474 132.866 213.293C132.866 213.051 132.987 212.87 133.168 212.749C133.289 212.689 133.41 212.628 133.591 212.628C133.832 212.628 133.953 212.689 134.135 212.87C134.92 213.837 136.129 214.26 137.881 214.26C139.089 214.26 139.996 214.018 140.6 213.595C141.204 213.172 141.446 212.628 141.446 211.903C141.446 210.695 140.237 209.909 137.881 209.547C136.37 209.305 135.283 208.943 134.497 208.338C133.712 207.734 133.349 207.009 133.349 206.163C133.349 205.015 133.772 204.169 134.558 203.565C135.403 202.961 136.431 202.659 137.76 202.659C139.694 202.659 141.144 203.323 142.171 204.713C142.292 204.834 142.292 204.955 142.292 205.136C142.292 205.378 142.171 205.559 141.929 205.68C141.748 205.74 141.687 205.801 141.567 205.801C141.325 205.801 141.144 205.68 140.962 205.498C140.177 204.471 139.089 203.988 137.639 203.988C136.672 203.988 135.947 204.169 135.403 204.592C134.86 205.015 134.558 205.498 134.558 206.103C134.558 206.707 134.799 207.19 135.343 207.553C135.887 207.915 136.793 208.217 138.002 208.399C139.633 208.64 140.781 209.063 141.506 209.728C142.231 210.393 142.594 211.118 142.594 212.024C142.594 212.749 142.352 213.353 141.929 213.897C141.446 214.441 140.842 214.864 140.116 215.166C139.391 215.468 138.545 215.589 137.639 215.589C136.914 215.649 136.008 215.529 135.162 215.166ZM137.458 200.423L134.678 198.55C134.437 198.368 134.316 198.187 134.316 197.946C134.316 197.764 134.376 197.583 134.497 197.523C134.618 197.402 134.739 197.341 134.92 197.341C135.101 197.341 135.283 197.402 135.464 197.523L137.82 199.154L140.177 197.583C140.358 197.462 140.539 197.402 140.781 197.402C140.962 197.402 141.083 197.462 141.204 197.583C141.325 197.704 141.385 197.825 141.385 198.006C141.385 198.248 141.265 198.429 141.023 198.61L138.243 200.483C138.183 200.544 138.062 200.604 137.881 200.604C137.7 200.544 137.579 200.544 137.458 200.423Z" fill="black"/>
<path d="M157.095 203.082C157.216 203.202 157.276 203.384 157.276 203.565V214.804C157.276 214.985 157.216 215.166 157.095 215.287C156.974 215.408 156.793 215.468 156.611 215.468C156.43 215.468 156.249 215.408 156.128 215.287C156.007 215.166 155.947 214.985 155.947 214.804V213.595C155.403 214.26 154.799 214.743 154.013 215.106C153.288 215.468 152.442 215.65 151.536 215.65C150.388 215.65 149.421 215.408 148.515 214.985C147.608 214.501 146.944 213.837 146.46 212.991C145.977 212.145 145.735 211.057 145.735 209.788V203.565C145.735 203.384 145.796 203.202 145.917 203.082C146.037 202.961 146.219 202.9 146.4 202.9C146.581 202.9 146.763 202.961 146.883 203.082C147.004 203.202 147.065 203.384 147.065 203.565V209.788C147.065 211.239 147.488 212.387 148.273 213.112C149.119 213.897 150.146 214.26 151.476 214.26C152.321 214.26 153.047 214.079 153.711 213.776C154.376 213.474 154.92 213.051 155.282 212.447C155.645 211.903 155.886 211.239 155.886 210.574V203.504C155.886 203.263 155.947 203.142 156.068 203.021C156.189 202.9 156.37 202.84 156.551 202.84C156.793 202.9 156.974 202.961 157.095 203.082Z" fill="black"/>
<path d="M16.0677 227.613C15.8865 227.432 15.7656 227.129 15.7656 226.827C15.7656 226.465 15.8865 226.223 16.0677 226.042C16.3094 225.861 16.5511 225.74 16.8532 225.74C17.1554 225.74 17.397 225.861 17.5783 226.042C17.7596 226.223 17.8804 226.465 17.8804 226.827C17.8804 227.129 17.7596 227.371 17.5783 227.613C17.397 227.794 17.0949 227.915 16.7928 227.915C16.4907 227.975 16.249 227.855 16.0677 227.613ZM16.3094 243.081C16.1886 242.96 16.1282 242.779 16.1282 242.598V231.359C16.1282 231.117 16.1886 230.997 16.3094 230.876C16.4303 230.755 16.6115 230.694 16.7928 230.694C17.0345 230.694 17.1554 230.755 17.2762 230.876C17.397 230.997 17.4575 231.178 17.4575 231.359V242.598C17.4575 242.779 17.397 242.96 17.2762 243.081C17.1554 243.202 16.9741 243.262 16.7928 243.262C16.6115 243.262 16.4907 243.202 16.3094 243.081Z" fill="black"/>
<path d="M30.9328 231.118C31.8392 231.601 32.5038 232.266 32.9872 233.112C33.4706 233.958 33.7123 235.045 33.7123 236.314V242.538C33.7123 242.719 33.6519 242.9 33.531 243.021C33.4102 243.142 33.2289 243.202 33.0476 243.202C32.8664 243.202 32.6851 243.142 32.5643 243.021C32.4434 242.9 32.383 242.719 32.383 242.538V236.314C32.383 234.864 31.96 233.716 31.1745 232.991C30.3286 232.205 29.3014 231.843 27.9721 231.843C27.1262 231.843 26.4011 232.024 25.7365 232.326C25.0718 232.628 24.528 233.051 24.1655 233.656C23.8029 234.199 23.5612 234.864 23.5612 235.529V242.598C23.5612 242.779 23.5008 242.961 23.38 243.082C23.2591 243.202 23.0779 243.263 22.8966 243.263C22.7153 243.263 22.534 243.202 22.4132 243.082C22.2924 242.961 22.2319 242.779 22.2319 242.598V231.36C22.2319 231.118 22.2924 230.997 22.4132 230.876C22.534 230.755 22.7153 230.695 22.8966 230.695C23.1383 230.695 23.2591 230.755 23.38 230.876C23.5008 230.997 23.5612 231.178 23.5612 231.36V232.568C24.105 231.903 24.7093 231.42 25.4948 231.057C26.2198 230.695 27.0658 230.514 27.9721 230.514C29.0597 230.453 30.0265 230.695 30.9328 231.118Z" fill="black"/>
<path d="M47.4279 242.659C47.4279 242.84 47.3675 242.961 47.1862 243.142C47.005 243.263 46.8841 243.323 46.7633 243.323C46.582 243.323 46.4007 243.202 46.2799 243.021L41.2648 236.918L39.0896 238.912V242.598C39.0896 242.78 39.0291 242.961 38.9083 243.082C38.7874 243.202 38.6062 243.263 38.4249 243.263C38.2436 243.263 38.0624 243.202 37.9415 243.082C37.8207 242.961 37.7603 242.78 37.7603 242.598V225.921C37.7603 225.68 37.8207 225.559 37.9415 225.438C38.0624 225.317 38.2436 225.257 38.4249 225.257C38.6666 225.257 38.7874 225.317 38.9083 225.438C39.0291 225.559 39.0896 225.74 39.0896 225.921V237.221L46.2799 230.695C46.4612 230.574 46.582 230.514 46.7029 230.514C46.8841 230.514 47.005 230.574 47.1258 230.755C47.2467 230.876 47.3071 231.057 47.3071 231.178C47.3071 231.36 47.2467 231.48 47.0654 231.601L42.1711 236.073L47.1862 242.236C47.3675 242.357 47.4279 242.477 47.4279 242.659Z" fill="black"/>
<path d="M62.1715 230.815C62.2924 230.936 62.3528 231.118 62.3528 231.299V242.537C62.3528 242.719 62.2924 242.9 62.1715 243.021C62.0507 243.142 61.8694 243.202 61.6881 243.202C61.5069 243.202 61.3256 243.142 61.2048 243.021C61.0839 242.9 61.0235 242.719 61.0235 242.537V241.329C60.4797 241.994 59.8755 242.477 59.09 242.84C58.3649 243.202 57.519 243.383 56.6126 243.383C55.4646 243.383 54.4978 243.142 53.5915 242.719C52.6851 242.235 52.0205 241.571 51.5371 240.725C51.0537 239.879 50.812 238.791 50.812 237.522V231.299C50.812 231.118 50.8724 230.936 50.9933 230.815C51.1141 230.695 51.2954 230.634 51.4767 230.634C51.6579 230.634 51.8392 230.695 51.96 230.815C52.0809 230.936 52.1413 231.118 52.1413 231.299V237.522C52.1413 238.973 52.5643 240.121 53.3498 240.846C54.1957 241.631 55.2229 241.994 56.5522 241.994C57.3981 241.994 58.1232 241.812 58.7878 241.51C59.4525 241.208 59.9963 240.785 60.3588 240.181C60.7214 239.637 60.9631 238.973 60.9631 238.308V231.238C60.9631 230.997 61.0235 230.876 61.1443 230.755C61.2652 230.634 61.4465 230.574 61.6277 230.574C61.8694 230.634 62.0507 230.695 62.1715 230.815Z" fill="black"/>
<path d="M76.2504 231.299C77.2172 231.843 78.0027 232.628 78.5465 233.595C79.0903 234.562 79.3924 235.649 79.3924 236.858C79.3924 238.066 79.0903 239.154 78.5465 240.181C78.0027 241.208 77.2172 241.933 76.2504 242.477C75.2837 243.021 74.1356 243.323 72.9272 243.323C71.7187 243.323 70.6311 243.021 69.6643 242.477C68.6976 241.933 67.9121 241.148 67.3683 240.181C66.8245 239.214 66.5223 238.127 66.4619 236.918V236.858V225.74C66.4619 225.498 66.5223 225.377 66.6432 225.256C66.764 225.136 66.9453 225.075 67.1266 225.075C67.3683 225.075 67.4891 225.136 67.61 225.256C67.7308 225.377 67.7912 225.559 67.7912 225.74V232.93C68.2746 232.084 68.9997 231.48 69.906 230.997C70.8124 230.513 71.7791 230.272 72.8667 230.272C74.1961 230.453 75.2837 230.755 76.2504 231.299ZM75.5254 241.389C76.3109 240.906 76.9151 240.302 77.338 239.516C77.761 238.731 78.0027 237.824 78.0027 236.858C78.0027 235.891 77.761 234.985 77.338 234.199C76.9151 233.414 76.3109 232.809 75.5254 232.326C74.7399 231.903 73.8939 231.661 72.9272 231.661C71.9604 231.661 71.1145 231.903 70.329 232.326C69.5435 232.749 68.9393 233.414 68.5163 234.199C68.0933 234.985 67.8516 235.891 67.8516 236.858C67.8516 237.824 68.0933 238.731 68.5163 239.516C68.9393 240.302 69.5435 240.906 70.329 241.389C71.1145 241.873 71.9604 242.054 72.9272 242.054C73.8939 242.114 74.8003 241.873 75.5254 241.389Z" fill="black"/>
<path d="M91.9591 231.298C92.9258 231.842 93.7113 232.628 94.2551 233.595C94.7989 234.561 95.101 235.709 95.101 236.918V242.537C95.101 242.718 95.0406 242.9 94.9198 243.021C94.7989 243.141 94.6177 243.202 94.4364 243.202C94.2551 243.202 94.0739 243.141 93.953 243.021C93.8322 242.9 93.7717 242.718 93.7717 242.537V240.724C93.2884 241.57 92.5633 242.175 91.6569 242.658C90.7506 243.141 89.7838 243.383 88.6962 243.383C87.4878 243.383 86.4001 243.081 85.3729 242.537C84.4062 241.993 83.6207 241.208 83.0769 240.241C82.5331 239.274 82.231 238.187 82.231 236.978C82.231 235.77 82.5331 234.682 83.0769 233.655C83.6207 232.628 84.4062 231.903 85.3729 231.359C86.3397 230.815 87.4878 230.513 88.6962 230.513C89.9047 230.453 90.9923 230.755 91.9591 231.298ZM91.234 241.45C92.0195 241.027 92.6237 240.362 93.0467 239.576C93.4696 238.791 93.7113 237.885 93.7113 236.918C93.7113 235.951 93.4696 235.045 93.0467 234.259C92.6237 233.474 92.0195 232.869 91.234 232.386C90.4485 231.903 89.6026 231.721 88.6358 231.721C87.669 231.721 86.8231 231.963 86.0376 232.386C85.2521 232.869 84.6479 233.474 84.2249 234.259C83.802 235.045 83.5603 235.951 83.5603 236.918C83.5603 237.885 83.802 238.791 84.2249 239.576C84.6479 240.362 85.2521 240.966 86.0376 241.45C86.8231 241.873 87.669 242.114 88.6358 242.114C89.6026 242.114 90.5089 241.873 91.234 241.45Z" fill="black"/>
<path d="M104.83 242.055C104.95 242.176 105.011 242.357 105.011 242.599C105.011 242.78 104.95 242.961 104.83 243.082C104.709 243.203 104.527 243.263 104.286 243.263H103.742C102.896 243.263 102.111 243.082 101.506 242.659C100.842 242.297 100.298 241.753 99.9353 241.088C99.5728 240.423 99.3915 239.638 99.3915 238.792V232.327H97.5788C97.3976 232.327 97.2163 232.266 97.1559 232.145C97.0955 232.025 96.9746 231.904 96.9746 231.722C96.9746 231.541 97.035 231.36 97.1559 231.3C97.2767 231.179 97.3976 231.118 97.5788 231.118H99.3915V227.372C99.3915 227.13 99.452 227.01 99.5728 226.828C99.6936 226.707 99.8749 226.647 100.056 226.647C100.298 226.647 100.419 226.707 100.6 226.828C100.721 226.949 100.781 227.13 100.781 227.372V231.118H103.802C103.984 231.118 104.165 231.179 104.225 231.3C104.346 231.42 104.407 231.541 104.407 231.722C104.407 231.904 104.346 232.085 104.225 232.145C104.105 232.266 103.984 232.327 103.802 232.327H100.781V238.792C100.781 239.698 101.083 240.423 101.627 240.967C102.171 241.511 102.896 241.813 103.802 241.813H104.286C104.527 241.813 104.709 241.934 104.83 242.055Z" fill="black"/>
<path d="M110.389 242.537C109.422 241.994 108.636 241.208 108.093 240.241C107.549 239.275 107.247 238.187 107.247 236.978C107.247 235.77 107.549 234.682 108.093 233.655C108.636 232.628 109.422 231.903 110.389 231.359C111.355 230.815 112.503 230.513 113.712 230.513C114.92 230.513 116.008 230.815 116.975 231.359C117.941 231.903 118.727 232.688 119.271 233.655C119.815 234.622 120.117 235.77 120.117 236.978C120.117 238.187 119.815 239.275 119.271 240.241C118.727 241.208 117.941 241.994 116.975 242.537C116.008 243.081 114.92 243.383 113.712 243.383C112.443 243.383 111.355 243.081 110.389 242.537ZM116.25 241.45C117.035 241.027 117.639 240.362 118.062 239.577C118.485 238.791 118.727 237.885 118.727 236.918C118.727 235.951 118.485 235.045 118.062 234.259C117.639 233.474 117.035 232.87 116.25 232.386C115.464 231.903 114.618 231.722 113.651 231.722C112.685 231.722 111.839 231.963 111.053 232.386C110.268 232.87 109.664 233.474 109.241 234.259C108.818 235.045 108.576 235.951 108.576 236.918C108.576 237.885 108.818 238.791 109.241 239.577C109.664 240.362 110.268 240.966 111.053 241.45C111.839 241.873 112.685 242.114 113.651 242.114C114.618 242.114 115.525 241.873 116.25 241.45Z" fill="black"/>
<path d="M130.689 231.239C130.689 231.299 130.689 231.359 130.689 231.42C130.629 231.601 130.568 231.722 130.448 231.782C130.327 231.843 130.206 231.903 130.025 231.903C129.904 231.903 129.722 231.903 129.481 231.843C129.239 231.782 129.058 231.782 128.937 231.782C128.151 231.782 127.487 231.964 126.883 232.266C126.278 232.568 125.795 233.051 125.493 233.595C125.13 234.139 125.009 234.804 125.009 235.529V242.538C125.009 242.719 124.949 242.9 124.828 243.021C124.707 243.142 124.526 243.202 124.345 243.202C124.164 243.202 123.982 243.142 123.861 243.021C123.741 242.9 123.68 242.719 123.68 242.538V231.299C123.68 231.057 123.741 230.937 123.861 230.816C123.982 230.695 124.164 230.634 124.345 230.634C124.587 230.634 124.707 230.695 124.828 230.816C124.949 230.937 125.009 231.118 125.009 231.299V232.749C125.432 232.024 126.037 231.48 126.701 231.057C127.366 230.634 128.151 230.453 128.937 230.453C130.145 230.453 130.689 230.695 130.689 231.239Z" fill="black"/>
<path d="M135.403 242.9C134.557 242.598 133.832 242.115 133.288 241.45C133.167 241.329 133.107 241.208 133.107 241.027C133.107 240.785 133.228 240.604 133.409 240.483C133.53 240.423 133.651 240.362 133.832 240.362C134.074 240.362 134.195 240.423 134.376 240.604C135.161 241.571 136.37 241.994 138.122 241.994C139.331 241.994 140.237 241.752 140.841 241.329C141.445 240.906 141.687 240.362 141.687 239.637C141.687 238.429 140.479 237.643 138.122 237.281C136.611 237.039 135.524 236.677 134.738 236.072C133.953 235.468 133.59 234.743 133.59 233.897C133.59 232.749 134.013 231.903 134.799 231.299C135.645 230.695 136.672 230.393 138.001 230.393C139.935 230.393 141.385 231.057 142.412 232.447C142.533 232.568 142.533 232.689 142.533 232.87C142.533 233.112 142.412 233.293 142.17 233.414C141.989 233.474 141.929 233.535 141.808 233.535C141.566 233.535 141.385 233.414 141.204 233.232C140.418 232.205 139.331 231.722 137.88 231.722C136.914 231.722 136.189 231.903 135.645 232.326C135.101 232.749 134.799 233.232 134.799 233.837C134.799 234.441 135.04 234.924 135.584 235.287C136.128 235.649 137.034 235.951 138.243 236.133C139.874 236.374 141.022 236.797 141.747 237.462C142.472 238.127 142.835 238.852 142.835 239.758C142.835 240.483 142.593 241.087 142.17 241.631C141.687 242.175 141.083 242.598 140.358 242.9C139.633 243.202 138.787 243.323 137.88 243.323C137.095 243.384 136.249 243.202 135.403 242.9Z" fill="black"/>
<path d="M126.4 114.259C135.463 114.259 142.835 119.153 142.835 129.727V161.993H126.339V134.682C126.339 130.029 123.681 127.552 119.693 127.552C115.826 127.552 112.2 128.881 109.3 131.238V161.993H92.8047V115.226H109.3V120.362C114.376 116.434 120.599 114.259 126.4 114.259Z" fill="white"/>
<path d="M75.8271 84.7733C66.7637 84.7733 59.3921 79.8791 59.3921 69.305V37.0996H75.8876V64.4108C75.8876 69.0634 78.5462 71.5407 82.5341 71.5407C86.4012 71.5407 90.0265 70.2114 92.9268 67.8549V37.0996H109.422V83.867H92.9268V78.731C87.9117 82.6585 81.6277 84.7733 75.8271 84.7733Z" fill="white"/>
<path d="M92.2617 99.5768C92.2617 95.5285 96.1288 92.2656 100.902 92.2656C105.676 92.2656 109.543 95.5285 109.543 99.5768C109.543 103.625 105.676 106.888 100.902 106.888C96.1288 106.888 92.2617 103.625 92.2617 99.5768Z" fill="#FFCA37"/>
</svg>
