<svg width="201" height="259" viewBox="0 0 201 259" fill="none" xmlns="http://www.w3.org/2000/svg">
<rect x="0.963867" width="200" height="258.006" rx="12" fill="white"/>
<path d="M18.9092 214.743C17.9424 214.199 17.2174 213.414 16.6736 212.387C16.1298 211.42 15.8276 210.272 15.8276 209.063C15.8276 207.855 16.0693 206.767 16.6131 205.74C17.1569 204.713 17.8216 203.988 18.7279 203.444C19.6343 202.9 20.6615 202.598 21.8095 202.598C22.7763 202.598 23.6826 202.779 24.5285 203.202C25.3745 203.565 26.0391 204.169 26.6433 204.894C26.7642 205.075 26.8246 205.196 26.8246 205.317C26.8246 205.559 26.7038 205.68 26.5225 205.801C26.4017 205.921 26.2808 205.921 26.16 205.921C25.9183 205.921 25.737 205.801 25.6162 205.619C24.6494 204.471 23.3805 203.867 21.8095 203.867C20.9032 203.867 20.1177 204.109 19.3926 204.532C18.6675 204.955 18.1841 205.559 17.7612 206.405C17.3382 207.251 17.2174 208.097 17.2174 209.124C17.2174 210.091 17.3986 210.997 17.8216 211.782C18.2446 212.568 18.8488 213.172 19.5739 213.656C20.2989 214.079 21.1449 214.32 22.1116 214.32C23.5014 214.32 24.589 213.958 25.3745 213.172C25.4953 213.051 25.6766 212.991 25.8578 212.991C26.0391 212.991 26.16 213.051 26.2808 213.172C26.4621 213.293 26.5225 213.474 26.5225 213.656C26.5225 213.837 26.4621 213.958 26.3412 214.079C25.7974 214.562 25.1932 214.985 24.4681 215.227C23.743 215.468 22.9575 215.649 22.172 215.649C20.9636 215.589 19.876 215.287 18.9092 214.743Z" fill="black"/>
<path d="M37.4593 203.384C37.4593 203.444 37.4593 203.504 37.4593 203.565C37.3988 203.746 37.3384 203.867 37.2176 203.927C37.0967 203.988 36.9759 204.048 36.7946 204.048C36.6738 204.048 36.4925 204.048 36.2508 203.988C36.0091 203.927 35.8278 203.927 35.707 203.927C34.9215 203.927 34.2568 204.109 33.6526 204.411C33.0484 204.713 32.565 205.196 32.2629 205.74C31.9003 206.284 31.7795 206.949 31.7795 207.674V214.743C31.7795 214.924 31.7191 215.106 31.5982 215.227C31.4774 215.347 31.2961 215.408 31.1148 215.408C30.9336 215.408 30.7523 215.347 30.6315 215.227C30.5106 215.106 30.4502 214.924 30.4502 214.743V203.444C30.4502 203.202 30.5106 203.082 30.6315 202.961C30.7523 202.84 30.9336 202.779 31.1148 202.779C31.3565 202.779 31.4774 202.84 31.5982 202.961C31.7191 203.082 31.7795 203.263 31.7795 203.444V204.894C32.2025 204.169 32.8067 203.625 33.4713 203.202C34.1964 202.779 34.9215 202.598 35.7674 202.598C36.855 202.598 37.4593 202.84 37.4593 203.384Z" fill="black"/>
<path d="M47.3697 203.444C48.2761 203.987 48.9407 204.712 49.4241 205.679C49.9075 206.646 50.1492 207.673 50.1492 208.882C50.1492 209.063 50.0888 209.244 49.9679 209.365C49.8471 209.486 49.6658 209.546 49.4845 209.546H39.8169C39.8773 210.453 40.119 211.298 40.5419 212.024C40.9649 212.749 41.5691 213.292 42.2942 213.715C43.0193 214.138 43.8048 214.32 44.7111 214.32C45.3153 214.32 45.9196 214.199 46.5238 214.018C47.128 213.836 47.6114 213.534 47.974 213.172C48.1552 213.051 48.2761 212.99 48.4573 212.99C48.6386 212.99 48.7594 213.051 48.8803 213.111C49.0616 213.232 49.122 213.413 49.122 213.595C49.122 213.776 49.0616 213.897 48.9407 214.018C48.4573 214.441 47.7927 214.863 47.0072 215.105C46.2217 215.407 45.4362 215.528 44.7111 215.528C43.5027 215.528 42.415 215.226 41.4483 214.682C40.4815 214.138 39.7564 213.353 39.2126 212.386C38.6688 211.419 38.3667 210.332 38.3667 209.123C38.3667 207.854 38.6084 206.767 39.0918 205.8C39.5752 204.833 40.3002 204.048 41.2066 203.504C42.1129 202.96 43.1401 202.658 44.2881 202.658C45.4966 202.598 46.4634 202.9 47.3697 203.444ZM41.267 205.135C40.4211 205.921 39.9377 207.008 39.8169 208.338H48.8199C48.699 207.008 48.2761 205.981 47.4301 205.135C46.5842 204.35 45.557 203.927 44.3486 203.927C43.1401 203.927 42.1129 204.35 41.267 205.135Z" fill="black"/>
<path d="M61.8101 203.444C62.7769 203.988 63.5624 204.773 64.1666 205.8C64.7104 206.767 65.0125 207.915 65.0125 209.124V214.743C65.0125 214.924 64.9521 215.106 64.8313 215.226C64.7104 215.347 64.5292 215.408 64.3479 215.408C64.1666 215.408 63.9854 215.347 63.8645 215.226C63.7437 215.106 63.6832 214.924 63.6832 214.743V212.93C63.1999 213.776 62.4748 214.38 61.5684 214.864C60.6621 215.347 59.6953 215.589 58.6077 215.589C57.3993 215.589 56.2512 215.287 55.2845 214.743C54.3177 214.199 53.5322 213.414 52.928 212.387C52.3841 211.42 52.082 210.272 52.082 209.063C52.082 207.855 52.3841 206.707 52.928 205.74C53.4718 204.773 54.2573 203.988 55.2845 203.384C56.2512 202.84 57.3993 202.538 58.6077 202.538C59.7558 202.598 60.8434 202.9 61.8101 203.444ZM61.1455 213.595C61.931 213.172 62.5352 212.507 62.9582 211.722C63.3811 210.936 63.6228 210.03 63.6228 209.063C63.6228 208.097 63.3811 207.19 62.9582 206.405C62.5352 205.619 61.931 205.015 61.1455 204.532C60.36 204.048 59.5141 203.867 58.5473 203.867C57.5805 203.867 56.7346 204.109 55.9491 204.532C55.1636 205.015 54.5594 205.619 54.1364 206.405C53.7135 207.19 53.4718 208.097 53.4718 209.063C53.4718 210.03 53.7135 210.936 54.1364 211.722C54.5594 212.507 55.224 213.112 55.9491 213.595C56.7346 214.018 57.5805 214.26 58.5473 214.26C59.5141 214.26 60.36 214.078 61.1455 213.595Z" fill="black"/>
<path d="M74.7406 214.199C74.8614 214.32 74.9219 214.501 74.9219 214.743C74.9219 214.924 74.8614 215.105 74.7406 215.226C74.6198 215.347 74.4385 215.408 74.1968 215.408H73.653C72.8071 215.408 72.0216 215.226 71.3569 214.803C70.6923 214.441 70.1485 213.897 69.7859 213.232C69.4234 212.568 69.2421 211.782 69.2421 210.936V204.411H67.4294C67.2482 204.411 67.0669 204.35 67.0065 204.229C66.8856 204.108 66.8252 203.988 66.8252 203.806C66.8252 203.625 66.8856 203.444 67.0065 203.383C67.1273 203.263 67.2482 203.202 67.4294 203.202H69.2421V199.395C69.2421 199.154 69.3025 199.033 69.4234 198.852C69.5442 198.731 69.7255 198.67 69.9068 198.67C70.1485 198.67 70.2693 198.731 70.4506 198.852C70.5714 198.973 70.6318 199.154 70.6318 199.395V203.202H73.7134C73.8947 203.202 74.0759 203.263 74.1364 203.383C74.2572 203.504 74.3176 203.625 74.3176 203.806C74.3176 203.988 74.2572 204.169 74.1364 204.229C74.0155 204.35 73.8947 204.411 73.7134 204.411H70.6318V210.936C70.6318 211.843 70.934 212.568 71.4778 213.111C72.0216 213.655 72.7466 213.957 73.653 213.957H74.1364C74.4385 214.018 74.6198 214.078 74.7406 214.199Z" fill="black"/>
<path d="M78.245 199.758C78.0637 199.577 77.9429 199.275 77.9429 198.972C77.9429 198.61 78.0637 198.368 78.245 198.187C78.4263 198.006 78.7284 197.885 79.0305 197.885C79.3326 197.885 79.5743 198.006 79.7556 198.187C79.9368 198.368 80.0577 198.61 80.0577 198.972C80.0577 199.275 79.9368 199.516 79.7556 199.758C79.5743 200 79.2722 200.06 78.9701 200.06C78.6679 200.06 78.4263 199.939 78.245 199.758ZM78.4867 215.226C78.3658 215.105 78.3054 214.924 78.3054 214.743V203.444C78.3054 203.202 78.3658 203.081 78.4867 202.96C78.6075 202.839 78.7888 202.779 78.9701 202.779C79.2118 202.779 79.3326 202.839 79.4534 202.96C79.5743 203.081 79.6347 203.262 79.6347 203.444V214.743C79.6347 214.924 79.5743 215.105 79.4534 215.226C79.3326 215.347 79.1513 215.407 78.9701 215.407C78.7888 215.407 78.6679 215.347 78.4867 215.226Z" fill="black"/>
<path d="M94.7406 203.384C94.7406 203.505 94.7406 203.565 94.6802 203.626L89.4838 214.985C89.3025 215.287 89.0608 215.468 88.7587 215.468C88.6379 215.468 88.517 215.408 88.3962 215.348C88.2753 215.287 88.2149 215.166 88.1545 214.985L82.8373 203.686C82.7769 203.626 82.7769 203.565 82.7769 203.444C82.7769 203.142 82.8977 202.961 83.1998 202.84C83.3207 202.78 83.3811 202.78 83.5019 202.78C83.7436 202.78 83.9853 202.901 84.1062 203.203L88.8796 213.475L93.5926 203.142C93.7134 202.901 93.8947 202.719 94.1968 202.719C94.3176 202.719 94.3781 202.719 94.4989 202.78C94.5593 202.901 94.7406 203.082 94.7406 203.384Z" fill="black"/>
<path d="M104.892 203.444C105.798 203.988 106.463 204.713 106.946 205.68C107.429 206.646 107.671 207.674 107.671 208.882C107.671 209.063 107.611 209.245 107.49 209.366C107.369 209.486 107.188 209.547 107.007 209.547H97.2784C97.3388 210.453 97.5805 211.299 98.0035 212.024C98.4264 212.749 99.0307 213.293 99.7557 213.716C100.481 214.139 101.266 214.32 102.173 214.32C102.777 214.32 103.381 214.199 103.985 214.018C104.59 213.837 105.073 213.535 105.436 213.172C105.617 213.051 105.738 212.991 105.919 212.991C106.1 212.991 106.221 213.051 106.342 213.112C106.523 213.233 106.584 213.414 106.584 213.595C106.584 213.776 106.523 213.897 106.402 214.018C105.919 214.441 105.254 214.864 104.469 215.106C103.683 215.408 102.898 215.529 102.173 215.529C100.964 215.529 99.8766 215.227 98.9098 214.683C97.9431 214.139 97.218 213.353 96.6742 212.387C96.1304 211.42 95.8887 210.272 95.8887 209.063C95.8887 207.795 96.1304 206.707 96.6137 205.74C97.0971 204.773 97.8222 203.988 98.7285 203.444C99.6349 202.9 100.662 202.598 101.81 202.598C102.958 202.598 103.985 202.9 104.892 203.444ZM98.789 205.136C97.9431 205.921 97.4597 207.009 97.3388 208.338H106.342C106.221 207.009 105.798 205.982 104.952 205.136C104.106 204.35 103.079 203.927 101.871 203.927C100.602 203.927 99.6349 204.35 98.789 205.136Z" fill="black"/>
<path d="M22.7767 242.054C22.8976 242.175 22.958 242.356 22.958 242.598C22.958 242.779 22.8976 242.96 22.7767 243.081C22.6559 243.202 22.4746 243.263 22.2329 243.263H21.6891C20.8432 243.263 20.0577 243.081 19.3931 242.658C18.7284 242.296 18.1846 241.752 17.8221 241.087C17.4595 240.423 17.2782 239.637 17.2782 238.791V232.266H15.4656C15.2843 232.266 15.103 232.205 15.0426 232.084C14.9218 231.963 14.8613 231.843 14.8613 231.661C14.8613 231.48 14.9218 231.299 15.0426 231.238C15.1634 231.118 15.2843 231.057 15.4656 231.057H17.2782V227.25C17.2782 227.009 17.3387 226.888 17.4595 226.707C17.5804 226.586 17.7616 226.525 17.9429 226.525C18.1846 226.525 18.3054 226.586 18.4867 226.707C18.6076 226.828 18.668 227.009 18.668 227.25V231.057H21.7495C21.9308 231.057 22.1121 231.118 22.1725 231.238C22.2934 231.359 22.3538 231.48 22.3538 231.661C22.3538 231.843 22.2934 232.024 22.1725 232.084C22.0517 232.205 21.9308 232.266 21.7495 232.266H18.668V238.791C18.668 239.698 18.9701 240.423 19.5139 240.966C20.0577 241.51 20.7828 241.812 21.6891 241.812H22.1725C22.4746 241.873 22.6559 241.933 22.7767 242.054Z" fill="black"/>
<path d="M37.1572 230.755C37.2781 230.876 37.3385 231.057 37.3385 231.239V242.538C37.3385 242.719 37.2781 242.9 37.1572 243.021C37.0364 243.142 36.8551 243.202 36.6739 243.202C36.4926 243.202 36.3113 243.142 36.1905 243.021C36.0696 242.9 36.0092 242.719 36.0092 242.538V241.329C35.4654 241.994 34.8612 242.477 34.0757 242.84C33.2902 243.202 32.5047 243.384 31.5983 243.384C30.4503 243.384 29.4835 243.142 28.5772 242.659C27.6708 242.175 27.0062 241.511 26.4624 240.604C25.979 239.698 25.7373 238.671 25.7373 237.402V231.178C25.7373 230.997 25.7977 230.816 25.9186 230.695C26.0394 230.574 26.2207 230.514 26.402 230.514C26.5832 230.514 26.7645 230.574 26.8853 230.695C27.0062 230.816 27.0666 230.997 27.0666 231.178V237.523C27.0666 238.973 27.4896 240.121 28.3355 240.906C29.1814 241.692 30.269 242.054 31.5983 242.054C32.4443 242.054 33.1693 241.873 33.834 241.571C34.4986 241.269 35.0424 240.786 35.405 240.242C35.7675 239.698 36.0092 239.033 36.0092 238.369V231.239C36.0092 230.997 36.0696 230.876 36.1905 230.755C36.3113 230.635 36.4926 230.574 36.6739 230.574C36.8551 230.574 37.0364 230.635 37.1572 230.755Z" fill="black"/>
<path d="M49.7859 231.299C50.6922 231.843 51.3569 232.568 51.8402 233.535C52.3236 234.501 52.5653 235.529 52.5653 236.737C52.5653 236.918 52.5049 237.1 52.384 237.221C52.2632 237.341 52.0819 237.402 51.9007 237.402H42.233C42.2934 238.308 42.5351 239.154 42.9581 239.879C43.381 240.604 43.9853 241.148 44.7103 241.571C45.4354 241.994 46.2209 242.175 47.1273 242.175C47.7315 242.175 48.3357 242.054 48.9399 241.873C49.5442 241.692 50.0276 241.39 50.3901 241.027C50.5714 240.906 50.6922 240.846 50.8735 240.846C51.0547 240.846 51.1756 240.906 51.2964 240.967C51.4777 241.088 51.5381 241.269 51.5381 241.45C51.5381 241.631 51.4777 241.752 51.3569 241.873C50.8735 242.296 50.2088 242.719 49.4233 242.961C48.6378 243.263 47.8523 243.384 47.1273 243.384C45.9188 243.384 44.8312 243.082 43.8644 242.538C42.8976 241.994 42.1726 241.208 41.6288 240.242C41.085 239.275 40.8433 238.127 40.8433 236.918C40.8433 235.65 41.085 234.562 41.5683 233.595C42.0517 232.628 42.7768 231.843 43.6831 231.299C44.5895 230.755 45.6167 230.453 46.7647 230.453C47.9128 230.453 48.9399 230.755 49.7859 231.299ZM43.7436 232.991C42.8976 233.776 42.4143 234.864 42.2934 236.193H51.2964C51.1756 234.864 50.7526 233.837 49.9067 232.991C49.0608 232.205 48.0336 231.782 46.8251 231.782C45.5563 231.782 44.5291 232.145 43.7436 232.991Z" fill="black"/>
<path d="M57.3386 242.96C56.4926 242.658 55.7676 242.175 55.2238 241.51C55.1029 241.389 55.0425 241.269 55.0425 241.087C55.0425 240.846 55.1633 240.664 55.3446 240.544C55.4654 240.483 55.5863 240.423 55.7676 240.423C56.0093 240.423 56.1905 240.483 56.3114 240.664C57.0969 241.631 58.3053 242.054 60.0576 242.054C61.266 242.054 62.1724 241.812 62.7766 241.389C63.3809 240.966 63.6225 240.423 63.6225 239.698C63.6225 238.489 62.4141 237.704 60.0576 237.341C58.547 237.099 57.399 236.737 56.6739 236.133C55.8884 235.528 55.5259 234.803 55.5259 233.957C55.5259 232.809 55.9488 231.963 56.7947 231.299C57.6407 230.695 58.7283 230.332 60.0576 230.332C61.9911 230.332 63.5017 231.057 64.4685 232.447C64.5893 232.568 64.5893 232.689 64.5893 232.87C64.5893 233.111 64.4685 233.293 64.2268 233.414C64.0455 233.474 63.9851 233.534 63.8642 233.534C63.6225 233.534 63.4413 233.414 63.26 233.232C62.4745 232.205 61.3869 231.722 59.9367 231.722C58.97 231.722 58.2449 231.903 57.7011 232.326C57.1573 232.749 56.8552 233.232 56.8552 233.837C56.8552 234.441 57.0969 234.924 57.6407 235.347C58.1845 235.71 59.0908 236.012 60.2993 236.193C61.9307 236.435 63.1392 236.858 63.8642 237.522C64.5893 238.187 64.9518 238.912 64.9518 239.879C64.9518 240.604 64.7102 241.208 64.2872 241.752C63.8038 242.296 63.1996 242.719 62.4745 243.021C61.689 243.323 60.9035 243.444 59.9972 243.444C59.0304 243.444 58.1845 243.263 57.3386 242.96Z" fill="black"/>
<path d="M80.1792 225.317C80.3 225.438 80.3604 225.62 80.3604 225.801V236.979V237.04C80.3604 238.248 80.0583 239.336 79.4541 240.302C78.9103 241.269 78.1248 242.055 77.0976 242.598C76.1308 243.142 75.0432 243.444 73.8348 243.444C72.6263 243.444 71.4783 243.142 70.5115 242.598C69.5447 242.055 68.7592 241.269 68.155 240.242C67.6112 239.275 67.3091 238.127 67.3091 236.919C67.3091 235.71 67.6112 234.623 68.155 233.595C68.6988 232.629 69.4843 231.843 70.5115 231.239C71.4783 230.695 72.6263 230.393 73.8348 230.393C74.9224 230.393 75.9496 230.635 76.7955 231.118C77.7018 231.601 78.3665 232.266 78.9103 233.052V225.801C78.9103 225.559 78.9707 225.438 79.0916 225.317C79.2124 225.197 79.3937 225.136 79.5749 225.136C79.8771 225.136 80.0583 225.197 80.1792 225.317ZM76.4934 241.45C77.2789 240.967 77.8831 240.363 78.3061 239.577C78.729 238.792 78.9707 237.885 78.9707 236.919C78.9707 235.952 78.729 235.046 78.3061 234.26C77.8831 233.475 77.2789 232.87 76.4934 232.387C75.7079 231.964 74.862 231.722 73.8952 231.722C72.9284 231.722 72.0825 231.964 71.297 232.387C70.5115 232.81 69.9073 233.475 69.4843 234.26C69.0613 235.046 68.8197 235.952 68.8197 236.919C68.8197 237.885 69.0613 238.792 69.4843 239.577C69.9073 240.363 70.5719 240.967 71.297 241.45C72.0221 241.934 72.9284 242.115 73.8952 242.115C74.862 242.115 75.7079 241.873 76.4934 241.45Z" fill="black"/>
<path d="M93.6529 231.299C94.6197 231.843 95.4052 232.628 96.0094 233.655C96.5532 234.622 96.8553 235.77 96.8553 236.979V242.598C96.8553 242.779 96.7949 242.961 96.6741 243.081C96.5532 243.202 96.3719 243.263 96.1907 243.263C96.0094 243.263 95.8281 243.202 95.7073 243.081C95.5864 242.961 95.526 242.779 95.526 242.598V240.785C95.0426 241.631 94.3176 242.235 93.4112 242.719C92.5049 243.202 91.5381 243.444 90.4505 243.444C89.242 243.444 88.094 243.142 87.1272 242.598C86.1605 242.054 85.375 241.269 84.7707 240.242C84.2269 239.275 83.9248 238.127 83.9248 236.918C83.9248 235.71 84.2269 234.562 84.7707 233.595C85.3145 232.628 86.1 231.843 87.1272 231.238C88.094 230.695 89.242 230.393 90.4505 230.393C91.5381 230.453 92.6257 230.755 93.6529 231.299ZM92.9278 241.45C93.7133 241.027 94.3176 240.362 94.7405 239.577C95.1635 238.791 95.4052 237.885 95.4052 236.918C95.4052 235.951 95.1635 235.045 94.7405 234.26C94.3176 233.474 93.7133 232.87 92.9278 232.387C92.1423 231.903 91.2964 231.722 90.3296 231.722C89.3629 231.722 88.5169 231.964 87.7314 232.387C86.946 232.87 86.3417 233.474 85.9188 234.26C85.4958 235.045 85.2541 235.951 85.2541 236.918C85.2541 237.885 85.4958 238.791 85.9188 239.577C86.3417 240.362 87.0064 240.967 87.7314 241.45C88.4565 241.933 89.3629 242.115 90.3296 242.115C91.2964 242.115 92.1423 241.873 92.9278 241.45Z" fill="black"/>
<path d="M110.813 231.118C110.813 231.178 110.753 231.299 110.692 231.42L102.898 248.338C102.777 248.641 102.596 248.761 102.354 248.761C102.233 248.761 102.173 248.761 102.052 248.701C101.75 248.58 101.629 248.399 101.629 248.157C101.629 248.097 101.689 247.976 101.75 247.855L104.046 242.84C104.046 242.84 103.985 242.78 103.925 242.659L98.8494 231.541C98.7889 231.42 98.7285 231.299 98.7285 231.178C98.7285 230.937 98.8494 230.755 99.1515 230.635C99.2723 230.574 99.3932 230.514 99.514 230.514C99.7557 230.514 99.937 230.635 100.058 230.937L104.771 241.209L109.484 230.937C109.605 230.635 109.786 230.514 110.028 230.514C110.148 230.514 110.269 230.514 110.33 230.574C110.692 230.755 110.813 230.937 110.813 231.118Z" fill="black"/>
<path d="M114.8 242.96C113.955 242.658 113.229 242.175 112.686 241.51C112.565 241.389 112.504 241.269 112.504 241.087C112.504 240.846 112.625 240.664 112.807 240.544C112.927 240.483 113.048 240.423 113.229 240.423C113.471 240.423 113.652 240.483 113.773 240.664C114.559 241.631 115.767 242.054 117.52 242.054C118.728 242.054 119.634 241.812 120.239 241.389C120.843 240.966 121.084 240.423 121.084 239.698C121.084 238.489 119.876 237.704 117.52 237.341C116.009 237.099 114.861 236.737 114.136 236.133C113.35 235.528 112.988 234.803 112.988 233.957C112.988 232.809 113.411 231.963 114.257 231.299C115.103 230.695 116.19 230.332 117.52 230.332C119.453 230.332 120.964 231.057 121.93 232.447C122.051 232.568 122.051 232.689 122.051 232.87C122.051 233.111 121.93 233.293 121.689 233.414C121.507 233.474 121.447 233.534 121.326 233.534C121.084 233.534 120.903 233.414 120.722 233.232C119.936 232.205 118.849 231.722 117.399 231.722C116.432 231.722 115.707 231.903 115.163 232.326C114.619 232.749 114.317 233.232 114.317 233.837C114.317 234.441 114.559 234.924 115.103 235.347C115.646 235.71 116.553 236.012 117.761 236.193C119.393 236.435 120.601 236.858 121.326 237.522C122.051 238.187 122.414 238.912 122.414 239.879C122.414 240.604 122.172 241.208 121.749 241.752C121.266 242.296 120.661 242.719 119.936 243.021C119.151 243.323 118.365 243.444 117.459 243.444C116.553 243.444 115.707 243.263 114.8 242.96Z" fill="black"/>
<path d="M187.551 13.8975H16.252V185.197H187.551V13.8975Z" fill="#ED1C24"/>
<path d="M49.4824 120.484C49.6637 110.877 52.4431 103.324 58.425 97.1606C64.4673 90.937 70.6305 84.8343 76.7936 78.6712C83.9839 71.4204 91.2347 64.2301 98.425 56.9793C103.561 51.8434 109.664 48.3992 116.914 47.4325C128.093 45.8615 137.7 49.1243 145.555 57.2814C150.268 62.1757 153.108 68.0367 154.014 74.6832C155.525 85.7406 152.141 95.1666 144.226 103.082C131.778 115.408 119.392 127.795 107.066 140.182C104.286 143.022 101.446 145.801 97.9416 147.674C87.2468 153.354 76.4311 153.475 65.857 147.493C57.5791 142.84 52.4431 135.59 50.3283 126.284C49.7845 124.109 49.6637 121.813 49.4824 120.484ZM82.5338 137.221C92.3827 136.798 100.177 128.641 99.7543 118.973C99.3314 108.943 91.1743 101.209 81.3253 101.632C71.4764 102.055 63.8027 110.272 64.2256 120C64.5882 129.91 72.8057 137.644 82.5338 137.221ZM139.694 80.1213C140.056 70.3328 132.383 62.1153 122.413 61.7527C112.685 61.3902 104.467 69.1243 104.105 78.9733C103.742 88.7014 111.476 96.9189 121.325 97.2814C131.114 97.7044 139.271 89.9702 139.694 80.1213Z" fill="white"/>
</svg>
