<svg width="78" height="92" viewBox="0 0 78 92" fill="none" xmlns="http://www.w3.org/2000/svg">
<path d="M77.63 0.253906H0.54541V77.3385H77.63V0.253906Z" fill="#593E6C"/>
<path d="M55.0885 30.027C54.4631 31.033 53.4571 31.7672 52.2335 31.9303C50.0311 32.2566 47.9647 30.6796 47.6384 28.4228C47.3121 26.166 48.8619 24.0723 51.0644 23.746C52.2879 23.5829 53.4299 23.9636 54.3 24.7249L58.8408 21.2717C56.6656 19.0149 53.4027 17.7914 49.9496 18.2808C44.4027 19.0693 40.5145 23.9907 41.2758 29.3201C41.5205 30.9787 42.1731 32.4741 43.152 33.7249L34.5598 41.8548C32.8196 40.6856 30.6716 40.0059 28.3332 40.0059C22.4873 40.0059 17.729 44.3291 17.729 49.6856C17.729 55.0421 22.4873 59.3654 28.3332 59.3654C34.1792 59.3654 38.9375 55.0421 38.9375 49.6856C38.9375 47.2113 37.9314 44.9817 36.2728 43.2687L44.7018 35.3019C46.8227 37.0149 49.7048 37.885 52.6958 37.45C56.1489 36.9605 58.9767 34.8397 60.4178 32.0391L55.0885 30.027ZM28.306 53.8457C26.0492 53.8457 24.1731 51.9968 24.1731 49.7128C24.1731 47.4288 26.0221 45.5799 28.306 45.5799C30.5628 45.5799 32.439 47.4288 32.439 49.7128C32.4118 51.9968 30.5628 53.8457 28.306 53.8457Z" fill="white"/>
<path d="M2.61023 90.444C1.98485 90.0634 1.49543 89.574 1.14195 88.9214C0.788477 88.296 0.598145 87.6162 0.598145 86.8821C0.598145 86.148 0.788477 85.4682 1.14195 84.8428C1.49543 84.2175 1.98485 83.7008 2.61023 83.3474C3.23561 82.9939 3.88818 82.7764 4.62231 82.7764C5.57398 82.7764 6.41688 83.0755 7.15102 83.7008C7.2054 83.7552 7.23259 83.8096 7.23259 83.9184C7.23259 83.9999 7.2054 84.0815 7.15102 84.1359C7.09663 84.1903 7.01506 84.2446 6.93349 84.2446C6.85192 84.2446 6.77035 84.1903 6.68878 84.1087C6.17216 83.6465 5.46521 83.4017 4.62231 83.4017C4.02413 83.4017 3.45313 83.5649 2.93651 83.8912C2.4199 84.2175 1.98485 84.6525 1.68576 85.1691C1.38666 85.7129 1.22352 86.2839 1.22352 86.8821C1.22352 87.5075 1.38666 88.1057 1.68576 88.6495C1.98485 89.1933 2.39271 89.6283 2.93651 89.9274C3.45313 90.2537 4.02413 90.3897 4.6495 90.3897C5.46521 90.3897 6.17216 90.145 6.77035 89.6283C6.82473 89.6011 6.87911 89.574 6.93349 89.574C7.01506 89.574 7.09663 89.6011 7.15102 89.6555C7.2054 89.7099 7.25978 89.7915 7.25978 89.873C7.25978 89.9546 7.23259 90.0362 7.17821 90.0906C6.58002 90.6888 5.73712 90.9879 4.6495 90.9879C3.88818 90.9879 3.23561 90.7975 2.61023 90.444Z" fill="black"/>
<path d="M9.68001 90.581C9.24497 90.3362 8.89149 89.9828 8.64678 89.5477C8.40206 89.1127 8.26611 88.6232 8.26611 88.0794C8.26611 87.5356 8.40206 87.0462 8.64678 86.6112C8.89149 86.1761 9.24497 85.8226 9.68001 85.5779C10.1151 85.3332 10.6045 85.1973 11.1483 85.1973C11.6921 85.1973 12.1815 85.3332 12.6166 85.5779C13.0516 85.8226 13.4051 86.1761 13.6498 86.6112C13.8945 87.0462 14.0305 87.5356 14.0305 88.0794C14.0305 88.6232 13.8945 89.1127 13.6498 89.5477C13.4051 89.9828 13.0516 90.3362 12.6166 90.581C12.1815 90.8257 11.6921 90.9616 11.1483 90.9616C10.6317 90.9616 10.1422 90.8257 9.68001 90.581ZM12.3175 90.0915C12.6709 89.9012 12.9429 89.6293 13.1332 89.2758C13.3235 88.9223 13.4323 88.5417 13.4323 88.1066C13.4323 87.6716 13.3235 87.2909 13.1332 86.9374C12.9429 86.584 12.6709 86.3121 12.3175 86.1217C11.964 85.9314 11.5833 85.8226 11.1755 85.8226C10.7676 85.8226 10.3598 85.9314 10.0335 86.1217C9.68001 86.3121 9.40811 86.6112 9.21778 86.9374C9.02744 87.2909 8.91868 87.6716 8.91868 88.1066C8.91868 88.5417 9.02744 88.9223 9.21778 89.2758C9.40811 89.6293 9.68001 89.9012 10.0335 90.0915C10.387 90.2819 10.7676 90.3906 11.1755 90.3906C11.5833 90.3906 11.964 90.2819 12.3175 90.0915Z" fill="black"/>
<path d="M15.3093 90.9072C15.2005 90.7984 15.1733 90.6897 15.1733 90.5265C15.1733 90.3906 15.2277 90.2546 15.3365 90.1731C15.4452 90.0643 15.554 90.0371 15.7171 90.0371C15.8803 90.0371 15.989 90.0915 16.0706 90.1731C16.1794 90.2818 16.2066 90.3906 16.2066 90.5265C16.2066 90.6625 16.1522 90.7984 16.0706 90.9072C15.9619 91.016 15.8531 91.0703 15.7171 91.0703C15.554 91.0703 15.4181 91.016 15.3093 90.9072Z" fill="black"/>
<path d="M17.8379 90.798C17.7835 90.7436 17.7563 90.662 17.7563 90.5805V83.1575C17.7563 83.0759 17.7835 82.9944 17.8379 82.94C17.8923 82.8856 17.9739 82.8584 18.0554 82.8584C18.137 82.8584 18.2186 82.8856 18.273 82.94C18.3273 82.9944 18.3545 83.0759 18.3545 83.1575V90.3357H22.5962C22.6778 90.3357 22.7594 90.3629 22.8137 90.4173C22.8681 90.4717 22.8953 90.5261 22.8953 90.6076C22.8953 90.6892 22.8681 90.7436 22.8137 90.798C22.7594 90.8524 22.6778 90.8795 22.5962 90.8795H18.0554C17.9739 90.9067 17.8923 90.8795 17.8379 90.798Z" fill="black"/>
<path d="M28.1157 85.5779C28.5508 85.8226 28.9043 86.1761 29.149 86.6112C29.3937 87.0462 29.5296 87.5356 29.5296 88.0794V90.581C29.5296 90.6625 29.5025 90.7441 29.4481 90.7985C29.3937 90.8529 29.3121 90.88 29.2305 90.88C29.149 90.88 29.0674 90.8529 29.013 90.7985C28.9586 90.7441 28.9315 90.6625 28.9315 90.581V89.7652C28.7139 90.1187 28.3876 90.4178 28.007 90.6353C27.5991 90.8529 27.1641 90.9616 26.6747 90.9616C26.1308 90.9616 25.6414 90.8257 25.2064 90.581C24.7713 90.3362 24.4179 89.9828 24.1731 89.5477C23.9284 89.1127 23.7925 88.6232 23.7925 88.0794C23.7925 87.5356 23.9284 87.0462 24.1731 86.6112C24.4179 86.1761 24.7713 85.8226 25.2064 85.5779C25.6414 85.3332 26.1308 85.1973 26.6747 85.1973C27.1913 85.1973 27.6807 85.3332 28.1157 85.5779ZM27.8167 90.0915C28.1701 89.9012 28.442 89.6293 28.6324 89.2758C28.8227 88.9223 28.9315 88.5417 28.9315 88.1066C28.9315 87.6716 28.8227 87.2909 28.6324 86.9374C28.442 86.584 28.1701 86.3121 27.8167 86.1217C27.4632 85.9314 27.0825 85.8226 26.6747 85.8226C26.2668 85.8226 25.8589 85.9314 25.5327 86.1217C25.1792 86.3121 24.9073 86.6112 24.717 86.9374C24.5266 87.2909 24.4179 87.6716 24.4179 88.1066C24.4179 88.5417 24.5266 88.9223 24.717 89.2758C24.9073 89.6293 25.1792 89.9012 25.5327 90.0915C25.8861 90.2819 26.2668 90.3906 26.6747 90.3906C27.0825 90.3906 27.4632 90.2819 27.8167 90.0915Z" fill="black"/>
<path d="M35.4029 85.5771C35.8379 85.8218 36.1914 86.1753 36.4361 86.6103C36.6808 87.0454 36.8167 87.5348 36.8167 88.0786C36.8167 88.6224 36.6808 89.1118 36.4361 89.5469C36.1914 89.9819 35.8379 90.3354 35.4029 90.5801C34.9678 90.8248 34.4784 90.9608 33.9346 90.9608C33.418 90.9608 32.9285 90.852 32.4935 90.6073C32.0584 90.3626 31.705 90.0363 31.4603 89.6013C31.2155 89.1662 31.0796 88.6768 31.0796 88.1602V88.133V83.1843C31.0796 83.0756 31.1068 83.0212 31.1612 82.9668C31.2155 82.9124 31.2971 82.8853 31.3787 82.8853C31.4874 82.8853 31.5418 82.9124 31.5962 82.9668C31.6506 83.0212 31.6778 83.1028 31.6778 83.1843V86.3928C31.8953 86.0393 32.2216 85.7402 32.6022 85.5227C32.9829 85.3052 33.4451 85.1964 33.9346 85.1964C34.4784 85.1964 34.9678 85.3324 35.4029 85.5771ZM35.1038 90.0635C35.4572 89.8732 35.7291 89.5741 35.9195 89.2478C36.1098 88.8943 36.2186 88.5137 36.2186 88.0786C36.2186 87.6436 36.1098 87.2629 35.9195 86.9094C35.7291 86.556 35.4572 86.284 35.1038 86.0937C34.7503 85.9034 34.3696 85.7946 33.9618 85.7946C33.5267 85.7946 33.1461 85.9034 32.8198 86.0937C32.4663 86.284 32.1944 86.556 32.0041 86.9094C31.8137 87.2629 31.705 87.6436 31.705 88.0786C31.705 88.5137 31.8137 88.8943 32.0041 89.2478C32.1944 89.6013 32.4663 89.8732 32.8198 90.0635C33.1732 90.2538 33.5539 90.3626 33.9618 90.3626C34.3696 90.3898 34.7503 90.281 35.1038 90.0635Z" fill="black"/>
</svg>
