<svg width="201" height="297" viewBox="0 0 201 297" fill="none" xmlns="http://www.w3.org/2000/svg">
<rect x="0.963867" width="200" height="296.073" rx="12" fill="white"/>
<path d="M187.611 13.897H16.312V185.196H187.611V13.897Z" fill="#46AEB1"/>
<path d="M149.483 46.3438L160.178 54.6217L163.32 46.3438H149.483Z" fill="white"/>
<path d="M75.4645 46.3438H71.0536L47.4282 64.6519L50.3889 72.4465L77.2772 51.6005L75.5249 46.525L75.4645 46.3438Z" fill="white"/>
<path d="M54.1968 82.4162L57.1575 90.2712L83.5019 69.8483L80.7829 61.812L54.1968 82.4162Z" fill="white"/>
<path d="M128.518 46.3438L128.457 46.525L126.705 51.661L153.412 72.386L156.373 64.5915L132.868 46.3438H128.518Z" fill="white"/>
<path d="M146.585 90.15L149.606 82.295L123.201 61.8721L120.422 69.8479L146.585 90.15Z" fill="white"/>
<path d="M60.9038 100.181L63.8645 108.036L89.7256 88.0363L87.0065 80L60.9038 100.181Z" fill="white"/>
<path d="M40.541 46.3438L43.5622 54.3196L53.8945 46.3438H40.541Z" fill="white"/>
<path d="M116.796 90.0304L139.817 107.916L142.778 100.121L119.213 81.8733C118.428 81.269 117.461 81.0273 116.555 81.0273L112.204 93.5953L116.796 90.0304Z" fill="white"/>
<path d="M67.6724 118.006L70.6331 125.8L95.9503 106.223L93.1709 98.187L67.6724 118.006Z" fill="white"/>
<path d="M114.319 104.833L74.3794 135.83L77.3401 143.685L116.796 113.111L133.05 125.739L136.011 117.945L119.213 104.954C117.824 103.685 115.769 103.685 114.319 104.833Z" fill="white"/>
<path d="M114.319 127.794L81.0859 153.534L82.2944 156.676H90.1494L116.796 136.011L126.282 143.383L129.243 135.588L119.213 127.854C117.823 126.706 115.769 126.706 114.319 127.794Z" fill="white"/>
<path d="M114.318 150.815L106.765 156.676H121.206L122.475 153.292L119.272 150.815C117.822 149.727 115.768 149.727 114.318 150.815Z" fill="white"/>
<path d="M26.1587 203.323C26.1587 203.444 26.1587 203.505 26.0983 203.565L20.9019 214.804C20.7206 215.106 20.4789 215.287 20.1768 215.287C20.056 215.287 19.9351 215.227 19.8143 215.166C19.6934 215.106 19.633 214.985 19.5726 214.804L14.3158 203.565C14.2554 203.505 14.2554 203.444 14.2554 203.323C14.2554 203.021 14.3762 202.84 14.6179 202.719C14.7388 202.659 14.7992 202.659 14.92 202.659C15.1617 202.659 15.343 202.78 15.5243 203.021L20.2372 213.233L24.8898 203.021C25.0107 202.78 25.1919 202.659 25.494 202.659C25.6149 202.659 25.6753 202.659 25.7962 202.719C25.9774 202.84 26.1587 203.021 26.1587 203.323Z" fill="black"/>
<path d="M36.1886 203.383C37.0949 203.927 37.7596 204.652 38.243 205.558C38.7263 206.465 38.968 207.552 38.968 208.761C38.968 208.942 38.9076 209.123 38.7868 209.244C38.6659 209.365 38.4846 209.425 38.3034 209.425H28.6961C28.7566 210.332 28.9982 211.117 29.4212 211.842C29.8442 212.567 30.4484 213.111 31.1735 213.534C31.8985 213.957 32.684 214.138 33.5904 214.138C34.1946 214.138 34.7988 214.017 35.4031 213.836C36.0073 213.655 36.4907 213.353 36.8532 213.051C37.0345 212.93 37.1553 212.869 37.3366 212.869C37.5179 212.869 37.6387 212.93 37.7596 212.99C37.9408 213.111 38.0013 213.292 38.0013 213.474C38.0013 213.655 37.9408 213.776 37.82 213.897C37.3366 214.32 36.672 214.682 35.8865 214.984C35.101 215.286 34.3155 215.407 33.6508 215.407C32.4424 215.407 31.3547 215.105 30.4484 214.622C29.4816 214.078 28.7566 213.292 28.2127 212.326C27.6689 211.359 27.4272 210.271 27.4272 209.002C27.4272 207.733 27.6689 206.646 28.1523 205.679C28.6357 204.712 29.3608 203.927 30.2671 203.383C31.1735 202.839 32.2007 202.597 33.3487 202.597C34.3155 202.537 35.2822 202.839 36.1886 203.383ZM30.1463 205.075C29.3004 205.86 28.817 206.948 28.6961 208.217H37.6387C37.5179 206.888 37.0949 205.86 36.249 205.075C35.4031 204.289 34.4363 203.866 33.1674 203.866C31.959 203.866 30.9922 204.229 30.1463 205.075Z" fill="black"/>
<path d="M49.0589 203.323C49.0589 203.383 49.0589 203.443 49.0589 203.504C48.9984 203.685 48.938 203.806 48.8172 203.866C48.6963 203.927 48.5755 203.987 48.3942 203.987C48.2734 203.987 48.0921 203.987 47.8504 203.927C47.6087 203.866 47.4274 203.866 47.3066 203.866C46.5211 203.866 45.8565 204.048 45.2522 204.35C44.648 204.652 44.1646 205.135 43.8625 205.679C43.5 206.223 43.3791 206.888 43.3791 207.613V214.622C43.3791 214.803 43.3187 214.984 43.1978 215.105C43.077 215.226 42.8957 215.286 42.7145 215.286C42.5332 215.286 42.3519 215.226 42.2311 215.105C42.1102 214.984 42.0498 214.803 42.0498 214.622V203.443C42.0498 203.202 42.1102 203.081 42.2311 202.96C42.3519 202.839 42.5332 202.779 42.7145 202.779C42.9561 202.779 43.077 202.839 43.1978 202.96C43.3187 203.081 43.3791 203.262 43.3791 203.443V204.894C43.8021 204.169 44.4063 203.625 45.071 203.262C45.7356 202.839 46.5211 202.658 47.3066 202.658C48.4546 202.537 49.0589 202.779 49.0589 203.323Z" fill="black"/>
<path d="M58.1819 214.018C58.3027 214.139 58.3632 214.32 58.3632 214.562C58.3632 214.743 58.3027 214.924 58.1819 215.045C58.061 215.166 57.8798 215.226 57.6381 215.226H57.1547C56.3088 215.226 55.5837 215.045 54.9191 214.622C54.2544 214.26 53.771 213.716 53.4085 213.051C53.0459 212.386 52.8647 211.601 52.8647 210.815V204.35H51.052C50.8707 204.35 50.6894 204.29 50.629 204.169C50.5082 204.048 50.4478 203.927 50.4478 203.746C50.4478 203.565 50.5082 203.383 50.629 203.323C50.7499 203.202 50.8707 203.142 51.052 203.142H52.8647V199.395C52.8647 199.154 52.9251 199.033 53.0459 198.852C53.1668 198.731 53.3481 198.67 53.5293 198.67C53.771 198.67 53.8919 198.731 54.0731 198.852C54.194 198.973 54.2544 199.154 54.2544 199.395V203.142H57.2755C57.4568 203.142 57.6381 203.202 57.6985 203.323C57.8194 203.444 57.8798 203.565 57.8798 203.746C57.8798 203.927 57.8194 204.108 57.6985 204.169C57.5777 204.29 57.4568 204.35 57.2755 204.35H54.2544V210.815C54.2544 211.722 54.5565 212.447 55.1003 212.991C55.6441 213.534 56.3692 213.837 57.2151 213.837H57.6985C57.8798 213.837 58.061 213.897 58.1819 214.018Z" fill="black"/>
<path d="M61.6254 199.758C61.4441 199.577 61.3232 199.275 61.3232 198.973C61.3232 198.61 61.4441 198.369 61.6254 198.187C61.867 198.006 62.1087 197.885 62.4109 197.885C62.713 197.885 62.9547 198.006 63.1359 198.187C63.3172 198.369 63.438 198.61 63.438 198.973C63.438 199.275 63.3172 199.517 63.1359 199.758C62.9547 199.94 62.6525 200.06 62.3504 200.06C62.1087 200.06 61.867 199.94 61.6254 199.758ZM61.9275 215.045C61.8066 214.925 61.7462 214.743 61.7462 214.562V203.384C61.7462 203.142 61.8066 203.021 61.9275 202.9C62.0483 202.78 62.2296 202.719 62.4109 202.719C62.6525 202.719 62.7734 202.78 62.8942 202.9C63.0151 203.021 63.0755 203.202 63.0755 203.384V214.562C63.0755 214.743 63.0151 214.925 62.8942 215.045C62.7734 215.166 62.5921 215.227 62.4109 215.227C62.2296 215.227 62.0483 215.166 61.9275 215.045Z" fill="black"/>
<path d="M77.3369 214.622C77.3369 214.803 77.2764 214.924 77.0952 215.105C76.9139 215.226 76.7931 215.286 76.6722 215.286C76.4909 215.286 76.3097 215.165 76.1888 214.984L71.2342 208.881L69.1193 210.815V214.44C69.1193 214.622 69.0589 214.803 68.9381 214.924C68.8172 215.045 68.636 215.105 68.4547 215.105C68.2734 215.105 68.0922 215.045 67.9713 214.924C67.8505 214.803 67.79 214.622 67.79 214.44V197.884C67.79 197.643 67.8505 197.522 67.9713 197.401C68.0922 197.28 68.2734 197.22 68.4547 197.22C68.6964 197.22 68.8172 197.28 68.9381 197.401C69.0589 197.522 69.1193 197.703 69.1193 197.884V209.123L76.2493 202.658C76.4305 202.537 76.5514 202.477 76.6722 202.477C76.8535 202.477 76.9743 202.537 77.0952 202.718C77.216 202.839 77.2764 203.02 77.2764 203.141C77.2764 203.322 77.216 203.443 77.0348 203.564L72.1405 207.975L77.1556 214.138C77.2764 214.38 77.3369 214.501 77.3369 214.622Z" fill="black"/>
<path d="M89.4202 203.383C90.387 203.927 91.1725 204.712 91.7163 205.679C92.2601 206.646 92.5622 207.733 92.5622 208.942V214.501C92.5622 214.682 92.5018 214.863 92.381 214.984C92.2601 215.105 92.0788 215.166 91.8976 215.166C91.7163 215.166 91.535 215.105 91.4142 214.984C91.2933 214.863 91.2329 214.682 91.2329 214.501V212.688C90.7495 213.474 90.0245 214.138 89.1785 214.622C88.2722 215.105 87.3054 215.347 86.2178 215.347C85.0094 215.347 83.9217 215.045 82.955 214.501C81.9882 213.957 81.2027 213.172 80.6589 212.205C80.1151 211.238 79.813 210.15 79.813 208.942C79.813 207.733 80.1151 206.646 80.6589 205.679C81.2027 204.712 81.9882 203.927 82.955 203.383C83.9217 202.839 85.0094 202.537 86.2178 202.537C87.3659 202.537 88.4535 202.839 89.4202 203.383ZM88.7556 213.413C89.5411 212.99 90.1453 212.386 90.5683 211.601C90.9912 210.815 91.2329 209.969 91.2329 209.002C91.2329 208.036 90.9912 207.19 90.5683 206.404C90.1453 205.619 89.5411 205.014 88.7556 204.531C87.9701 204.108 87.1242 203.866 86.1574 203.866C85.1906 203.866 84.3447 204.108 83.5592 204.531C82.7737 204.954 82.1695 205.619 81.7465 206.404C81.3236 207.19 81.0819 208.036 81.0819 209.002C81.0819 209.969 81.3236 210.815 81.7465 211.601C82.1695 212.386 82.7737 212.99 83.5592 213.413C84.3447 213.836 85.1906 214.078 86.1574 214.078C87.1242 214.078 87.9701 213.897 88.7556 213.413ZM82.6529 199.879C82.532 199.758 82.4716 199.576 82.4716 199.395C82.4716 199.214 82.532 199.033 82.6529 198.912C82.7737 198.791 82.955 198.73 83.1363 198.73H89.1785C89.3598 198.73 89.5411 198.791 89.6619 198.912C89.7828 199.033 89.8432 199.214 89.8432 199.395C89.8432 199.576 89.7828 199.758 89.6619 199.879C89.5411 199.999 89.3598 200.06 89.1785 200.06H83.1363C82.8946 200.06 82.7737 199.999 82.6529 199.879Z" fill="black"/>
<path d="M96.4309 214.199C95.8871 213.474 95.585 212.567 95.585 211.48V198.005C95.585 197.764 95.6454 197.643 95.7662 197.522C95.8871 197.401 96.0683 197.341 96.2496 197.341C96.4913 197.341 96.6121 197.401 96.733 197.522C96.8538 197.643 96.9143 197.824 96.9143 198.005V211.48C96.9143 212.205 97.0351 212.749 97.3372 213.232C97.6393 213.655 98.0019 213.897 98.4853 213.897H99.0895C99.2708 213.897 99.3916 213.957 99.5125 214.078C99.6333 214.199 99.6937 214.38 99.6937 214.561C99.6937 214.743 99.6333 214.924 99.5125 215.045C99.3916 215.166 99.2103 215.226 99.0291 215.226H98.5457C97.6998 215.226 96.9747 214.863 96.4309 214.199Z" fill="black"/>
<path d="M102.594 199.758C102.412 199.577 102.292 199.275 102.292 198.973C102.292 198.61 102.412 198.369 102.594 198.187C102.835 198.006 103.077 197.885 103.379 197.885C103.681 197.885 103.923 198.006 104.104 198.187C104.285 198.369 104.406 198.61 104.406 198.973C104.406 199.275 104.285 199.517 104.104 199.758C103.923 199.94 103.621 200.06 103.319 200.06C103.077 200.06 102.775 199.94 102.594 199.758ZM102.896 215.045C102.775 214.925 102.714 214.743 102.714 214.562V203.384C102.714 203.142 102.775 203.021 102.896 202.9C103.017 202.78 103.198 202.719 103.379 202.719C103.621 202.719 103.742 202.78 103.863 202.9C103.983 203.021 104.044 203.202 104.044 203.384V214.562C104.044 214.743 103.983 214.925 103.863 215.045C103.742 215.166 103.56 215.227 103.379 215.227C103.198 215.227 103.017 215.166 102.896 215.045Z" fill="black"/>
<path d="M16.2484 227.311C16.0671 227.13 15.9463 226.828 15.9463 226.526C15.9463 226.163 16.0671 225.921 16.2484 225.74C16.4901 225.559 16.7318 225.438 17.0339 225.438C17.336 225.438 17.5777 225.559 17.759 225.74C17.9402 225.921 18.0611 226.163 18.0611 226.526C18.0611 226.828 17.9402 227.069 17.759 227.311C17.5777 227.492 17.2756 227.613 16.9735 227.613C16.6714 227.613 16.4297 227.492 16.2484 227.311ZM16.4901 242.598C16.3692 242.477 16.3088 242.296 16.3088 242.115V230.936C16.3088 230.695 16.3692 230.574 16.4901 230.453C16.6109 230.332 16.7922 230.272 16.9735 230.272C17.2152 230.272 17.336 230.332 17.4569 230.453C17.5777 230.574 17.6381 230.755 17.6381 230.936V242.115C17.6381 242.296 17.5777 242.477 17.4569 242.598C17.336 242.719 17.1547 242.779 16.9735 242.779C16.7922 242.84 16.6714 242.719 16.4901 242.598Z" fill="black"/>
<path d="M31.0539 230.755C31.9603 231.238 32.6249 231.903 33.1083 232.749C33.5917 233.655 33.8334 234.682 33.8334 235.891V242.054C33.8334 242.235 33.773 242.417 33.6521 242.537C33.5313 242.658 33.35 242.719 33.1687 242.719C32.9875 242.719 32.8062 242.658 32.6854 242.537C32.5645 242.417 32.5041 242.235 32.5041 242.054V235.891C32.5041 234.441 32.0811 233.353 31.2956 232.568C30.4497 231.782 29.4225 231.42 28.0932 231.42C27.3077 231.42 26.5222 231.601 25.8576 231.903C25.1929 232.205 24.6491 232.628 24.2866 233.232C23.924 233.776 23.6823 234.38 23.6823 235.105V242.115C23.6823 242.296 23.6219 242.477 23.5011 242.598C23.3802 242.719 23.1989 242.779 23.0177 242.779C22.8364 242.779 22.6551 242.719 22.5343 242.598C22.4135 242.477 22.353 242.296 22.353 242.115V230.936C22.353 230.695 22.4135 230.574 22.5343 230.453C22.6551 230.332 22.8364 230.272 23.0177 230.272C23.2594 230.272 23.3802 230.332 23.5011 230.453C23.6219 230.574 23.6823 230.755 23.6823 230.936V232.145C24.2261 231.48 24.8304 230.997 25.6159 230.634C26.3409 230.272 27.1869 230.09 28.0932 230.09C29.1808 230.09 30.1476 230.332 31.0539 230.755Z" fill="black"/>
<path d="M43.923 241.631C44.0438 241.751 44.1042 241.933 44.1042 242.174C44.1042 242.356 44.0438 242.537 43.923 242.658C43.8021 242.779 43.6209 242.839 43.3792 242.839H42.8354C41.9894 242.839 41.2644 242.658 40.5997 242.235C39.9351 241.872 39.4517 241.329 39.0891 240.664C38.7266 239.999 38.5453 239.214 38.5453 238.428V231.963H36.7326C36.5514 231.963 36.3701 231.903 36.3097 231.782C36.2493 231.661 36.1284 231.54 36.1284 231.359C36.1284 231.177 36.1888 230.996 36.3097 230.936C36.4305 230.815 36.5514 230.754 36.7326 230.754H38.5453V227.008C38.5453 226.767 38.6058 226.646 38.7266 226.464C38.8475 226.344 39.0287 226.283 39.21 226.283C39.4517 226.283 39.5725 226.344 39.7538 226.464C39.8746 226.585 39.9351 226.767 39.9351 227.008V230.754H42.9562C43.1375 230.754 43.3187 230.815 43.3792 230.936C43.5 231.057 43.5604 231.177 43.5604 231.359C43.5604 231.54 43.5 231.721 43.3792 231.782C43.2583 231.903 43.1375 231.963 42.9562 231.963H39.9351V238.428C39.9351 239.335 40.2372 240.06 40.781 240.603C41.3248 241.147 42.0499 241.449 42.8958 241.449H43.3792C43.6209 241.389 43.8021 241.449 43.923 241.631Z" fill="black"/>
<path d="M55.2218 230.936C56.1281 231.48 56.7928 232.205 57.2762 233.111C57.7595 234.017 58.0012 235.105 58.0012 236.314C58.0012 236.495 57.9408 236.676 57.82 236.797C57.6991 236.918 57.5179 236.978 57.3366 236.978H47.7293C47.7898 237.885 48.0314 238.67 48.4544 239.395C48.8774 240.12 49.4816 240.664 50.2067 241.087C50.9317 241.51 51.7172 241.691 52.6236 241.691C53.2278 241.691 53.8321 241.57 54.4363 241.389C55.0405 241.208 55.5239 240.906 55.8864 240.604C56.0677 240.483 56.1885 240.422 56.3698 240.422C56.5511 240.422 56.6719 240.483 56.7928 240.543C56.974 240.664 57.0345 240.845 57.0345 241.027C57.0345 241.208 56.974 241.329 56.8532 241.449C56.3698 241.872 55.7052 242.235 54.9197 242.537C54.1342 242.839 53.3487 242.96 52.684 242.96C51.4756 242.96 50.3879 242.658 49.4816 242.175C48.5148 241.631 47.7898 240.845 47.2459 239.878C46.7021 238.912 46.4604 237.824 46.4604 236.555C46.4604 235.286 46.7021 234.199 47.1855 233.232C47.6689 232.265 48.394 231.48 49.3003 230.936C50.2067 230.392 51.2339 230.15 52.3819 230.15C53.3487 230.15 54.3154 230.392 55.2218 230.936ZM49.1795 232.628C48.3336 233.413 47.8502 234.501 47.7293 235.77H56.6719C56.5511 234.44 56.1281 233.413 55.2822 232.628C54.4363 231.842 53.4695 231.419 52.2006 231.419C51.0526 231.419 50.0254 231.842 49.1795 232.628Z" fill="black"/>
<path d="M69.603 230.936C70.5697 231.48 71.3552 232.266 71.899 233.232C72.4429 234.199 72.6845 235.287 72.6845 236.556V241.087C72.6845 242.296 72.3824 243.444 71.8386 244.411C71.2948 245.438 70.5093 246.223 69.5425 246.767C68.5758 247.311 67.4882 247.613 66.3401 247.613C65.1317 247.613 64.0441 247.371 63.1377 246.948C62.2314 246.525 61.4459 245.861 60.8416 245.075C60.7208 244.894 60.6604 244.773 60.6604 244.592C60.6604 244.411 60.7208 244.29 60.9021 244.169C61.0229 244.048 61.1438 244.048 61.325 244.048C61.5667 244.048 61.748 244.169 61.9293 244.35C62.4126 244.954 63.0773 245.438 63.8024 245.8C64.5274 246.163 65.3734 246.344 66.3401 246.344C67.2465 246.344 68.0924 246.102 68.8779 245.679C69.603 245.196 70.2072 244.592 70.6302 243.806C71.0531 243.021 71.2948 242.115 71.2948 241.087V240.06C70.8719 240.966 70.2072 241.692 69.3009 242.175C68.3945 242.719 67.4277 242.96 66.2797 242.96C65.0108 242.96 63.9232 242.658 62.9564 242.175C61.9897 241.631 61.2042 240.846 60.6604 239.879C60.1166 238.912 59.8145 237.824 59.8145 236.556C59.8145 235.347 60.1166 234.199 60.6604 233.232C61.2042 232.266 61.9897 231.48 62.9564 230.936C63.9232 230.392 65.0108 230.09 66.2193 230.09C67.5486 230.09 68.6362 230.392 69.603 230.936ZM68.8779 241.027C69.6634 240.604 70.2676 240 70.6906 239.214C71.1135 238.429 71.3552 237.583 71.3552 236.556C71.3552 235.528 71.1135 234.682 70.6906 233.897C70.2676 233.111 69.6634 232.507 68.8779 232.084C68.0924 231.661 67.2465 231.42 66.2797 231.42C65.3129 231.42 64.4066 231.661 63.6815 232.084C62.896 232.507 62.2918 233.111 61.8688 233.897C61.4459 234.682 61.2042 235.589 61.2042 236.556C61.2042 237.522 61.4459 238.429 61.8688 239.214C62.2918 240 62.896 240.604 63.6815 241.027C64.467 241.45 65.3129 241.692 66.2797 241.692C67.2465 241.692 68.0924 241.45 68.8779 241.027Z" fill="black"/>
<path d="M83.1966 230.875C83.1966 230.936 83.1966 230.996 83.1966 231.057C83.1361 231.238 83.0757 231.359 82.9549 231.419C82.834 231.48 82.7132 231.54 82.5319 231.54C82.4111 231.54 82.2298 231.54 81.9881 231.48C81.7464 231.48 81.5651 231.419 81.4443 231.419C80.6588 231.419 79.9941 231.6 79.3899 231.903C78.7857 232.205 78.3023 232.688 78.0002 233.232C77.6377 233.776 77.5168 234.44 77.5168 235.165V242.174C77.5168 242.356 77.4564 242.537 77.3355 242.658C77.2147 242.779 77.0334 242.839 76.8522 242.839C76.6709 242.839 76.4896 242.779 76.3688 242.658C76.2479 242.537 76.1875 242.356 76.1875 242.174V230.996C76.1875 230.754 76.2479 230.634 76.3688 230.513C76.4896 230.392 76.6709 230.332 76.8522 230.332C77.0938 230.332 77.2147 230.392 77.3355 230.513C77.4564 230.634 77.5168 230.815 77.5168 230.996V232.446C77.9398 231.721 78.544 231.177 79.2086 230.815C79.8733 230.452 80.6588 230.211 81.4443 230.211C82.6528 230.09 83.1966 230.332 83.1966 230.875Z" fill="black"/>
<path d="M93.047 230.936C93.9533 231.48 94.618 232.205 95.1014 233.111C95.5847 234.017 95.8264 235.105 95.8264 236.313C95.8264 236.495 95.766 236.676 95.6452 236.797C95.5243 236.918 95.343 236.978 95.1618 236.978H85.5545C85.6149 237.884 85.8566 238.67 86.2796 239.395C86.7026 240.12 87.3068 240.664 88.0319 241.087C88.7569 241.51 89.5424 241.691 90.4488 241.691C91.053 241.691 91.6572 241.57 92.2615 241.389C92.8657 241.208 93.3491 240.906 93.7116 240.603C93.8929 240.483 94.0137 240.422 94.195 240.422C94.3763 240.422 94.4971 240.483 94.618 240.543C94.7992 240.664 94.8597 240.845 94.8597 241.026C94.8597 241.208 94.7992 241.329 94.6784 241.449C94.195 241.872 93.5304 242.235 92.7449 242.537C91.9594 242.839 91.1739 242.96 90.5092 242.96C89.3007 242.96 88.2131 242.658 87.3068 242.174C86.34 241.631 85.6149 240.845 85.0711 239.878C84.5273 238.912 84.2856 237.824 84.2856 236.555C84.2856 235.286 84.5273 234.199 85.0107 233.232C85.4941 232.265 86.2192 231.48 87.1255 230.936C88.0319 230.392 89.0591 230.15 90.2071 230.15C91.1739 230.15 92.1406 230.392 93.047 230.936ZM87.0047 232.628C86.1588 233.413 85.6754 234.501 85.5545 235.77H94.4971C94.3763 234.44 93.9533 233.413 93.1074 232.628C92.2615 231.842 91.2947 231.419 90.0258 231.419C88.8174 231.419 87.8506 231.842 87.0047 232.628ZM86.4609 227.431C86.34 227.31 86.2796 227.129 86.2796 226.948C86.2796 226.767 86.34 226.585 86.4609 226.464C86.5817 226.344 86.763 226.283 86.9443 226.283H93.047C93.2282 226.283 93.4095 226.344 93.5304 226.464C93.6512 226.585 93.7116 226.767 93.7116 226.948C93.7116 227.129 93.6512 227.31 93.5304 227.431C93.4095 227.552 93.2282 227.613 93.047 227.613H86.9443C86.763 227.613 86.5817 227.552 86.4609 227.431Z" fill="black"/>
<path d="M105.012 241.631C105.133 241.751 105.193 241.933 105.193 242.174C105.193 242.356 105.133 242.537 105.012 242.658C104.891 242.779 104.71 242.839 104.468 242.839H103.924C103.078 242.839 102.353 242.658 101.689 242.235C101.024 241.872 100.541 241.329 100.178 240.664C99.8155 239.999 99.6342 239.214 99.6342 238.428V231.963H97.8215C97.6402 231.963 97.459 231.903 97.3986 231.782C97.3381 231.661 97.2173 231.54 97.2173 231.359C97.2173 231.177 97.2777 230.996 97.3986 230.936C97.5194 230.815 97.6402 230.754 97.8215 230.754H99.6342V227.008C99.6342 226.767 99.6946 226.646 99.8155 226.464C99.9363 226.344 100.118 226.283 100.299 226.283C100.541 226.283 100.661 226.344 100.843 226.464C100.964 226.585 101.024 226.767 101.024 227.008V230.754H104.045C104.226 230.754 104.408 230.815 104.468 230.936C104.589 231.057 104.649 231.177 104.649 231.359C104.649 231.54 104.589 231.721 104.468 231.782C104.347 231.903 104.226 231.963 104.045 231.963H101.024V238.428C101.024 239.335 101.326 240.06 101.87 240.603C102.414 241.147 103.139 241.449 103.985 241.449H104.468C104.71 241.389 104.891 241.449 105.012 241.631Z" fill="black"/>
<path d="M109.724 242.477C108.878 242.175 108.213 241.692 107.609 241.027C107.488 240.906 107.428 240.785 107.428 240.604C107.428 240.362 107.549 240.241 107.73 240.06C107.851 240 107.972 239.939 108.092 239.939C108.334 239.939 108.455 240 108.636 240.181C109.422 241.087 110.63 241.571 112.322 241.571C113.53 241.571 114.437 241.329 114.981 240.906C115.585 240.483 115.827 239.939 115.827 239.275C115.827 238.066 114.678 237.281 112.322 236.979C110.811 236.737 109.724 236.374 108.938 235.77C108.153 235.166 107.79 234.441 107.79 233.595C107.79 232.447 108.213 231.601 108.999 230.997C109.845 230.392 110.872 230.09 112.201 230.09C114.135 230.09 115.585 230.755 116.612 232.145C116.733 232.266 116.733 232.386 116.733 232.507C116.733 232.749 116.612 232.87 116.37 233.051C116.189 233.111 116.129 233.172 116.008 233.172C115.766 233.172 115.585 233.051 115.404 232.87C114.618 231.903 113.53 231.359 112.141 231.359C111.234 231.359 110.449 231.54 109.905 231.963C109.361 232.386 109.059 232.87 109.059 233.474C109.059 234.078 109.301 234.562 109.845 234.924C110.388 235.287 111.234 235.589 112.503 235.77C114.135 236.012 115.283 236.435 116.008 237.039C116.733 237.704 117.095 238.429 117.095 239.335C117.095 240.06 116.854 240.664 116.431 241.208C116.008 241.752 115.404 242.175 114.618 242.477C113.893 242.779 113.047 242.9 112.141 242.9C111.476 242.96 110.57 242.779 109.724 242.477Z" fill="black"/>
<path d="M25.5535 258.489C26.5203 259.033 27.3058 259.818 27.8496 260.785C28.3934 261.752 28.6955 262.839 28.6955 264.048C28.6955 265.256 28.3934 266.344 27.8496 267.311C27.3058 268.278 26.5203 269.063 25.5535 269.607C24.5868 270.151 23.4992 270.453 22.2907 270.453C21.2031 270.453 20.2363 270.211 19.33 269.728C18.4236 269.244 17.759 268.64 17.2756 267.794V274.984C17.2756 275.226 17.2152 275.347 17.0943 275.468C16.9735 275.589 16.7922 275.649 16.6109 275.649C16.4297 275.649 16.2484 275.589 16.1276 275.468C16.0067 275.347 15.9463 275.166 15.9463 274.984V263.927V263.867C15.9463 262.658 16.2484 261.631 16.7922 260.664C17.336 259.697 18.1215 258.972 19.0883 258.429C20.0551 257.885 21.1427 257.643 22.2907 257.643C23.4992 257.643 24.5868 257.945 25.5535 258.489ZM24.8285 268.58C25.614 268.157 26.2182 267.552 26.6412 266.767C27.0641 265.981 27.3058 265.136 27.3058 264.169C27.3058 263.202 27.0641 262.356 26.6412 261.571C26.2182 260.785 25.614 260.181 24.8285 259.697C24.043 259.274 23.197 259.033 22.2303 259.033C21.2635 259.033 20.4176 259.274 19.6321 259.697C18.8466 260.12 18.2424 260.785 17.8194 261.571C17.3964 262.356 17.1547 263.202 17.1547 264.169C17.1547 265.136 17.3964 265.981 17.8194 266.767C18.2424 267.552 18.8466 268.157 19.6321 268.58C20.4176 269.003 21.2635 269.244 22.2303 269.244C23.197 269.244 24.1034 269.003 24.8285 268.58Z" fill="black"/>
<path d="M39.2107 258.428C39.2107 258.489 39.2107 258.549 39.2107 258.609C39.1503 258.791 39.0899 258.911 38.969 258.972C38.8482 259.032 38.7273 259.093 38.5461 259.093C38.4252 259.093 38.244 259.093 38.0023 259.032C37.7606 259.032 37.5793 258.972 37.4585 258.972C36.673 258.972 36.0083 259.153 35.4041 259.455C34.7998 259.757 34.3165 260.241 34.0143 260.785C33.6518 261.328 33.531 261.993 33.531 262.718V269.727C33.531 269.908 33.4705 270.09 33.3497 270.211C33.2289 270.331 33.0476 270.392 32.8663 270.392C32.685 270.392 32.5038 270.331 32.3829 270.211C32.2621 270.09 32.2017 269.908 32.2017 269.727V258.549C32.2017 258.307 32.2621 258.186 32.3829 258.066C32.5038 257.945 32.685 257.884 32.8663 257.884C33.108 257.884 33.2289 257.945 33.3497 258.066C33.4705 258.186 33.531 258.368 33.531 258.549V259.999C33.9539 259.274 34.5582 258.73 35.2228 258.368C35.8875 258.005 36.673 257.763 37.4585 257.763C38.6669 257.643 39.2107 257.945 39.2107 258.428Z" fill="black"/>
<path d="M43.3192 269.668C42.3525 269.124 41.567 268.339 41.0232 267.372C40.4794 266.405 40.1772 265.317 40.1772 264.109C40.1772 262.9 40.4794 261.813 41.0232 260.846C41.567 259.879 42.3525 259.094 43.3192 258.55C44.286 258.006 45.3736 257.704 46.5821 257.704C47.7905 257.704 48.8782 258.006 49.8449 258.55C50.8117 259.094 51.5972 259.879 52.141 260.846C52.6848 261.813 52.9869 262.9 52.9869 264.109C52.9869 265.317 52.6848 266.405 52.141 267.372C51.5972 268.339 50.8117 269.124 49.8449 269.668C48.8782 270.212 47.7905 270.514 46.5821 270.514C45.3736 270.514 44.286 270.212 43.3192 269.668ZM49.1198 268.58C49.9053 268.157 50.5096 267.553 50.9325 266.768C51.3555 265.982 51.5972 265.136 51.5972 264.169C51.5972 263.203 51.3555 262.357 50.9325 261.571C50.5096 260.786 49.9053 260.181 49.1198 259.698C48.3343 259.275 47.4884 259.033 46.5217 259.033C45.5549 259.033 44.709 259.275 43.9235 259.698C43.138 260.121 42.5337 260.786 42.1108 261.571C41.6878 262.357 41.4461 263.203 41.4461 264.169C41.4461 265.136 41.6878 265.982 42.1108 266.768C42.5337 267.553 43.138 268.157 43.9235 268.58C44.709 269.003 45.5549 269.245 46.5217 269.245C47.5488 269.245 48.3948 269.003 49.1198 268.58Z" fill="black"/>
<path d="M52.5035 275.528C52.3827 275.408 52.3223 275.226 52.3223 275.045C52.3223 274.864 52.3827 274.683 52.5035 274.562C52.6244 274.441 52.8056 274.38 53.0473 274.38C54.1954 274.38 55.1621 274.018 55.8872 273.293C56.6123 272.568 56.9748 271.601 56.9748 270.453V258.55C56.9748 258.308 57.0353 258.187 57.1561 258.066C57.2769 257.945 57.4582 257.885 57.6395 257.885C57.8812 257.885 58.002 257.945 58.1833 258.066C58.3041 258.187 58.3646 258.368 58.3646 258.55V270.453C58.3646 271.48 58.1229 272.386 57.6999 273.232C57.2165 274.018 56.6123 274.683 55.7664 275.166C54.9809 275.649 54.0141 275.831 52.9869 275.831C52.8056 275.77 52.6244 275.71 52.5035 275.528ZM56.854 254.864C56.6727 254.683 56.5519 254.38 56.5519 254.078C56.5519 253.716 56.6727 253.474 56.854 253.293C57.0957 253.112 57.3374 252.991 57.6395 252.991C57.9416 252.991 58.1833 253.112 58.3646 253.293C58.5458 253.474 58.6667 253.716 58.6667 254.078C58.6667 254.38 58.5458 254.622 58.3646 254.864C58.1833 255.045 57.8812 255.166 57.5791 255.166C57.3374 255.166 57.0353 255.045 56.854 254.864Z" fill="black"/>
<path d="M70.69 258.49C71.5964 259.033 72.261 259.758 72.7444 260.665C73.2278 261.571 73.4695 262.659 73.4695 263.867C73.4695 264.049 73.4091 264.23 73.2882 264.351C73.1674 264.471 72.9861 264.532 72.8048 264.532H63.1976C63.258 265.438 63.4997 266.224 63.9227 266.949C64.3456 267.674 64.9499 268.218 65.6749 268.641C66.4 269.064 67.1855 269.245 68.0919 269.245C68.6961 269.245 69.3003 269.124 69.9045 268.943C70.5088 268.762 70.9922 268.459 71.3547 268.157C71.536 268.036 71.6568 267.976 71.8381 267.976C72.0193 267.976 72.1402 268.036 72.261 268.097C72.4423 268.218 72.5027 268.399 72.5027 268.58C72.5027 268.762 72.4423 268.882 72.3215 269.003C71.8381 269.426 71.1734 269.789 70.3879 270.091C69.6024 270.393 68.8169 270.514 68.1523 270.514C66.9438 270.514 65.8562 270.212 64.9499 269.728C63.9831 269.184 63.258 268.399 62.7142 267.432C62.1704 266.465 61.9287 265.378 61.9287 264.109C61.9287 262.84 62.1704 261.752 62.6538 260.786C63.1372 259.819 63.8622 259.033 64.7686 258.49C65.6749 257.946 66.7021 257.704 67.8502 257.704C68.8169 257.704 69.8441 257.946 70.69 258.49ZM64.7082 260.181C63.8622 260.967 63.3789 262.055 63.258 263.323H72.2006C72.0798 261.994 71.6568 260.967 70.8109 260.181C69.965 259.396 68.9982 258.973 67.7293 258.973C66.5209 258.973 65.4937 259.396 64.7082 260.181Z" fill="black"/>
<path d="M86.1582 269.788C86.1582 269.969 86.0977 270.09 85.9165 270.271C85.7352 270.392 85.6144 270.453 85.4935 270.453C85.3122 270.453 85.131 270.332 85.0101 270.151L80.0554 264.048L77.9406 265.981V269.607C77.9406 269.788 77.8802 269.969 77.7594 270.09C77.6385 270.211 77.4573 270.271 77.276 270.271C77.0947 270.271 76.9134 270.211 76.7926 270.09C76.6718 269.969 76.6113 269.788 76.6113 269.607V253.051C76.6113 252.809 76.6718 252.688 76.7926 252.567C76.9134 252.447 77.0947 252.386 77.276 252.386C77.5177 252.386 77.6385 252.447 77.7594 252.567C77.8802 252.688 77.9406 252.87 77.9406 253.051V264.29L85.0705 257.824C85.2518 257.703 85.3727 257.643 85.4935 257.643C85.6748 257.643 85.7956 257.703 85.9165 257.885C86.0373 258.006 86.0977 258.187 86.0977 258.308C86.0977 258.489 86.0373 258.61 85.856 258.731L80.9618 263.142L85.9769 269.305C86.0977 269.486 86.1582 269.607 86.1582 269.788Z" fill="black"/>
<path d="M95.8869 269.184C96.0077 269.305 96.0681 269.486 96.0681 269.728C96.0681 269.909 96.0077 270.091 95.8869 270.212C95.766 270.332 95.5847 270.393 95.343 270.393H94.7992C93.9533 270.393 93.2282 270.212 92.5636 269.789C91.8989 269.426 91.4155 268.882 91.053 268.218C90.6905 267.553 90.5092 266.767 90.5092 265.982V259.517H88.6965C88.5152 259.517 88.334 259.456 88.2736 259.335C88.2131 259.215 88.0923 259.094 88.0923 258.912C88.0923 258.731 88.1527 258.55 88.2736 258.489C88.3944 258.369 88.5152 258.308 88.6965 258.308H90.5092V254.562C90.5092 254.32 90.5696 254.199 90.6905 254.018C90.8113 253.897 90.9926 253.837 91.1739 253.837C91.4156 253.837 91.5364 253.897 91.7177 254.018C91.8385 254.139 91.8989 254.32 91.8989 254.562V258.308H94.9201C95.1014 258.308 95.2826 258.369 95.343 258.489C95.4639 258.61 95.5243 258.731 95.5243 258.912C95.5243 259.094 95.4639 259.275 95.343 259.335C95.2222 259.456 95.1014 259.517 94.9201 259.517H91.8989V265.982C91.8989 266.888 92.201 267.613 92.7449 268.157C93.2887 268.701 94.0137 269.003 94.8597 269.003H95.343C95.5847 269.003 95.7056 269.063 95.8869 269.184Z" fill="black"/>
<path d="M100.599 270.03C99.7529 269.728 99.0882 269.244 98.484 268.58C98.3631 268.459 98.3027 268.338 98.3027 268.157C98.3027 267.915 98.4236 267.794 98.6048 267.613C98.7257 267.552 98.8465 267.492 98.9674 267.492C99.2091 267.492 99.3299 267.552 99.5112 267.734C100.297 268.64 101.505 269.123 103.197 269.123C104.405 269.123 105.312 268.882 105.856 268.459C106.46 268.036 106.702 267.492 106.702 266.827C106.702 265.619 105.553 264.833 103.197 264.531C101.686 264.29 100.599 263.927 99.8133 263.323C99.0278 262.719 98.6653 261.994 98.6653 261.148C98.6653 260 99.0882 259.154 99.8737 258.549C100.72 257.945 101.747 257.643 103.076 257.643C105.01 257.643 106.46 258.308 107.487 259.697C107.608 259.818 107.608 259.939 107.608 260.06C107.608 260.302 107.487 260.423 107.245 260.604C107.064 260.664 107.004 260.725 106.883 260.725C106.641 260.725 106.46 260.604 106.279 260.423C105.493 259.456 104.405 258.912 103.016 258.912C102.109 258.912 101.324 259.093 100.78 259.516C100.236 259.939 99.9342 260.423 99.9342 261.027C99.9342 261.631 100.176 262.114 100.72 262.477C101.263 262.839 102.109 263.142 103.378 263.323C105.01 263.565 106.158 263.987 106.883 264.592C107.608 265.256 107.97 265.981 107.97 266.888C107.97 267.613 107.729 268.217 107.306 268.761C106.883 269.305 106.279 269.728 105.493 270.03C104.768 270.332 103.922 270.453 103.016 270.453C102.291 270.513 101.445 270.332 100.599 270.03Z" fill="black"/>
</svg>
