<svg width="244" height="244" viewBox="0 0 244 244" fill="none" xmlns="http://www.w3.org/2000/svg">
<path d="M0.0361328 121.518C0.0361328 188.621 54.4335 243.018 121.536 243.018C188.639 243.018 243.036 188.621 243.036 121.518C243.036 54.4155 188.639 0.0180664 121.536 0.0180664C54.4335 0.0180664 0.0361328 54.4155 0.0361328 121.518Z" fill="#374A5E"/>
<path d="M121.536 96.3711C107.644 96.3711 96.376 107.639 96.376 121.531C96.376 135.424 107.644 146.692 121.536 146.692C135.429 146.692 146.697 135.424 146.697 121.531C146.683 107.626 135.429 96.3711 121.536 96.3711ZM124.296 135.058C124.296 136.59 123.054 137.832 121.523 137.832C119.991 137.832 118.75 136.59 118.75 135.058V109.344C118.75 107.812 119.991 106.571 121.523 106.571C123.054 106.571 124.296 107.812 124.296 109.344V135.058Z" fill="white"/>
<path d="M184.423 96.3579C170.531 96.3579 159.263 107.626 159.263 121.518C159.263 135.411 170.531 146.679 184.423 146.679C198.316 146.679 209.584 135.411 209.584 121.518C209.57 107.612 198.316 96.3579 184.423 96.3579ZM184.437 137.751C175.414 137.751 168.042 130.433 168.042 121.518C168.042 112.699 175.279 105.286 184.437 105.286C189.656 105.286 194.328 107.649 197.375 111.36C198.55 112.79 197.551 114.784 195.726 115.095C194.631 115.283 193.553 114.774 192.809 113.948C190.744 111.656 187.746 110.223 184.437 110.223C178.377 110.223 173.507 115.255 173.507 121.464C173.507 127.673 178.512 132.705 184.667 132.705C187.541 132.705 190.108 131.672 192.055 129.984C194.703 127.689 192.197 124.21 188.693 124.21H185.357C184.199 124.21 183.26 123.271 183.26 122.113C183.26 120.955 184.199 120.017 185.357 120.017H198.783C199.839 120.017 200.791 120.828 200.791 121.883C200.656 130.554 193.595 137.751 184.437 137.751Z" fill="white"/>
<path d="M58.6486 96.3579C44.7563 96.3579 33.4883 107.626 33.4883 121.518C33.4883 135.411 44.7563 146.679 58.6486 146.679C72.5409 146.679 83.8089 135.424 83.8089 121.518C83.7954 107.626 72.5409 96.3579 58.6486 96.3579ZM59.352 137.561C54.2742 137.561 49.2913 135.595 47.5308 131.011C46.9424 129.479 48.289 128.052 49.9305 128.052C51.3625 128.052 52.4796 129.204 53.2793 130.392C54.6464 132.423 57.3183 133.043 59.3385 133.043C62.1386 133.043 65.1686 131.826 65.1686 128.85C65.1686 125.671 61.8545 124.602 57.9317 123.398C51.8716 121.491 47.5294 119.381 47.5294 113.93C47.5294 108.289 52.1962 105.205 58.6756 105.205C63.4115 105.205 67.8479 106.917 69.5346 111.274C70.1291 112.81 68.7852 114.254 67.1383 114.254C65.761 114.254 64.6724 113.181 63.8993 112.041C62.7217 110.305 60.6272 109.641 58.6892 109.641C56.0785 109.641 53.0484 110.764 53.0484 113.7C53.0484 116.784 56.3084 117.717 59.866 118.786C65.6962 120.653 70.6877 122.195 70.6877 128.485C70.6877 134.437 65.8315 137.561 59.352 137.561Z" fill="white"/>
</svg>
