<svg width="160" height="46" viewBox="0 0 160 46" fill="none" xmlns="http://www.w3.org/2000/svg">
<path d="M79.9998 0.0119629C67.3773 0.0119629 57.1392 10.2501 57.1392 22.8726C57.1392 35.4952 67.3773 45.7333 79.9998 45.7333C92.6224 45.7333 102.86 35.4952 102.86 22.8726C102.848 10.2378 92.6224 0.0119629 79.9998 0.0119629ZM82.5071 37.6829H77.468V9.27914H82.5071V37.6829Z" fill="#2C3D56"/>
<path d="M137.139 0C124.517 0 114.279 10.2381 114.279 22.8607C114.279 35.4832 124.517 45.7213 137.139 45.7213C149.762 45.7213 160 35.4832 160 22.8607C159.988 10.2259 149.762 0 137.139 0ZM137.152 37.6095C128.954 37.6095 122.255 30.9602 122.255 22.8607C122.255 14.8471 128.831 8.11185 137.152 8.11185C143.113 8.11185 148.287 11.5041 150.733 16.4572L145.768 17.3053C143.948 14.4661 140.753 12.5979 137.152 12.5979C131.646 12.5979 127.221 17.1701 127.221 22.8115C127.221 28.4529 131.768 33.025 137.361 33.025C142.289 33.025 146.222 29.682 147.255 25.3065H136.082V21.4964H151.888C151.925 22.0003 152.011 22.5165 152.011 23.1925C151.888 31.0708 145.473 37.6095 137.152 37.6095Z" fill="#2C3D56"/>
<path d="M22.8607 0C10.2381 0 0 10.2381 0 22.8607C0 35.4832 10.2381 45.7213 22.8607 45.7213C35.4832 45.7213 45.7213 35.4955 45.7213 22.8607C45.709 10.2381 35.4832 0 22.8607 0ZM23.4998 37.4374C17.9935 37.4374 12.6102 34.8932 12.1801 28.7971H17.2193C17.6494 32.3613 21.0785 33.3323 23.4875 33.3323C26.0316 33.3323 28.7847 32.2261 28.7847 29.5222C28.7847 26.6339 25.7736 25.6629 22.2093 24.5691C16.703 22.8361 12.7577 20.9187 12.7577 15.9656C12.7577 10.8404 16.998 8.03811 22.8852 8.03811C28.0596 8.03811 32.8407 10.2873 33.3569 16.2606H28.4037C27.8998 13.1633 25.2696 12.0695 22.8975 12.0695C20.5254 12.0695 17.7723 13.0896 17.7723 15.7567C17.7723 18.5589 20.7344 19.407 23.9668 20.378C29.2641 22.0741 33.7994 23.4752 33.7994 29.1904C33.7994 34.5983 29.387 37.4374 23.4998 37.4374Z" fill="#2C3D56"/>
</svg>
